MFEM mesh v1.0

#
# MFEM Geometry Types (see fem/geom.hpp):
#
# POINT       = 0
# SEGMENT     = 1
# TRIANGLE    = 2
# SQUARE      = 3
# TETRAHEDRON = 4
# CUBE        = 5
# PRISM       = 6
# PYRAMID     = 7
#

dimension
3

elements
48
1 7 0 1 4 3 27
1 7 0 9 10 1 27
1 7 1 10 13 4 27
1 7 4 13 12 3 27
1 7 3 12 9 0 27
1 7 12 13 10 9 27
1 7 1 2 5 4 28
1 7 1 10 11 2 28
1 7 2 11 14 5 28
1 7 5 14 13 4 28
1 7 4 13 10 1 28
1 7 13 14 11 10 28
1 7 3 4 7 6 29
1 7 3 12 13 4 29
1 7 4 13 16 7 29
1 7 7 16 15 6 29
1 7 6 15 12 3 29
1 7 15 16 13 12 29
1 7 4 5 8 7 30
1 7 4 13 14 5 30
1 7 5 14 17 8 30
1 7 8 17 16 7 30
1 7 7 16 13 4 30
1 7 16 17 14 13 30
1 7 9 10 13 12 31
1 7 9 18 19 10 31
1 7 10 19 22 13 31
1 7 13 22 21 12 31
1 7 12 21 18 9 31
1 7 21 22 19 18 31
1 7 10 11 14 13 32
1 7 10 19 20 11 32
1 7 11 20 23 14 32
1 7 14 23 22 13 32
1 7 13 22 19 10 32
1 7 22 23 20 19 32
1 7 12 13 16 15 33
1 7 12 21 22 13 33
1 7 13 22 25 16 33
1 7 16 25 24 15 33
1 7 15 24 21 12 33
1 7 24 25 22 21 33
1 7 13 14 17 16 34
1 7 13 22 23 14 34
1 7 14 23 26 17 34
1 7 17 26 25 16 34
1 7 16 25 22 13 34
1 7 25 26 23 22 34

boundary
24
1 3 0 3 4 1
1 3 1 4 5 2
1 3 3 6 7 4
1 3 4 7 8 5
6 3 18 19 22 21
6 3 19 20 23 22
6 3 21 22 25 24
6 3 22 23 26 25
5 3 0 9 12 3
5 3 3 12 15 6
5 3 9 18 21 12
5 3 12 21 24 15
3 3 2 5 14 11
3 3 5 8 17 14
3 3 11 14 23 20
3 3 14 17 26 23
2 3 0 1 10 9
2 3 9 10 19 18
2 3 1 2 11 10
2 3 10 11 20 19
4 3 6 15 16 7
4 3 15 24 25 16
4 3 7 16 17 8
4 3 16 25 26 17

vertices
35
3
0 0 0
0.5 0 0
1 0 0
0 0.5 0
0.5 0.5 0
1 0.5 0
0 1 0
0.5 1 0
1 1 0
0 0 0.5
0.5 0 0.5
1 0 0.5
0 0.5 0.5
0.5 0.5 0.5
1 0.5 0.5
0 1 0.5
0.5 1 0.5
1 1 0.5
0 0 1
0.5 0 1
1 0 1
0 0.5 1
0.5 0.5 1
1 0.5 1
0 1 1
0.5 1 1
1 1 1
0.25 0.25 0.25
0.75 0.25 0.25
0.25 0.75 0.25
0.75 0.75 0.25
0.25 0.25 0.75
0.75 0.25 0.75
0.25 0.75 0.75
0.75 0.75 0.75
