MFEM mesh v1.0

#
# MFEM Geometry Types (see fem/geom.hpp):
#
# POINT       = 0
# SEGMENT     = 1
# TRIANGLE    = 2
# SQUARE      = 3
# TETRAHEDRON = 4
# CUBE        = 5
# PRISM       = 6
# PYRAMID     = 7
#

dimension
3

elements
8
1 6 0 1 4 9 10 13
1 6 0 4 3 9 13 12
1 6 1 2 5 10 11 14
1 6 1 5 4 10 14 13
1 6 3 4 7 12 13 16
1 6 3 7 6 12 16 15
1 6 4 5 8 13 14 17
1 6 4 8 7 13 17 16

boundary
24
1 2 0 3 4
1 2 0 4 1
1 2 1 4 5
1 2 1 5 2
1 2 3 6 7
1 2 3 7 4
1 2 4 7 8
1 2 4 8 5
6 2 9 10 13
6 2 9 13 12
6 2 10 11 14
6 2 10 14 13
6 2 12 13 16
6 2 12 16 15
6 2 13 14 17
6 2 13 17 16
5 3 0 9 12 3
5 3 3 12 15 6
3 3 2 5 14 11
3 3 5 8 17 14
2 3 0 1 10 9
2 3 1 2 11 10
4 3 6 15 16 7
4 3 7 16 17 8

vertices
18
3
0 0 0
0.5 0 0
1 0 0
0 0.5 0
0.5 0.5 0
1 0.5 0
0 1 0
0.5 1 0
1 1 0
0 0 1
0.5 0 1
1 0 1
0 0.5 1
0.5 0.5 1
1 0.5 1
0 1 1
0.5 1 1
1 1 1
