MFEM mesh v1.0

dimension
3

elements
40
2 4 4 11 12 13
2 4 11 5 14 15
2 4 12 14 7 16
2 4 13 15 16 10
2 4 11 12 14 13
2 4 12 14 16 13
2 4 11 14 15 13
2 4 14 15 16 13
2 4 4 12 17 13
2 4 12 7 18 16
2 4 17 18 8 19
2 4 13 16 19 10
2 4 12 17 18 13
2 4 17 18 19 13
2 4 12 18 16 13
2 4 18 16 19 13
2 4 5 20 14 15
2 4 20 9 21 22
2 4 14 21 7 16
2 4 15 22 16 10
2 4 20 14 21 15
2 4 14 21 16 15
2 4 20 21 22 15
2 4 21 22 16 15
2 4 4 11 13 23
2 4 11 5 15 24
2 4 13 15 10 25
2 4 23 24 25 6
2 4 11 13 15 23
2 4 13 15 25 23
2 4 11 15 24 23
2 4 15 24 25 23
2 6 1 29 28 26 33 32
2 6 29 3 30 33 31 34
2 6 28 30 2 32 34 27
2 6 29 30 28 33 34 32
2 6 26 33 32 4 23 11
2 6 33 31 34 23 6 24
2 6 32 34 27 11 24 5
2 6 33 34 32 23 24 11

boundary
52
1 2 12 17 18
1 2 7 12 18
11 2 6 24 25
1 2 13 23 25
16 2 5 15 24
1 2 28 29 30
2 3 1 26 29 33
1 2 13 17 19
1 2 7 14 21
23 2 7 16 18
2 2 2 28 30
1 3 4 11 26 32
16 2 9 20 22
11 2 10 16 22
1 2 16 18 19
1 3 5 11 27 32
11 2 10 13 19
11 2 10 15 22
2 2 1 28 29
11 2 10 16 19
1 2 4 11 12
2 3 3 30 31 34
1 3 2 27 28 32
2 3 3 29 31 33
16 2 9 21 22
1 2 5 14 20
11 2 6 23 25
2 2 3 29 30
11 3 6 23 31 33
11 3 6 24 31 34
16 3 5 24 27 34
1 2 15 24 25
11 2 4 13 17
11 3 4 23 26 33
1 2 15 20 22
11 2 8 17 19
1 2 7 12 14
1 2 8 17 18
1 2 14 20 21
1 3 1 26 28 32
1 2 5 11 14
2 3 2 27 30 34
11 2 10 15 25
16 2 5 15 20
11 2 8 18 19
23 2 7 16 21
11 2 4 13 23
11 2 10 13 25
1 2 9 20 21
1 2 16 21 22
1 2 11 12 14
1 2 4 12 17

vertices
34
3
 1 0 -1
 0 1 -1
 1 1 -1
 1 0 0
 0 1 0
 1 1 0
 0 0 1
 1 0 1
 0 1 1
 1 1 1
 0.5 0.5 0
 0.5 0 0.5
 1 0.5 0.5
 0 0.5 0.5
 0.5 1 0.5
 0.5 0.5 1
 1 0 0.5
 0.5 0 1
 1 0.5 1
 0 1 0.5
 0 0.5 1
 0.5 1 1
 1 0.5 0
 0.5 1 0
 1 1 0.5
 1 0 -0.5
 0 1 -0.5
 0.5 0.5 -1
 1 0.5 -1
 0.5 1 -1
 1 1 -0.5
 0.5 0.5 -0.5
 1 0.5 -0.5
 0.5 1 -0.5
