MFEM mesh v1.0

dimension
2

elements
8
0 0 1 4 2
1 0 4 3 2
2 1 2 5 2
3 1 5 4 2
4 3 4 7 2
5 3 7 6 2
6 4 5 8 2
7 4 8 7 2

boundary
0

vertices
9
-1.000000000000000e0 -1.000000000000000e0
0.000000000000000e0 -1.000000000000000e0
1.000000000000000e0 -1.000000000000000e0
-1.000000000000000e0 0.000000000000000e0
0.000000000000000e0 0.000000000000000e0
1.000000000000000e0 0.000000000000000e0
-1.000000000000000e0 1.000000000000000e0
0.000000000000000e0 1.000000000000000e0
1.000000000000000e0 1.000000000000000e0
