MFEM mesh v1.0

dimension
2

elements
2048
1 2 1 579 580
1 2 579 2 446
1 2 580 446 18
1 2 579 446 580
1 2 2 444 446
1 2 444 19 445
1 2 446 445 18
1 2 444 445 446
1 2 2 1087 444
1 2 1087 3 798
1 2 444 798 19
1 2 1087 798 444
1 2 3 456 798
1 2 456 20 797
1 2 798 797 19
1 2 456 797 798
1 2 3 454 456
1 2 454 4 455
1 2 456 455 20
1 2 454 455 456
1 2 4 555 455
1 2 555 21 556
1 2 455 556 20
1 2 555 556 455
1 2 4 1082 555
1 2 1082 5 884
1 2 555 884 21
1 2 1082 884 555
1 2 5 883 884
1 2 883 22 400
1 2 884 400 21
1 2 883 400 884
1 2 5 1083 883
1 2 1083 6 541
1 2 883 541 22
1 2 1083 541 883
1 2 6 540 541
1 2 540 23 515
1 2 541 515 22
1 2 540 515 541
1 2 6 1021 540
1 2 1021 7 1022
1 2 540 1022 23
1 2 1021 1022 540
1 2 7 913 1022
1 2 913 24 1036
1 2 1022 1036 23
1 2 913 1036 1022
1 2 7 912 913
1 2 912 8 524
1 2 913 524 24
1 2 912 524 913
1 2 8 523 524
1 2 523 25 370
1 2 524 370 24
1 2 523 370 524
1 2 8 888 523
1 2 888 9 889
1 2 523 889 25
1 2 888 889 523
1 2 9 936 889
1 2 936 26 356
1 2 889 356 25
1 2 936 356 889
1 2 9 934 936
1 2 934 10 935
1 2 936 935 26
1 2 934 935 936
1 2 10 310 935
1 2 310 27 512
1 2 935 512 26
1 2 310 512 935
1 2 10 308 310
1 2 308 11 309
1 2 310 309 27
1 2 308 309 310
1 2 11 994 309
1 2 994 28 982
1 2 309 982 27
1 2 994 982 309
1 2 11 1027 994
1 2 1027 12 609
1 2 994 609 28
1 2 1027 609 994
1 2 12 607 609
1 2 607 29 608
1 2 609 608 28
1 2 607 608 609
1 2 12 786 607
1 2 786 13 567
1 2 607 567 29
1 2 786 567 607
1 2 13 565 567
1 2 565 30 566
1 2 567 566 29
1 2 565 566 567
1 2 13 1018 565
1 2 1018 14 606
1 2 565 606 30
1 2 1018 606 565
1 2 14 604 606
1 2 604 31 605
1 2 606 605 30
1 2 604 605 606
1 2 14 984 604
1 2 984 15 474
1 2 604 474 31
1 2 984 474 604
1 2 15 472 474
1 2 472 32 473
1 2 474 473 31
1 2 472 473 474
1 2 15 1076 472
1 2 1076 16 873
1 2 472 873 32
1 2 1076 873 472
1 2 16 872 873
1 2 872 33 462
1 2 873 462 32
1 2 872 462 873
1 2 16 1043 872
1 2 1043 17 483
1 2 872 483 33
1 2 1043 483 872
1 2 17 481 483
1 2 481 34 482
1 2 483 482 33
1 2 481 482 483
1 2 18 445 1039
1 2 445 19 537
1 2 1039 537 35
1 2 445 537 1039
1 2 19 535 537
1 2 535 36 536
1 2 537 536 35
1 2 535 536 537
1 2 19 797 535
1 2 797 20 896
1 2 535 896 36
1 2 797 896 535
1 2 20 796 896
1 2 796 37 951
1 2 896 951 36
1 2 796 951 896
1 2 20 556 796
1 2 556 21 476
1 2 796 476 37
1 2 556 476 796
1 2 21 402 476
1 2 402 38 475
1 2 476 475 37
1 2 402 475 476
1 2 21 400 402
1 2 400 22 401
1 2 402 401 38
1 2 400 401 402
1 2 22 517 401
1 2 517 39 769
1 2 401 769 38
1 2 517 769 401
1 2 22 515 517
1 2 515 23 516
1 2 517 516 39
1 2 515 516 517
1 2 23 527 516
1 2 527 40 528
1 2 516 528 39
1 2 527 528 516
1 2 23 1036 527
1 2 1036 24 1049
1 2 527 1049 40
1 2 1036 1049 527
1 2 24 372 1049
1 2 372 41 467
1 2 1049 467 40
1 2 372 467 1049
1 2 24 370 372
1 2 370 25 371
1 2 372 371 41
1 2 370 371 372
1 2 25 358 371
1 2 358 42 789
1 2 371 789 41
1 2 358 789 371
1 2 25 356 358
1 2 356 26 357
1 2 358 357 42
1 2 356 357 358
1 2 26 514 357
1 2 514 43 727
1 2 357 727 42
1 2 514 727 357
1 2 26 512 514
1 2 512 27 513
1 2 514 513 43
1 2 512 513 514
1 2 27 745 513
1 2 745 44 746
1 2 513 746 43
1 2 745 746 513
1 2 27 982 745
1 2 982 28 983
1 2 745 983 44
1 2 982 983 745
1 2 28 993 983
1 2 993 45 353
1 2 983 353 44
1 2 993 353 983
1 2 28 608 993
1 2 608 29 973
1 2 993 973 45
1 2 608 973 993
1 2 29 764 973
1 2 764 46 438
1 2 973 438 45
1 2 764 438 973
1 2 29 566 764
1 2 566 30 571
1 2 764 571 46
1 2 566 571 764
1 2 30 569 571
1 2 569 47 570
1 2 571 570 46
1 2 569 570 571
1 2 30 605 569
1 2 605 31 847
1 2 569 847 47
1 2 605 847 569
1 2 31 862 847
1 2 862 48 937
1 2 847 937 47
1 2 862 937 847
1 2 31 473 862
1 2 473 32 861
1 2 862 861 48
1 2 473 861 862
1 2 32 464 861
1 2 464 49 1033
1 2 861 1033 48
1 2 464 1033 861
1 2 32 462 464
1 2 462 33 463
1 2 464 463 49
1 2 462 463 464
1 2 33 525 463
1 2 525 50 526
1 2 463 526 49
1 2 525 526 463
1 2 33 482 525
1 2 482 34 366
1 2 525 366 50
1 2 482 366 525
1 2 34 364 366
1 2 364 51 365
1 2 366 365 50
1 2 364 365 366
1 2 35 536 865
1 2 536 36 612
1 2 865 612 52
1 2 536 612 865
1 2 36 610 612
1 2 610 53 611
1 2 612 611 52
1 2 610 611 612
1 2 36 951 610
1 2 951 37 952
1 2 610 952 53
1 2 951 952 610
1 2 37 844 952
1 2 844 54 1077
1 2 952 1077 53
1 2 844 1077 952
1 2 37 475 844
1 2 475 38 301
1 2 844 301 54
1 2 475 301 844
1 2 38 299 301
1 2 299 55 300
1 2 301 300 54
1 2 299 300 301
1 2 38 769 299
1 2 769 39 770
1 2 299 770 55
1 2 769 770 299
1 2 39 992 770
1 2 992 56 918
1 2 770 918 55
1 2 992 918 770
1 2 39 528 992
1 2 528 40 808
1 2 992 808 56
1 2 528 808 992
1 2 40 468 808
1 2 468 57 787
1 2 808 787 56
1 2 468 787 808
1 2 40 467 468
1 2 467 41 322
1 2 468 322 57
1 2 467 322 468
1 2 41 320 322
1 2 320 58 321
1 2 322 321 57
1 2 320 321 322
1 2 41 789 320
1 2 789 42 790
1 2 320 790 58
1 2 789 790 320
1 2 42 742 790
1 2 742 59 581
1 2 790 581 58
1 2 742 581 790
1 2 42 727 742
1 2 727 43 741
1 2 742 741 59
1 2 727 741 742
1 2 43 743 741
1 2 743 60 744
1 2 741 744 59
1 2 743 744 741
1 2 43 746 743
1 2 746 44 765
1 2 743 765 60
1 2 746 765 743
1 2 44 355 765
1 2 355 61 661
1 2 765 661 60
1 2 355 661 765
1 2 44 353 355
1 2 353 45 354
1 2 355 354 61
1 2 353 354 355
1 2 45 440 354
1 2 440 62 647
1 2 354 647 61
1 2 440 647 354
1 2 45 438 440
1 2 438 46 439
1 2 440 439 62
1 2 438 439 440
1 2 46 623 439
1 2 623 63 624
1 2 439 624 62
1 2 623 624 439
1 2 46 570 623
1 2 570 47 871
1 2 623 871 63
1 2 570 871 623
1 2 47 938 871
1 2 938 64 939
1 2 871 939 63
1 2 938 939 871
1 2 47 937 938
1 2 937 48 921
1 2 938 921 64
1 2 937 921 938
1 2 48 920 921
1 2 920 65 625
1 2 921 625 64
1 2 920 625 921
1 2 48 1033 920
1 2 1033 49 1048
1 2 920 1048 65
1 2 1033 1048 920
1 2 49 1047 1048
1 2 1047 66 676
1 2 1048 676 65
1 2 1047 676 1048
1 2 49 526 1047
1 2 526 50 458
1 2 1047 458 66
1 2 526 458 1047
1 2 50 441 458
1 2 441 67 457
1 2 458 457 66
1 2 441 457 458
1 2 50 365 441
1 2 365 51 304
1 2 441 304 67
1 2 365 304 441
1 2 51 302 304
1 2 302 68 303
1 2 304 303 67
1 2 302 303 304
1 2 52 611 986
1 2 611 53 652
1 2 986 652 69
1 2 611 652 986
1 2 53 650 652
1 2 650 70 651
1 2 652 651 69
1 2 650 651 652
1 2 53 1077 650
1 2 1077 54 957
1 2 650 957 70
1 2 1077 957 650
1 2 54 426 957
1 2 426 71 956
1 2 957 956 70
1 2 426 956 957
1 2 54 300 426
1 2 300 55 425
1 2 426 425 71
1 2 300 425 426
1 2 55 919 425
1 2 919 72 487
1 2 425 487 71
1 2 919 487 425
1 2 55 918 919
1 2 918 56 615
1 2 919 615 72
1 2 918 615 919
1 2 56 613 615
1 2 613 73 614
1 2 615 614 72
1 2 613 614 615
1 2 56 787 613
1 2 787 57 788
1 2 613 788 73
1 2 787 788 613
1 2 57 578 788
1 2 578 74 816
1 2 788 816 73
1 2 578 816 788
1 2 57 321 578
1 2 321 58 577
1 2 578 577 74
1 2 321 577 578
1 2 58 583 577
1 2 583 75 941
1 2 577 941 74
1 2 583 941 577
1 2 58 581 583
1 2 581 59 582
1 2 583 582 75
1 2 581 582 583
1 2 59 723 582
1 2 723 76 648
1 2 582 648 75
1 2 723 648 582
1 2 59 744 723
1 2 744 60 843
1 2 723 843 76
1 2 744 843 723
1 2 60 663 843
1 2 663 77 842
1 2 843 842 76
1 2 663 842 843
1 2 60 661 663
1 2 661 61 662
1 2 663 662 77
1 2 661 662 663
1 2 61 840 662
1 2 840 78 405
1 2 662 405 77
1 2 840 405 662
1 2 61 647 840
1 2 647 62 554
1 2 840 554 78
1 2 647 554 840
1 2 62 552 554
1 2 552 79 553
1 2 554 553 78
1 2 552 553 554
1 2 62 624 552
1 2 624 63 443
1 2 552 443 79
1 2 624 443 552
1 2 63 442 443
1 2 442 80 346
1 2 443 346 79
1 2 442 346 443
1 2 63 939 442
1 2 939 64 940
1 2 442 940 80
1 2 939 940 442
1 2 64 627 940
1 2 627 81 805
1 2 940 805 80
1 2 627 805 940
1 2 64 625 627
1 2 625 65 626
1 2 627 626 81
1 2 625 626 627
1 2 65 678 626
1 2 678 82 876
1 2 626 876 81
1 2 678 876 626
1 2 65 676 678
1 2 676 66 677
1 2 678 677 82
1 2 676 677 678
1 2 66 564 677
1 2 564 83 693
1 2 677 693 82
1 2 564 693 677
1 2 66 457 564
1 2 457 67 563
1 2 564 563 83
1 2 457 563 564
1 2 67 664 563
1 2 664 84 665
1 2 563 665 83
1 2 664 665 563
1 2 67 303 664
1 2 303 68 860
1 2 664 860 84
1 2 303 860 664
1 2 68 1089 860
1 2 1089 85 378
1 2 860 378 84
1 2 1089 378 860
1 2 69 651 914
1 2 651 70 713
1 2 914 713 86
1 2 651 713 914
1 2 70 711 713
1 2 711 87 712
1 2 713 712 86
1 2 711 712 713
1 2 70 956 711
1 2 956 71 399
1 2 711 399 87
1 2 956 399 711
1 2 71 397 399
1 2 397 88 398
1 2 399 398 87
1 2 397 398 399
1 2 71 487 397
1 2 487 72 377
1 2 397 377 88
1 2 487 377 397
1 2 72 375 377
1 2 375 89 376
1 2 377 376 88
1 2 375 376 377
1 2 72 614 375
1 2 614 73 1006
1 2 375 1006 89
1 2 614 1006 375
1 2 73 818 1006
1 2 818 90 977
1 2 1006 977 89
1 2 818 977 1006
1 2 73 816 818
1 2 816 74 817
1 2 818 817 90
1 2 816 817 818
1 2 74 943 817
1 2 943 91 980
1 2 817 980 90
1 2 943 980 817
1 2 74 941 943
1 2 941 75 942
1 2 943 942 91
1 2 941 942 943
1 2 75 649 942
1 2 649 92 961
1 2 942 961 91
1 2 649 961 942
1 2 75 648 649
1 2 648 76 498
1 2 649 498 92
1 2 648 498 649
1 2 76 496 498
1 2 496 93 497
1 2 498 497 92
1 2 496 497 498
1 2 76 842 496
1 2 842 77 1069
1 2 496 1069 93
1 2 842 1069 496
1 2 77 407 1069
1 2 407 94 996
1 2 1069 996 93
1 2 407 996 1069
1 2 77 405 407
1 2 405 78 406
1 2 407 406 94
1 2 405 406 407
1 2 78 995 406
1 2 995 95 381
1 2 406 381 94
1 2 995 381 406
1 2 78 553 995
1 2 553 79 333
1 2 995 333 95
1 2 553 333 995
1 2 79 331 333
1 2 331 96 332
1 2 333 332 95
1 2 331 332 333
1 2 79 346 331
1 2 346 80 347
1 2 331 347 96
1 2 346 347 331
1 2 80 807 347
1 2 807 97 666
1 2 347 666 96
1 2 807 666 347
1 2 80 805 807
1 2 805 81 806
1 2 807 806 97
1 2 805 806 807
1 2 81 878 806
1 2 878 98 811
1 2 806 811 97
1 2 878 811 806
1 2 81 876 878
1 2 876 82 877
1 2 878 877 98
1 2 876 877 878
1 2 82 695 877
1 2 695 99 784
1 2 877 784 98
1 2 695 784 877
1 2 82 693 695
1 2 693 83 694
1 2 695 694 99
1 2 693 694 695
1 2 83 1001 694
1 2 1001 100 1029
1 2 694 1029 99
1 2 1001 1029 694
1 2 83 665 1001
1 2 665 84 900
1 2 1001 900 100
1 2 665 900 1001
1 2 84 380 900
1 2 380 101 899
1 2 900 899 100
1 2 380 899 900
1 2 84 378 380
1 2 378 85 379
1 2 380 379 101
1 2 378 379 380
1 2 85 1078 379
1 2 1078 102 633
1 2 379 633 101
1 2 1078 633 379
1 2 86 712 1072
1 2 712 87 1024
1 2 1072 1024 103
1 2 712 1024 1072
1 2 87 1023 1024
1 2 1023 104 469
1 2 1024 469 103
1 2 1023 469 1024
1 2 87 398 1023
1 2 398 88 573
1 2 1023 573 104
1 2 398 573 1023
1 2 88 539 573
1 2 539 105 572
1 2 573 572 104
1 2 539 572 573
1 2 88 376 539
1 2 376 89 538
1 2 539 538 105
1 2 376 538 539
1 2 89 978 538
1 2 978 106 1041
1 2 538 1041 105
1 2 978 1041 538
1 2 89 977 978
1 2 977 90 292
1 2 978 292 106
1 2 977 292 978
1 2 90 290 292
1 2 290 107 291
1 2 292 291 106
1 2 290 291 292
1 2 90 980 290
1 2 980 91 959
1 2 290 959 107
1 2 980 959 290
1 2 91 958 959
1 2 958 108 499
1 2 959 499 107
1 2 958 499 959
1 2 91 961 958
1 2 961 92 962
1 2 958 962 108
1 2 961 962 958
1 2 92 1034 962
1 2 1034 109 803
1 2 962 803 108
1 2 1034 803 962
1 2 92 497 1034
1 2 497 93 1019
1 2 1034 1019 109
1 2 497 1019 1034
1 2 93 997 1019
1 2 997 110 975
1 2 1019 975 109
1 2 997 975 1019
1 2 93 996 997
1 2 996 94 336
1 2 997 336 110
1 2 996 336 997
1 2 94 334 336
1 2 334 111 335
1 2 336 335 110
1 2 334 335 336
1 2 94 381 334
1 2 381 95 382
1 2 334 382 111
1 2 381 382 334
1 2 95 447 382
1 2 447 112 448
1 2 382 448 111
1 2 447 448 382
1 2 95 332 447
1 2 332 96 703
1 2 447 703 112
1 2 332 703 447
1 2 96 668 703
1 2 668 113 887
1 2 703 887 112
1 2 668 887 703
1 2 96 666 668
1 2 666 97 667
1 2 668 667 113
1 2 666 667 668
1 2 97 813 667
1 2 813 114 1042
1 2 667 1042 113
1 2 813 1042 667
1 2 97 811 813
1 2 811 98 812
1 2 813 812 114
1 2 811 812 813
1 2 98 785 812
1 2 785 115 641
1 2 812 641 114
1 2 785 641 812
1 2 98 784 785
1 2 784 99 720
1 2 785 720 115
1 2 784 720 785
1 2 99 718 720
1 2 718 116 719
1 2 720 719 115
1 2 718 719 720
1 2 99 1029 718
1 2 1029 100 776
1 2 718 776 116
1 2 1029 776 718
1 2 100 775 776
1 2 775 117 542
1 2 776 542 116
1 2 775 542 776
1 2 100 899 775
1 2 899 101 630
1 2 775 630 117
1 2 899 630 775
1 2 101 628 630
1 2 628 118 629
1 2 630 629 117
1 2 628 629 630
1 2 101 633 628
1 2 633 102 634
1 2 628 634 118
1 2 633 634 628
1 2 102 945 634
1 2 945 119 946
1 2 634 946 118
1 2 945 946 634
1 2 103 469 471
1 2 469 104 470
1 2 471 470 120
1 2 469 470 471
1 2 104 944 470
1 2 944 121 809
1 2 470 809 120
1 2 944 809 470
1 2 104 572 944
1 2 572 105 1071
1 2 944 1071 121
1 2 572 1071 944
1 2 105 1065 1071
1 2 1065 122 1079
1 2 1071 1079 121
1 2 1065 1079 1071
1 2 105 1041 1065
1 2 1041 106 1064
1 2 1065 1064 122
1 2 1041 1064 1065
1 2 106 466 1064
1 2 466 123 1053
1 2 1064 1053 122
1 2 466 1053 1064
1 2 106 291 466
1 2 291 107 465
1 2 466 465 123
1 2 291 465 466
1 2 107 501 465
1 2 501 124 584
1 2 465 584 123
1 2 501 584 465
1 2 107 499 501
1 2 499 108 500
1 2 501 500 124
1 2 499 500 501
1 2 108 804 500
1 2 804 125 672
1 2 500 672 124
1 2 804 672 500
1 2 108 803 804
1 2 803 109 688
1 2 804 688 125
1 2 803 688 804
1 2 109 686 688
1 2 686 126 687
1 2 688 687 125
1 2 686 687 688
1 2 109 975 686
1 2 975 110 976
1 2 686 976 126
1 2 975 976 686
1 2 110 349 976
1 2 349 127 635
1 2 976 635 126
1 2 349 635 976
1 2 110 335 349
1 2 335 111 348
1 2 349 348 127
1 2 335 348 349
1 2 111 544 348
1 2 544 128 545
1 2 348 545 127
1 2 544 545 348
1 2 111 448 544
1 2 448 112 985
1 2 544 985 128
1 2 448 985 544
1 2 112 998 985
1 2 998 129 716
1 2 985 716 128
1 2 998 716 985
1 2 112 887 998
1 2 887 113 1058
1 2 998 1058 129
1 2 887 1058 998
1 2 113 1061 1058
1 2 1061 130 724
1 2 1058 724 129
1 2 1061 724 1058
1 2 113 1042 1061
1 2 1042 114 715
1 2 1061 715 130
1 2 1042 715 1061
1 2 114 643 715
1 2 643 131 714
1 2 715 714 130
1 2 643 714 715
1 2 114 641 643
1 2 641 115 642
1 2 643 642 131
1 2 641 642 643
1 2 115 895 642
1 2 895 132 638
1 2 642 638 131
1 2 895 638 642
1 2 115 719 895
1 2 719 116 434
1 2 895 434 132
1 2 719 434 895
1 2 116 432 434
1 2 432 133 433
1 2 434 433 132
1 2 432 433 434
1 2 116 542 432
1 2 542 117 543
1 2 432 543 133
1 2 542 543 432
1 2 117 709 543
1 2 709 134 710
1 2 543 710 133
1 2 709 710 543
1 2 117 629 709
1 2 629 118 1026
1 2 709 1026 134
1 2 629 1026 709
1 2 118 1032 1026
1 2 1032 135 971
1 2 1026 971 134
1 2 1032 971 1026
1 2 118 946 1032
1 2 946 119 933
1 2 1032 933 135
1 2 946 933 1032
1 2 119 931 933
1 2 931 136 932
1 2 933 932 135
1 2 931 932 933
1 2 120 809 810
1 2 809 121 603
1 2 810 603 137
1 2 809 603 810
1 2 121 601 603
1 2 601 138 602
1 2 603 602 137
1 2 601 602 603
1 2 121 1079 601
1 2 1079 122 1081
1 2 601 1081 138
1 2 1079 1081 601
1 2 122 1054 1081
1 2 1054 139 1016
1 2 1081 1016 138
1 2 1054 1016 1081
1 2 122 1053 1054
1 2 1053 123 864
1 2 1054 864 139
1 2 1053 864 1054
1 2 123 585 864
1 2 585 140 863
1 2 864 863 139
1 2 585 863 864
1 2 123 584 585
1 2 584 124 327
1 2 585 327 140
1 2 584 327 585
1 2 124 325 327
1 2 325 141 326
1 2 327 326 140
1 2 325 326 327
1 2 124 672 325
1 2 672 125 520
1 2 325 520 141
1 2 672 520 325
1 2 125 518 520
1 2 518 142 519
1 2 520 519 141
1 2 518 519 520
1 2 125 687 518
1 2 687 126 979
1 2 518 979 142
1 2 687 979 518
1 2 126 637 979
1 2 637 143 885
1 2 979 885 142
1 2 637 885 979
1 2 126 635 637
1 2 635 127 636
1 2 637 636 143
1 2 635 636 637
1 2 127 829 636
1 2 829 144 529
1 2 636 529 143
1 2 829 529 636
1 2 127 545 829
1 2 545 128 691
1 2 829 691 144
1 2 545 691 829
1 2 128 689 691
1 2 689 145 690
1 2 691 690 144
1 2 689 690 691
1 2 128 716 689
1 2 716 129 717
1 2 689 717 145
1 2 716 717 689
1 2 129 726 717
1 2 726 146 644
1 2 717 644 145
1 2 726 644 717
1 2 129 724 726
1 2 724 130 725
1 2 726 725 146
1 2 724 725 726
1 2 130 751 725
1 2 751 147 451
1 2 725 451 146
1 2 751 451 725
1 2 130 714 751
1 2 714 131 750
1 2 751 750 147
1 2 714 750 751
1 2 131 640 750
1 2 640 148 488
1 2 750 488 147
1 2 640 488 750
1 2 131 638 640
1 2 638 132 639
1 2 640 639 148
1 2 638 639 640
1 2 132 800 639
1 2 800 149 830
1 2 639 830 148
1 2 800 830 639
1 2 132 433 800
1 2 433 133 799
1 2 800 799 149
1 2 433 799 800
1 2 133 795 799
1 2 795 150 906
1 2 799 906 149
1 2 795 906 799
1 2 133 710 795
1 2 710 134 768
1 2 795 768 150
1 2 710 768 795
1 2 134 767 768
1 2 767 151 359
1 2 768 359 150
1 2 767 359 768
1 2 134 971 767
1 2 971 135 972
1 2 767 972 151
1 2 971 972 767
1 2 135 1044 972
1 2 1044 152 1045
1 2 972 1045 151
1 2 1044 1045 972
1 2 135 932 1044
1 2 932 136 850
1 2 1044 850 152
1 2 932 850 1044
1 2 136 848 850
1 2 848 153 849
1 2 850 849 152
1 2 848 849 850
1 2 137 602 622
1 2 602 138 621
1 2 622 621 154
1 2 602 621 622
1 2 138 1010 621
1 2 1010 155 373
1 2 621 373 154
1 2 1010 373 621
1 2 138 1016 1010
1 2 1016 139 486
1 2 1010 486 155
1 2 1016 486 1010
1 2 139 484 486
1 2 484 156 485
1 2 486 485 155
1 2 484 485 486
1 2 139 863 484
1 2 863 140 868
1 2 484 868 156
1 2 863 868 484
1 2 140 866 868
1 2 866 157 867
1 2 868 867 156
1 2 866 867 868
1 2 140 326 866
1 2 326 141 1067
1 2 866 1067 157
1 2 326 1067 866
1 2 141 1066 1067
1 2 1066 158 293
1 2 1067 293 157
1 2 1066 293 1067
1 2 141 519 1066
1 2 519 142 749
1 2 1066 749 158
1 2 519 749 1066
1 2 142 747 749
1 2 747 159 748
1 2 749 748 158
1 2 747 748 749
1 2 142 885 747
1 2 885 143 886
1 2 747 886 159
1 2 885 886 747
1 2 143 531 886
1 2 531 160 773
1 2 886 773 159
1 2 531 773 886
1 2 143 529 531
1 2 529 144 530
1 2 531 530 160
1 2 529 530 531
1 2 144 1007 530
1 2 1007 161 477
1 2 530 477 160
1 2 1007 477 530
1 2 144 690 1007
1 2 690 145 1055
1 2 1007 1055 161
1 2 690 1055 1007
1 2 145 646 1055
1 2 646 162 1051
1 2 1055 1051 161
1 2 646 1051 1055
1 2 145 644 646
1 2 644 146 645
1 2 646 645 162
1 2 644 645 646
1 2 146 453 645
1 2 453 163 966
1 2 645 966 162
1 2 453 966 645
1 2 146 451 453
1 2 451 147 452
1 2 453 452 163
1 2 451 452 453
1 2 147 490 452
1 2 490 164 692
1 2 452 692 163
1 2 490 692 452
1 2 147 488 490
1 2 488 148 489
1 2 490 489 164
1 2 488 489 490
1 2 148 739 489
1 2 739 165 740
1 2 489 740 164
1 2 739 740 489
1 2 148 830 739
1 2 830 149 307
1 2 739 307 165
1 2 830 307 739
1 2 149 305 307
1 2 305 166 306
1 2 307 306 165
1 2 305 306 307
1 2 149 906 305
1 2 906 150 999
1 2 305 999 166
1 2 906 999 305
1 2 150 361 999
1 2 361 167 392
1 2 999 392 166
1 2 361 392 999
1 2 150 359 361
1 2 359 151 360
1 2 361 360 167
1 2 359 360 361
1 2 151 1020 360
1 2 1020 168 435
1 2 360 435 167
1 2 1020 435 360
1 2 151 1045 1020
1 2 1045 152 1050
1 2 1020 1050 168
1 2 1045 1050 1020
1 2 152 1085 1050
1 2 1085 169 777
1 2 1050 777 168
1 2 1085 777 1050
1 2 152 849 1085
1 2 849 153 1084
1 2 1085 1084 169
1 2 849 1084 1085
1 2 153 1086 1084
1 2 1086 170 833
1 2 1084 833 169
1 2 1086 833 1084
1 2 154 373 374
1 2 373 155 316
1 2 374 316 171
1 2 373 316 374
1 2 155 314 316
1 2 314 172 315
1 2 316 315 171
1 2 314 315 316
1 2 155 485 314
1 2 485 156 879
1 2 314 879 172
1 2 485 879 314
1 2 156 1011 879
1 2 1011 173 1012
1 2 879 1012 172
1 2 1011 1012 879
1 2 156 867 1011
1 2 867 157 915
1 2 1011 915 173
1 2 867 915 1011
1 2 157 295 915
1 2 295 174 427
1 2 915 427 173
1 2 295 427 915
1 2 157 293 295
1 2 293 158 294
1 2 295 294 174
1 2 293 294 295
1 2 158 1074 294
1 2 1074 175 953
1 2 294 953 174
1 2 1074 953 294
1 2 158 748 1074
1 2 748 159 1073
1 2 1074 1073 175
1 2 748 1073 1074
1 2 159 774 1073
1 2 774 176 757
1 2 1073 757 175
1 2 774 757 1073
1 2 159 773 774
1 2 773 160 330
1 2 774 330 176
1 2 773 330 774
1 2 160 328 330
1 2 328 177 329
1 2 330 329 176
1 2 328 329 330
1 2 160 477 328
1 2 477 161 478
1 2 328 478 177
1 2 477 478 328
1 2 161 1004 478
1 2 1004 178 1005
1 2 478 1005 177
1 2 1004 1005 478
1 2 161 1051 1004
1 2 1051 162 708
1 2 1004 708 178
1 2 1051 708 1004
1 2 162 707 708
1 2 707 179 521
1 2 708 521 178
1 2 707 521 708
1 2 162 966 707
1 2 966 163 1028
1 2 707 1028 179
1 2 966 1028 707
1 2 163 852 1028
1 2 852 180 704
1 2 1028 704 179
1 2 852 704 1028
1 2 163 692 852
1 2 692 164 851
1 2 852 851 180
1 2 692 851 852
1 2 164 929 851
1 2 929 181 969
1 2 851 969 180
1 2 929 969 851
1 2 164 740 929
1 2 740 165 928
1 2 929 928 181
1 2 740 928 929
1 2 165 772 928
1 2 772 182 590
1 2 928 590 181
1 2 772 590 928
1 2 165 306 772
1 2 306 166 771
1 2 772 771 182
1 2 306 771 772
1 2 166 394 771
1 2 394 183 987
1 2 771 987 182
1 2 394 987 771
1 2 166 392 394
1 2 392 167 393
1 2 394 393 183
1 2 392 393 394
1 2 167 437 393
1 2 437 184 350
1 2 393 350 183
1 2 437 350 393
1 2 167 435 437
1 2 435 168 436
1 2 437 436 184
1 2 435 436 437
1 2 168 670 436
1 2 670 185 671
1 2 436 671 184
1 2 670 671 436
1 2 168 777 670
1 2 777 169 507
1 2 670 507 185
1 2 777 507 670
1 2 169 505 507
1 2 505 186 506
1 2 507 506 185
1 2 505 506 507
1 2 169 833 505
1 2 833 170 834
1 2 505 834 186
1 2 833 834 505
1 2 170 1088 834
1 2 1088 187 825
1 2 834 825 186
1 2 1088 825 834
1 2 171 315 1060
1 2 315 172 600
1 2 1060 600 188
1 2 315 600 1060
1 2 172 598 600
1 2 598 189 599
1 2 600 599 188
1 2 598 599 600
1 2 172 1012 598
1 2 1012 173 410
1 2 598 410 189
1 2 1012 410 598
1 2 173 408 410
1 2 408 190 409
1 2 410 409 189
1 2 408 409 410
1 2 173 427 408
1 2 427 174 428
1 2 408 428 190
1 2 427 428 408
1 2 174 955 428
1 2 955 191 841
1 2 428 841 190
1 2 955 841 428
1 2 174 953 955
1 2 953 175 954
1 2 955 954 191
1 2 953 954 955
1 2 175 759 954
1 2 759 192 323
1 2 954 323 191
1 2 759 323 954
1 2 175 757 759
1 2 757 176 758
1 2 759 758 192
1 2 757 758 759
1 2 176 761 758
1 2 761 193 479
1 2 758 479 192
1 2 761 479 758
1 2 176 329 761
1 2 329 177 760
1 2 761 760 193
1 2 329 760 761
1 2 177 911 760
1 2 911 194 721
1 2 760 721 193
1 2 911 721 760
1 2 177 1005 911
1 2 1005 178 1080
1 2 911 1080 194
1 2 1005 1080 911
1 2 178 522 1080
1 2 522 195 963
1 2 1080 963 194
1 2 522 963 1080
1 2 178 521 522
1 2 521 179 404
1 2 522 404 195
1 2 521 404 522
1 2 179 403 404
1 2 403 196 383
1 2 404 383 195
1 2 403 383 404
1 2 179 704 403
1 2 704 180 705
1 2 403 705 196
1 2 704 705 403
1 2 180 970 705
1 2 970 197 903
1 2 705 903 196
1 2 970 903 705
1 2 180 969 970
1 2 969 181 828
1 2 970 828 197
1 2 969 828 970
1 2 181 592 828
1 2 592 198 386
1 2 828 386 197
1 2 592 386 828
1 2 181 590 592
1 2 590 182 591
1 2 592 591 198
1 2 590 591 592
1 2 182 1052 591
1 2 1052 199 869
1 2 591 869 198
1 2 1052 869 591
1 2 182 987 1052
1 2 987 183 492
1 2 1052 492 199
1 2 987 492 1052
1 2 183 352 492
1 2 352 200 491
1 2 492 491 199
1 2 352 491 492
1 2 183 350 352
1 2 350 184 351
1 2 352 351 200
1 2 350 351 352
1 2 184 362 351
1 2 362 201 363
1 2 351 363 200
1 2 362 363 351
1 2 184 671 362
1 2 671 185 1056
1 2 362 1056 201
1 2 671 1056 362
1 2 185 968 1056
1 2 968 202 557
1 2 1056 557 201
1 2 968 557 1056
1 2 185 506 968
1 2 506 186 967
1 2 968 967 202
1 2 506 967 968
1 2 186 827 967
1 2 827 203 819
1 2 967 819 202
1 2 827 819 967
1 2 186 825 827
1 2 825 187 826
1 2 827 826 203
1 2 825 826 827
1 2 187 1030 826
1 2 1030 204 1031
1 2 826 1031 203
1 2 1030 1031 826
1 2 188 599 632
1 2 599 189 631
1 2 632 631 205
1 2 599 631 632
1 2 189 859 631
1 2 859 206 950
1 2 631 950 205
1 2 859 950 631
1 2 189 409 859
1 2 409 190 815
1 2 859 815 206
1 2 409 815 859
1 2 190 814 815
1 2 814 207 459
1 2 815 459 206
1 2 814 459 815
1 2 190 841 814
1 2 841 191 412
1 2 814 412 207
1 2 841 412 814
1 2 191 324 412
1 2 324 208 411
1 2 412 411 207
1 2 324 411 412
1 2 191 323 324
1 2 323 192 298
1 2 324 298 208
1 2 323 298 324
1 2 192 296 298
1 2 296 209 297
1 2 298 297 208
1 2 296 297 298
1 2 192 479 296
1 2 479 193 480
1 2 296 480 209
1 2 479 480 296
1 2 193 722 480
1 2 722 210 890
1 2 480 890 209
1 2 722 890 480
1 2 193 721 722
1 2 721 194 656
1 2 722 656 210
1 2 721 656 722
1 2 194 654 656
1 2 654 211 655
1 2 656 655 210
1 2 654 655 656
1 2 194 963 654
1 2 963 195 763
1 2 654 763 211
1 2 963 763 654
1 2 195 385 763
1 2 385 212 762
1 2 763 762 211
1 2 385 762 763
1 2 195 383 385
1 2 383 196 384
1 2 385 384 212
1 2 383 384 385
1 2 196 905 384
1 2 905 213 416
1 2 384 416 212
1 2 905 416 384
1 2 196 903 905
1 2 903 197 904
1 2 905 904 213
1 2 903 904 905
1 2 197 388 904
1 2 388 214 752
1 2 904 752 213
1 2 388 752 904
1 2 197 386 388
1 2 386 198 387
1 2 388 387 214
1 2 386 387 388
1 2 198 870 387
1 2 870 215 853
1 2 387 853 214
1 2 870 853 387
1 2 198 869 870
1 2 869 199 675
1 2 870 675 215
1 2 869 675 870
1 2 199 673 675
1 2 673 216 674
1 2 675 674 215
1 2 673 674 675
1 2 199 491 673
1 2 491 200 551
1 2 673 551 216
1 2 491 551 673
1 2 200 549 551
1 2 549 217 550
1 2 551 550 216
1 2 549 550 551
1 2 200 363 549
1 2 363 201 587
1 2 549 587 217
1 2 363 587 549
1 2 201 559 587
1 2 559 218 586
1 2 587 586 217
1 2 559 586 587
1 2 201 557 559
1 2 557 202 558
1 2 559 558 218
1 2 557 558 559
1 2 202 821 558
1 2 821 219 778
1 2 558 778 218
1 2 821 778 558
1 2 202 819 821
1 2 819 203 820
1 2 821 820 219
1 2 819 820 821
1 2 203 916 820
1 2 916 220 917
1 2 820 917 219
1 2 916 917 820
1 2 203 1031 916
1 2 1031 204 990
1 2 916 990 220
1 2 1031 990 916
1 2 204 988 990
1 2 988 221 989
1 2 990 989 220
1 2 988 989 990
1 2 205 950 1015
1 2 950 206 509
1 2 1015 509 222
1 2 950 509 1015
1 2 206 461 509
1 2 461 223 508
1 2 509 508 222
1 2 461 508 509
1 2 206 459 461
1 2 459 207 460
1 2 461 460 223
1 2 459 460 461
1 2 207 831 460
1 2 831 224 832
1 2 460 832 223
1 2 831 832 460
1 2 207 411 831
1 2 411 208 1000
1 2 831 1000 224
1 2 411 1000 831
1 2 208 396 1000
1 2 396 225 560
1 2 1000 560 224
1 2 396 560 1000
1 2 208 297 396
1 2 297 209 395
1 2 396 395 225
1 2 297 395 396
1 2 209 794 395
1 2 794 226 781
1 2 395 781 225
1 2 794 781 395
1 2 209 890 794
1 2 890 210 891
1 2 794 891 226
1 2 890 891 794
1 2 210 875 891
1 2 875 227 930
1 2 891 930 226
1 2 875 930 891
1 2 210 655 875
1 2 655 211 874
1 2 875 874 227
1 2 655 874 875
1 2 211 846 874
1 2 846 228 909
1 2 874 909 227
1 2 846 909 874
1 2 211 762 846
1 2 762 212 845
1 2 846 845 228
1 2 762 845 846
1 2 212 418 845
1 2 418 229 901
1 2 845 901 228
1 2 418 901 845
1 2 212 416 418
1 2 416 213 417
1 2 418 417 229
1 2 416 417 418
1 2 213 754 417
1 2 754 230 822
1 2 417 822 229
1 2 754 822 417
1 2 213 752 754
1 2 752 214 753
1 2 754 753 230
1 2 752 753 754
1 2 214 855 753
1 2 855 231 419
1 2 753 419 230
1 2 855 419 753
1 2 214 853 855
1 2 853 215 854
1 2 855 854 231
1 2 853 854 855
1 2 215 729 854
1 2 729 232 618
1 2 854 618 231
1 2 729 618 854
1 2 215 674 729
1 2 674 216 728
1 2 729 728 232
1 2 674 728 729
1 2 216 1075 728
1 2 1075 233 923
1 2 728 923 232
1 2 1075 923 728
1 2 216 550 1075
1 2 550 217 927
1 2 1075 927 233
1 2 550 927 1075
1 2 217 617 927
1 2 617 234 926
1 2 927 926 233
1 2 617 926 927
1 2 217 586 617
1 2 586 218 616
1 2 617 616 234
1 2 586 616 617
1 2 218 780 616
1 2 780 235 922
1 2 616 922 234
1 2 780 922 616
1 2 218 778 780
1 2 778 219 779
1 2 780 779 235
1 2 778 779 780
1 2 219 974 779
1 2 974 236 657
1 2 779 657 235
1 2 974 657 779
1 2 219 917 974
1 2 917 220 595
1 2 974 595 236
1 2 917 595 974
1 2 220 593 595
1 2 593 237 594
1 2 595 594 236
1 2 593 594 595
1 2 220 989 593
1 2 989 221 836
1 2 593 836 237
1 2 989 836 593
1 2 221 835 836
1 2 835 238 683
1 2 836 683 237
1 2 835 683 836
1 2 222 508 894
1 2 508 223 702
1 2 894 702 239
1 2 508 702 894
1 2 223 700 702
1 2 700 240 701
1 2 702 701 239
1 2 700 701 702
1 2 223 832 700
1 2 832 224 568
1 2 700 568 240
1 2 832 568 700
1 2 224 562 568
1 2 562 241 389
1 2 568 389 240
1 2 562 389 568
1 2 224 560 562
1 2 560 225 561
1 2 562 561 241
1 2 560 561 562
1 2 225 782 561
1 2 782 242 791
1 2 561 791 241
1 2 782 791 561
1 2 225 781 782
1 2 781 226 339
1 2 782 339 242
1 2 781 339 782
1 2 226 337 339
1 2 337 243 338
1 2 339 338 242
1 2 337 338 339
1 2 226 930 337
1 2 930 227 858
1 2 337 858 243
1 2 930 858 337
1 2 227 856 858
1 2 856 244 857
1 2 858 857 243
1 2 856 857 858
1 2 227 909 856
1 2 909 228 910
1 2 856 910 244
1 2 909 910 856
1 2 228 902 910
1 2 902 245 964
1 2 910 964 244
1 2 902 964 910
1 2 228 901 902
1 2 901 229 839
1 2 902 839 245
1 2 901 839 902
1 2 229 837 839
1 2 837 246 838
1 2 839 838 245
1 2 837 838 839
1 2 229 822 837
1 2 822 230 981
1 2 837 981 246
1 2 822 981 837
1 2 230 421 981
1 2 421 247 449
1 2 981 449 246
1 2 421 449 981
1 2 230 419 421
1 2 419 231 420
1 2 421 420 247
1 2 419 420 421
1 2 231 620 420
1 2 620 248 730
1 2 420 730 247
1 2 620 730 420
1 2 231 618 620
1 2 618 232 619
1 2 620 619 248
1 2 618 619 620
1 2 232 925 619
1 2 925 249 1025
1 2 619 1025 248
1 2 925 1025 619
1 2 232 923 925
1 2 923 233 924
1 2 925 924 249
1 2 923 924 925
1 2 233 1059 924
1 2 1059 250 679
1 2 924 679 249
1 2 1059 679 924
1 2 233 926 1059
1 2 926 234 736
1 2 1059 736 250
1 2 926 736 1059
1 2 234 735 736
1 2 735 251 493
1 2 736 493 250
1 2 735 493 736
1 2 234 922 735
1 2 922 235 576
1 2 735 576 251
1 2 922 576 735
1 2 235 574 576
1 2 574 252 575
1 2 576 575 251
1 2 574 575 576
1 2 235 657 574
1 2 657 236 658
1 2 574 658 252
1 2 657 658 574
1 2 236 908 658
1 2 908 253 755
1 2 658 755 252
1 2 908 755 658
1 2 236 594 908
1 2 594 237 907
1 2 908 907 253
1 2 594 907 908
1 2 237 685 907
1 2 685 254 991
1 2 907 991 253
1 2 685 991 907
1 2 237 683 685
1 2 683 238 684
1 2 685 684 254
1 2 683 684 685
1 2 238 792 684
1 2 792 255 793
1 2 684 793 254
1 2 792 793 684
1 2 239 701 1070
1 2 701 240 734
1 2 1070 734 256
1 2 701 734 1070
1 2 240 391 734
1 2 391 257 502
1 2 734 502 256
1 2 391 502 734
1 2 240 389 391
1 2 389 241 390
1 2 391 390 257
1 2 389 390 391
1 2 241 947 390
1 2 947 258 1037
1 2 390 1037 257
1 2 947 1037 390
1 2 241 791 947
1 2 791 242 424
1 2 947 424 258
1 2 791 424 947
1 2 242 422 424
1 2 422 259 423
1 2 424 423 258
1 2 422 423 424
1 2 242 338 422
1 2 338 243 682
1 2 422 682 259
1 2 338 682 422
1 2 243 898 682
1 2 898 260 546
1 2 682 546 259
1 2 898 546 682
1 2 243 857 898
1 2 857 244 897
1 2 898 897 260
1 2 857 897 898
1 2 244 965 897
1 2 965 261 413
1 2 897 413 260
1 2 965 413 897
1 2 244 964 965
1 2 964 245 597
1 2 965 597 261
1 2 964 597 965
1 2 245 596 597
1 2 596 262 317
1 2 597 317 261
1 2 596 317 597
1 2 245 838 596
1 2 838 246 345
1 2 596 345 262
1 2 838 345 596
1 2 246 343 345
1 2 343 263 344
1 2 345 344 262
1 2 343 344 345
1 2 246 449 343
1 2 449 247 450
1 2 343 450 263
1 2 449 450 343
1 2 247 824 450
1 2 824 264 429
1 2 450 429 263
1 2 824 429 450
1 2 247 730 824
1 2 730 248 823
1 2 824 823 264
1 2 730 823 824
1 2 248 1063 823
1 2 1063 265 1002
1 2 823 1002 264
1 2 1063 1002 823
1 2 248 1025 1063
1 2 1025 249 738
1 2 1063 738 265
1 2 1025 738 1063
1 2 249 681 738
1 2 681 266 737
1 2 738 737 265
1 2 681 737 738
1 2 249 679 681
1 2 679 250 680
1 2 681 680 266
1 2 679 680 681
1 2 250 495 680
1 2 495 267 880
1 2 680 880 266
1 2 495 880 680
1 2 250 493 495
1 2 493 251 494
1 2 495 494 267
1 2 493 494 495
1 2 251 1062 494
1 2 1062 268 1068
1 2 494 1068 267
1 2 1062 1068 494
1 2 251 575 1062
1 2 575 252 733
1 2 1062 733 268
1 2 575 733 1062
1 2 252 731 733
1 2 731 269 732
1 2 733 732 268
1 2 731 732 733
1 2 252 755 731
1 2 755 253 756
1 2 731 756 269
1 2 755 756 731
1 2 253 766 756
1 2 766 270 532
1 2 756 532 269
1 2 766 532 756
1 2 253 991 766
1 2 991 254 1014
1 2 766 1014 270
1 2 991 1014 766
1 2 254 1013 1014
1 2 1013 271 696
1 2 1014 696 270
1 2 1013 696 1014
1 2 254 793 1013
1 2 793 255 369
1 2 1013 369 271
1 2 793 369 1013
1 2 255 367 369
1 2 367 272 368
1 2 369 368 271
1 2 367 368 369
1 2 256 502 504
1 2 502 257 503
1 2 504 503 273
1 2 502 503 504
1 2 257 801 503
1 2 801 274 802
1 2 503 802 273
1 2 801 802 503
1 2 257 1037 801
1 2 1037 258 342
1 2 801 342 274
1 2 1037 342 801
1 2 258 340 342
1 2 340 275 341
1 2 342 341 274
1 2 340 341 342
1 2 258 423 340
1 2 423 259 653
1 2 340 653 275
1 2 423 653 340
1 2 259 548 653
1 2 548 276 1035
1 2 653 1035 275
1 2 548 1035 653
1 2 259 546 548
1 2 546 260 547
1 2 548 547 276
1 2 546 547 548
1 2 260 415 547
1 2 415 277 783
1 2 547 783 276
1 2 415 783 547
1 2 260 413 415
1 2 413 261 414
1 2 415 414 277
1 2 413 414 415
1 2 261 319 414
1 2 319 278 1017
1 2 414 1017 277
1 2 319 1017 414
1 2 261 317 319
1 2 317 262 318
1 2 319 318 278
1 2 317 318 319
1 2 262 669 318
1 2 669 279 699
1 2 318 699 278
1 2 669 699 318
1 2 262 344 669
1 2 344 263 660
1 2 669 660 279
1 2 344 660 669
1 2 263 431 660
1 2 431 280 659
1 2 660 659 279
1 2 431 659 660
1 2 263 429 431
1 2 429 264 430
1 2 431 430 280
1 2 429 430 431
1 2 264 510 430
1 2 510 281 511
1 2 430 511 280
1 2 510 511 430
1 2 264 1002 510
1 2 1002 265 1003
1 2 510 1003 281
1 2 1002 1003 510
1 2 265 893 1003
1 2 893 282 1046
1 2 1003 1046 281
1 2 893 1046 1003
1 2 265 737 893
1 2 737 266 892
1 2 893 892 282
1 2 737 892 893
1 2 266 882 892
1 2 882 283 960
1 2 892 960 282
1 2 882 960 892
1 2 266 880 882
1 2 880 267 881
1 2 882 881 283
1 2 880 881 882
1 2 267 1008 881
1 2 1008 284 1009
1 2 881 1009 283
1 2 1008 1009 881
1 2 267 1068 1008
1 2 1068 268 313
1 2 1008 313 284
1 2 1068 313 1008
1 2 268 311 313
1 2 311 285 312
1 2 313 312 284
1 2 311 312 313
1 2 268 732 311
1 2 732 269 1038
1 2 311 1038 285
1 2 732 1038 311
1 2 269 534 1038
1 2 534 286 1057
1 2 1038 1057 285
1 2 534 1057 1038
1 2 269 532 534
1 2 532 270 533
1 2 534 533 286
1 2 532 533 534
1 2 270 698 533
1 2 698 287 706
1 2 533 706 286
1 2 698 706 533
1 2 270 696 698
1 2 696 271 697
1 2 698 697 287
1 2 696 697 698
1 2 271 589 697
1 2 589 288 1040
1 2 697 1040 287
1 2 589 1040 697
1 2 271 368 589
1 2 368 272 588
1 2 589 588 288
1 2 368 588 589
1 2 272 948 588
1 2 948 289 949
1 2 588 949 288
1 2 948 949 588

boundary
128
1 1 1 579
1 1 579 2
2 1 17 481
2 1 481 34
3 1 274 802
3 1 802 273
4 1 18 580
4 1 580 1
1 1 2 1087
1 1 1087 3
2 1 34 364
2 1 364 51
3 1 275 341
3 1 341 274
4 1 35 1039
4 1 1039 18
1 1 3 454
1 1 454 4
2 1 51 302
2 1 302 68
3 1 276 1035
3 1 1035 275
4 1 52 865
4 1 865 35
1 1 4 1082
1 1 1082 5
2 1 68 1089
2 1 1089 85
3 1 277 783
3 1 783 276
4 1 69 986
4 1 986 52
1 1 5 1083
1 1 1083 6
2 1 85 1078
2 1 1078 102
3 1 278 1017
3 1 1017 277
4 1 86 914
4 1 914 69
1 1 6 1021
1 1 1021 7
2 1 102 945
2 1 945 119
3 1 279 699
3 1 699 278
4 1 103 1072
4 1 1072 86
1 1 7 912
1 1 912 8
2 1 119 931
2 1 931 136
3 1 280 659
3 1 659 279
4 1 120 471
4 1 471 103
1 1 8 888
1 1 888 9
2 1 136 848
2 1 848 153
3 1 281 511
3 1 511 280
4 1 137 810
4 1 810 120
1 1 9 934
1 1 934 10
2 1 153 1086
2 1 1086 170
3 1 282 1046
3 1 1046 281
4 1 154 622
4 1 622 137
1 1 10 308
1 1 308 11
2 1 170 1088
2 1 1088 187
3 1 283 960
3 1 960 282
4 1 171 374
4 1 374 154
1 1 11 1027
1 1 1027 12
2 1 187 1030
2 1 1030 204
3 1 284 1009
3 1 1009 283
4 1 188 1060
4 1 1060 171
1 1 12 786
1 1 786 13
2 1 204 988
2 1 988 221
3 1 285 312
3 1 312 284
4 1 205 632
4 1 632 188
1 1 13 1018
1 1 1018 14
2 1 221 835
2 1 835 238
3 1 286 1057
3 1 1057 285
4 1 222 1015
4 1 1015 205
1 1 14 984
1 1 984 15
2 1 238 792
2 1 792 255
3 1 287 706
3 1 706 286
4 1 239 894
4 1 894 222
1 1 15 1076
1 1 1076 16
2 1 255 367
2 1 367 272
3 1 288 1040
3 1 1040 287
4 1 256 1070
4 1 1070 239
1 1 16 1043
1 1 1043 17
2 1 272 948
2 1 948 289
3 1 289 949
3 1 949 288
4 1 273 504
4 1 504 256

vertices
1089
2
 0 0
 0.0625 0
 0.125 0
 0.1875 0
 0.25 0
 0.3125 0
 0.375 0
 0.4375 0
 0.5 0
 0.5625 0
 0.625 0
 0.6875 0
 0.75 0
 0.8125 0
 0.875 0
 0.9375 0
 1 0
 0 0.0625
 0.0625 0.0625
 0.125 0.0625
 0.1875 0.0625
 0.25 0.0625
 0.3125 0.0625
 0.375 0.0625
 0.4375 0.0625
 0.5 0.0625
 0.5625 0.0625
 0.625 0.0625
 0.6875 0.0625
 0.75 0.0625
 0.8125 0.0625
 0.875 0.0625
 0.9375 0.0625
 1 0.0625
 0 0.125
 0.0625 0.125
 0.125 0.125
 0.1875 0.125
 0.25 0.125
 0.3125 0.125
 0.375 0.125
 0.4375 0.125
 0.5 0.125
 0.5625 0.125
 0.625 0.125
 0.6875 0.125
 0.75 0.125
 0.8125 0.125
 0.875 0.125
 0.9375 0.125
 1 0.125
 0 0.1875
 0.0625 0.1875
 0.125 0.1875
 0.1875 0.1875
 0.25 0.1875
 0.3125 0.1875
 0.375 0.1875
 0.4375 0.1875
 0.5 0.1875
 0.5625 0.1875
 0.625 0.1875
 0.6875 0.1875
 0.75 0.1875
 0.8125 0.1875
 0.875 0.1875
 0.9375 0.1875
 1 0.1875
 0 0.25
 0.0625 0.25
 0.125 0.25
 0.1875 0.25
 0.25 0.25
 0.3125 0.25
 0.375 0.25
 0.4375 0.25
 0.5 0.25
 0.5625 0.25
 0.625 0.25
 0.6875 0.25
 0.75 0.25
 0.8125 0.25
 0.875 0.25
 0.9375 0.25
 1 0.25
 0 0.3125
 0.0625 0.3125
 0.125 0.3125
 0.1875 0.3125
 0.25 0.3125
 0.3125 0.3125
 0.375 0.3125
 0.4375 0.3125
 0.5 0.3125
 0.5625 0.3125
 0.625 0.3125
 0.6875 0.3125
 0.75 0.3125
 0.8125 0.3125
 0.875 0.3125
 0.9375 0.3125
 1 0.3125
 0 0.375
 0.0625 0.375
 0.125 0.375
 0.1875 0.375
 0.25 0.375
 0.3125 0.375
 0.375 0.375
 0.4375 0.375
 0.5 0.375
 0.5625 0.375
 0.625 0.375
 0.6875 0.375
 0.75 0.375
 0.8125 0.375
 0.875 0.375
 0.9375 0.375
 1 0.375
 0 0.4375
 0.0625 0.4375
 0.125 0.4375
 0.1875 0.4375
 0.25 0.4375
 0.3125 0.4375
 0.375 0.4375
 0.4375 0.4375
 0.5 0.4375
 0.5625 0.4375
 0.625 0.4375
 0.6875 0.4375
 0.75 0.4375
 0.8125 0.4375
 0.875 0.4375
 0.9375 0.4375
 1 0.4375
 0 0.5
 0.0625 0.5
 0.125 0.5
 0.1875 0.5
 0.25 0.5
 0.3125 0.5
 0.375 0.5
 0.4375 0.5
 0.5 0.5
 0.5625 0.5
 0.625 0.5
 0.6875 0.5
 0.75 0.5
 0.8125 0.5
 0.875 0.5
 0.9375 0.5
 1 0.5
 0 0.5625
 0.0625 0.5625
 0.125 0.5625
 0.1875 0.5625
 0.25 0.5625
 0.3125 0.5625
 0.375 0.5625
 0.4375 0.5625
 0.5 0.5625
 0.5625 0.5625
 0.625 0.5625
 0.6875 0.5625
 0.75 0.5625
 0.8125 0.5625
 0.875 0.5625
 0.9375 0.5625
 1 0.5625
 0 0.625
 0.0625 0.625
 0.125 0.625
 0.1875 0.625
 0.25 0.625
 0.3125 0.625
 0.375 0.625
 0.4375 0.625
 0.5 0.625
 0.5625 0.625
 0.625 0.625
 0.6875 0.625
 0.75 0.625
 0.8125 0.625
 0.875 0.625
 0.9375 0.625
 1 0.625
 0 0.6875
 0.0625 0.6875
 0.125 0.6875
 0.1875 0.6875
 0.25 0.6875
 0.3125 0.6875
 0.375 0.6875
 0.4375 0.6875
 0.5 0.6875
 0.5625 0.6875
 0.625 0.6875
 0.6875 0.6875
 0.75 0.6875
 0.8125 0.6875
 0.875 0.6875
 0.9375 0.6875
 1 0.6875
 0 0.75
 0.0625 0.75
 0.125 0.75
 0.1875 0.75
 0.25 0.75
 0.3125 0.75
 0.375 0.75
 0.4375 0.75
 0.5 0.75
 0.5625 0.75
 0.625 0.75
 0.6875 0.75
 0.75 0.75
 0.8125 0.75
 0.875 0.75
 0.9375 0.75
 1 0.75
 0 0.8125
 0.0625 0.8125
 0.125 0.8125
 0.1875 0.8125
 0.25 0.8125
 0.3125 0.8125
 0.375 0.8125
 0.4375 0.8125
 0.5 0.8125
 0.5625 0.8125
 0.625 0.8125
 0.6875 0.8125
 0.75 0.8125
 0.8125 0.8125
 0.875 0.8125
 0.9375 0.8125
 1 0.8125
 0 0.875
 0.0625 0.875
 0.125 0.875
 0.1875 0.875
 0.25 0.875
 0.3125 0.875
 0.375 0.875
 0.4375 0.875
 0.5 0.875
 0.5625 0.875
 0.625 0.875
 0.6875 0.875
 0.75 0.875
 0.8125 0.875
 0.875 0.875
 0.9375 0.875
 1 0.875
 0 0.9375
 0.0625 0.9375
 0.125 0.9375
 0.1875 0.9375
 0.25 0.9375
 0.3125 0.9375
 0.375 0.9375
 0.4375 0.9375
 0.5 0.9375
 0.5625 0.9375
 0.625 0.9375
 0.6875 0.9375
 0.75 0.9375
 0.8125 0.9375
 0.875 0.9375
 0.9375 0.9375
 1 0.9375
 0 1
 0.0625 1
 0.125 1
 0.1875 1
 0.25 1
 0.3125 1
 0.375 1
 0.4375 1
 0.5 1
 0.5625 1
 0.625 1
 0.6875 1
 0.75 1
 0.8125 1
 0.875 1
 0.9375 1
 1 1
 0.25 0.34375
 0.21875 0.375
 0.21875 0.34375
 0.21875 0.5625
 0.21875 0.59375
 0.1875 0.59375
 0.25 0.71875
 0.21875 0.75
 0.21875 0.71875
 0.1875 0.15625
 0.15625 0.1875
 0.15625 0.15625
 1 0.15625
 0.96875 0.1875
 0.96875 0.15625
 0.75 0.53125
 0.71875 0.5625
 0.71875 0.53125
 0.59375 0
 0.59375 0.03125
 0.5625 0.03125
 0.75 0.96875
 0.71875 1
 0.71875 0.96875
 0.0625 0.59375
 0.03125 0.625
 0.03125 0.59375
 0.34375 0.9375
 0.34375 0.96875
 0.3125 0.96875
 0.375 0.15625
 0.34375 0.1875
 0.34375 0.15625
 0.21875 0.6875
 0.1875 0.71875
 0.25 0.46875
 0.21875 0.5
 0.21875 0.46875
 0.375 0.59375
 0.34375 0.625
 0.34375 0.59375
 0.625 0.28125
 0.59375 0.3125
 0.59375 0.28125
 0.5 0.34375
 0.46875 0.375
 0.46875 0.34375
 0.25 0.84375
 0.21875 0.875
 0.21875 0.84375
 0.125 0.96875
 0.09375 1
 0.09375 0.96875
 0.4375 0.90625
 0.40625 0.9375
 0.40625 0.90625
 0.65625 0.25
 0.65625 0.28125
 0.46875 0.40625
 0.4375 0.40625
 0.78125 0.625
 0.78125 0.65625
 0.75 0.65625
 0.59375 0.125
 0.59375 0.15625
 0.5625 0.15625
 0.46875 0.0625
 0.46875 0.09375
 0.4375 0.09375
 0.84375 0.5
 0.84375 0.53125
 0.8125 0.53125
 0.8125 0.65625
 0.78125 0.6875
 1 0.09375
 0.96875 0.125
 0.96875 0.09375
 1 0.90625
 0.96875 0.9375
 0.96875 0.90625
 0.40625 0.0625
 0.40625 0.09375
 0.375 0.09375
 0.03125 0.5625
 0 0.59375
 0.1875 0.28125
 0.15625 0.3125
 0.15625 0.28125
 0.96875 0.25
 0.96875 0.28125
 0.9375 0.28125
 0.53125 0.3125
 0.53125 0.34375
 0.46875 0.6875
 0.46875 0.71875
 0.4375 0.71875
 0.59375 0.6875
 0.59375 0.71875
 0.5625 0.71875
 0.09375 0.875
 0.09375 0.90625
 0.0625 0.90625
 0.78125 0.5625
 0.78125 0.59375
 0.75 0.59375
 0.21875 0.78125
 0.1875 0.78125
 0.125 0.28125
 0.09375 0.3125
 0.09375 0.28125
 0.21875 0.0625
 0.21875 0.09375
 0.1875 0.09375
 0.5 0.65625
 0.46875 0.65625
 0.53125 0.25
 0.53125 0.28125
 0.5 0.28125
 0.125 0.65625
 0.09375 0.6875
 0.09375 0.65625
 0.15625 0.75
 0.15625 0.71875
 0.28125 0.9375
 0.28125 0.96875
 0.25 0.96875
 0.46875 0.75
 0.46875 0.78125
 0.4375 0.78125
 0.53125 0.8125
 0.53125 0.84375
 0.5 0.84375
 0.1875 0.90625
 0.15625 0.9375
 0.15625 0.90625
 0.15625 0.21875
 0.125 0.21875
 0.15625 0.625
 0.15625 0.65625
 0.46875 0.9375
 0.46875 0.96875
 0.4375 0.96875
 0.8125 0.40625
 0.78125 0.4375
 0.78125 0.40625
 0.84375 0.5625
 0.84375 0.59375
 0.8125 0.59375
 0.65625 0.125
 0.65625 0.15625
 0.625 0.15625
 0.9375 0.15625
 0.6875 0.21875
 0.65625 0.21875
 0.0625 0.03125
 0.03125 0.0625
 0.03125 0.03125
 0.5625 0.34375
 0.53125 0.375
 0.46875 0.875
 0.46875 0.90625
 0.59375 0.5
 0.59375 0.53125
 0.5625 0.53125
 0.15625 0
 0.15625 0.03125
 0.125 0.03125
 0.90625 0.1875
 0.90625 0.15625
 0.09375 0.75
 0.09375 0.78125
 0.0625 0.78125
 0.90625 0.0625
 0.90625 0.09375
 0.875 0.09375
 0.21875 0.40625
 0.1875 0.40625
 0.34375 0.125
 0.3125 0.15625
 0.03125 0.375
 0.03125 0.40625
 0 0.40625
 0.875 0.03125
 0.84375 0.0625
 0.84375 0.03125
 0.15625 0.125
 0.15625 0.09375
 0.40625 0.5625
 0.40625 0.59375
 0.28125 0.6875
 0.28125 0.71875
 1 0.03125
 0.96875 0.0625
 0.96875 0.03125
 0.125 0.53125
 0.09375 0.5625
 0.09375 0.53125
 0.15625 0.25
 0.65625 0.5
 0.65625 0.53125
 0.625 0.53125
 0.71875 0.6875
 0.71875 0.65625
 0.71875 0.875
 0.71875 0.90625
 0.6875 0.90625
 0.4375 0.28125
 0.40625 0.3125
 0.40625 0.28125
 0.28125 0.375
 0.28125 0.40625
 0.25 0.40625
 0.03125 0.9375
 0.03125 0.96875
 0 0.96875
 0.9375 0.59375
 0.90625 0.625
 0.90625 0.59375
 0.03125 0.8125
 0.03125 0.78125
 0.5 0.96875
 0.46875 1
 0.53125 0.0625
 0.53125 0.09375
 0.5 0.09375
 0.28125 0.0625
 0.28125 0.09375
 0.25 0.09375
 0.3125 0.46875
 0.28125 0.5
 0.28125 0.46875
 0.46875 0.625
 0.4375 0.65625
 0.4375 0.03125
 0.40625 0.03125
 0.9375 0.09375
 0.90625 0.125
 0.3125 0.09375
 0.28125 0.125
 0.40625 0.5
 0.40625 0.53125
 0.375 0.53125
 0.84375 0.9375
 0.84375 0.96875
 0.8125 0.96875
 0.0625 0.09375
 0.03125 0.125
 0.03125 0.09375
 0.15625 0.34375
 0.125 0.34375
 0.3125 0.03125
 0.28125 0.03125
 0.84375 0.375
 0.84375 0.40625
 0.5 0.40625
 0.46875 0.4375
 0.21875 0.9375
 0.21875 0.96875
 0.1875 0.96875
 0.75 0.71875
 0.71875 0.75
 0.71875 0.71875
 0.625 0.21875
 0.59375 0.25
 0.59375 0.21875
 0.1875 0.03125
 0.15625 0.0625
 0.84375 0.6875
 0.84375 0.71875
 0.8125 0.71875
 0.15625 0.8125
 0.15625 0.84375
 0.125 0.84375
 0.90625 0.21875
 0.875 0.21875
 0.75 0.03125
 0.71875 0.0625
 0.71875 0.03125
 0.09375 0.84375
 0.75 0.09375
 0.71875 0.125
 0.71875 0.09375
 0.09375 0.375
 0.09375 0.34375
 0.8125 0.84375
 0.78125 0.875
 0.78125 0.84375
 0.34375 0.21875
 0.3125 0.21875
 0.03125 0
 0 0.03125
 0.40625 0.1875
 0.40625 0.21875
 0.375 0.21875
 0.21875 0.4375
 0.1875 0.46875
 0.78125 0.75
 0.78125 0.71875
 0.96875 0.96875
 0.9375 0.96875
 0.65625 0.625
 0.65625 0.65625
 0.625 0.65625
 0.9375 0.78125
 0.90625 0.8125
 0.90625 0.78125
 0.375 0.90625
 0.34375 0.90625
 0.0625 0.65625
 0.03125 0.6875
 0.03125 0.65625
 0.0625 0.46875
 0.03125 0.5
 0.03125 0.46875
 0.8125 0.03125
 0.78125 0.0625
 0.78125 0.03125
 0.6875 0.03125
 0.65625 0.0625
 0.65625 0.03125
 0.0625 0.15625
 0.03125 0.1875
 0.03125 0.15625
 0.25 0.21875
 0.21875 0.25
 0.21875 0.21875
 0.78125 0.78125
 0.75 0.78125
 0.59375 0.8125
 0.59375 0.84375
 0.5625 0.84375
 0.03125 0.53125
 0 0.53125
 0.6875 0.15625
 0.65625 0.1875
 0.78125 0.1875
 0.78125 0.21875
 0.75 0.21875
 0.9375 0.34375
 0.90625 0.375
 0.90625 0.34375
 0.03125 0.71875
 0 0.71875
 0.96875 0.3125
 0.96875 0.34375
 0.40625 0.4375
 0.40625 0.46875
 0.375 0.46875
 0.71875 0.4375
 0.71875 0.46875
 0.6875 0.46875
 0.71875 0.375
 0.71875 0.40625
 0.6875 0.40625
 0.53125 0.5
 0.53125 0.53125
 0.5 0.53125
 0.59375 0.1875
 0.40625 0.25
 0.375 0.28125
 0.0625 0.21875
 0.03125 0.25
 0.03125 0.21875
 0.15625 0.96875
 0.375 0.71875
 0.34375 0.75
 0.34375 0.71875
 0.84375 0.8125
 0.84375 0.84375
 0.40625 1
 0.40625 0.96875
 0.53125 0.1875
 0.53125 0.21875
 0.5 0.21875
 0.9375 0.21875
 0.90625 0.25
 0.65625 0.3125
 0.65625 0.34375
 0.625 0.34375
 0.375 0.96875
 0.875 0.59375
 0.84375 0.625
 0.28125 0.4375
 0.6875 0.71875
 0.65625 0.75
 0.65625 0.71875
 0.84375 0.1875
 0.84375 0.21875
 0.8125 0.21875
 0.65625 0.875
 0.65625 0.90625
 0.625 0.90625
 0.21875 0.90625
 0.96875 0.8125
 0.96875 0.84375
 0.9375 0.84375
 0.375 0.40625
 0.34375 0.4375
 0.34375 0.40625
 0.5 0.46875
 0.46875 0.5
 0.46875 0.46875
 0.59375 0.5625
 0.84375 0.25
 0.84375 0.28125
 0.8125 0.28125
 0.90625 0.9375
 0.90625 0.96875
 0.875 0.96875
 0.34375 1
 0.0625 0.84375
 0.03125 0.875
 0.03125 0.84375
 0.59375 0.34375
 0.53125 0.625
 0.53125 0.65625
 0.84375 1
 0.5 0.59375
 0.46875 0.59375
 0.875 0.40625
 0.84375 0.4375
 0.0625 0.28125
 0.03125 0.3125
 0.03125 0.28125
 0.65625 0.4375
 0.65625 0.40625
 0.53125 0.4375
 0.53125 0.46875
 0.8125 0.34375
 0.78125 0.375
 0.78125 0.34375
 0.34375 0.6875
 0.3125 0.71875
 0.4375 0.21875
 0.59375 0.4375
 0.59375 0.46875
 0.5625 0.46875
 0.46875 0.125
 0.65625 0.78125
 0.625 0.78125
 0.53125 0.875
 0.8125 0.90625
 0.78125 0.9375
 0.78125 0.90625
 0.03125 0.90625
 0.75 0.84375
 0.71875 0.84375
 0.59375 0.9375
 0.59375 0.90625
 0.6875 0.53125
 0.65625 0.5625
 0.46875 0.15625
 0.4375 0.15625
 0.5 0.15625
 0.46875 0.1875
 0.5625 0.09375
 0.53125 0.125
 0.3125 0.53125
 0.28125 0.5625
 0.28125 0.53125
 0.65625 0.46875
 0.625 0.46875
 0.53125 0.75
 0.53125 0.78125
 0.5 0.78125
 0.84375 0.875
 0.84375 0.90625
 0.28125 0.625
 0.28125 0.65625
 0.25 0.65625
 0.34375 0.65625
 0.3125 0.65625
 0.40625 0.75
 0.40625 0.71875
 0.6875 0.09375
 0.53125 0.15625
 0.875 0.90625
 0.875 0.46875
 0.84375 0.46875
 0.21875 0.125
 0.21875 0.15625
 0.71875 0.59375
 0.6875 0.59375
 0.34375 0.5625
 0.3125 0.59375
 0.875 0.34375
 0.84375 0.34375
 0.90625 0.5625
 0.84375 0.75
 0.84375 0.78125
 0.8125 0.78125
 0.21875 0.8125
 0.1875 0.84375
 0.21875 1
 0.78125 0.3125
 0.75 0.34375
 0.71875 0
 0.28125 0.1875
 0.28125 0.21875
 0.40625 0.125
 0.40625 0.15625
 0.15625 0.875
 1 0.84375
 0.96875 0.875
 0.25 0.78125
 0.8125 0.46875
 0.125 0.09375
 0.09375 0.0625
 0.09375 0.03125
 0.78125 0.46875
 0.75 0.46875
 0.0625 0.96875
 0.03125 1
 0.34375 0.375
 0.3125 0.40625
 0.71875 0.25
 0.71875 0.28125
 0.6875 0.28125
 0.28125 0.15625
 0.03125 0.4375
 0 0.46875
 0.71875 0.3125
 0.71875 0.34375
 0.6875 0.34375
 0.125 0.71875
 0.09375 0.71875
 0.28125 0.25
 0.28125 0.28125
 0.25 0.28125
 0.90625 0.6875
 0.90625 0.71875
 0.875 0.71875
 0.46875 0.8125
 0.53125 0.90625
 0.5 0.90625
 0.96875 0.625
 0.96875 0.65625
 0.9375 0.65625
 0.59375 0.65625
 0.4375 0.46875
 0.71875 0.5
 0.125 0.78125
 0.09375 0.8125
 0.96875 0.5625
 0.96875 0.59375
 1 0.78125
 0.96875 0.78125
 0.4375 0.84375
 0.40625 0.875
 0.40625 0.84375
 0.5625 0.21875
 0.15625 0.6875
 0.46875 0.25
 0.46875 0.21875
 0.125 0.15625
 0.40625 0.78125
 0.375 0.78125
 0.78125 0.09375
 1 0.46875
 0.96875 0.5
 0.96875 0.46875
 0.59375 0.59375
 0.5625 0.59375
 0.59375 0.75
 0.59375 0.78125
 0.5625 0.78125
 0.3125 0.84375
 0.28125 0.875
 0.28125 0.84375
 0.0625 0.71875
 0.96875 0.21875
 0.84375 0.09375
 0.8125 0.09375
 0.15625 0.5
 0.15625 0.46875
 0 0.15625
 0.1875 0.53125
 0.15625 0.5625
 0.15625 0.53125
 0.65625 0.6875
 0.625 0.71875
 0.71875 0.15625
 0.9375 0.03125
 0.90625 0.03125
 0.34375 0.78125
 0.3125 0.78125
 0.78125 0.25
 0.78125 0.28125
 0.75 0.28125
 0.09375 0.59375
 0.65625 0.9375
 0.65625 0.96875
 0.625 0.96875
 0.25 0.03125
 0.21875 0.03125
 0.34375 0.5
 0.34375 0.53125
 0.59375 0.375
 0.46875 0
 0.46875 0.03125
 0.28125 0.75
 0.28125 0.78125
 0.59375 0.96875
 0.5625 0.96875
 0 0.84375
 0.75 0.40625
 0.09375 0.09375
 0.28125 0.90625
 0.25 0.90625
 0.90625 0.3125
 0.90625 0.28125
 0.40625 0.8125
 0.375 0.84375
 0.53125 0.6875
 0.53125 0.71875
 0.5 0.71875
 0.78125 0.5
 0.90625 0.84375
 0.875 0.84375
 0.34375 0.8125
 0.34375 0.84375
 0.375 0.65625
 0.40625 0
 0.375 0.03125
 0 0.28125
 0.15625 0.59375
 0.9375 0.71875
 0.90625 0.75
 0.21875 0.1875
 0.1875 0.21875
 0.8125 0.15625
 0.78125 0.15625
 0.78125 0.8125
 0.65625 0.8125
 0.65625 0.84375
 0.625 0.84375
 0.71875 0.8125
 0.71875 0.78125
 0.65625 0.59375
 0.625 0.59375
 0.28125 0.8125
 1 0.40625
 0.96875 0.4375
 0.96875 0.40625
 0.53125 0
 0.53125 0.03125
 0.5 0.03125
 0.78125 0.125
 0.75 0.15625
 0.71875 0.1875
 0.71875 0.21875
 0.34375 0.25
 0.34375 0.28125
 0.3125 0.28125
 0.0625 0.40625
 1 0.34375
 0.96875 0.375
 0.125 0.90625
 1 0.96875
 0.96875 1
 0.03125 0.75
 0.09375 0.125
 0.09375 0.15625
 0.21875 0.625
 0.21875 0.65625
 0.1875 0.65625
 0.09375 0.25
 0.09375 0.21875
 0.3125 0.34375
 0.28125 0.34375
 0.59375 1
 0.34375 0.3125
 0.34375 0.34375
 0.40625 0.6875
 0.34375 0.875
 0.3125 0.90625
 0.53125 0.5625
 0.90625 0.65625
 0.875 0.65625
 0.59375 0.625
 0.5625 0.65625
 0.90625 0.4375
 0.90625 0.46875
 0.65625 0.09375
 0.875 0.78125
 0.40625 0.375
 0.40625 0.40625
 0.21875 0.3125
 0.1875 0.34375
 0.34375 0.46875
 0.28125 0.3125
 0.46875 0.84375
 0.59375 0.0625
 0.59375 0.09375
 0.84375 0
 0.53125 0.40625
 0 0.21875
 0.71875 0.625
 1 0.71875
 0.96875 0.75
 0.96875 0.71875
 0.90625 0.875
 0.25 0.15625
 0.625 0.09375
 0.625 0.03125
 0.5625 0.28125
 0.46875 0.3125
 0.4375 0.34375
 0.5625 0.40625
 0.78125 0.53125
 0.15625 0.78125
 0.875 0.28125
 0.53125 0.9375
 0.53125 0.96875
 0.4375 0.59375
 0.40625 0.625
 0.21875 0.28125
 0.4375 0.53125
 0.6875 0.96875
 0.65625 1
 0.0625 0.53125
 0.125 0.59375
 0.09375 0.625
 0.9375 0.90625
 0.90625 0.90625
 0 0.78125
 0.09375 0.5
 0.28125 1
 0.78125 0
 0.40625 0.34375
 0.875 0.53125
 0.34375 0
 0.34375 0.03125
 0.0625 0.34375
 0.03125 0.34375
 0.59375 0.875
 0.90625 0.40625
 0.65625 0
 0.53125 0.59375
 0.84375 0.3125
 1 0.65625
 0.96875 0.6875
 0.9375 0.40625
 0.84375 0.125
 0.375 0.34375
 0.15625 1
 0.34375 0.0625
 0.09375 0.9375
 0.78125 0.96875
 0 0.09375
 0.90625 1
 0.15625 0.375
 0.65625 0.375
 0.96875 0
 0.9375 0.46875
 0.90625 0.5
 0.53125 1
 0.875 0.15625
 0.84375 0.15625
 0.34375 0.09375
 0.90625 0.53125
 0.46875 0.5625
 0.6875 0.65625
 0.15625 0.4375
 0.125 0.46875
 0.46875 0.53125
 0.84375 0.65625
 0.78125 1
 0.59375 0.40625
 0.6875 0.84375
 0 0.65625
 0.625 0.40625
 0.75 0.90625
 0.5625 0.90625
 0.15625 0.40625
 0.125 0.40625
 0.25 0.53125
 0.21875 0.53125
 0.71875 0.9375
 0.46875 0.28125
 0 0.90625
 0.09375 0.40625
 0 0.34375
 0.28125 0.59375
 0.25 0.59375
 0.6875 0.78125
 0.90625 0
 0.09375 0.1875
 1 0.28125
 0.09375 0.4375
 0.40625 0.65625
 0.09375 0.46875
 0.21875 0
 0.28125 0
 0.96875 0.53125
 0.9375 0.53125
 1 0.53125
 0.09375 0
 1 0.59375
 1 0.21875
