MFEM mesh v1.0

dimension
2

elements
320
1 3 1 102 106 105
1 3 102 32 103 106
1 3 106 103 36 104
1 3 105 106 104 35
1 3 32 107 110 103
1 3 107 12 108 110
1 3 110 108 33 109
1 3 103 110 109 36
1 3 36 109 114 113
1 3 109 33 111 114
1 3 114 111 27 112
1 3 113 114 112 34
1 3 35 104 117 116
1 3 104 36 113 117
1 3 117 113 34 115
1 3 116 117 115 15
1 3 1 105 121 120
1 3 105 35 118 121
1 3 121 118 40 119
1 3 120 121 119 39
1 3 35 116 124 118
1 3 116 15 122 124
1 3 124 122 37 123
1 3 118 124 123 40
1 3 40 123 128 127
1 3 123 37 125 128
1 3 128 125 28 126
1 3 127 128 126 38
1 3 39 119 131 130
1 3 119 40 127 131
1 3 131 127 38 129
1 3 130 131 129 18
1 3 1 120 135 134
1 3 120 39 132 135
1 3 135 132 44 133
1 3 134 135 133 43
1 3 39 130 138 132
1 3 130 18 136 138
1 3 138 136 41 137
1 3 132 138 137 44
1 3 44 137 142 141
1 3 137 41 139 142
1 3 142 139 29 140
1 3 141 142 140 42
1 3 43 133 145 144
1 3 133 44 141 145
1 3 145 141 42 143
1 3 144 145 143 21
1 3 1 134 149 148
1 3 134 43 146 149
1 3 149 146 48 147
1 3 148 149 147 47
1 3 43 144 152 146
1 3 144 21 150 152
1 3 152 150 45 151
1 3 146 152 151 48
1 3 48 151 156 155
1 3 151 45 153 156
1 3 156 153 30 154
1 3 155 156 154 46
1 3 47 147 159 158
1 3 147 48 155 159
1 3 159 155 46 157
1 3 158 159 157 24
1 3 1 148 162 102
1 3 148 47 160 162
1 3 162 160 51 161
1 3 102 162 161 32
1 3 47 158 165 160
1 3 158 24 163 165
1 3 165 163 49 164
1 3 160 165 164 51
1 3 51 164 169 168
1 3 164 49 166 169
1 3 169 166 31 167
1 3 168 169 167 50
1 3 32 161 171 107
1 3 161 51 168 171
1 3 171 168 50 170
1 3 107 171 170 12
1 3 12 172 175 108
1 3 172 52 173 175
1 3 175 173 55 174
1 3 108 175 174 33
1 3 52 176 179 173
1 3 176 2 177 179
1 3 179 177 53 178
1 3 173 179 178 55
1 3 55 178 183 182
1 3 178 53 180 183
1 3 183 180 13 181
1 3 182 183 181 54
1 3 33 174 185 111
1 3 174 55 182 185
1 3 185 182 54 184
1 3 111 185 184 27
1 3 27 184 189 188
1 3 184 54 186 189
1 3 189 186 59 187
1 3 188 189 187 58
1 3 54 181 192 186
1 3 181 13 190 192
1 3 192 190 56 191
1 3 186 192 191 59
1 3 59 191 196 195
1 3 191 56 193 196
1 3 196 193 4 194
1 3 195 196 194 57
1 3 58 187 199 198
1 3 187 59 195 199
1 3 199 195 57 197
1 3 198 199 197 14
1 3 15 115 203 202
1 3 115 34 200 203
1 3 203 200 62 201
1 3 202 203 201 61
1 3 34 112 205 200
1 3 112 27 188 205
1 3 205 188 58 204
1 3 200 205 204 62
1 3 62 204 208 207
1 3 204 58 198 208
1 3 208 198 14 206
1 3 207 208 206 60
1 3 61 201 211 210
1 3 201 62 207 211
1 3 211 207 60 209
1 3 210 211 209 3
1 3 15 202 214 122
1 3 202 61 212 214
1 3 214 212 65 213
1 3 122 214 213 37
1 3 61 210 217 212
1 3 210 3 215 217
1 3 217 215 63 216
1 3 212 217 216 65
1 3 65 216 221 220
1 3 216 63 218 221
1 3 221 218 16 219
1 3 220 221 219 64
1 3 37 213 223 125
1 3 213 65 220 223
1 3 223 220 64 222
1 3 125 223 222 28
1 3 28 222 227 226
1 3 222 64 224 227
1 3 227 224 69 225
1 3 226 227 225 68
1 3 64 219 230 224
1 3 219 16 228 230
1 3 230 228 66 229
1 3 224 230 229 69
1 3 69 229 234 233
1 3 229 66 231 234
1 3 234 231 6 232
1 3 233 234 232 67
1 3 68 225 237 236
1 3 225 69 233 237
1 3 237 233 67 235
1 3 236 237 235 17
1 3 18 129 241 240
1 3 129 38 238 241
1 3 241 238 72 239
1 3 240 241 239 71
1 3 38 126 243 238
1 3 126 28 226 243
1 3 243 226 68 242
1 3 238 243 242 72
1 3 72 242 246 245
1 3 242 68 236 246
1 3 246 236 17 244
1 3 245 246 244 70
1 3 71 239 249 248
1 3 239 72 245 249
1 3 249 245 70 247
1 3 248 249 247 5
1 3 18 240 252 136
1 3 240 71 250 252
1 3 252 250 75 251
1 3 136 252 251 41
1 3 71 248 255 250
1 3 248 5 253 255
1 3 255 253 73 254
1 3 250 255 254 75
1 3 75 254 259 258
1 3 254 73 256 259
1 3 259 256 19 257
1 3 258 259 257 74
1 3 41 251 261 139
1 3 251 75 258 261
1 3 261 258 74 260
1 3 139 261 260 29
1 3 29 260 265 264
1 3 260 74 262 265
1 3 265 262 79 263
1 3 264 265 263 78
1 3 74 257 268 262
1 3 257 19 266 268
1 3 268 266 76 267
1 3 262 268 267 79
1 3 79 267 272 271
1 3 267 76 269 272
1 3 272 269 8 270
1 3 271 272 270 77
1 3 78 263 275 274
1 3 263 79 271 275
1 3 275 271 77 273
1 3 274 275 273 20
1 3 21 143 279 278
1 3 143 42 276 279
1 3 279 276 82 277
1 3 278 279 277 81
1 3 42 140 281 276
1 3 140 29 264 281
1 3 281 264 78 280
1 3 276 281 280 82
1 3 82 280 284 283
1 3 280 78 274 284
1 3 284 274 20 282
1 3 283 284 282 80
1 3 81 277 287 286
1 3 277 82 283 287
1 3 287 283 80 285
1 3 286 287 285 7
1 3 21 278 290 150
1 3 278 81 288 290
1 3 290 288 85 289
1 3 150 290 289 45
1 3 81 286 293 288
1 3 286 7 291 293
1 3 293 291 83 292
1 3 288 293 292 85
1 3 85 292 297 296
1 3 292 83 294 297
1 3 297 294 22 295
1 3 296 297 295 84
1 3 45 289 299 153
1 3 289 85 296 299
1 3 299 296 84 298
1 3 153 299 298 30
1 3 30 298 303 302
1 3 298 84 300 303
1 3 303 300 89 301
1 3 302 303 301 88
1 3 84 295 306 300
1 3 295 22 304 306
1 3 306 304 86 305
1 3 300 306 305 89
1 3 89 305 310 309
1 3 305 86 307 310
1 3 310 307 10 308
1 3 309 310 308 87
1 3 88 301 313 312
1 3 301 89 309 313
1 3 313 309 87 311
1 3 312 313 311 23
1 3 24 157 317 316
1 3 157 46 314 317
1 3 317 314 92 315
1 3 316 317 315 91
1 3 46 154 319 314
1 3 154 30 302 319
1 3 319 302 88 318
1 3 314 319 318 92
1 3 92 318 322 321
1 3 318 88 312 322
1 3 322 312 23 320
1 3 321 322 320 90
1 3 91 315 325 324
1 3 315 92 321 325
1 3 325 321 90 323
1 3 324 325 323 9
1 3 24 316 328 163
1 3 316 91 326 328
1 3 328 326 95 327
1 3 163 328 327 49
1 3 91 324 331 326
1 3 324 9 329 331
1 3 331 329 93 330
1 3 326 331 330 95
1 3 95 330 335 334
1 3 330 93 332 335
1 3 335 332 25 333
1 3 334 335 333 94
1 3 49 327 337 166
1 3 327 95 334 337
1 3 337 334 94 336
1 3 166 337 336 31
1 3 31 336 341 340
1 3 336 94 338 341
1 3 341 338 99 339
1 3 340 341 339 98
1 3 94 333 344 338
1 3 333 25 342 344
1 3 344 342 96 343
1 3 338 344 343 99
1 3 99 343 348 347
1 3 343 96 345 348
1 3 348 345 11 346
1 3 347 348 346 97
1 3 98 339 351 350
1 3 339 99 347 351
1 3 351 347 97 349
1 3 350 351 349 26
1 3 12 170 354 172
1 3 170 50 352 354
1 3 354 352 101 353
1 3 172 354 353 52
1 3 50 167 356 352
1 3 167 31 340 356
1 3 356 340 98 355
1 3 352 356 355 101
1 3 101 355 359 358
1 3 355 98 350 359
1 3 359 350 26 357
1 3 358 359 357 100
1 3 52 353 361 176
1 3 353 101 358 361
1 3 361 358 100 360
1 3 176 361 360 2

boundary
80
1 1 14 206
1 1 206 60
1 1 60 209
1 1 209 3
1 1 13 190
1 1 190 56
1 1 56 193
1 1 193 4
1 1 17 244
1 1 244 70
1 1 70 247
1 1 247 5
1 1 16 228
1 1 228 66
1 1 66 231
1 1 231 6
1 1 20 282
1 1 282 80
1 1 80 285
1 1 285 7
1 1 19 266
1 1 266 76
1 1 76 269
1 1 269 8
1 1 23 320
1 1 320 90
1 1 90 323
1 1 323 9
1 1 22 304
1 1 304 86
1 1 86 307
1 1 307 10
1 1 26 357
1 1 357 100
1 1 100 360
1 1 360 2
1 1 25 342
1 1 342 96
1 1 96 345
1 1 345 11
1 1 4 194
1 1 194 57
1 1 57 197
1 1 197 14
1 1 2 177
1 1 177 53
1 1 53 180
1 1 180 13
1 1 6 232
1 1 232 67
1 1 67 235
1 1 235 17
1 1 3 215
1 1 215 63
1 1 63 218
1 1 218 16
1 1 8 270
1 1 270 77
1 1 77 273
1 1 273 20
1 1 5 253
1 1 253 73
1 1 73 256
1 1 256 19
1 1 10 308
1 1 308 87
1 1 87 311
1 1 311 23
1 1 7 291
1 1 291 83
1 1 83 294
1 1 294 22
1 1 11 346
1 1 346 97
1 1 97 349
1 1 349 26
1 1 9 329
1 1 329 93
1 1 93 332
1 1 332 25

vertices
361
2
 0 0
 1 0
 0.309017 0.951057
 1.30902 0.951057
 -0.809017 0.587785
 -0.5 1.53884
 -0.809017 -0.587785
 -1.61803 0
 0.309017 -0.951057
 -0.5 -1.53884
 1.30902 -0.951057
 0.5 0
 1.15451 0.475529
 0.809019 0.951057
 0.154508 0.475529
 -0.0954915 1.24495
 -0.654508 1.06331
 -0.404508 0.293893
 -1.21352 0.293893
 -1.21352 -0.293892
 -0.404508 -0.293893
 -0.654508 -1.06331
 -0.0954915 -1.24495
 0.154508 -0.475529
 0.809019 -0.951057
 1.15451 -0.475529
 0.654509 0.475529
 -0.25 0.769421
 -0.809016 0
 -0.25 -0.76942
 0.654509 -0.475529
 0.25 0
 0.5772545 0.2377645
 0.4045085 0.475529
 0.077254 0.2377645
 0.32725425 0.2377645
 -0.047746 0.622475
 -0.327254 0.531657
 -0.202254 0.1469465
 -0.125 0.38471075
 -0.606762 0.1469465
 -0.606762 -0.1469465
 -0.202254 -0.1469465
 -0.404508 0
 -0.327254 -0.5316565
 -0.047746 -0.6224745
 0.077254 -0.2377645
 -0.125 -0.38471049999999996
 0.4045085 -0.475529
 0.5772545 -0.2377645
 0.32725424999999997 -0.2377645
 0.75 0
 1.077255 0.2377645
 0.9045095 0.475529
 0.82725475 0.2377645
 1.231765 0.713293
 1.0590195 0.951057
 0.7317640000000001 0.713293
 0.9817645 0.713293
 0.559018 0.951057
 0.23176249999999998 0.713293
 0.48176325 0.713293
 0.10676274999999999 1.0980035
 -0.17274575 1.0071855
 0.02950837499999999 0.8602392499999999
 -0.29774575000000003 1.3918949999999999
 -0.5772539999999999 1.301075
 -0.452254 0.9163654999999999
 -0.374999875 1.1541302500000001
 -0.7317625 0.8255475
 -0.6067625 0.440839
 -0.52950825 0.67860225
 -1.0112685 0.440839
 -1.0112679999999998 0.1469465
 -0.8090152499999999 0.29389275
 -1.415775 0.1469465
 -1.415775 -0.146946
 -1.0112679999999998 -0.146946
 -1.2135215 0.0000002500000000071889
 -1.0112685 -0.4408385
 -0.6067625 -0.440839
 -0.80901525 -0.2938925
 -0.7317625 -0.8255475
 -0.452254 -0.916365
 -0.52950825 -0.6786019999999999
 -0.5772539999999999 -1.301075
 -0.29774575000000003 -1.3918949999999999
 -0.17274575 -1.007185
 -0.374999875 -1.15413
 0.10676274999999999 -1.0980035
 0.23176249999999998 -0.713293
 0.029508374999999996 -0.8602390000000001
 0.559018 -0.951057
 0.7317640000000001 -0.713293
 0.48176325 -0.713293
 1.0590195 -0.951057
 1.231765 -0.713293
 0.9045095 -0.475529
 0.9817645000000002 -0.713293
 1.077255 -0.2377645
 0.82725475 -0.2377645
 0.125 0
 0.288627125 0.11888225
 0.202254125 0.2377645
 0.038627 0.11888225
 0.1636270625 0.11888225
 0.375 0
 0.53862725 0.11888225
 0.452254375 0.2377645
 0.4136271875 0.11888225
 0.61588175 0.35664675
 0.52950875 0.475529
 0.365881375 0.35664675
 0.4908815625 0.35664675
 0.27950825 0.475529
 0.11588100000000001 0.35664675
 0.2408811875 0.35664675
 -0.023873 0.31123762499999996
 -0.163627 0.265828625
 -0.101127 0.07347325
 -0.0625 0.19235543749999998
 0.053381000000000005 0.549002
 -0.086373 0.503592875
 0.014754000000000003 0.4301198125
 -0.148873 0.695948
 -0.28862699999999997 0.650539
 -0.226127 0.458183875
 -0.1875 0.5770659375
 -0.365881 0.412775
 -0.303381 0.22041975000000003
 -0.264754 0.33930181249999997
 -0.303381 0.07347325
 -0.303381 -0.07347325
 -0.101127 -0.07347325
 -0.202254 0
 -0.5056350000000001 0.22041975000000003
 -0.5056350000000001 0.07347325
 -0.404508 0.1469465
 -0.707889 0.07347325
 -0.707889 -0.07347325
 -0.5056350000000001 -0.07347325
 -0.606762 0
 -0.5056350000000001 -0.22041975000000003
 -0.303381 -0.22041975000000003
 -0.404508 -0.1469465
 -0.163627 -0.26582849999999997
 -0.023873 -0.31123749999999994
 0.038627 -0.11888225
 -0.0625 -0.192355375
 -0.365881 -0.41277474999999997
 -0.226127 -0.45818349999999997
 -0.264754 -0.339301625
 -0.28862699999999997 -0.65053825
 -0.148873 -0.69594725
 -0.086373 -0.5035925
 -0.18749999999999997 -0.577065375
 0.053381000000000005 -0.54900175
 0.11588100000000001 -0.35664675
 0.014754000000000003 -0.430119625
 0.20225412499999998 -0.2377645
 0.288627125 -0.11888225
 0.16362706249999998 -0.11888225
 0.27950825 -0.475529
 0.36588137499999995 -0.35664675
 0.24088118749999998 -0.35664675
 0.52950875 -0.475529
 0.61588175 -0.35664675
 0.452254375 -0.2377645
 0.4908815625 -0.35664675
 0.53862725 -0.11888225
 0.4136271875 -0.11888225
 0.625 0
 0.788627375 0.11888225
 0.702254625 0.2377645
 0.6636273125 0.11888225
 0.875 0
 1.0386275 0.11888225
 0.9522548750000001 0.2377645
 0.9136274375 0.11888225
 1.1158825 0.35664675
 1.02950975 0.475529
 0.865882125 0.35664675
 0.9908823125 0.35664675
 0.77950925 0.475529
 0.7408819375 0.35664675
 0.943137 0.594411
 0.8567642500000001 0.713293
 0.6931365 0.594411
 0.8181367500000001 0.594411
 1.1931375 0.594411
 1.10676475 0.713293
 1.06813725 0.594411
 1.2703925 0.832175
 1.18401975 0.951057
 1.020392 0.832175
 1.14539225 0.832175
 0.93401925 0.951057
 0.7703915000000001 0.832175
 0.8953917500000002 0.832175
 0.44313587499999996 0.594411
 0.356762875 0.713293
 0.19313524999999998 0.594411
 0.31813556249999997 0.594411
 0.606763625 0.713293
 0.5681361875 0.594411
 0.6840185000000001 0.951057
 0.520390625 0.832175
 0.6453910625 0.832175
 0.4340175 0.951057
 0.27038975 0.832175
 0.3953901875 0.832175
 0.13063543749999998 0.786766125
 -0.009118812500000004 0.741357125
 0.09200821874999998 0.6678840625
 0.207889875 1.02453025
 0.0681355625 0.9791213749999998
 0.16926265625 0.9056481874999999
 0.005635624999999991 1.17147675
 -0.134118625 1.12606775
 -0.0716186875 0.933712375
 -0.032991531250000004 1.0525945625
 -0.21137287500000002 0.8883032500000001
 -0.11024584375 0.8148301875
 -0.2738728125 1.080657875
 -0.4136269375 1.035247875
 -0.35112699999999997 0.8428932499999999
 -0.31249990625 0.9617755625000001
 -0.19661862500000002 1.3184225
 -0.3363728125 1.273012625
 -0.23524571875 1.1995401875
 -0.398872875 1.4653675
 -0.538627 1.4199575
 -0.47612693749999996 1.227602625
 -0.43749990625 1.3464850625
 -0.6158809999999999 1.1821925
 -0.553381 0.98983775
 -0.51475396875 1.1087201875
 -0.42838112500000003 0.605129625
 -0.568135375 0.559720625
 -0.50563525 0.36736599999999997
 -0.46700818749999995 0.4862478125
 -0.49088112500000003 0.797483875
 -0.3897540625 0.7240114375
 -0.69313525 0.9444287499999999
 -0.630635375 0.7520748749999999
 -0.5920081875 0.8709563124999999
 -0.77038975 0.70666625
 -0.70788975 0.514312
 -0.6692625624999999 0.6331934374999999
 -0.7078888749999999 0.36736587499999995
 -0.7078886249999999 0.220419625
 -0.6067619375 0.2938928125
 -0.9101427499999999 0.514312
 -0.9101418749999999 0.36736587499999995
 -0.8090158125 0.44083893749999997
 -1.11239425 0.36736599999999997
 -1.1123939999999999 0.22041975000000003
 -0.9101416249999998 0.220419625
 -1.0112679375 0.2938928125
 -0.9101419999999999 0.07347325
 -0.8090153124999999 0.1469464375
 -1.11239475 0.07347337500000001
 -1.11239475 -0.07347287499999999
 -0.9101419999999999 -0.073473
 -1.0112683749999998 0.0000001875000000053917
 -1.3146475 0.22041975000000003
 -1.3146482499999999 0.07347337500000001
 -1.213521125 0.14694656250000002
 -1.5169025 0.07347325
 -1.5169025 -0.073473
 -1.3146482499999999 -0.07347287499999999
 -1.415775375 0.0000001875000000053917
 -1.3146475 -0.22041899999999998
 -1.1123939999999999 -0.22041899999999998
 -1.213521125 -0.1469459375
 -0.707888625 -0.2204195
 -0.707888875 -0.36736575
 -0.50563525 -0.36736599999999997
 -0.6067619375 -0.29389275000000004
 -0.9101416249999998 -0.22041925
 -0.8090153124999999 -0.14694625
 -1.11239425 -0.36736525
 -0.9101418749999999 -0.3673655
 -1.0112679375 -0.29389224999999997
 -0.9101427499999999 -0.5143117500000001
 -0.70788975 -0.514312
 -0.8090158125 -0.44083875
 -0.568135375 -0.5597205
 -0.42838112500000003 -0.60512925
 -0.46700818749999995 -0.48624762499999996
 -0.77038975 -0.70666625
 -0.630635375 -0.75207475
 -0.6692625625 -0.6331933750000001
 -0.69313525 -0.9444287499999999
 -0.553381 -0.9898374999999999
 -0.49088112500000003 -0.7974835
 -0.5920081875 -0.870956125
 -0.35112699999999997 -0.8428925
 -0.3897540625 -0.724010875
 -0.4136269375 -1.0352475
 -0.2738728125 -1.0806575
 -0.21137287500000002 -0.8883025
 -0.31249990624999996 -0.961775
 -0.6158809999999999 -1.1821925
 -0.47612693749999996 -1.2276025000000002
 -0.51475396875 -1.10872
 -0.538627 -1.4199575
 -0.398872875 -1.4653675
 -0.3363728125 -1.2730125
 -0.43749990624999996 -1.346485
 -0.19661862500000002 -1.3184225
 -0.134118625 -1.1260675
 -0.23524571875 -1.19954
 -0.0091188125 -0.74135675
 0.13063543749999998 -0.7867660000000001
 0.19313524999999998 -0.594411
 0.09200821875 -0.667883875
 -0.0716186875 -0.9337120000000001
 -0.11024584375 -0.814829625
 0.005635624999999991 -1.17147675
 0.0681355625 -0.9791212499999999
 -0.032991531250000004 -1.052594375
 0.207889875 -1.02453025
 0.27038975 -0.832175
 0.16926265624999998 -0.905648125
 0.356762875 -0.713293
 0.44313587499999996 -0.594411
 0.31813556249999997 -0.594411
 0.4340175 -0.951057
 0.520390625 -0.832175
 0.3953901875 -0.8321750000000001
 0.6840185000000001 -0.951057
 0.7703915000000001 -0.832175
 0.606763625 -0.713293
 0.6453910625 -0.8321750000000001
 0.6931365 -0.594411
 0.5681361875 -0.594411
 0.8567642500000001 -0.713293
 0.9431370000000001 -0.594411
 0.77950925 -0.475529
 0.8181367500000001 -0.594411
 0.93401925 -0.951057
 1.0203920000000002 -0.832175
 0.89539175 -0.8321750000000001
 1.18401975 -0.951057
 1.2703925 -0.832175
 1.10676475 -0.713293
 1.1453922500000002 -0.8321750000000001
 1.1931375 -0.594411
 1.02950975 -0.475529
 1.0681372500000001 -0.594411
 0.702254625 -0.2377645
 0.788627375 -0.11888225
 0.6636273125000001 -0.11888225
 0.865882125 -0.35664675
 0.7408819375 -0.35664675
 1.1158825 -0.35664675
 0.9522548750000001 -0.2377645
 0.9908823124999999 -0.35664675
 1.0386275 -0.11888225
 0.9136274375 -0.11888225
