MFEM mesh v1.0

dimension
2

elements
230
1 quadrilateral 1 2 11 10
2 quadrilateral 2 3 12 11
3 quadrilateral 3 4 13 12
4 quadrilateral 4 29 32 31
5 quadrilateral 29 5 27 32
6 quadrilateral 32 27 14 30
7 quadrilateral 31 32 30 13
8 quadrilateral 5 24 28 27
9 quadrilateral 24 80 84 83
10 quadrilateral 80 6 81 84
11 quadrilateral 84 81 25 82
12 quadrilateral 83 84 82 28
13 quadrilateral 28 51 55 54
14 quadrilateral 51 25 52 55
15 quadrilateral 55 52 15 53
16 quadrilateral 54 55 53 26
17 quadrilateral 27 28 26 14
18 quadrilateral 6 75 79 78
19 quadrilateral 75 47 76 79
20 quadrilateral 79 76 50 77
21 quadrilateral 78 79 77 49
22 quadrilateral 47 104 106 76
23 quadrilateral 104 7 93 106
24 quadrilateral 106 93 36 105
25 quadrilateral 76 106 105 50
26 quadrilateral 50 241 245 244
27 quadrilateral 241 36 242 245
28 quadrilateral 245 242 16 243
29 quadrilateral 244 245 243 48
30 quadrilateral 49 186 190 189
31 quadrilateral 186 50 187 190
32 quadrilateral 190 187 48 188
33 quadrilateral 189 190 188 15
34 quadrilateral 7 90 94 93
35 quadrilateral 90 301 305 304
36 quadrilateral 301 33 302 305
37 quadrilateral 305 302 91 303
38 quadrilateral 304 305 303 94
39 quadrilateral 94 181 185 184
40 quadrilateral 181 91 182 185
41 quadrilateral 185 182 37 183
42 quadrilateral 184 185 183 92
43 quadrilateral 93 94 92 36
44 quadrilateral 33 121 125 124
45 quadrilateral 121 8 122 125
46 quadrilateral 125 122 34 123
47 quadrilateral 124 125 123 37
48 quadrilateral 37 293 295 294
49 quadrilateral 293 85 267 295
50 quadrilateral 295 267 89 259
51 quadrilateral 294 295 259 88
52 quadrilateral 85 264 268 267
53 quadrilateral 264 34 265 268
54 quadrilateral 268 265 86 266
55 quadrilateral 267 268 266 89
56 quadrilateral 89 149 153 152
57 quadrilateral 149 86 150 153
58 quadrilateral 153 296 300 299
59 quadrilateral 296 150 297 300
60 quadrilateral 300 297 17 298
61 quadrilateral 299 300 298 151
62 quadrilateral 152 153 151 87
63 quadrilateral 88 259 263 262
64 quadrilateral 259 89 260 263
65 quadrilateral 263 260 87 261
66 quadrilateral 262 263 261 35
67 quadrilateral 36 130 134 133
68 quadrilateral 130 37 131 134
69 quadrilateral 134 131 35 132
70 quadrilateral 133 134 132 16
71 quadrilateral 8 56 60 59
72 quadrilateral 56 19 57 60
73 quadrilateral 60 232 235 234
74 quadrilateral 232 57 204 235
75 quadrilateral 235 204 23 233
76 quadrilateral 234 235 233 58
77 quadrilateral 59 284 287 286
78 quadrilateral 284 60 234 287
79 quadrilateral 287 234 58 285
80 quadrilateral 286 287 285 22
81 quadrilateral 19 311 313 312
82 quadrilateral 311 61 239 313
83 quadrilateral 313 239 64 201
84 quadrilateral 312 313 201 57
85 quadrilateral 61 236 240 239
86 quadrilateral 236 9 237 240
87 quadrilateral 240 237 62 238
88 quadrilateral 239 240 238 64
89 quadrilateral 64 343 347 346
90 quadrilateral 343 140 344 347
91 quadrilateral 347 344 144 345
92 quadrilateral 346 347 345 143
93 quadrilateral 140 353 355 344
94 quadrilateral 353 62 354 355
95 quadrilateral 355 354 141 269
96 quadrilateral 344 355 269 144
97 quadrilateral 144 269 273 272
98 quadrilateral 269 141 270 273
99 quadrilateral 273 270 20 271
100 quadrilateral 272 273 271 142
101 quadrilateral 143 144 142 63
102 quadrilateral 57 201 205 204
103 quadrilateral 201 64 202 205
104 quadrilateral 205 202 63 203
105 quadrilateral 204 205 203 23
106 quadrilateral 23 107 111 110
107 quadrilateral 107 38 108 111
108 quadrilateral 111 251 255 254
109 quadrilateral 251 108 252 255
110 quadrilateral 255 252 42 253
111 quadrilateral 254 255 253 109
112 quadrilateral 110 111 109 41
113 quadrilateral 38 191 195 194
114 quadrilateral 191 65 192 195
115 quadrilateral 195 192 69 193
116 quadrilateral 194 195 193 68
117 quadrilateral 65 164 168 167
118 quadrilateral 164 339 342 341
119 quadrilateral 339 20 340 342
120 quadrilateral 342 340 165 314
121 quadrilateral 341 342 314 168
122 quadrilateral 168 314 318 317
123 quadrilateral 314 165 315 318
124 quadrilateral 318 315 66 316
125 quadrilateral 317 318 316 166
126 quadrilateral 167 168 166 69
127 quadrilateral 69 196 200 199
128 quadrilateral 196 66 197 200
129 quadrilateral 200 197 39 198
130 quadrilateral 199 200 198 67
131 quadrilateral 68 173 176 175
132 quadrilateral 173 69 174 176
133 quadrilateral 176 335 338 337
134 quadrilateral 335 174 336 338
135 quadrilateral 338 336 67 331
136 quadrilateral 337 338 331 169
137 quadrilateral 175 176 169 42
138 quadrilateral 42 169 172 171
139 quadrilateral 169 331 334 333
140 quadrilateral 331 67 332 334
141 quadrilateral 334 332 170 327
142 quadrilateral 333 334 327 172
143 quadrilateral 172 327 330 329
144 quadrilateral 327 170 328 330
145 quadrilateral 330 328 103 319
146 quadrilateral 329 330 319 154
147 quadrilateral 171 172 154 102
148 quadrilateral 67 198 209 208
149 quadrilateral 198 39 206 209
150 quadrilateral 209 206 100 207
151 quadrilateral 208 209 207 103
152 quadrilateral 103 207 213 212
153 quadrilateral 207 100 210 213
154 quadrilateral 213 210 18 211
155 quadrilateral 212 213 211 101
156 quadrilateral 102 154 158 157
157 quadrilateral 154 319 322 321
158 quadrilateral 319 103 320 322
159 quadrilateral 322 320 155 306
160 quadrilateral 321 322 306 158
161 quadrilateral 158 306 310 309
162 quadrilateral 306 155 307 310
163 quadrilateral 310 307 101 308
164 quadrilateral 309 310 308 156
165 quadrilateral 157 323 326 325
166 quadrilateral 323 158 309 326
167 quadrilateral 326 309 156 324
168 quadrilateral 325 326 324 40
169 quadrilateral 41 109 120 119
170 quadrilateral 109 253 258 257
171 quadrilateral 253 42 256 258
172 quadrilateral 258 256 117 246
173 quadrilateral 257 258 246 120
174 quadrilateral 120 246 250 249
175 quadrilateral 246 117 247 250
176 quadrilateral 250 247 40 248
177 quadrilateral 249 250 248 118
178 quadrilateral 119 120 118 21
179 quadrilateral 22 112 116 115
180 quadrilateral 112 43 113 116
181 quadrilateral 116 113 46 114
182 quadrilateral 115 116 114 45
183 quadrilateral 43 214 218 217
184 quadrilateral 214 95 215 218
185 quadrilateral 218 215 99 216
186 quadrilateral 217 218 216 98
187 quadrilateral 95 145 148 147
188 quadrilateral 145 279 283 282
189 quadrilateral 279 23 280 283
190 quadrilateral 283 280 146 281
191 quadrilateral 282 283 281 148
192 quadrilateral 148 146 96 135
193 quadrilateral 147 148 135 99
194 quadrilateral 99 135 139 138
195 quadrilateral 135 96 136 139
196 quadrilateral 139 288 292 291
197 quadrilateral 288 136 289 292
198 quadrilateral 292 289 41 290
199 quadrilateral 291 292 290 137
200 quadrilateral 138 139 137 97
201 quadrilateral 98 216 227 226
202 quadrilateral 216 99 224 227
203 quadrilateral 227 224 97 225
204 quadrilateral 226 227 225 46
205 quadrilateral 46 126 129 128
206 quadrilateral 126 41 119 129
207 quadrilateral 129 119 21 127
208 quadrilateral 128 274 278 277
209 quadrilateral 274 129 275 278
210 quadrilateral 278 275 127 276
211 quadrilateral 277 278 276 44
212 quadrilateral 45 219 223 222
213 quadrilateral 219 70 220 223
214 quadrilateral 223 220 74 221
215 quadrilateral 222 223 221 73
216 quadrilateral 70 228 231 220
217 quadrilateral 228 46 229 231
218 quadrilateral 231 229 71 230
219 quadrilateral 220 231 230 74
220 quadrilateral 74 159 163 162
221 quadrilateral 159 71 160 163
222 quadrilateral 163 348 352 351
223 quadrilateral 348 160 349 352
224 quadrilateral 352 349 44 350
225 quadrilateral 351 352 350 161
226 quadrilateral 162 163 161 72
227 quadrilateral 73 177 180 179
228 quadrilateral 177 74 162 180
229 quadrilateral 180 162 72 178
230 quadrilateral 179 180 178 17

boundary
0

vertices
355
2

0.0000000000000000 0.0000000000000000 
1.0000000000000000 0.0000000000000000 
2.0000000000000000 0.0000000000000000 
3.0000000000000000 0.0000000000000000 
4.0000000000000000 0.0000000000000000 
5.0000000000000000 0.0000000000000000 
6.0000000000000000 0.0000000000000000 
7.0000000000000000 0.0000000000000000 
8.0000000000000000 0.0000000000000000 
0.0000000000000000 1.0000000000000000 
1.0000000000000000 1.0000000000000000 
2.0000000000000000 1.0000000000000000 
3.0000000000000000 1.0000000000000000 
4.0000000000000000 1.0000000000000000 
5.0000000000000000 1.0000000000000000 
6.0000000000000000 1.0000000000000000 
7.0000000000000000 1.0000000000000000 
8.0000000000000000 1.0000000000000000 
7.5000000000000000 0.0000000000000000 
8.0000000000000000 0.5000000000000000 
7.5000000000000000 1.0000000000000000 
7.0000000000000000 0.5000000000000000 
7.5000000000000000 0.5000000000000000 
4.5000000000000000 0.0000000000000000 
5.0000000000000000 0.5000000000000000 
4.5000000000000000 1.0000000000000000 
4.0000000000000000 0.5000000000000000 
4.5000000000000000 0.5000000000000000 
3.5000000000000000 0.0000000000000000 
3.5000000000000000 1.0000000000000000 
3.0000000000000000 0.5000000000000000 
3.5000000000000000 0.5000000000000000 
6.5000000000000000 0.0000000000000000 
7.0000000000000000 0.5000000000000000 
6.5000000000000000 1.0000000000000000 
6.0000000000000000 0.5000000000000000 
6.5000000000000000 0.5000000000000000 
7.7500000000000000 0.5000000000000000 
8.0000000000000000 0.7500000000000000 
7.7500000000000000 1.0000000000000000 
7.5000000000000000 0.7500000000000000 
7.7500000000000000 0.7500000000000000 
7.2500000000000000 0.5000000000000000 
7.2500000000000000 1.0000000000000000 
7.0000000000000000 0.7500000000000000 
7.2500000000000000 0.7500000000000000 
5.5000000000000000 0.0000000000000000 
5.5000000000000000 1.0000000000000000 
5.0000000000000000 0.5000000000000000 
5.5000000000000000 0.5000000000000000 
4.7500000000000000 0.5000000000000000 
5.0000000000000000 0.7500000000000000 
4.7500000000000000 1.0000000000000000 
4.5000000000000000 0.7500000000000000 
4.7500000000000000 0.7500000000000000 
7.2500000000000000 0.0000000000000000 
7.5000000000000000 0.2500000000000000 
7.2500000000000000 0.5000000000000000 
7.0000000000000000 0.2500000000000000 
7.2500000000000000 0.2500000000000000 
7.7500000000000000 0.0000000000000000 
8.0000000000000000 0.2500000000000000 
7.7500000000000000 0.5000000000000000 
7.7500000000000000 0.2500000000000000 
7.8750000000000000 0.5000000000000000 
8.0000000000000000 0.6250000000000000 
7.8750000000000000 0.7500000000000000 
7.7500000000000000 0.6250000000000000 
7.8750000000000000 0.6250000000000000 
7.1250000000000000 0.7500000000000000 
7.2500000000000000 0.8750000000000000 
7.1250000000000000 1.0000000000000000 
7.0000000000000000 0.8750000000000000 
7.1250000000000000 0.8750000000000000 
5.2500000000000000 0.0000000000000000 
5.5000000000000000 0.2500000000000000 
5.2500000000000000 0.5000000000000000 
5.0000000000000000 0.2500000000000000 
5.2500000000000000 0.2500000000000000 
4.7500000000000000 0.0000000000000000 
5.0000000000000000 0.2500000000000000 
4.7500000000000000 0.5000000000000000 
4.5000000000000000 0.2500000000000000 
4.7500000000000000 0.2500000000000000 
6.7500000000000000 0.5000000000000000 
7.0000000000000000 0.7500000000000000 
6.7500000000000000 1.0000000000000000 
6.5000000000000000 0.7500000000000000 
6.7500000000000000 0.7500000000000000 
6.2500000000000000 0.0000000000000000 
6.5000000000000000 0.2500000000000000 
6.2500000000000000 0.5000000000000000 
6.0000000000000000 0.2500000000000000 
6.2500000000000000 0.2500000000000000 
7.3750000000000000 0.5000000000000000 
7.5000000000000000 0.6250000000000000 
7.3750000000000000 0.7500000000000000 
7.2500000000000000 0.6250000000000000 
7.3750000000000000 0.6250000000000000 
8.0000000000000000 0.8750000000000000 
7.8750000000000000 1.0000000000000000 
7.7500000000000000 0.8750000000000000 
7.8750000000000000 0.8750000000000000 
5.7500000000000000 0.0000000000000000 
5.7500000000000000 0.5000000000000000 
5.7500000000000000 0.2500000000000000 
7.6250000000000000 0.5000000000000000 
7.7500000000000000 0.6250000000000000 
7.6250000000000000 0.7500000000000000 
7.5000000000000000 0.6250000000000000 
7.6250000000000000 0.6250000000000000 
7.1250000000000000 0.5000000000000000 
7.2500000000000000 0.6250000000000000 
7.1250000000000000 0.7500000000000000 
7.0000000000000000 0.6250000000000000 
7.1250000000000000 0.6250000000000000 
7.7500000000000000 0.8750000000000000 
7.6250000000000000 1.0000000000000000 
7.5000000000000000 0.8750000000000000 
7.6250000000000000 0.8750000000000000 
6.7500000000000000 0.0000000000000000 
7.0000000000000000 0.2500000000000000 
6.7500000000000000 0.5000000000000000 
6.5000000000000000 0.2500000000000000 
6.7500000000000000 0.2500000000000000 
7.3750000000000000 0.7500000000000000 
7.3750000000000000 1.0000000000000000 
7.2500000000000000 0.8750000000000000 
7.3750000000000000 0.8750000000000000 
6.2500000000000000 0.5000000000000000 
6.5000000000000000 0.7500000000000000 
6.2500000000000000 1.0000000000000000 
6.0000000000000000 0.7500000000000000 
6.2500000000000000 0.7500000000000000 
7.4375000000000000 0.6250000000000000 
7.5000000000000000 0.6875000000000000 
7.4375000000000000 0.7500000000000000 
7.3750000000000000 0.6875000000000000 
7.4375000000000000 0.6875000000000000 
7.8750000000000000 0.2500000000000000 
8.0000000000000000 0.3750000000000000 
7.8750000000000000 0.5000000000000000 
7.7500000000000000 0.3750000000000000 
7.8750000000000000 0.3750000000000000 
7.4375000000000000 0.5000000000000000 
7.5000000000000000 0.5625000000000000 
7.3750000000000000 0.5625000000000000 
7.4375000000000000 0.5625000000000000 
6.8750000000000000 0.7500000000000000 
7.0000000000000000 0.8750000000000000 
6.8750000000000000 1.0000000000000000 
6.7500000000000000 0.8750000000000000 
6.8750000000000000 0.8750000000000000 
7.8125000000000000 0.8750000000000000 
7.8750000000000000 0.9375000000000000 
7.8125000000000000 1.0000000000000000 
7.7500000000000000 0.9375000000000000 
7.8125000000000000 0.9375000000000000 
7.1875000000000000 0.8750000000000000 
7.2500000000000000 0.9375000000000000 
7.1875000000000000 1.0000000000000000 
7.1250000000000000 0.9375000000000000 
7.1875000000000000 0.9375000000000000 
7.9375000000000000 0.5000000000000000 
8.0000000000000000 0.5625000000000000 
7.9375000000000000 0.6250000000000000 
7.8750000000000000 0.5625000000000000 
7.9375000000000000 0.5625000000000000 
7.8125000000000000 0.7500000000000000 
7.8750000000000000 0.8125000000000000 
7.7500000000000000 0.8125000000000000 
7.8125000000000000 0.8125000000000000 
7.8125000000000000 0.6250000000000000 
7.8750000000000000 0.6875000000000000 
7.7500000000000000 0.6875000000000000 
7.8125000000000000 0.6875000000000000 
7.0625000000000000 0.8750000000000000 
7.0625000000000000 1.0000000000000000 
7.0000000000000000 0.9375000000000000 
7.0625000000000000 0.9375000000000000 
6.3750000000000000 0.2500000000000000 
6.5000000000000000 0.3750000000000000 
6.3750000000000000 0.5000000000000000 
6.2500000000000000 0.3750000000000000 
6.3750000000000000 0.3750000000000000 
5.2500000000000000 0.5000000000000000 
5.5000000000000000 0.7500000000000000 
5.2500000000000000 1.0000000000000000 
5.0000000000000000 0.7500000000000000 
5.2500000000000000 0.7500000000000000 
7.8125000000000000 0.5000000000000000 
7.8750000000000000 0.5625000000000000 
7.8125000000000000 0.6250000000000000 
7.7500000000000000 0.5625000000000000 
7.8125000000000000 0.5625000000000000 
7.9375000000000000 0.6250000000000000 
8.0000000000000000 0.6875000000000000 
7.9375000000000000 0.7500000000000000 
7.8750000000000000 0.6875000000000000 
7.9375000000000000 0.6875000000000000 
7.6250000000000000 0.2500000000000000 
7.7500000000000000 0.3750000000000000 
7.6250000000000000 0.5000000000000000 
7.5000000000000000 0.3750000000000000 
7.6250000000000000 0.3750000000000000 
8.0000000000000000 0.8125000000000000 
7.9375000000000000 0.8750000000000000 
7.8750000000000000 0.8125000000000000 
7.9375000000000000 0.8125000000000000 
8.0000000000000000 0.9375000000000000 
7.9375000000000000 1.0000000000000000 
7.8750000000000000 0.9375000000000000 
7.9375000000000000 0.9375000000000000 
7.3125000000000000 0.5000000000000000 
7.3750000000000000 0.5625000000000000 
7.3125000000000000 0.6250000000000000 
7.2500000000000000 0.5625000000000000 
7.3125000000000000 0.5625000000000000 
7.0625000000000000 0.7500000000000000 
7.1250000000000000 0.8125000000000000 
7.0625000000000000 0.8750000000000000 
7.0000000000000000 0.8125000000000000 
7.0625000000000000 0.8125000000000000 
7.3750000000000000 0.6875000000000000 
7.3125000000000000 0.7500000000000000 
7.2500000000000000 0.6875000000000000 
7.3125000000000000 0.6875000000000000 
7.1875000000000000 0.7500000000000000 
7.2500000000000000 0.8125000000000000 
7.1875000000000000 0.8750000000000000 
7.1875000000000000 0.8125000000000000 
7.3750000000000000 0.2500000000000000 
7.3750000000000000 0.5000000000000000 
7.2500000000000000 0.3750000000000000 
7.3750000000000000 0.3750000000000000 
7.8750000000000000 0.0000000000000000 
8.0000000000000000 0.1250000000000000 
7.8750000000000000 0.2500000000000000 
7.7500000000000000 0.1250000000000000 
7.8750000000000000 0.1250000000000000 
5.7500000000000000 0.5000000000000000 
6.0000000000000000 0.7500000000000000 
5.7500000000000000 1.0000000000000000 
5.5000000000000000 0.7500000000000000 
5.7500000000000000 0.7500000000000000 
7.6875000000000000 0.8750000000000000 
7.7500000000000000 0.9375000000000000 
7.6875000000000000 1.0000000000000000 
7.6250000000000000 0.9375000000000000 
7.6875000000000000 0.9375000000000000 
7.6875000000000000 0.6250000000000000 
7.7500000000000000 0.6875000000000000 
7.6875000000000000 0.7500000000000000 
7.6250000000000000 0.6875000000000000 
7.6875000000000000 0.6875000000000000 
7.7500000000000000 0.8125000000000000 
7.6250000000000000 0.8125000000000000 
7.6875000000000000 0.8125000000000000 
6.6250000000000000 0.7500000000000000 
6.7500000000000000 0.8750000000000000 
6.6250000000000000 1.0000000000000000 
6.5000000000000000 0.8750000000000000 
6.6250000000000000 0.8750000000000000 
6.8750000000000000 0.5000000000000000 
7.0000000000000000 0.6250000000000000 
6.8750000000000000 0.7500000000000000 
6.7500000000000000 0.6250000000000000 
6.8750000000000000 0.6250000000000000 
7.9375000000000000 0.3750000000000000 
8.0000000000000000 0.4375000000000000 
7.9375000000000000 0.5000000000000000 
7.8750000000000000 0.4375000000000000 
7.9375000000000000 0.4375000000000000 
7.3125000000000000 0.8750000000000000 
7.3750000000000000 0.9375000000000000 
7.3125000000000000 1.0000000000000000 
7.2500000000000000 0.9375000000000000 
7.3125000000000000 0.9375000000000000 
7.4687500000000000 0.5000000000000000 
7.5000000000000000 0.5312500000000000 
7.4687500000000000 0.5625000000000000 
7.4375000000000000 0.5312500000000000 
7.4687500000000000 0.5312500000000000 
7.1250000000000000 0.2500000000000000 
7.1250000000000000 0.5000000000000000 
7.0000000000000000 0.3750000000000000 
7.1250000000000000 0.3750000000000000 
7.4687500000000000 0.6875000000000000 
7.5000000000000000 0.7187500000000000 
7.4687500000000000 0.7500000000000000 
7.4375000000000000 0.7187500000000000 
7.4687500000000000 0.7187500000000000 
6.6250000000000000 0.5000000000000000 
6.5000000000000000 0.6250000000000000 
6.6250000000000000 0.6250000000000000 
6.9375000000000000 0.8750000000000000 
7.0000000000000000 0.9375000000000000 
6.9375000000000000 1.0000000000000000 
6.8750000000000000 0.9375000000000000 
6.9375000000000000 0.9375000000000000 
6.3750000000000000 0.0000000000000000 
6.5000000000000000 0.1250000000000000 
6.3750000000000000 0.2500000000000000 
6.2500000000000000 0.1250000000000000 
6.3750000000000000 0.1250000000000000 
7.8437500000000000 0.9375000000000000 
7.8750000000000000 0.9687500000000000 
7.8437500000000000 1.0000000000000000 
7.8125000000000000 0.9687500000000000 
7.8437500000000000 0.9687500000000000 
7.6250000000000000 0.0000000000000000 
7.5000000000000000 0.1250000000000000 
7.6250000000000000 0.1250000000000000 
7.9687500000000000 0.5625000000000000 
8.0000000000000000 0.5937500000000000 
7.9687500000000000 0.6250000000000000 
7.9375000000000000 0.5937500000000000 
7.9687500000000000 0.5937500000000000 
7.8437500000000000 0.8750000000000000 
7.8750000000000000 0.9062500000000000 
7.8125000000000000 0.9062500000000000 
7.8437500000000000 0.9062500000000000 
7.7812500000000000 0.9375000000000000 
7.7812500000000000 1.0000000000000000 
7.7500000000000000 0.9687500000000000 
7.7812500000000000 0.9687500000000000 
7.8437500000000000 0.8125000000000000 
7.8750000000000000 0.8437500000000000 
7.8125000000000000 0.8437500000000000 
7.8437500000000000 0.8437500000000000 
7.8437500000000000 0.7500000000000000 
7.8750000000000000 0.7812500000000000 
7.8125000000000000 0.7812500000000000 
7.8437500000000000 0.7812500000000000 
7.8437500000000000 0.6875000000000000 
7.8750000000000000 0.7187500000000000 
7.8125000000000000 0.7187500000000000 
7.8437500000000000 0.7187500000000000 
7.9687500000000000 0.5000000000000000 
8.0000000000000000 0.5312500000000000 
7.9375000000000000 0.5312500000000000 
7.9687500000000000 0.5312500000000000 
7.8125000000000000 0.2500000000000000 
7.8750000000000000 0.3125000000000000 
7.8125000000000000 0.3750000000000000 
7.7500000000000000 0.3125000000000000 
7.8125000000000000 0.3125000000000000 
7.2187500000000000 0.9375000000000000 
7.2500000000000000 0.9687500000000000 
7.2187500000000000 1.0000000000000000 
7.1875000000000000 0.9687500000000000 
7.2187500000000000 0.9687500000000000 
7.9375000000000000 0.2500000000000000 
8.0000000000000000 0.3125000000000000 
7.9375000000000000 0.3125000000000000 
