MFEM mesh v1.0

dimension
2

elements
154
2 2 2 24 1
2 2 49 2 3
2 2 5 50 4
2 2 8 6 7
2 2 8 9 51
2 2 9 10 52
2 2 10 11 53
2 2 11 12 54
2 2 14 12 13
2 2 12 14 54
2 2 50 89 59
2 2 64 100 65
2 2 15 16 55
2 2 56 17 18
2 2 20 18 19
2 2 18 20 56
2 2 53 92 100
2 2 70 99 71
2 2 21 22 57
2 2 23 24 58
1 2 25 59 26
1 2 26 60 27
1 2 61 28 27
1 2 28 62 29
1 2 29 63 30
1 2 30 64 31
1 2 65 32 31
1 2 66 33 32
1 2 33 67 34
1 2 68 35 34
1 2 35 69 36
1 2 36 70 37
1 2 71 38 37
1 2 38 72 39
1 2 39 73 40
1 2 40 74 41
1 2 41 75 42
1 2 42 76 43
1 2 77 44 43
1 2 78 45 44
1 2 45 79 46
1 2 46 80 47
1 2 47 81 48
1 2 48 82 25
2 2 51 6 8
2 2 49 3 83
2 2 4 83 3
2 2 5 6 84
2 2 52 51 9
2 2 52 10 53
2 2 54 53 11
2 2 14 15 85
2 2 54 14 85
2 2 55 85 15
2 2 55 16 86
2 2 56 86 17
2 2 16 17 86
1 2 25 82 59
2 2 20 21 87
2 2 56 20 87
2 2 57 87 21
2 2 22 88 57
2 2 22 23 88
1 2 26 59 60
1 2 61 27 60
1 2 61 62 28
1 2 62 63 29
1 2 64 30 63
1 2 31 64 65
1 2 65 66 32
1 2 66 67 33
1 2 68 34 67
1 2 68 69 35
1 2 70 36 69
1 2 37 70 71
1 2 71 72 38
1 2 73 39 72
1 2 40 73 74
1 2 75 41 74
1 2 76 42 75
1 2 77 43 76
1 2 44 77 78
1 2 45 78 79
1 2 80 46 79
1 2 47 80 81
1 2 82 48 81
2 2 24 2 58
2 2 84 50 5
2 2 83 4 50
2 2 6 51 84
2 2 83 50 82
2 2 83 80 49
2 2 53 64 52
2 2 57 88 77
2 2 58 88 23
2 2 58 2 49
2 2 86 70 55
1 2 89 61 60
1 2 61 90 62
1 2 89 90 61
2 2 62 91 63
2 2 92 67 66
1 2 67 93 68
2 2 67 92 93
1 2 69 68 94
2 2 95 73 72
1 2 96 74 73
2 2 73 95 96
1 2 74 97 75
1 2 98 79 78
2 2 84 51 90
2 2 51 52 91
2 2 52 64 91
2 2 88 58 98
2 2 86 56 95
2 2 91 64 63
2 2 87 57 97
1 2 59 89 60
2 2 70 86 99
2 2 99 95 72
2 2 100 92 66
2 2 81 83 82
2 2 88 78 77
2 2 90 91 62
2 2 100 66 65
1 2 93 94 68
2 2 69 55 70
2 2 99 72 71
1 2 74 96 97
1 2 79 101 80
2 2 51 91 90
2 2 55 69 94
1 2 98 101 79
2 2 82 50 59
2 2 49 80 101
2 2 58 101 98
2 2 85 55 94
2 2 58 49 101
2 2 86 95 99
2 2 96 87 97
2 2 93 85 94
2 2 54 85 93
2 2 57 75 97
2 2 56 96 95
2 2 56 87 96
2 2 64 53 100
2 2 53 54 92
2 2 75 57 76
2 2 54 93 92
2 2 50 84 89
2 2 84 90 89
2 2 78 88 98
2 2 80 83 81
2 2 57 77 76

boundary
48
1 1 1 2
1 1 2 3
1 1 3 4
1 1 4 5
1 1 5 6
1 1 6 7
2 1 7 8
2 1 8 9
2 1 9 10
2 1 10 11
2 1 11 12
2 1 12 13
3 1 13 14
3 1 14 15
3 1 15 16
3 1 16 17
3 1 17 18
3 1 18 19
4 1 19 20
4 1 20 21
4 1 21 22
4 1 22 23
4 1 23 24
4 1 24 1
5 1 26 25
5 1 27 26
5 1 28 27
5 1 29 28
5 1 30 29
5 1 31 30
6 1 32 31
6 1 33 32
6 1 34 33
6 1 35 34
6 1 36 35
6 1 37 36
7 1 38 37
7 1 39 38
7 1 40 39
7 1 41 40
7 1 42 41
7 1 43 42
8 1 44 43
8 1 45 44
8 1 46 45
8 1 47 46
8 1 48 47
8 1 25 48

vertices
101
2
 0 0
 0.166667 0
 0.333333 0
 0.5 0
 0.666667 0
 0.833333 0
 1 0
 1 0.166667
 1 0.333333
 1 0.5
 1 0.666667
 1 0.833333
 1 1
 0.833333 1
 0.666667 1
 0.5 1
 0.333333 1
 0.166667 1
 0 1
 0 0.833333
 0 0.666667
 0 0.5
 0 0.333333
 0 0.166667
 0.5 0.3
 0.551762 0.30682
 0.599999 0.326797
 0.641421 0.358579
 0.673203 0.400001
 0.69318 0.448238
 0.7 0.5
 0.69318 0.551762
 0.673203 0.599999
 0.641421 0.641421
 0.599999 0.673203
 0.551762 0.69318
 0.5 0.7
 0.448238 0.69318
 0.400001 0.673203
 0.358579 0.641421
 0.326797 0.599999
 0.30682 0.551762
 0.3 0.5
 0.30682 0.448238
 0.326797 0.400001
 0.358579 0.358579
 0.400001 0.326797
 0.448238 0.30682
 0.280005 0.149304
 0.545138 0.127037
 0.884465 0.248218
 0.879775 0.419399
 0.89969 0.555741
 0.87616 0.769211
 0.569868 0.867996
 0.215449 0.861969
 0.12837 0.560993
 0.128875 0.229852
 0.546717 0.235246
 0.597968 0.271088
 0.660382 0.290877
 0.715238 0.343348
 0.737642 0.413364
 0.786693 0.464086
 0.746158 0.531455
 0.736367 0.596942
 0.703803 0.657558
 0.66278 0.704986
 0.588288 0.750518
 0.529824 0.781611
 0.47111 0.74969
 0.386777 0.746482
 0.330365 0.70905
 0.29514 0.654214
 0.255436 0.599614
 0.235453 0.531229
 0.222251 0.470237
 0.25499 0.399563
 0.298249 0.343499
 0.344976 0.266622
 0.403251 0.256459
 0.472569 0.21125
 0.402398 0.139935
 0.73572 0.124022
 0.740675 0.875314
 0.437281 0.908261
 0.116116 0.729319
 0.125999 0.410478
 0.629053 0.201535
 0.746593 0.259041
 0.805509 0.369895
 0.801713 0.661291
 0.731831 0.727419
 0.653956 0.787078
 0.315356 0.804965
 0.252498 0.737911
 0.210181 0.65531
 0.207207 0.336529
 0.438101 0.818434
 0.801007 0.553492
 0.264878 0.257489
