# vtk DataFile Version 3.0
Particles
ASCII
DATASET POLYDATA
POINTS 100 float
0.5361537521145693 -0.14188070259082486 -0.08761201548553413
0.7782543572945227 -0.1187787165437407 -0.0641751188885577
0.5623276557358537 -0.13719575013339655 -0.030167326219197516
0.6952375326224843 -0.2054929259142593 0.09592293703011129
0.6257163706521736 -0.2858496106964638 0.00181165894609929
0.21341604411916956 0.01668851481610038 -0.03232255116937981
0.5439645757768586 -0.20450519378361592 -0.04114096753253731
0.4778260856087148 -0.22025744786328866 -0.08095577308609475
0.6393028187686122 -0.2982126475977215 0.06607863176396095
0.45604399606368506 -0.12895502584429883 0.015511962473672328
0.433470122830384 -0.11503682661653165 0.08650974548275256
0.5744542507645518 -0.16750922444028224 0.017617558951596377
0.34701977112125715 -0.03272895730541056 0.09418044783530982
0.7865181757102273 -0.2782295430637577 0.006215367828564827
0.151223892967387 -0.1428930407787668 -0.036407844219709926
0.24851135390437676 -0.10193083055008893 0.05282480640702361
0.2958375319760127 -0.19983137400491063 0.006865246216567339
0.3898402282936651 -0.14726720489950199 0.08244559433161147
0.4812879313329867 -0.06548046217924001 0.061970592997889345
0.40959895049008355 -0.18817523418559887 -0.050321534500421206
0.69075287862565 -0.23145179853268757 -0.01780823271713397
0.6390489084048745 -0.124149145654893 0.04925577849131735
0.5132226615430665 -0.21289720037415838 -0.04654257753194584
0.5643152744916358 -0.2208905965191755 -0.0011347742567090896
0.5493714301345911 -0.07478151128753464 -0.014866869493694382
0.3240587868596119 -0.019306418988966307 -0.04004691590279246
0.661432700487792 -0.20825129876741455 -0.0017683644259071096
0.5479633568212923 -0.1599000769624848 -0.05991851566439386
0.38641676851584056 -0.16297221278701318 0.0377118592666873
0.5173486380156196 -0.1662492064878296 0.07599580152301919
0.3750881151814176 -0.13074146483227236 0.0051557598771412305
0.23263498051487677 -0.05337273791952127 0.0852348440801732
0.5916234337493576 -0.19790413272761317 0.026404994690711947
0.26607357353814287 -0.12272620917814261 -0.07624050990109923
0.6503507107689439 -0.2713067821648961 0.04293215366542552
0.4435767158745676 -0.20310378826380354 0.062391307645062816
0.649941294229427 -0.11334222216940926 -0.036747590525679816
0.2051639773293437 -0.1311312570660878 0.08716044427022748
0.40847452955191904 -0.09846346687505748 0.08893339503988548
0.4121469713992563 -0.14232799302458204 0.05917392397978882
0.1452058002666002 -0.10925328506130567 0.07231556949397511
0.22327041745052018 -0.02926429313018604 0.007912616887168225
0.3098495949087004 -0.1558214014219398 0.09153204566764533
0.5303206732017559 -0.11333005029294979 -0.05130579487735163
0.22543016618567135 -0.07597114502874566 0.04605203353910467
0.6024278304634625 -0.1305846863892483 -0.02711084181682237
0.4295328346057971 -0.21255280715923783 -0.008877713697611297
0.4757631056004126 -0.1991762900154349 -0.05128540257462375
0.6898086100836867 -0.144631523800274 0.03962696069712418
0.44372899856790005 -0.0915352682942065 -0.047388202401038894
0.61992351050492 -0.24704018631560792 0.05558437417477524
0.521318409660404 -0.20396013444286848 0.0403854216198683
0.1466443871100073 -0.1289297125350518 0.07237156198370831
0.5512910698858348 -0.1244155310175799 -0.06751265242428905
0.18093828918359578 -0.013246920578604134 0.07331194693787876
0.3868040820773629 -0.18893954968836787 0.024430101713408134
0.14408809493024421 -0.10365573863520659 0.017423980588640725
0.6427517493381929 -0.2565504463121493 -0.059155891938935404
0.1969403850810548 -0.15814075457965587 0.07791849086252572
0.41226038452049163 -0.17359141996621366 -0.08623593177233616
0.3536271576235016 -0.13058444457709975 0.029596167197138812
0.5116780340401657 -0.13557671353581943 0.015060108648018544
0.36493440068793914 -0.17803870177734576 -0.09756143925054848
0.5446922304769776 -0.0826654784794414 0.0890414018190098
0.22583423202461136 -0.14639541825711427 0.02607421738568702
0.6512785067781924 -0.20820388216534783 0.008991911733491523
0.5413080483553695 -0.08896006977904065 -0.06737628274924141
0.30623829931383734 -0.024972511284552898 -0.06142060179730011
0.2327825384118283 -0.19303025816652233 0.014963356907335038
0.19567204011111605 -0.05875321341175038 0.06495325141773164
0.615556276882956 -0.20862907661988822 0.03414462694169909
0.4443407743862053 -0.07592251922006067 -0.055437098279945744
0.3499380396798042 0.01775611752957002 0.08900625432495848
0.18597374669939012 -0.028215645111646072 0.01296452048676125
0.8190728043551578 -0.20735038830220104 0.04901400314341159
0.14202190312012353 -0.12483241095368289 0.07018761112145336
0.4448104156683237 -0.12106734874994339 0.006986479030199028
0.5279243624166032 -0.2221035588020684 0.035300634165279926
0.5126905493176458 -0.11143367057293356 -0.013843402774689567
0.5573781803572002 -0.1537390136272814 -0.052989771769012456
0.33676055004394867 -0.19240758350579917 -0.05823180803810655
0.22525822118279082 -0.1444658307107426 -0.08248821508407118
0.589824595125956 -0.1408725125562519 -0.021085311035707183
0.22180714019000874 -0.06611015328252588 -0.036635219561721
0.29486940974987574 0.002665339793608194 -0.037238446726258534
0.5762072900651665 -0.08077223552511564 -0.05545790321228088
0.4611499039375088 -0.18853731017485864 0.0665274346232643
0.15309426417103475 -0.036430292702811125 0.012473683677032138
0.6514489397256441 -0.21287972824669663 0.027479248696381048
0.5764329486782758 -0.09560517859955847 0.020727549578285515
0.7014509098397346 -0.2703282476124341 0.086838137520972
0.7250898017546596 -0.18745226999955755 0.0033456972452377
0.4059760410527437 -0.16942287378238033 -0.03795169590236165
0.6794736518644023 -0.08666433608181869 -0.008540314427926715
0.5898299997917393 -0.12101282386790299 0.006808712261013983
0.23696884123674913 -0.06981426056241488 -0.09433312130971416
0.10961010993043344 -0.10896253567183307 0.08177364463396175
0.24271566429794353 -0.010853141005809685 -0.02059238586051204
0.4984745344370003 -0.26502644616184384 0.05844497622398376
0.27510077351903467 -0.16956613606171803 -0.03726422452662492
POINT_DATA 100
SCALARS data_0 float 1
LOOKUP_TABLE default
-0.1586411988
-0.2130424492
-0.1454477423
-0.2119468493
-0.2130872256
-0.0614666828
-0.1640467316
-0.1611687979
-0.1950700126
-0.1080736190
-0.1186441538
-0.1445712735
-0.1269932095
-0.2136252611
-0.0705516947
-0.0797921470
-0.1040254591
-0.0998401654
-0.1553767549
-0.1444398384
-0.2150410899
-0.1616378629
-0.1443944526
-0.1534124359
-0.1462938813
-0.0768296197
-0.1803347884
-0.1564099462
-0.1221273450
-0.1297487751
-0.0930045046
-0.0735072350
-0.1462538515
-0.0644646877
-0.2135991620
-0.1073422410
-0.1999995424
-0.0798732654
-0.1327333260
-0.1176207346
-0.0617169643
-0.0559996132
-0.1092246608
-0.1740964400
-0.0571247947
-0.2078824063
-0.1341691526
-0.1121147382
-0.2040801393
-0.1605048405
-0.1940600248
-0.1763521190
-0.0584946185
-0.1921019071
-0.0608397784
-0.1340104793
-0.0672466502
-0.2080712181
-0.0835106540
-0.1459251437
-0.1249645251
-0.1380278241
-0.0994026752
-0.1577133023
-0.0858945783
-0.1875685113
-0.1658665691
-0.0707067148
-0.0961609840
-0.0547297534
-0.2115883770
-0.1570742841
-0.0803355225
-0.0692621814
-0.2135815961
-0.0627906016
-0.1210189058
-0.1542240503
-0.1723164672
-0.1619582949
-0.1288458268
-0.0719873111
-0.1562341989
-0.0750796206
-0.0705176984
-0.1482743905
-0.1191849544
-0.0568129875
-0.1954608939
-0.1588730575
-0.2046610621
-0.2155943668
-0.1133930833
-0.1790433119
-0.1564562751
-0.0570860605
-0.0607971659
-0.0584341488
-0.1762845266
-0.0962861061
SCALARS data_1 float 1
LOOKUP_TABLE default
-0.2447250926
-0.3286462376
-0.2243724359
-0.3269561293
-0.3287153111
-0.0948205117
-0.2530638439
-0.2486242494
-0.3009213701
-0.1667178930
-0.1830243451
-0.2230203665
-0.1959038711
-0.3295453022
-0.1088353476
-0.1230899710
-0.1604730695
-0.1540166987
-0.2396892549
-0.2228176104
-0.3317294060
-0.2493478444
-0.2227475967
-0.2366590322
-0.2256777175
-0.1185198797
-0.2781903321
-0.2412830894
-0.1883976296
-0.2001546966
-0.1434717852
-0.1133946605
-0.2256159661
-0.0994453319
-0.3295050409
-0.1655896454
-0.3085258237
-0.1232151069
-0.2047587622
-0.1814455852
-0.0952066040
-0.0863868316
-0.1684935277
-0.2685668523
-0.0881225734
-0.3206861869
-0.2069737152
-0.1729518555
-0.3148206857
-0.2476000072
-0.2993633298
-0.2720465363
-0.0902357082
-0.2963426737
-0.0938534285
-0.2067289405
-0.1037368781
-0.3209774541
-0.1288262612
-0.2251088909
-0.1927743563
-0.2129262278
-0.1533418121
-0.2432936891
-0.1325037808
-0.2893493092
-0.2558711848
-0.1090744866
-0.1483410733
-0.0844279045
-0.3264031383
-0.2423079188
-0.1239281998
-0.1068461022
-0.3294779431
-0.0968628320
-0.1866877151
-0.2379110551
-0.2658210080
-0.2498421533
-0.1987617790
-0.1110499763
-0.2410119760
-0.1158202740
-0.1087829038
-0.2287329157
-0.1838586017
-0.0876415693
-0.3015243562
-0.2450827654
-0.3157168362
-0.3325829089
-0.1749238724
-0.2761980584
-0.2413545579
-0.0880628206
-0.0937876930
-0.0901424256
-0.2719422661
-0.1485340908
SCALARS data_2 float 1
LOOKUP_TABLE default
0.0000000000
0.0000000000
0.0000000000
0.0000000000
0.0000000000
0.0000000000
0.0000000000
0.0000000000
0.0000000000
0.0000000000
0.0000000000
0.0000000000
0.0000000000
0.0000000000
0.0000000000
0.0000000000
0.0000000000
0.0000000000
0.0000000000
0.0000000000
0.0000000000
0.0000000000
0.0000000000
0.0000000000
0.0000000000
0.0000000000
0.0000000000
0.0000000000
0.0000000000
0.0000000000
0.0000000000
0.0000000000
0.0000000000
0.0000000000
0.0000000000
0.0000000000
0.0000000000
0.0000000000
0.0000000000
0.0000000000
0.0000000000
0.0000000000
0.0000000000
0.0000000000
0.0000000000
0.0000000000
0.0000000000
0.0000000000
0.0000000000
0.0000000000
0.0000000000
0.0000000000
0.0000000000
0.0000000000
0.0000000000
0.0000000000
0.0000000000
0.0000000000
0.0000000000
0.0000000000
0.0000000000
0.0000000000
0.0000000000
0.0000000000
0.0000000000
0.0000000000
0.0000000000
0.0000000000
0.0000000000
0.0000000000
0.0000000000
0.0000000000
0.0000000000
0.0000000000
0.0000000000
0.0000000000
0.0000000000
0.0000000000
0.0000000000
0.0000000000
0.0000000000
0.0000000000
0.0000000000
0.0000000000
0.0000000000
0.0000000000
0.0000000000
0.0000000000
0.0000000000
0.0000000000
0.0000000000
0.0000000000
0.0000000000
0.0000000000
0.0000000000
0.0000000000
0.0000000000
0.0000000000
0.0000000000
0.0000000000
SCALARS data_3 float 1
LOOKUP_TABLE default
0.0000000000
0.0000000000
0.0000000000
0.0000000000
0.0000000000
0.0000000000
0.0000000000
0.0000000000
0.0000000000
0.0000000000
0.0000000000
0.0000000000
0.0000000000
0.0000000000
0.0000000000
0.0000000000
0.0000000000
0.0000000000
0.0000000000
0.0000000000
0.0000000000
0.0000000000
0.0000000000
0.0000000000
0.0000000000
0.0000000000
0.0000000000
0.0000000000
0.0000000000
0.0000000000
0.0000000000
0.0000000000
0.0000000000
0.0000000000
0.0000000000
0.0000000000
0.0000000000
0.0000000000
0.0000000000
0.0000000000
0.0000000000
0.0000000000
0.0000000000
0.0000000000
0.0000000000
0.0000000000
0.0000000000
0.0000000000
0.0000000000
0.0000000000
0.0000000000
0.0000000000
0.0000000000
0.0000000000
0.0000000000
0.0000000000
0.0000000000
0.0000000000
0.0000000000
0.0000000000
0.0000000000
0.0000000000
0.0000000000
0.0000000000
0.0000000000
0.0000000000
0.0000000000
0.0000000000
0.0000000000
0.0000000000
0.0000000000
0.0000000000
0.0000000000
0.0000000000
0.0000000000
0.0000000000
0.0000000000
0.0000000000
0.0000000000
0.0000000000
0.0000000000
0.0000000000
0.0000000000
0.0000000000
0.0000000000
0.0000000000
0.0000000000
0.0000000000
0.0000000000
0.0000000000
0.0000000000
0.0000000000
0.0000000000
0.0000000000
0.0000000000
0.0000000000
0.0000000000
0.0000000000
0.0000000000
0.0000000000
SCALARS data_4 float 1
LOOKUP_TABLE default
0.0000000000
0.0000000000
0.0000000000
0.0000000000
0.0000000000
0.0000000000
0.0000000000
0.0000000000
0.0000000000
0.0000000000
0.0000000000
0.0000000000
0.0000000000
0.0000000000
0.0000000000
0.0000000000
0.0000000000
0.0000000000
0.0000000000
0.0000000000
0.0000000000
0.0000000000
0.0000000000
0.0000000000
0.0000000000
0.0000000000
0.0000000000
0.0000000000
0.0000000000
0.0000000000
0.0000000000
0.0000000000
0.0000000000
0.0000000000
0.0000000000
0.0000000000
0.0000000000
0.0000000000
0.0000000000
0.0000000000
0.0000000000
0.0000000000
0.0000000000
0.0000000000
0.0000000000
0.0000000000
0.0000000000
0.0000000000
0.0000000000
0.0000000000
0.0000000000
0.0000000000
0.0000000000
0.0000000000
0.0000000000
0.0000000000
0.0000000000
0.0000000000
0.0000000000
0.0000000000
0.0000000000
0.0000000000
0.0000000000
0.0000000000
0.0000000000
0.0000000000
0.0000000000
0.0000000000
0.0000000000
0.0000000000
0.0000000000
0.0000000000
0.0000000000
0.0000000000
0.0000000000
0.0000000000
0.0000000000
0.0000000000
0.0000000000
0.0000000000
0.0000000000
0.0000000000
0.0000000000
0.0000000000
0.0000000000
0.0000000000
0.0000000000
0.0000000000
0.0000000000
0.0000000000
0.0000000000
0.0000000000
0.0000000000
0.0000000000
0.0000000000
0.0000000000
0.0000000000
0.0000000000
0.0000000000
0.0000000000
SCALARS data_5 float 1
LOOKUP_TABLE default
0.0000000000
0.0000000000
0.0000000000
0.0000000000
0.0000000000
0.0000000000
0.0000000000
0.0000000000
0.0000000000
0.0000000000
0.0000000000
0.0000000000
0.0000000000
0.0000000000
0.0000000000
0.0000000000
0.0000000000
0.0000000000
0.0000000000
0.0000000000
0.0000000000
0.0000000000
0.0000000000
0.0000000000
0.0000000000
0.0000000000
0.0000000000
0.0000000000
0.0000000000
0.0000000000
0.0000000000
0.0000000000
0.0000000000
0.0000000000
0.0000000000
0.0000000000
0.0000000000
0.0000000000
0.0000000000
0.0000000000
0.0000000000
0.0000000000
0.0000000000
0.0000000000
0.0000000000
0.0000000000
0.0000000000
0.0000000000
0.0000000000
0.0000000000
0.0000000000
0.0000000000
0.0000000000
0.0000000000
0.0000000000
0.0000000000
0.0000000000
0.0000000000
0.0000000000
0.0000000000
0.0000000000
0.0000000000
0.0000000000
0.0000000000
0.0000000000
0.0000000000
0.0000000000
0.0000000000
0.0000000000
0.0000000000
0.0000000000
0.0000000000
0.0000000000
0.0000000000
0.0000000000
0.0000000000
0.0000000000
0.0000000000
0.0000000000
0.0000000000
0.0000000000
0.0000000000
0.0000000000
0.0000000000
0.0000000000
0.0000000000
0.0000000000
0.0000000000
0.0000000000
0.0000000000
0.0000000000
0.0000000000
0.0000000000
0.0000000000
0.0000000000
0.0000000000
0.0000000000
0.0000000000
0.0000000000
0.0000000000
SCALARS data_6 float 1
LOOKUP_TABLE default
0.0000000000
0.0000000000
0.0000000000
0.0000000000
0.0000000000
0.0000000000
0.0000000000
0.0000000000
0.0000000000
0.0000000000
0.0000000000
0.0000000000
0.0000000000
0.0000000000
0.0000000000
0.0000000000
0.0000000000
0.0000000000
0.0000000000
0.0000000000
0.0000000000
0.0000000000
0.0000000000
0.0000000000
0.0000000000
0.0000000000
0.0000000000
0.0000000000
0.0000000000
0.0000000000
0.0000000000
0.0000000000
0.0000000000
0.0000000000
0.0000000000
0.0000000000
0.0000000000
0.0000000000
0.0000000000
0.0000000000
0.0000000000
0.0000000000
0.0000000000
0.0000000000
0.0000000000
0.0000000000
0.0000000000
0.0000000000
0.0000000000
0.0000000000
0.0000000000
0.0000000000
0.0000000000
0.0000000000
0.0000000000
0.0000000000
0.0000000000
0.0000000000
0.0000000000
0.0000000000
0.0000000000
0.0000000000
0.0000000000
0.0000000000
0.0000000000
0.0000000000
0.0000000000
0.0000000000
0.0000000000
0.0000000000
0.0000000000
0.0000000000
0.0000000000
0.0000000000
0.0000000000
0.0000000000
0.0000000000
0.0000000000
0.0000000000
0.0000000000
0.0000000000
0.0000000000
0.0000000000
0.0000000000
0.0000000000
0.0000000000
0.0000000000
0.0000000000
0.0000000000
0.0000000000
0.0000000000
0.0000000000
0.0000000000
0.0000000000
0.0000000000
0.0000000000
0.0000000000
0.0000000000
0.0000000000
0.0000000000
SCALARS data_7 float 1
LOOKUP_TABLE default
0.0000000000
0.0000000000
0.0000000000
0.0000000000
0.0000000000
0.0000000000
0.0000000000
0.0000000000
0.0000000000
0.0000000000
0.0000000000
0.0000000000
0.0000000000
0.0000000000
0.0000000000
0.0000000000
0.0000000000
0.0000000000
0.0000000000
0.0000000000
0.0000000000
0.0000000000
0.0000000000
0.0000000000
0.0000000000
0.0000000000
0.0000000000
0.0000000000
0.0000000000
0.0000000000
0.0000000000
0.0000000000
0.0000000000
0.0000000000
0.0000000000
0.0000000000
0.0000000000
0.0000000000
0.0000000000
0.0000000000
0.0000000000
0.0000000000
0.0000000000
0.0000000000
0.0000000000
0.0000000000
0.0000000000
0.0000000000
0.0000000000
0.0000000000
0.0000000000
0.0000000000
0.0000000000
0.0000000000
0.0000000000
0.0000000000
0.0000000000
0.0000000000
0.0000000000
0.0000000000
0.0000000000
0.0000000000
0.0000000000
0.0000000000
0.0000000000
0.0000000000
0.0000000000
0.0000000000
0.0000000000
0.0000000000
0.0000000000
0.0000000000
0.0000000000
0.0000000000
0.0000000000
0.0000000000
0.0000000000
0.0000000000
0.0000000000
0.0000000000
0.0000000000
0.0000000000
0.0000000000
0.0000000000
0.0000000000
0.0000000000
0.0000000000
0.0000000000
0.0000000000
0.0000000000
0.0000000000
0.0000000000
0.0000000000
0.0000000000
0.0000000000
0.0000000000
0.0000000000
0.0000000000
0.0000000000
0.0000000000
SCALARS data_8 float 1
LOOKUP_TABLE default
1.0000000000
1.0000000000
1.0000000000
1.0000000000
1.0000000000
1.0000000000
1.0000000000
1.0000000000
1.0000000000
1.0000000000
1.0000000000
1.0000000000
1.0000000000
1.0000000000
1.0000000000
1.0000000000
1.0000000000
1.0000000000
1.0000000000
1.0000000000
1.0000000000
1.0000000000
1.0000000000
1.0000000000
1.0000000000
1.0000000000
1.0000000000
1.0000000000
1.0000000000
1.0000000000
1.0000000000
1.0000000000
1.0000000000
1.0000000000
1.0000000000
1.0000000000
1.0000000000
1.0000000000
1.0000000000
1.0000000000
1.0000000000
1.0000000000
1.0000000000
1.0000000000
1.0000000000
1.0000000000
1.0000000000
1.0000000000
1.0000000000
1.0000000000
1.0000000000
1.0000000000
1.0000000000
1.0000000000
1.0000000000
1.0000000000
1.0000000000
1.0000000000
1.0000000000
1.0000000000
1.0000000000
1.0000000000
1.0000000000
1.0000000000
1.0000000000
1.0000000000
1.0000000000
1.0000000000
1.0000000000
1.0000000000
1.0000000000
1.0000000000
1.0000000000
1.0000000000
1.0000000000
1.0000000000
1.0000000000
1.0000000000
1.0000000000
1.0000000000
1.0000000000
1.0000000000
1.0000000000
1.0000000000
1.0000000000
1.0000000000
1.0000000000
1.0000000000
1.0000000000
1.0000000000
1.0000000000
1.0000000000
1.0000000000
1.0000000000
1.0000000000
1.0000000000
1.0000000000
1.0000000000
1.0000000000
1.0000000000
SCALARS elem_id int 1
LOOKUP_TABLE default
-1
-1
-1
-1
-1
-1
-1
-1
-1
-1
-1
-1
-1
-1
-1
-1
-1
-1
-1
-1
-1
-1
-1
-1
-1
-1
-1
-1
-1
-1
-1
-1
-1
-1
-1
-1
-1
-1
-1
-1
-1
-1
-1
-1
-1
-1
-1
-1
-1
-1
-1
-1
-1
-1
-1
-1
-1
-1
-1
-1
-1
-1
-1
-1
-1
-1
-1
-1
-1
-1
-1
-1
-1
-1
-1
-1
-1
-1
-1
-1
-1
-1
-1
-1
-1
-1
-1
-1
-1
-1
-1
-1
-1
-1
-1
-1
-1
-1
-1
-1
