MFEM mesh v1.0

dimension
3

elements
128
1 2 1 19 20
1 2 7 21 19
1 2 8 20 21
1 2 19 21 20
1 2 2 22 23
1 2 9 24 22
1 2 7 23 24
1 2 22 24 23
1 2 5 25 26
1 2 8 27 25
1 2 9 26 27
1 2 25 27 26
1 2 7 24 21
1 2 9 27 24
1 2 8 21 27
1 2 24 27 21
2 2 2 28 22
2 2 10 29 28
2 2 9 22 29
2 2 28 29 22
2 2 3 30 31
2 2 11 32 30
2 2 10 31 32
2 2 30 32 31
2 2 5 26 33
2 2 9 34 26
2 2 11 33 34
2 2 26 34 33
2 2 10 32 29
2 2 11 34 32
2 2 9 29 34
2 2 32 34 29
3 2 3 35 30
3 2 12 36 35
3 2 11 30 36
3 2 35 36 30
3 2 4 37 38
3 2 13 39 37
3 2 12 38 39
3 2 37 39 38
3 2 5 33 40
3 2 11 41 33
3 2 13 40 41
3 2 33 41 40
3 2 12 39 36
3 2 13 41 39
3 2 11 36 41
3 2 39 41 36
4 2 4 42 37
4 2 14 43 42
4 2 13 37 43
4 2 42 43 37
4 2 1 20 44
4 2 8 45 20
4 2 14 44 45
4 2 20 45 44
4 2 5 40 25
4 2 13 46 40
4 2 8 25 46
4 2 40 46 25
4 2 14 45 43
4 2 8 46 45
4 2 13 43 46
4 2 45 46 43
5 2 2 23 47
5 2 7 48 23
5 2 15 47 48
5 2 23 48 47
5 2 1 49 19
5 2 16 50 49
5 2 7 19 50
5 2 49 50 19
5 2 6 51 52
5 2 15 53 51
5 2 16 52 53
5 2 51 53 52
5 2 7 50 48
5 2 16 53 50
5 2 15 48 53
5 2 50 53 48
6 2 3 31 54
6 2 10 55 31
6 2 17 54 55
6 2 31 55 54
6 2 2 47 28
6 2 15 56 47
6 2 10 28 56
6 2 47 56 28
6 2 6 57 51
6 2 17 58 57
6 2 15 51 58
6 2 57 58 51
6 2 10 56 55
6 2 15 58 56
6 2 17 55 58
6 2 56 58 55
7 2 4 38 59
7 2 12 60 38
7 2 18 59 60
7 2 38 60 59
7 2 3 54 35
7 2 17 61 54
7 2 12 35 61
7 2 54 61 35
7 2 6 62 57
7 2 18 63 62
7 2 17 57 63
7 2 62 63 57
7 2 12 61 60
7 2 17 63 61
7 2 18 60 63
7 2 61 63 60
8 2 1 44 49
8 2 14 64 44
8 2 16 49 64
8 2 44 64 49
8 2 4 59 42
8 2 18 65 59
8 2 14 42 65
8 2 59 65 42
8 2 6 52 62
8 2 16 66 52
8 2 18 62 66
8 2 52 66 62
8 2 14 65 64
8 2 18 66 65
8 2 16 64 66
8 2 65 66 64

boundary
0

vertices
66
3
 1 0 0
 0 1 0
 -1 0 0
 0 -1 0
 0 0 1
 0 0 -1
 0.7071067811865475 0.7071067811865475 0
 0.7071067811865475 0 0.7071067811865475
 0 0.7071067811865475 0.7071067811865475
 -0.7071067811865475 0.7071067811865475 0
 -0.7071067811865475 0 0.7071067811865475
 -0.7071067811865475 -0.7071067811865475 0
 0 -0.7071067811865475 0.7071067811865475
 0.7071067811865475 -0.7071067811865475 0
 0 0.7071067811865475 -0.7071067811865475
 0.7071067811865475 0 -0.7071067811865475
 -0.7071067811865475 0 -0.7071067811865475
 0 -0.7071067811865475 -0.7071067811865475
 0.9486832980505138 0.31622776601683794 0
 0.9486832980505138 0 0.31622776601683794
 0.8164965809277261 0.4082482904638631 0.4082482904638631
 0 0.9486832980505138 0.31622776601683794
 0.31622776601683794 0.9486832980505138 0
 0.4082482904638631 0.8164965809277261 0.4082482904638631
 0.31622776601683794 0 0.9486832980505138
 0 0.31622776601683794 0.9486832980505138
 0.4082482904638631 0.4082482904638631 0.8164965809277261
 -0.31622776601683794 0.9486832980505138 0
 -0.4082482904638631 0.8164965809277261 0.4082482904638631
 -0.9486832980505138 0 0.31622776601683794
 -0.9486832980505138 0.31622776601683794 0
 -0.8164965809277261 0.4082482904638631 0.4082482904638631
 -0.31622776601683794 0 0.9486832980505138
 -0.4082482904638631 0.4082482904638631 0.8164965809277261
 -0.9486832980505138 -0.31622776601683794 0
 -0.8164965809277261 -0.4082482904638631 0.4082482904638631
 0 -0.9486832980505138 0.31622776601683794
 -0.31622776601683794 -0.9486832980505138 0
 -0.4082482904638631 -0.8164965809277261 0.4082482904638631
 0 -0.31622776601683794 0.9486832980505138
 -0.4082482904638631 -0.4082482904638631 0.8164965809277261
 0.31622776601683794 -0.9486832980505138 0
 0.4082482904638631 -0.8164965809277261 0.4082482904638631
 0.9486832980505138 -0.31622776601683794 0
 0.8164965809277261 -0.4082482904638631 0.4082482904638631
 0.4082482904638631 -0.4082482904638631 0.8164965809277261
 0 0.9486832980505138 -0.31622776601683794
 0.4082482904638631 0.8164965809277261 -0.4082482904638631
 0.9486832980505138 0 -0.31622776601683794
 0.8164965809277261 0.4082482904638631 -0.4082482904638631
 0 0.31622776601683794 -0.9486832980505138
 0.31622776601683794 0 -0.9486832980505138
 0.4082482904638631 0.4082482904638631 -0.8164965809277261
 -0.9486832980505138 0 -0.31622776601683794
 -0.8164965809277261 0.4082482904638631 -0.4082482904638631
 -0.4082482904638631 0.8164965809277261 -0.4082482904638631
 -0.31622776601683794 0 -0.9486832980505138
 -0.4082482904638631 0.4082482904638631 -0.8164965809277261
 0 -0.9486832980505138 -0.31622776601683794
 -0.4082482904638631 -0.8164965809277261 -0.4082482904638631
 -0.8164965809277261 -0.4082482904638631 -0.4082482904638631
 0 -0.31622776601683794 -0.9486832980505138
 -0.4082482904638631 -0.4082482904638631 -0.8164965809277261
 0.8164965809277261 -0.4082482904638631 -0.4082482904638631
 0.4082482904638631 -0.8164965809277261 -0.4082482904638631
 0.4082482904638631 -0.4082482904638631 -0.8164965809277261
