MFEM mesh v1.0

#
# MFEM Geometry Types (see fem/geom.hpp):
#
# POINT       = 0
# SEGMENT     = 1
# TRIANGLE    = 2
# SQUARE      = 3
# TETRAHEDRON = 4
# CUBE        = 5
# PRISM       = 6
# PYRAMID     = 7
#

dimension
3

elements
3
1 5 0 1 3 2 4 5 7 6
1 5 4 5 7 6 8 9 11 10
1 5 8 9 11 10 12 13 15 14

boundary
14
1 3 0 2 3 1
6 3 12 13 15 14
5 3 0 4 6 2
5 3 4 8 10 6
5 3 8 12 14 10
3 3 1 3 7 5
3 3 5 7 11 9
3 3 9 11 15 13
2 3 0 1 5 4
2 3 4 5 9 8
2 3 8 9 13 12
4 3 2 6 7 3
4 3 6 10 11 7
4 3 10 14 15 11

vertices
16
3
0 0 0
1 0 0
0 1 0
1 1 0
0.6830127 -0.1830127 1
1.1830127 0.6830127 1
-0.1830127 0.3169873 1
0.3169873 1.1830127 1
1.1830127 0.3169873 2
0.6830127 1.1830127 2
0.3169873 -0.1830127 2
-0.1830127 0.6830127 2
1 1 3
6.123234e-17 1 3
1 -5.5511151e-17 3
-6.123234e-17 1.110223e-16 3
