MFEM mesh v1.0

#
# MFEM Geometry Types (see fem/geom.hpp):
#
# POINT       = 0
# SEGMENT     = 1
# TRIANGLE    = 2
# SQUARE      = 3
# TETRAHEDRON = 4
# CUBE        = 5
# PRISM       = 6
# PYRAMID     = 7
#

dimension
3

elements
3
1 5 0 1 3 2 4 5 7 6
1 5 4 5 7 6 8 9 11 10
1 5 8 9 11 10 3 2 0 1

boundary
12
5 3 0 4 6 2
5 3 4 8 10 6
5 3 8 3 1 10
3 3 1 3 7 5
3 3 5 7 11 9
3 3 9 11 0 2
2 3 0 1 5 4
2 3 4 5 9 8
2 3 8 9 2 3
4 3 2 6 7 3
4 3 6 10 11 7
4 3 10 1 0 11

vertices
12

nodes
FiniteElementSpace
FiniteElementCollection: L2_T1_3D_P3
VDim: 3
Ordering: 1

0 0 0
0.2763932 0 0
0.7236068 0 0
1 0 0
0 0.2763932 0
0.2763932 0.2763932 0
0.7236068 0.2763932 0
1 0.2763932 0
0 0.7236068 0
0.2763932 0.7236068 0
0.7236068 0.7236068 0
1 0.7236068 0
0 1 0
0.2763932 1 0
0.7236068 1 0
1 1 0
0.16350479 -0.12190913 0.2763932
0.42840123 -0.043022667 0.2763932
0.85701269 0.084618319 0.2763932
1.1219091 0.16350479 0.2763932
0.084618319 0.14298731 0.2763932
0.34951477 0.22187378 0.2763932
0.77812622 0.34951477 0.2763932
1.0430227 0.42840123 0.2763932
-0.043022667 0.57159877 0.2763932
0.22187378 0.65048523 0.2763932
0.65048523 0.77812622 0.2763932
0.91538168 0.85701269 0.2763932
-0.12190913 0.83649521 0.2763932
0.14298731 0.91538168 0.2763932
0.57159877 1.0430227 0.2763932
0.83649521 1.1219091 0.2763932
0.48045884 -0.20683672 0.7236068
0.68122474 -0.016872897 0.7236068
1.0060708 0.29049502 0.7236068
1.2068367 0.48045884 0.7236068
0.29049502 -0.0060708079 0.7236068
0.49126093 0.18389301 0.7236068
0.81610699 0.49126093 0.7236068
1.0168729 0.68122474 0.7236068
-0.016872897 0.31877526 0.7236068
0.18389301 0.50873907 0.7236068
0.50873907 0.81610699 0.7236068
0.70950498 1.0060708 0.7236068
-0.20683672 0.51954116 0.7236068
-0.0060708079 0.70950498 0.7236068
0.31877526 1.0168729 0.7236068
0.51954116 1.2068367 0.7236068
0.6830127 -0.1830127 1
0.8212093 0.056350833 1
1.0448161 0.44364917 1
1.1830127 0.6830127 1
0.44364917 -0.044816101 1
0.58184577 0.19454743 1
0.80545257 0.58184577 1
0.94364917 0.8212093 1
0.056350833 0.1787907 1
0.19454743 0.41815423 1
0.41815423 0.80545257 1
0.55635083 1.0448161 1
-0.1830127 0.3169873 1
-0.044816101 0.55635083 1
0.1787907 0.94364917 1
0.3169873 1.1830127 1
0.6830127 -0.1830127 1
0.8212093 0.056350833 1
1.0448161 0.44364917 1
1.1830127 0.6830127 1
0.44364917 -0.044816101 1
0.58184577 0.19454743 1
0.80545257 0.58184577 1
0.94364917 0.8212093 1
0.056350833 0.1787907 1
0.19454743 0.41815423 1
0.41815423 0.80545257 1
0.55635083 1.0448161 1
-0.1830127 0.3169873 1
-0.044816101 0.55635083 1
0.1787907 0.94364917 1
0.3169873 1.1830127 1
0.8703415 -0.10236797 1.2763932
0.93447204 0.16648232 1.2763932
1.0382374 0.60149122 1.2763932
1.102368 0.8703415 1.2763932
0.60149122 -0.038237432 1.2763932
0.66562175 0.23061285 1.2763932
0.76938715 0.66562175 1.2763932
0.83351768 0.93447204 1.2763932
0.16648232 0.06552796 1.2763932
0.23061285 0.33437825 1.2763932
0.33437825 0.76938715 1.2763932
0.39850878 1.0382374 1.2763932
-0.10236797 0.1296585 1.2763932
-0.038237432 0.39850878 1.2763932
0.06552796 0.83351768 1.2763932
0.1296585 1.102368 1.2763932
1.102368 0.1296585 1.7236068
1.0382374 0.39850878 1.7236068
0.93447204 0.83351768 1.7236068
0.8703415 1.102368 1.7236068
0.83351768 0.06552796 1.7236068
0.76938715 0.33437825 1.7236068
0.66562175 0.76938715 1.7236068
0.60149122 1.0382374 1.7236068
0.39850878 -0.038237432 1.7236068
0.33437825 0.23061285 1.7236068
0.23061285 0.66562175 1.7236068
0.16648232 0.93447204 1.7236068
0.1296585 -0.10236797 1.7236068
0.06552796 0.16648232 1.7236068
-0.038237432 0.60149122 1.7236068
-0.10236797 0.8703415 1.7236068
1.1830127 0.3169873 2
1.0448161 0.55635083 2
0.8212093 0.94364917 2
0.6830127 1.1830127 2
0.94364917 0.1787907 2
0.80545257 0.41815423 2
0.58184577 0.80545257 2
0.44364917 1.0448161 2
0.55635083 -0.044816101 2
0.41815423 0.19454743 2
0.19454743 0.58184577 2
0.056350833 0.8212093 2
0.3169873 -0.1830127 2
0.1787907 0.056350833 2
-0.044816101 0.44364917 2
-0.1830127 0.6830127 2
1.1830127 0.3169873 2
1.0448161 0.55635083 2
0.8212093 0.94364917 2
0.6830127 1.1830127 2
0.94364917 0.1787907 2
0.80545257 0.41815423 2
0.58184577 0.80545257 2
0.44364917 1.0448161 2
0.55635083 -0.044816101 2
0.41815423 0.19454743 2
0.19454743 0.58184577 2
0.056350833 0.8212093 2
0.3169873 -0.1830127 2
0.1787907 0.056350833 2
-0.044816101 0.44364917 2
-0.1830127 0.6830127 2
1.2068367 0.51954116 2.2763932
1.0060708 0.70950498 2.2763932
0.68122474 1.0168729 2.2763932
0.48045884 1.2068367 2.2763932
1.0168729 0.31877526 2.2763932
0.81610699 0.50873907 2.2763932
0.49126093 0.81610699 2.2763932
0.29049502 1.0060708 2.2763932
0.70950498 -0.0060708079 2.2763932
0.50873907 0.18389301 2.2763932
0.18389301 0.49126093 2.2763932
-0.016872897 0.68122474 2.2763932
0.51954116 -0.20683672 2.2763932
0.31877526 -0.016872897 2.2763932
-0.0060708079 0.29049502 2.2763932
-0.20683672 0.48045884 2.2763932
1.1219091 0.83649521 2.7236068
0.85701269 0.91538168 2.7236068
0.42840123 1.0430227 2.7236068
0.16350479 1.1219091 2.7236068
1.0430227 0.57159877 2.7236068
0.77812622 0.65048523 2.7236068
0.34951477 0.77812622 2.7236068
0.084618319 0.85701269 2.7236068
0.91538168 0.14298731 2.7236068
0.65048523 0.22187378 2.7236068
0.22187378 0.34951477 2.7236068
-0.043022667 0.42840123 2.7236068
0.83649521 -0.12190913 2.7236068
0.57159877 -0.043022667 2.7236068
0.14298731 0.084618319 2.7236068
-0.12190913 0.16350479 2.7236068
1 1 3
0.7236068 1 3
0.2763932 1 3
6.123234e-17 1 3
1 0.7236068 3
0.7236068 0.7236068 3
0.2763932 0.7236068 3
2.7383935e-17 0.7236068 3
1 0.2763932 3
0.7236068 0.2763932 3
0.2763932 0.2763932 3
-2.7383935e-17 0.2763932 3
1 -5.5511151e-17 3
0.7236068 0 3
0.2763932 0 3
-6.123234e-17 1.110223e-16 3
