MFEM mesh v1.0

#
# MFEM Geometry Types (see fem/geom.hpp):
#
# POINT       = 0
# SEGMENT     = 1
# TRIANGLE    = 2
# SQUARE      = 3
# TETRAHEDRON = 4
# CUBE        = 5
# PRISM       = 6
# PYRAMID     = 7
#

dimension
3

elements
14
1 5 0 1 4 3 9 10 13 12
1 5 1 4 13 10 26 28 34 32
1 5 3 4 7 6 12 13 16 15
1 5 4 7 16 13 28 30 36 34
1 5 12 13 16 15 21 22 25 24
1 5 13 16 25 22 34 36 42 40
1 5 9 10 13 12 18 19 22 21
1 5 10 13 22 19 32 34 40 38
1 5 2 3 6 5 11 12 15 14
1 5 27 28 34 33 29 30 36 35
1 5 11 12 15 14 20 21 24 23
1 5 33 35 36 34 39 41 42 40
1 5 8 9 12 11 17 18 21 20
1 5 31 37 39 33 32 38 40 34

boundary
40
1 3 5 6 3 2
1 3 28 30 29 27
2 3 6 7 4 3
2 3 4 7 30 28
3 3 3 4 1 0
3 3 1 4 28 26
4 3 11 12 9 8
4 3 32 34 33 31
5 3 2 3 12 11
5 3 34 28 27 33
6 3 0 1 10 9
6 3 10 1 26 32
7 3 9 10 19 18
7 3 19 10 32 38
8 3 8 9 18 17
8 3 38 32 31 37
13 3 7 6 15 16
13 3 36 30 7 16
14 3 6 5 14 15
14 3 35 29 30 36
15 3 15 14 23 24
15 3 41 35 36 42
16 3 16 15 24 25
16 3 42 36 16 25
17 3 5 2 11 14
17 3 33 27 29 35
18 3 3 0 9 12
18 3 32 26 28 34
19 3 11 8 17 20
19 3 37 31 33 39
20 3 14 11 20 23
20 3 39 33 35 41
21 3 17 18 21 20
21 3 40 38 37 39
22 3 18 19 22 21
22 3 22 19 38 40
23 3 21 22 25 24
23 3 25 22 40 42
24 3 20 21 24 23
24 3 42 40 39 41

vertices
43
3
0 -1 -1
1 -1 -1
-1 0 -1
0 0 -1
1 0 -1
-1 1 -1
0 1 -1
1 1 -1
-1 -1 0
0 -1 0
1 -1 0
-1 0 0
0 0 0
1 0 0
-1 1 0
0 1 0
1 1 0
-1 -1 1
0 -1 1
1 -1 1
-1 0 1
0 0 1
1 0 1
-1 1 1
0 1 1
1 1 1
2 -1 -1
3 0 -1
2 0 -1
3 1 -1
2 1 -1
3 -1 0
2 -1 0
3 0 0
2 0 0
3 1 0
2 1 0
3 -1 1
2 -1 1
3 0 1
2 0 1
3 1 1
2 1 1
