MFEM mesh v1.0

#
# MFEM Geometry Types (see fem/geom.hpp):
#
# POINT       = 0
# SEGMENT     = 1
# TRIANGLE    = 2
# SQUARE      = 3
# TETRAHEDRON = 4
# CUBE        = 5
# PRISM       = 6
# PYRAMID     = 7
#

dimension
2

elements
496
1 3 0 1 33 32
1 3 1 2 34 33
1 3 2 3 35 34
1 3 3 4 36 35
1 3 4 5 37 36
1 3 5 6 38 37
1 3 6 7 39 38
1 3 7 8 40 39
1 3 8 9 41 40
1 3 9 10 42 41
1 3 10 11 43 42
1 3 11 12 44 43
1 3 12 13 45 44
1 3 13 14 46 45
1 3 14 15 47 46
1 3 15 16 48 47
1 3 16 17 49 48
1 3 17 18 50 49
1 3 18 19 51 50
1 3 19 20 52 51
1 3 20 21 53 52
1 3 21 22 54 53
1 3 22 23 55 54
1 3 23 24 56 55
1 3 24 25 57 56
1 3 25 26 58 57
1 3 26 27 59 58
1 3 27 28 60 59
1 3 28 29 61 60
1 3 29 30 62 61
1 3 30 31 63 62
1 3 32 33 65 64
1 3 33 34 66 65
1 3 34 35 67 66
1 3 35 36 68 67
1 3 36 37 69 68
1 3 37 38 70 69
1 3 38 39 71 70
1 3 39 40 72 71
1 3 40 41 73 72
1 3 41 42 74 73
1 3 42 43 75 74
1 3 43 44 76 75
1 3 44 45 77 76
1 3 45 46 78 77
1 3 46 47 79 78
1 3 47 48 80 79
1 3 48 49 81 80
1 3 49 50 82 81
1 3 50 51 83 82
1 3 51 52 84 83
1 3 52 53 85 84
1 3 53 54 86 85
1 3 54 55 87 86
1 3 55 56 88 87
1 3 56 57 89 88
1 3 57 58 90 89
1 3 58 59 91 90
1 3 59 60 92 91
1 3 60 61 93 92
1 3 61 62 94 93
1 3 62 63 95 94
1 3 64 65 97 96
1 3 65 66 98 97
1 3 66 67 99 98
1 3 67 68 100 99
1 3 68 69 101 100
1 3 69 70 102 101
1 3 70 71 103 102
1 3 71 72 104 103
1 3 72 73 105 104
1 3 73 74 106 105
1 3 74 75 107 106
1 3 75 76 108 107
1 3 76 77 109 108
1 3 77 78 110 109
1 3 78 79 111 110
1 3 79 80 112 111
1 3 80 81 113 112
1 3 81 82 114 113
1 3 82 83 115 114
1 3 83 84 116 115
1 3 84 85 117 116
1 3 85 86 118 117
1 3 86 87 119 118
1 3 87 88 120 119
1 3 88 89 121 120
1 3 89 90 122 121
1 3 90 91 123 122
1 3 91 92 124 123
1 3 92 93 125 124
1 3 93 94 126 125
1 3 94 95 127 126
1 3 96 97 129 128
1 3 97 98 130 129
1 3 98 99 131 130
1 3 99 100 132 131
1 3 100 101 133 132
1 3 101 102 134 133
1 3 102 103 135 134
1 3 103 104 136 135
1 3 104 105 137 136
1 3 105 106 138 137
1 3 106 107 139 138
1 3 107 108 140 139
1 3 108 109 141 140
1 3 109 110 142 141
1 3 110 111 143 142
1 3 111 112 144 143
1 3 112 113 145 144
1 3 113 114 146 145
1 3 114 115 147 146
1 3 115 116 148 147
1 3 116 117 149 148
1 3 117 118 150 149
1 3 118 119 151 150
1 3 119 120 152 151
1 3 120 121 153 152
1 3 121 122 154 153
1 3 122 123 155 154
1 3 123 124 156 155
1 3 124 125 157 156
1 3 125 126 158 157
1 3 126 127 159 158
1 3 128 129 161 160
1 3 129 130 162 161
1 3 130 131 163 162
1 3 131 132 164 163
1 3 132 133 165 164
1 3 133 134 166 165
1 3 134 135 167 166
1 3 135 136 168 167
1 3 136 137 169 168
1 3 137 138 170 169
1 3 138 139 171 170
1 3 139 140 172 171
1 3 140 141 173 172
1 3 141 142 174 173
1 3 142 143 175 174
1 3 143 144 176 175
1 3 144 145 177 176
1 3 145 146 178 177
1 3 146 147 179 178
1 3 147 148 180 179
1 3 148 149 181 180
1 3 149 150 182 181
1 3 150 151 183 182
1 3 151 152 184 183
1 3 152 153 185 184
1 3 153 154 186 185
1 3 154 155 187 186
1 3 155 156 188 187
1 3 156 157 189 188
1 3 157 158 190 189
1 3 158 159 191 190
1 3 160 161 193 192
1 3 161 162 194 193
1 3 162 163 195 194
1 3 163 164 196 195
1 3 164 165 197 196
1 3 165 166 198 197
1 3 166 167 199 198
1 3 167 168 200 199
1 3 168 169 201 200
1 3 169 170 202 201
1 3 170 171 203 202
1 3 171 172 204 203
1 3 172 173 205 204
1 3 173 174 206 205
1 3 174 175 207 206
1 3 175 176 208 207
1 3 176 177 209 208
1 3 177 178 210 209
1 3 178 179 211 210
1 3 179 180 212 211
1 3 180 181 213 212
1 3 181 182 214 213
1 3 182 183 215 214
1 3 183 184 216 215
1 3 184 185 217 216
1 3 185 186 218 217
1 3 186 187 219 218
1 3 187 188 220 219
1 3 188 189 221 220
1 3 189 190 222 221
1 3 190 191 223 222
1 3 192 193 225 224
1 3 193 194 226 225
1 3 194 195 227 226
1 3 195 196 228 227
1 3 196 197 229 228
1 3 197 198 230 229
1 3 198 199 231 230
1 3 199 200 232 231
1 3 200 201 233 232
1 3 201 202 234 233
1 3 202 203 235 234
1 3 203 204 236 235
1 3 204 205 237 236
1 3 205 206 238 237
1 3 206 207 239 238
1 3 207 208 240 239
1 3 208 209 241 240
1 3 209 210 242 241
1 3 210 211 243 242
1 3 211 212 244 243
1 3 212 213 245 244
1 3 213 214 246 245
1 3 214 215 247 246
1 3 215 216 248 247
1 3 216 217 249 248
1 3 217 218 250 249
1 3 218 219 251 250
1 3 219 220 252 251
1 3 220 221 253 252
1 3 221 222 254 253
1 3 222 223 255 254
1 3 224 225 257 256
1 3 225 226 258 257
1 3 226 227 259 258
1 3 227 228 260 259
1 3 228 229 261 260
1 3 229 230 262 261
1 3 230 231 263 262
1 3 231 232 264 263
1 3 232 233 265 264
1 3 233 234 266 265
1 3 234 235 267 266
1 3 235 236 268 267
1 3 236 237 269 268
1 3 237 238 270 269
1 3 238 239 271 270
1 3 239 240 272 271
1 3 240 241 273 272
1 3 241 242 274 273
1 3 242 243 275 274
1 3 243 244 276 275
1 3 244 245 277 276
1 3 245 246 278 277
1 3 246 247 279 278
1 3 247 248 280 279
1 3 248 249 281 280
1 3 249 250 282 281
1 3 250 251 283 282
1 3 251 252 284 283
1 3 252 253 285 284
1 3 253 254 286 285
1 3 254 255 287 286
1 3 256 257 289 288
1 3 257 258 290 289
1 3 258 259 291 290
1 3 259 260 292 291
1 3 260 261 293 292
1 3 261 262 294 293
1 3 262 263 295 294
1 3 263 264 296 295
1 3 264 265 297 296
1 3 265 266 298 297
1 3 266 267 299 298
1 3 267 268 300 299
1 3 268 269 301 300
1 3 269 270 302 301
1 3 270 271 303 302
1 3 271 272 304 303
1 3 272 273 305 304
1 3 273 274 306 305
1 3 274 275 307 306
1 3 275 276 308 307
1 3 276 277 309 308
1 3 277 278 310 309
1 3 278 279 311 310
1 3 279 280 312 311
1 3 280 281 313 312
1 3 281 282 314 313
1 3 282 283 315 314
1 3 283 284 316 315
1 3 284 285 317 316
1 3 285 286 318 317
1 3 286 287 319 318
1 3 288 289 321 320
1 3 289 290 322 321
1 3 290 291 323 322
1 3 291 292 324 323
1 3 292 293 325 324
1 3 293 294 326 325
1 3 294 295 327 326
1 3 295 296 328 327
1 3 296 297 329 328
1 3 297 298 330 329
1 3 298 299 331 330
1 3 299 300 332 331
1 3 300 301 333 332
1 3 301 302 334 333
1 3 302 303 335 334
1 3 303 304 336 335
1 3 304 305 337 336
1 3 305 306 338 337
1 3 306 307 339 338
1 3 307 308 340 339
1 3 308 309 341 340
1 3 309 310 342 341
1 3 310 311 343 342
1 3 311 312 344 343
1 3 312 313 345 344
1 3 313 314 346 345
1 3 314 315 347 346
1 3 315 316 348 347
1 3 316 317 349 348
1 3 317 318 350 349
1 3 318 319 351 350
1 3 320 321 353 352
1 3 321 322 354 353
1 3 322 323 355 354
1 3 323 324 356 355
1 3 324 325 357 356
1 3 325 326 358 357
1 3 326 327 359 358
1 3 327 328 360 359
1 3 328 329 361 360
1 3 329 330 362 361
1 3 330 331 363 362
1 3 331 332 364 363
1 3 332 333 365 364
1 3 333 334 366 365
1 3 334 335 367 366
1 3 335 336 368 367
1 3 336 337 369 368
1 3 337 338 370 369
1 3 338 339 371 370
1 3 339 340 372 371
1 3 340 341 373 372
1 3 341 342 374 373
1 3 342 343 375 374
1 3 343 344 376 375
1 3 344 345 377 376
1 3 345 346 378 377
1 3 346 347 379 378
1 3 347 348 380 379
1 3 348 349 381 380
1 3 349 350 382 381
1 3 350 351 383 382
1 3 352 353 385 384
1 3 353 354 386 385
1 3 354 355 387 386
1 3 355 356 388 387
1 3 356 357 389 388
1 3 357 358 390 389
1 3 358 359 391 390
1 3 359 360 392 391
1 3 360 361 393 392
1 3 361 362 394 393
1 3 362 363 395 394
1 3 363 364 396 395
1 3 364 365 397 396
1 3 365 366 398 397
1 3 366 367 399 398
1 3 367 368 400 399
1 3 368 369 401 400
1 3 369 370 402 401
1 3 370 371 403 402
1 3 371 372 404 403
1 3 372 373 405 404
1 3 373 374 406 405
1 3 374 375 407 406
1 3 375 376 408 407
1 3 376 377 409 408
1 3 377 378 410 409
1 3 378 379 411 410
1 3 379 380 412 411
1 3 380 381 413 412
1 3 381 382 414 413
1 3 382 383 415 414
1 3 384 385 417 416
1 3 385 386 418 417
1 3 386 387 419 418
1 3 387 388 420 419
1 3 388 389 421 420
1 3 389 390 422 421
1 3 390 391 423 422
1 3 391 392 424 423
1 3 392 393 425 424
1 3 393 394 426 425
1 3 394 395 427 426
1 3 395 396 428 427
1 3 396 397 429 428
1 3 397 398 430 429
1 3 398 399 431 430
1 3 399 400 432 431
1 3 400 401 433 432
1 3 401 402 434 433
1 3 402 403 435 434
1 3 403 404 436 435
1 3 404 405 437 436
1 3 405 406 438 437
1 3 406 407 439 438
1 3 407 408 440 439
1 3 408 409 441 440
1 3 409 410 442 441
1 3 410 411 443 442
1 3 411 412 444 443
1 3 412 413 445 444
1 3 413 414 446 445
1 3 414 415 447 446
1 3 416 417 449 448
1 3 417 418 450 449
1 3 418 419 451 450
1 3 419 420 452 451
1 3 420 421 453 452
1 3 421 422 454 453
1 3 422 423 455 454
1 3 423 424 456 455
1 3 424 425 457 456
1 3 425 426 458 457
1 3 426 427 459 458
1 3 427 428 460 459
1 3 428 429 461 460
1 3 429 430 462 461
1 3 430 431 463 462
1 3 431 432 464 463
1 3 432 433 465 464
1 3 433 434 466 465
1 3 434 435 467 466
1 3 435 436 468 467
1 3 436 437 469 468
1 3 437 438 470 469
1 3 438 439 471 470
1 3 439 440 472 471
1 3 440 441 473 472
1 3 441 442 474 473
1 3 442 443 475 474
1 3 443 444 476 475
1 3 444 445 477 476
1 3 445 446 478 477
1 3 446 447 479 478
1 3 448 449 481 480
1 3 449 450 482 481
1 3 450 451 483 482
1 3 451 452 484 483
1 3 452 453 485 484
1 3 453 454 486 485
1 3 454 455 487 486
1 3 455 456 488 487
1 3 456 457 489 488
1 3 457 458 490 489
1 3 458 459 491 490
1 3 459 460 492 491
1 3 460 461 493 492
1 3 461 462 494 493
1 3 462 463 495 494
1 3 463 464 496 495
1 3 464 465 497 496
1 3 465 466 498 497
1 3 466 467 499 498
1 3 467 468 500 499
1 3 468 469 501 500
1 3 469 470 502 501
1 3 470 471 503 502
1 3 471 472 504 503
1 3 472 473 505 504
1 3 473 474 506 505
1 3 474 475 507 506
1 3 475 476 508 507
1 3 476 477 509 508
1 3 477 478 510 509
1 3 478 479 511 510
1 3 480 481 513 512
1 3 481 482 514 513
1 3 482 483 515 514
1 3 483 484 516 515
1 3 484 485 517 516
1 3 485 486 518 517
1 3 486 487 519 518
1 3 487 488 520 519
1 3 488 489 521 520
1 3 489 490 522 521
1 3 490 491 523 522
1 3 491 492 524 523
1 3 492 493 525 524
1 3 493 494 526 525
1 3 494 495 527 526
1 3 495 496 528 527
1 3 496 497 529 528
1 3 497 498 530 529
1 3 498 499 531 530
1 3 499 500 532 531
1 3 500 501 533 532
1 3 501 502 534 533
1 3 502 503 535 534
1 3 503 504 536 535
1 3 504 505 537 536
1 3 505 506 538 537
1 3 506 507 539 538
1 3 507 508 540 539
1 3 508 509 541 540
1 3 509 510 542 541
1 3 510 511 543 542

boundary
94
1 1 0 1
1 1 1 2
1 1 2 3
1 1 3 4
1 1 4 5
1 1 5 6
1 1 6 7
1 1 7 8
1 1 8 9
1 1 9 10
1 1 10 11
1 1 11 12
1 1 12 13
1 1 13 14
1 1 14 15
1 1 15 16
1 1 16 17
1 1 17 18
1 1 18 19
1 1 19 20
1 1 20 21
1 1 21 22
1 1 22 23
1 1 23 24
1 1 24 25
1 1 25 26
1 1 26 27
1 1 27 28
1 1 28 29
1 1 29 30
1 1 30 31
3 1 513 512
3 1 514 513
3 1 515 514
3 1 516 515
3 1 517 516
3 1 518 517
3 1 519 518
3 1 520 519
3 1 521 520
3 1 522 521
3 1 523 522
3 1 524 523
3 1 525 524
3 1 526 525
3 1 527 526
3 1 528 527
3 1 529 528
3 1 530 529
3 1 531 530
3 1 532 531
3 1 533 532
3 1 534 533
3 1 535 534
3 1 536 535
3 1 537 536
3 1 538 537
3 1 539 538
3 1 540 539
3 1 541 540
3 1 542 541
3 1 543 542
4 1 32 0
4 1 64 32
4 1 96 64
4 1 128 96
4 1 160 128
4 1 192 160
4 1 224 192
4 1 256 224
4 1 288 256
4 1 320 288
4 1 352 320
4 1 384 352
4 1 416 384
4 1 448 416
4 1 480 448
4 1 512 480
2 1 31 63
2 1 63 95
2 1 95 127
2 1 127 159
2 1 159 191
2 1 191 223
2 1 223 255
2 1 255 287
2 1 287 319
2 1 319 351
2 1 351 383
2 1 383 415
2 1 415 447
2 1 447 479
2 1 479 511
2 1 511 543

vertices
544
2
0 0
1 0
2 0
3 0
4 0
5 0
6 0
7 0
8 0
9 0
10 0
11 0
12 0
13 0
14 0
15 0
16 0
17 0
18 0
19 0
20 0
21 0
22 0
23 0
24 0
25 0
26 0
27 0
28 0
29 0
30 0
31 0
0 1
1 1
2 1
3 1
4 1
5 1
6 1
7 1
8 1
9 1
10 1
11 1
12 1
13 1
14 1
15 1
16 1
17 1
18 1
19 1
20 1
21 1
22 1
23 1
24 1
25 1
26 1
27 1
28 1
29 1
30 1
31 1
0 2
1 2
2 2
3 2
4 2
5 2
6 2
7 2
8 2
9 2
10 2
11 2
12 2
13 2
14 2
15 2
16 2
17 2
18 2
19 2
20 2
21 2
22 2
23 2
24 2
25 2
26 2
27 2
28 2
29 2
30 2
31 2
0 3
1 3
2 3
3 3
4 3
5 3
6 3
7 3
8 3
9 3
10 3
11 3
12 3
13 3
14 3
15 3
16 3
17 3
18 3
19 3
20 3
21 3
22 3
23 3
24 3
25 3
26 3
27 3
28 3
29 3
30 3
31 3
0 4
1 4
2 4
3 4
4 4
5 4
6 4
7 4
8 4
9 4
10 4
11 4
12 4
13 4
14 4
15 4
16 4
17 4
18 4
19 4
20 4
21 4
22 4
23 4
24 4
25 4
26 4
27 4
28 4
29 4
30 4
31 4
0 5
1 5
2 5
3 5
4 5
5 5
6 5
7 5
8 5
9 5
10 5
11 5
12 5
13 5
14 5
15 5
16 5
17 5
18 5
19 5
20 5
21 5
22 5
23 5
24 5
25 5
26 5
27 5
28 5
29 5
30 5
31 5
0 6
1 6
2 6
3 6
4 6
5 6
6 6
7 6
8 6
9 6
10 6
11 6
12 6
13 6
14 6
15 6
16 6
17 6
18 6
19 6
20 6
21 6
22 6
23 6
24 6
25 6
26 6
27 6
28 6
29 6
30 6
31 6
0 7
1 7
2 7
3 7
4 7
5 7
6 7
7 7
8 7
9 7
10 7
11 7
12 7
13 7
14 7
15 7
16 7
17 7
18 7
19 7
20 7
21 7
22 7
23 7
24 7
25 7
26 7
27 7
28 7
29 7
30 7
31 7
0 8
1 8
2 8
3 8
4 8
5 8
6 8
7 8
8 8
9 8
10 8
11 8
12 8
13 8
14 8
15 8
16 8
17 8
18 8
19 8
20 8
21 8
22 8
23 8
24 8
25 8
26 8
27 8
28 8
29 8
30 8
31 8
0 9
1 9
2 9
3 9
4 9
5 9
6 9
7 9
8 9
9 9
10 9
11 9
12 9
13 9
14 9
15 9
16 9
17 9
18 9
19 9
20 9
21 9
22 9
23 9
24 9
25 9
26 9
27 9
28 9
29 9
30 9
31 9
0 10
1 10
2 10
3 10
4 10
5 10
6 10
7 10
8 10
9 10
10 10
11 10
12 10
13 10
14 10
15 10
16 10
17 10
18 10
19 10
20 10
21 10
22 10
23 10
24 10
25 10
26 10
27 10
28 10
29 10
30 10
31 10
0 11
1 11
2 11
3 11
4 11
5 11
6 11
7 11
8 11
9 11
10 11
11 11
12 11
13 11
14 11
15 11
16 11
17 11
18 11
19 11
20 11
21 11
22 11
23 11
24 11
25 11
26 11
27 11
28 11
29 11
30 11
31 11
0 12
1 12
2 12
3 12
4 12
5 12
6 12
7 12
8 12
9 12
10 12
11 12
12 12
13 12
14 12
15 12
16 12
17 12
18 12
19 12
20 12
21 12
22 12
23 12
24 12
25 12
26 12
27 12
28 12
29 12
30 12
31 12
0 13
1 13
2 13
3 13
4 13
5 13
6 13
7 13
8 13
9 13
10 13
11 13
12 13
13 13
14 13
15 13
16 13
17 13
18 13
19 13
20 13
21 13
22 13
23 13
24 13
25 13
26 13
27 13
28 13
29 13
30 13
31 13
0 14
1 14
2 14
3 14
4 14
5 14
6 14
7 14
8 14
9 14
10 14
11 14
12 14
13 14
14 14
15 14
16 14
17 14
18 14
19 14
20 14
21 14
22 14
23 14
24 14
25 14
26 14
27 14
28 14
29 14
30 14
31 14
0 15
1 15
2 15
3 15
4 15
5 15
6 15
7 15
8 15
9 15
10 15
11 15
12 15
13 15
14 15
15 15
16 15
17 15
18 15
19 15
20 15
21 15
22 15
23 15
24 15
25 15
26 15
27 15
28 15
29 15
30 15
31 15
0 16
1 16
2 16
3 16
4 16
5 16
6 16
7 16
8 16
9 16
10 16
11 16
12 16
13 16
14 16
15 16
16 16
17 16
18 16
19 16
20 16
21 16
22 16
23 16
24 16
25 16
26 16
27 16
28 16
29 16
30 16
31 16
