MFEM mesh v1.0

#
# MFEM Geometry Types (see fem/geom.hpp):
#
# POINT       = 0
# SEGMENT     = 1
# TRIANGLE    = 2
# SQUARE      = 3
# TETRAHEDRON = 4
# CUBE        = 5
# PRISM       = 6
# PYRAMID     = 7
#

dimension
3

elements
40
2 4 0 1 2 3
2 4 1 4 5 6
2 4 2 5 7 8
2 4 8 3 6 9
2 4 1 8 2 3
2 4 1 8 3 6
2 4 1 8 6 5
2 4 8 1 2 5
2 4 0 1 3 10
2 4 1 4 6 11
2 4 9 3 6 12
2 4 10 11 12 13
2 4 1 12 3 10
2 4 1 12 10 11
2 4 1 12 11 6
2 4 12 1 3 6
2 4 7 2 8 14
2 4 2 0 3 15
2 4 8 3 9 16
2 4 14 15 16 17
2 4 2 16 8 14
2 4 2 16 14 15
2 4 2 16 15 3
2 4 2 16 3 8
2 4 6 8 9 18
2 4 6 4 5 19
2 4 5 7 8 20
2 4 20 18 19 21
2 4 6 20 8 18
2 4 6 20 18 19
2 4 6 20 19 5
2 4 20 6 8 5
2 6 22 23 24 25 26 27
2 6 28 24 23 29 27 26
2 6 23 30 28 26 31 29
2 6 24 28 32 27 29 33
2 6 25 26 27 4 19 5
2 6 29 27 26 20 5 19
2 6 26 31 29 19 21 20
2 6 27 29 33 5 20 7

boundary
52
25 2 1 2 5
25 2 11 10 13
25 2 4 1 11
16 2 9 8 18
25 2 1 4 5
11 2 6 4 19
23 2 16 15 3
25 2 14 15 2
23 2 3 0 15
25 2 14 15 17
10 3 30 23 31 26
23 2 3 0 10
23 2 15 16 17
11 2 18 19 6
10 3 22 23 25 26
10 3 21 31 19 26
13 3 7 33 20 29
11 2 11 12 13
11 2 19 18 21
25 3 7 33 5 27
2 2 32 24 28
16 2 8 7 20
11 2 6 4 11
2 2 22 24 23
11 2 9 6 12
16 2 16 14 8
2 2 23 28 24
13 3 21 31 20 29
23 2 10 12 13
25 2 5 2 7
25 3 22 24 25 27
25 2 11 10 1
25 3 4 25 5 27
25 2 0 2 15
25 2 0 1 2
16 2 8 7 14
13 3 30 28 31 29
23 2 9 3 16
25 2 7 2 14
2 2 23 28 30
25 3 32 24 33 27
25 2 0 1 10
16 2 14 16 17
13 3 32 28 33 29
11 2 12 11 6
11 2 9 6 18
10 3 4 25 19 26
16 2 20 18 21
23 2 12 10 3
23 2 9 3 12
16 2 9 8 16
16 2 18 20 8

vertices
34
3
0 0 1
0.5 0 0.5
0 0.5 0.5
0.5 0.5 1
1 0 0
0.5 0.5 0
1 0.5 0.5
0 1 0
0.5 1 0.5
1 1 1
0.5 0 1
1 0 0.5
1 0.5 1
1 0 1
0 1 0.5
0 0.5 1
0.5 1 1
0 1 1
1 1 0.5
1 0.5 0
0.5 1 0
1 1 0
1 0 -1
1 0.5 -1
0.5 0.5 -1
1 0 -0.5
1 0.5 -0.5
0.5 0.5 -0.5
0.5 1 -1
0.5 1 -0.5
1 1 -1
1 1 -0.5
0 1 -1
0 1 -0.5
