MFEM mesh v1.0

#
# MFEM Geometry Types (see fem/geom.hpp):
#
# POINT       = 0
# SEGMENT     = 1
# TRIANGLE    = 2
# SQUARE      = 3
# TETRAHEDRON = 4
# CUBE        = 5
# PRISM       = 6
# PYRAMID     = 7
#

dimension
2

elements
8
1 3 0 1 10 9
1 3 1 2 11 10
1 3 2 3 12 11
1 3 3 4 13 12
2 3 4 5 14 13
2 3 5 6 15 14
2 3 6 7 16 15
2 3 7 8 17 16

boundary
18
3 1 0 1
3 1 1 2
3 1 2 3
3 1 3 4
3 1 4 5
3 1 5 6
3 1 6 7
3 1 7 8
3 1 10 9
3 1 11 10
3 1 12 11
3 1 13 12
3 1 14 13
3 1 15 14
3 1 16 15
3 1 17 16
1 1 9 0
2 1 8 17

vertices
18
2
0 0
1.098003971151726 0.1480875456016078
2.155971457883602 0.4051577242314092
3.164886274752262 0.7114536479074481
4.152246445075876 1.041130592375271
5.126920594731673 1.366131486808876
6.095019466546051 1.662609625885846
7.055628856304774 1.895245437612513
8 2
0 1
0.9443711436952974 1.104754562387353
1.904980533454106 1.337390374113721
2.873079405268502 1.633868513190417
3.84775355492422 1.958869407623924
4.835113725247761 2.288546352091812
5.844028542116313 2.594842275768089
6.90199602884818 2.851912454398202
8 3
