<?xml version="1.0"?>
<VTKFile type="UnstructuredGrid" version="0.1" byte_order="LittleEndian">
  <UnstructuredGrid>
    <Piece NumberOfPoints="25" NumberOfCells="16">
      <Points>
        <DataArray type="Float64" NumberOfComponents="3" format="ascii">
          -1.5707963267948966 -1.5707963267948966 0
          -0.7853981633974483 -1.5707963267948966 0
          0 -1.5707963267948966 0
          0.7853981633974483 -1.5707963267948966 0
          1.5707963267948966 -1.5707963267948966 0
          -1.5707963267948966 -0.7853981633974483 0
          -0.7853981633974483 -0.7853981633974483 0
          0 -0.7853981633974483 0
          0.7853981633974483 -0.7853981633974483 0
          1.5707963267948966 -0.7853981633974483 0
          -1.5707963267948966 0 0
          -0.7853981633974483 0 0
          0 0 0
          0.7853981633974483 0 0
          1.5707963267948966 0 0
          -1.5707963267948966 0.7853981633974483 0
          -0.7853981633974483 0.7853981633974483 0
          0 0.7853981633974483 0
          0.7853981633974483 0.7853981633974483 0
          1.5707963267948966 0.7853981633974483 0
          -1.5707963267948966 1.5707963267948966 0
          -0.7853981633974483 1.5707963267948966 0
          0 1.5707963267948966 0
          0.7853981633974483 1.5707963267948966 0
          1.5707963267948966 1.5707963267948966 0
        </DataArray>
      </Points>
      <Cells>
        <DataArray type="Int32" Name="connectivity" format="ascii">
          0 1 6 5
          1 2 7 6
          2 3 8 7
          3 4 9 8
          5 6 11 10
          6 7 12 11
          7 8 13 12
          8 9 14 13
          10 11 16 15
          11 12 17 16
          12 13 18 17
          13 14 19 18
          15 16 21 20
          16 17 22 21
          17 18 23 22
          18 19 24 23
        </DataArray>
        <DataArray type="Int32" Name="offsets" format="ascii">
          4 8 12 16 20 24 28 32 36 40 44 48 52 56 60 64
        </DataArray>
        <DataArray type="UInt8" Name="types" format="ascii">
          9 9 9 9 9 9 9 9 9 9 9 9 9 9 9 9
        </DataArray>
      </Cells>
      <PointData>
        <DataArray type="Float64" Name="solution" NumberOfComponents="1" format="ascii">
          0.0000000000e0
          9.2532297892e-3
          1.2337512874e-2
          9.2532297892e-3
          0.0000000000e0
          -9.2532297892e-3
          8.7014113349e-19
          3.0842830869e-3
          1.0083852250e-18
          -9.2532297892e-3
          -1.2337512874e-2
          -3.0842830869e-3
          1.4637835384e-19
          -3.0842830869e-3
          -1.2337512874e-2
          -9.2532297892e-3
          -1.0083856738e-18
          3.0842830869e-3
          2.6022863335e-19
          -9.2532297892e-3
          0.0000000000e0
          9.2532297892e-3
          1.2337512874e-2
          9.2532297892e-3
          0.0000000000e0
        </DataArray>
      </PointData>
    </Piece>
  </UnstructuredGrid>
</VTKFile>
