MFEM mesh v1.0

#
# MFEM Geometry Types (see fem/geom.hpp):
#
# POINT       = 0
# SEGMENT     = 1
# TRIANGLE    = 2
# SQUARE      = 3
# TETRAHEDRON = 4
# CUBE        = 5
# PRISM       = 6
# PYRAMID     = 7
#

dimension
2

elements
1024
2 3 0 289 833 292
2 3 289 81 290 833
2 3 833 290 225 291
2 3 292 833 291 84
2 3 81 293 834 290
2 3 293 25 294 834
2 3 834 294 82 295
2 3 290 834 295 225
2 3 225 295 835 298
2 3 295 82 296 835
2 3 835 296 65 297
2 3 298 835 297 83
2 3 84 291 836 300
2 3 291 225 298 836
2 3 836 298 83 299
2 3 300 836 299 28
2 3 25 301 837 294
2 3 301 85 302 837
2 3 837 302 226 303
2 3 294 837 303 82
2 3 85 304 838 302
2 3 304 1 305 838
2 3 838 305 86 306
2 3 302 838 306 226
2 3 226 306 839 309
2 3 306 86 307 839
2 3 839 307 26 308
2 3 309 839 308 87
2 3 82 303 840 296
2 3 303 226 309 840
2 3 840 309 87 310
2 3 296 840 310 65
2 3 65 310 841 313
2 3 310 87 311 841
2 3 841 311 227 312
2 3 313 841 312 90
2 3 87 308 842 311
2 3 308 26 314 842
2 3 842 314 88 315
2 3 311 842 315 227
2 3 227 315 843 318
2 3 315 88 316 843
2 3 843 316 6 317
2 3 318 843 317 89
2 3 90 312 844 320
2 3 312 227 318 844
2 3 844 318 89 319
2 3 320 844 319 27
2 3 28 299 845 323
2 3 299 83 321 845
2 3 845 321 228 322
2 3 323 845 322 92
2 3 83 297 846 321
2 3 297 65 313 846
2 3 846 313 90 324
2 3 321 846 324 228
2 3 228 324 847 326
2 3 324 90 320 847
2 3 847 320 27 325
2 3 326 847 325 91
2 3 92 322 848 328
2 3 322 228 326 848
2 3 848 326 91 327
2 3 328 848 327 5
2 3 1 329 849 305
2 3 329 93 330 849
2 3 849 330 229 331
2 3 305 849 331 86
2 3 93 332 850 330
2 3 332 29 333 850
2 3 850 333 94 334
2 3 330 850 334 229
2 3 229 334 851 337
2 3 334 94 335 851
2 3 851 335 66 336
2 3 337 851 336 95
2 3 86 331 852 307
2 3 331 229 337 852
2 3 852 337 95 338
2 3 307 852 338 26
2 3 29 339 853 333
2 3 339 96 340 853
2 3 853 340 230 341
2 3 333 853 341 94
2 3 96 342 854 340
2 3 342 2 343 854
2 3 854 343 97 344
2 3 340 854 344 230
2 3 230 344 855 347
2 3 344 97 345 855
2 3 855 345 30 346
2 3 347 855 346 98
2 3 94 341 856 335
2 3 341 230 347 856
2 3 856 347 98 348
2 3 335 856 348 66
2 3 66 348 857 351
2 3 348 98 349 857
2 3 857 349 231 350
2 3 351 857 350 101
2 3 98 346 858 349
2 3 346 30 352 858
2 3 858 352 99 353
2 3 349 858 353 231
2 3 231 353 859 356
2 3 353 99 354 859
2 3 859 354 7 355
2 3 356 859 355 100
2 3 101 350 860 358
2 3 350 231 356 860
2 3 860 356 100 357
2 3 358 860 357 31
2 3 26 338 861 314
2 3 338 95 359 861
2 3 861 359 232 360
2 3 314 861 360 88
2 3 95 336 862 359
2 3 336 66 351 862
2 3 862 351 101 361
2 3 359 862 361 232
2 3 232 361 863 363
2 3 361 101 358 863
2 3 863 358 31 362
2 3 363 863 362 102
2 3 88 360 864 316
2 3 360 232 363 864
2 3 864 363 102 364
2 3 316 864 364 6
1 3 6 364 865 367
1 3 364 102 365 865
1 3 865 365 233 366
1 3 367 865 366 105
1 3 102 362 866 365
1 3 362 31 368 866
1 3 866 368 103 369
1 3 365 866 369 233
1 3 233 369 867 372
1 3 369 103 370 867
1 3 867 370 67 371
1 3 372 867 371 104
1 3 105 366 868 374
1 3 366 233 372 868
1 3 868 372 104 373
1 3 374 868 373 34
1 3 31 357 869 368
1 3 357 100 375 869
1 3 869 375 234 376
1 3 368 869 376 103
1 3 100 355 870 375
1 3 355 7 377 870
1 3 870 377 106 378
1 3 375 870 378 234
1 3 234 378 871 381
1 3 378 106 379 871
1 3 871 379 32 380
1 3 381 871 380 107
1 3 103 376 872 370
1 3 376 234 381 872
1 3 872 381 107 382
1 3 370 872 382 67
1 3 67 382 873 385
1 3 382 107 383 873
1 3 873 383 235 384
1 3 385 873 384 110
1 3 107 380 874 383
1 3 380 32 386 874
1 3 874 386 108 387
1 3 383 874 387 235
1 3 235 387 875 390
1 3 387 108 388 875
1 3 875 388 12 389
1 3 390 875 389 109
1 3 110 384 876 392
1 3 384 235 390 876
1 3 876 390 109 391
1 3 392 876 391 33
1 3 34 373 877 395
1 3 373 104 393 877
1 3 877 393 236 394
1 3 395 877 394 112
1 3 104 371 878 393
1 3 371 67 385 878
1 3 878 385 110 396
1 3 393 878 396 236
1 3 236 396 879 398
1 3 396 110 392 879
1 3 879 392 33 397
1 3 398 879 397 111
1 3 112 394 880 400
1 3 394 236 398 880
1 3 880 398 111 399
1 3 400 880 399 11
2 3 5 327 881 403
2 3 327 91 401 881
2 3 881 401 237 402
2 3 403 881 402 115
2 3 91 325 882 401
2 3 325 27 404 882
2 3 882 404 113 405
2 3 401 882 405 237
2 3 237 405 883 408
2 3 405 113 406 883
2 3 883 406 68 407
2 3 408 883 407 114
2 3 115 402 884 410
2 3 402 237 408 884
2 3 884 408 114 409
2 3 410 884 409 36
2 3 27 319 885 404
2 3 319 89 411 885
2 3 885 411 238 412
2 3 404 885 412 113
2 3 89 317 886 411
2 3 317 6 367 886
2 3 886 367 105 413
2 3 411 886 413 238
2 3 238 413 887 415
2 3 413 105 374 887
2 3 887 374 34 414
2 3 415 887 414 116
2 3 113 412 888 406
2 3 412 238 415 888
2 3 888 415 116 416
2 3 406 888 416 68
2 3 68 416 889 419
2 3 416 116 417 889
2 3 889 417 239 418
2 3 419 889 418 118
2 3 116 414 890 417
2 3 414 34 395 890
2 3 890 395 112 420
2 3 417 890 420 239
2 3 239 420 891 422
2 3 420 112 400 891
2 3 891 400 11 421
2 3 422 891 421 117
2 3 118 418 892 424
2 3 418 239 422 892
2 3 892 422 117 423
2 3 424 892 423 35
2 3 36 409 893 427
2 3 409 114 425 893
2 3 893 425 240 426
2 3 427 893 426 120
2 3 114 407 894 425
2 3 407 68 419 894
2 3 894 419 118 428
2 3 425 894 428 240
2 3 240 428 895 430
2 3 428 118 424 895
2 3 895 424 35 429
2 3 430 895 429 119
2 3 120 426 896 432
2 3 426 240 430 896
2 3 896 430 119 431
2 3 432 896 431 10
2 3 10 431 897 435
2 3 431 119 433 897
2 3 897 433 241 434
2 3 435 897 434 123
2 3 119 429 898 433
2 3 429 35 436 898
2 3 898 436 121 437
2 3 433 898 437 241
2 3 241 437 899 440
2 3 437 121 438 899
2 3 899 438 69 439
2 3 440 899 439 122
2 3 123 434 900 442
2 3 434 241 440 900
2 3 900 440 122 441
2 3 442 900 441 39
2 3 35 423 901 436
2 3 423 117 443 901
2 3 901 443 242 444
2 3 436 901 444 121
2 3 117 421 902 443
2 3 421 11 445 902
2 3 902 445 124 446
2 3 443 902 446 242
2 3 242 446 903 449
2 3 446 124 447 903
2 3 903 447 37 448
2 3 449 903 448 125
2 3 121 444 904 438
2 3 444 242 449 904
2 3 904 449 125 450
2 3 438 904 450 69
2 3 69 450 905 453
2 3 450 125 451 905
2 3 905 451 243 452
2 3 453 905 452 128
2 3 125 448 906 451
2 3 448 37 454 906
2 3 906 454 126 455
2 3 451 906 455 243
2 3 243 455 907 458
2 3 455 126 456 907
2 3 907 456 16 457
2 3 458 907 457 127
2 3 128 452 908 460
2 3 452 243 458 908
2 3 908 458 127 459
2 3 460 908 459 38
2 3 39 441 909 463
2 3 441 122 461 909
2 3 909 461 244 462
2 3 463 909 462 130
2 3 122 439 910 461
2 3 439 69 453 910
2 3 910 453 128 464
2 3 461 910 464 244
2 3 244 464 911 466
2 3 464 128 460 911
2 3 911 460 38 465
2 3 466 911 465 129
2 3 130 462 912 468
2 3 462 244 466 912
2 3 912 466 129 467
2 3 468 912 467 15
2 3 15 467 913 471
2 3 467 129 469 913
2 3 913 469 245 470
2 3 471 913 470 133
2 3 129 465 914 469
2 3 465 38 472 914
2 3 914 472 131 473
2 3 469 914 473 245
2 3 245 473 915 476
2 3 473 131 474 915
2 3 915 474 70 475
2 3 476 915 475 132
2 3 133 470 916 478
2 3 470 245 476 916
2 3 916 476 132 477
2 3 478 916 477 42
2 3 38 459 917 472
2 3 459 127 479 917
2 3 917 479 246 480
2 3 472 917 480 131
2 3 127 457 918 479
2 3 457 16 481 918
2 3 918 481 134 482
2 3 479 918 482 246
2 3 246 482 919 485
2 3 482 134 483 919
2 3 919 483 40 484
2 3 485 919 484 135
2 3 131 480 920 474
2 3 480 246 485 920
2 3 920 485 135 486
2 3 474 920 486 70
2 3 70 486 921 489
2 3 486 135 487 921
2 3 921 487 247 488
2 3 489 921 488 138
2 3 135 484 922 487
2 3 484 40 490 922
2 3 922 490 136 491
2 3 487 922 491 247
2 3 247 491 923 494
2 3 491 136 492 923
2 3 923 492 21 493
2 3 494 923 493 137
2 3 138 488 924 496
2 3 488 247 494 924
2 3 924 494 137 495
2 3 496 924 495 41
2 3 42 477 925 499
2 3 477 132 497 925
2 3 925 497 248 498
2 3 499 925 498 140
2 3 132 475 926 497
2 3 475 70 489 926
2 3 926 489 138 500
2 3 497 926 500 248
2 3 248 500 927 502
2 3 500 138 496 927
2 3 927 496 41 501
2 3 502 927 501 139
2 3 140 498 928 504
2 3 498 248 502 928
2 3 928 502 139 503
2 3 504 928 503 20
2 3 16 505 929 481
2 3 505 141 506 929
2 3 929 506 249 507
2 3 481 929 507 134
2 3 141 508 930 506
2 3 508 43 509 930
2 3 930 509 142 510
2 3 506 930 510 249
2 3 249 510 931 513
2 3 510 142 511 931
2 3 931 511 71 512
2 3 513 931 512 143
2 3 134 507 932 483
2 3 507 249 513 932
2 3 932 513 143 514
2 3 483 932 514 40
2 3 43 515 933 509
2 3 515 144 516 933
2 3 933 516 250 517
2 3 509 933 517 142
2 3 144 518 934 516
2 3 518 17 519 934
2 3 934 519 145 520
2 3 516 934 520 250
2 3 250 520 935 523
2 3 520 145 521 935
2 3 935 521 44 522
2 3 523 935 522 146
2 3 142 517 936 511
2 3 517 250 523 936
2 3 936 523 146 524
2 3 511 936 524 71
2 3 71 524 937 527
2 3 524 146 525 937
2 3 937 525 251 526
2 3 527 937 526 149
2 3 146 522 938 525
2 3 522 44 528 938
2 3 938 528 147 529
2 3 525 938 529 251
2 3 251 529 939 532
2 3 529 147 530 939
2 3 939 530 22 531
2 3 532 939 531 148
2 3 149 526 940 534
2 3 526 251 532 940
2 3 940 532 148 533
2 3 534 940 533 45
2 3 40 514 941 490
2 3 514 143 535 941
2 3 941 535 252 536
2 3 490 941 536 136
2 3 143 512 942 535
2 3 512 71 527 942
2 3 942 527 149 537
2 3 535 942 537 252
2 3 252 537 943 539
2 3 537 149 534 943
2 3 943 534 45 538
2 3 539 943 538 150
2 3 136 536 944 492
2 3 536 252 539 944
2 3 944 539 150 540
2 3 492 944 540 21
1 3 11 399 945 445
1 3 399 111 541 945
1 3 945 541 253 542
1 3 445 945 542 124
1 3 111 397 946 541
1 3 397 33 543 946
1 3 946 543 151 544
1 3 541 946 544 253
1 3 253 544 947 547
1 3 544 151 545 947
1 3 947 545 72 546
1 3 547 947 546 152
1 3 124 542 948 447
1 3 542 253 547 948
1 3 948 547 152 548
1 3 447 948 548 37
1 3 33 391 949 543
1 3 391 109 549 949
1 3 949 549 254 550
1 3 543 949 550 151
1 3 109 389 950 549
1 3 389 12 551 950
1 3 950 551 153 552
1 3 549 950 552 254
1 3 254 552 951 555
1 3 552 153 553 951
1 3 951 553 46 554
1 3 555 951 554 154
1 3 151 550 952 545
1 3 550 254 555 952
1 3 952 555 154 556
1 3 545 952 556 72
1 3 72 556 953 559
1 3 556 154 557 953
1 3 953 557 255 558
1 3 559 953 558 156
1 3 154 554 954 557
1 3 554 46 560 954
1 3 954 560 155 561
1 3 557 954 561 255
1 3 255 561 955 563
1 3 561 155 562 955
1 3 955 562 17 518
1 3 563 955 518 144
1 3 156 558 956 564
1 3 558 255 563 956
1 3 956 563 144 515
1 3 564 956 515 43
1 3 37 548 957 454
1 3 548 152 565 957
1 3 957 565 256 566
1 3 454 957 566 126
1 3 152 546 958 565
1 3 546 72 559 958
1 3 958 559 156 567
1 3 565 958 567 256
1 3 256 567 959 568
1 3 567 156 564 959
1 3 959 564 43 508
1 3 568 959 508 141
1 3 126 566 960 456
1 3 566 256 568 960
1 3 960 568 141 505
1 3 456 960 505 16
1 3 12 569 961 551
1 3 569 157 570 961
1 3 961 570 257 571
1 3 551 961 571 153
1 3 157 572 962 570
1 3 572 47 573 962
1 3 962 573 158 574
1 3 570 962 574 257
1 3 257 574 963 577
1 3 574 158 575 963
1 3 963 575 73 576
1 3 577 963 576 159
1 3 153 571 964 553
1 3 571 257 577 964
1 3 964 577 159 578
1 3 553 964 578 46
1 3 47 579 965 573
1 3 579 160 580 965
1 3 965 580 258 581
1 3 573 965 581 158
1 3 160 582 966 580
1 3 582 13 583 966
1 3 966 583 161 584
1 3 580 966 584 258
1 3 258 584 967 587
1 3 584 161 585 967
1 3 967 585 48 586
1 3 587 967 586 162
1 3 158 581 968 575
1 3 581 258 587 968
1 3 968 587 162 588
1 3 575 968 588 73
1 3 73 588 969 591
1 3 588 162 589 969
1 3 969 589 259 590
1 3 591 969 590 165
1 3 162 586 970 589
1 3 586 48 592 970
1 3 970 592 163 593
1 3 589 970 593 259
1 3 259 593 971 596
1 3 593 163 594 971
1 3 971 594 18 595
1 3 596 971 595 164
1 3 165 590 972 598
1 3 590 259 596 972
1 3 972 596 164 597
1 3 598 972 597 49
1 3 46 578 973 560
1 3 578 159 599 973
1 3 973 599 260 600
1 3 560 973 600 155
1 3 159 576 974 599
1 3 576 73 591 974
1 3 974 591 165 601
1 3 599 974 601 260
1 3 260 601 975 603
1 3 601 165 598 975
1 3 975 598 49 602
1 3 603 975 602 166
1 3 155 600 976 562
1 3 600 260 603 976
1 3 976 603 166 604
1 3 562 976 604 17
2 3 17 604 977 519
2 3 604 166 605 977
2 3 977 605 261 606
2 3 519 977 606 145
2 3 166 602 978 605
2 3 602 49 607 978
2 3 978 607 167 608
2 3 605 978 608 261
2 3 261 608 979 611
2 3 608 167 609 979
2 3 979 609 74 610
2 3 611 979 610 168
2 3 145 606 980 521
2 3 606 261 611 980
2 3 980 611 168 612
2 3 521 980 612 44
2 3 49 597 981 607
2 3 597 164 613 981
2 3 981 613 262 614
2 3 607 981 614 167
2 3 164 595 982 613
2 3 595 18 615 982
2 3 982 615 169 616
2 3 613 982 616 262
2 3 262 616 983 619
2 3 616 169 617 983
2 3 983 617 50 618
2 3 619 983 618 170
2 3 167 614 984 609
2 3 614 262 619 984
2 3 984 619 170 620
2 3 609 984 620 74
2 3 74 620 985 623
2 3 620 170 621 985
2 3 985 621 263 622
2 3 623 985 622 173
2 3 170 618 986 621
2 3 618 50 624 986
2 3 986 624 171 625
2 3 621 986 625 263
2 3 263 625 987 628
2 3 625 171 626 987
2 3 987 626 23 627
2 3 628 987 627 172
2 3 173 622 988 630
2 3 622 263 628 988
2 3 988 628 172 629
2 3 630 988 629 51
2 3 44 612 989 528
2 3 612 168 631 989
2 3 989 631 264 632
2 3 528 989 632 147
2 3 168 610 990 631
2 3 610 74 623 990
2 3 990 623 173 633
2 3 631 990 633 264
2 3 264 633 991 635
2 3 633 173 630 991
2 3 991 630 51 634
2 3 635 991 634 174
2 3 147 632 992 530
2 3 632 264 635 992
2 3 992 635 174 636
2 3 530 992 636 22
2 3 18 637 993 615
2 3 637 175 638 993
2 3 993 638 265 639
2 3 615 993 639 169
2 3 175 640 994 638
2 3 640 52 641 994
2 3 994 641 176 642
2 3 638 994 642 265
2 3 265 642 995 645
2 3 642 176 643 995
2 3 995 643 75 644
2 3 645 995 644 177
2 3 169 639 996 617
2 3 639 265 645 996
2 3 996 645 177 646
2 3 617 996 646 50
2 3 52 647 997 641
2 3 647 178 648 997
2 3 997 648 266 649
2 3 641 997 649 176
2 3 178 650 998 648
2 3 650 19 651 998
2 3 998 651 179 652
2 3 648 998 652 266
2 3 266 652 999 655
2 3 652 179 653 999
2 3 999 653 53 654
2 3 655 999 654 180
2 3 176 649 1000 643
2 3 649 266 655 1000
2 3 1000 655 180 656
2 3 643 1000 656 75
2 3 75 656 1001 659
2 3 656 180 657 1001
2 3 1001 657 267 658
2 3 659 1001 658 183
2 3 180 654 1002 657
2 3 654 53 660 1002
2 3 1002 660 181 661
2 3 657 1002 661 267
2 3 267 661 1003 664
2 3 661 181 662 1003
2 3 1003 662 24 663
2 3 664 1003 663 182
2 3 183 658 1004 666
2 3 658 267 664 1004
2 3 1004 664 182 665
2 3 666 1004 665 54
2 3 50 646 1005 624
2 3 646 177 667 1005
2 3 1005 667 268 668
2 3 624 1005 668 171
2 3 177 644 1006 667
2 3 644 75 659 1006
2 3 1006 659 183 669
2 3 667 1006 669 268
2 3 268 669 1007 671
2 3 669 183 666 1007
2 3 1007 666 54 670
2 3 671 1007 670 184
2 3 171 668 1008 626
2 3 668 268 671 1008
2 3 1008 671 184 672
2 3 626 1008 672 23
2 3 13 673 1009 583
2 3 673 185 674 1009
2 3 1009 674 269 675
2 3 583 1009 675 161
2 3 185 676 1010 674
2 3 676 55 677 1010
2 3 1010 677 186 678
2 3 674 1010 678 269
2 3 269 678 1011 681
2 3 678 186 679 1011
2 3 1011 679 76 680
2 3 681 1011 680 187
2 3 161 675 1012 585
2 3 675 269 681 1012
2 3 1012 681 187 682
2 3 585 1012 682 48
2 3 55 683 1013 677
2 3 683 188 684 1013
2 3 1013 684 270 685
2 3 677 1013 685 186
2 3 188 686 1014 684
2 3 686 14 687 1014
2 3 1014 687 189 688
2 3 684 1014 688 270
2 3 270 688 1015 691
2 3 688 189 689 1015
2 3 1015 689 56 690
2 3 691 1015 690 190
2 3 186 685 1016 679
2 3 685 270 691 1016
2 3 1016 691 190 692
2 3 679 1016 692 76
2 3 76 692 1017 695
2 3 692 190 693 1017
2 3 1017 693 271 694
2 3 695 1017 694 192
2 3 190 690 1018 693
2 3 690 56 696 1018
2 3 1018 696 191 697
2 3 693 1018 697 271
2 3 271 697 1019 699
2 3 697 191 698 1019
2 3 1019 698 19 650
2 3 699 1019 650 178
2 3 192 694 1020 700
2 3 694 271 699 1020
2 3 1020 699 178 647
2 3 700 1020 647 52
2 3 48 682 1021 592
2 3 682 187 701 1021
2 3 1021 701 272 702
2 3 592 1021 702 163
2 3 187 680 1022 701
2 3 680 76 695 1022
2 3 1022 695 192 703
2 3 701 1022 703 272
2 3 272 703 1023 704
2 3 703 192 700 1023
2 3 1023 700 52 640
2 3 704 1023 640 175
2 3 163 702 1024 594
2 3 702 272 704 1024
2 3 1024 704 175 637
2 3 594 1024 637 18
2 3 8 705 1025 708
2 3 705 193 706 1025
2 3 1025 706 273 707
2 3 708 1025 707 196
2 3 193 709 1026 706
2 3 709 57 710 1026
2 3 1026 710 194 711
2 3 706 1026 711 273
2 3 273 711 1027 714
2 3 711 194 712 1027
2 3 1027 712 77 713
2 3 714 1027 713 195
2 3 196 707 1028 716
2 3 707 273 714 1028
2 3 1028 714 195 715
2 3 716 1028 715 59
2 3 57 717 1029 710
2 3 717 197 718 1029
2 3 1029 718 274 719
2 3 710 1029 719 194
2 3 197 720 1030 718
2 3 720 9 721 1030
2 3 1030 721 198 722
2 3 718 1030 722 274
2 3 274 722 1031 725
2 3 722 198 723 1031
2 3 1031 723 58 724
2 3 725 1031 724 199
2 3 194 719 1032 712
2 3 719 274 725 1032
2 3 1032 725 199 726
2 3 712 1032 726 77
2 3 77 726 1033 729
2 3 726 199 727 1033
2 3 1033 727 275 728
2 3 729 1033 728 201
2 3 199 724 1034 727
2 3 724 58 730 1034
2 3 1034 730 200 731
2 3 727 1034 731 275
2 3 275 731 1035 733
2 3 731 200 732 1035
2 3 1035 732 14 686
2 3 733 1035 686 188
2 3 201 728 1036 734
2 3 728 275 733 1036
2 3 1036 733 188 683
2 3 734 1036 683 55
2 3 59 715 1037 737
2 3 715 195 735 1037
2 3 1037 735 276 736
2 3 737 1037 736 202
2 3 195 713 1038 735
2 3 713 77 729 1038
2 3 1038 729 201 738
2 3 735 1038 738 276
2 3 276 738 1039 739
2 3 738 201 734 1039
2 3 1039 734 55 676
2 3 739 1039 676 185
2 3 202 736 1040 740
2 3 736 276 739 1040
2 3 1040 739 185 673
2 3 740 1040 673 13
1 3 7 741 1041 377
1 3 741 203 742 1041
1 3 1041 742 277 743
1 3 377 1041 743 106
1 3 203 744 1042 742
1 3 744 60 745 1042
1 3 1042 745 204 746
1 3 742 1042 746 277
1 3 277 746 1043 749
1 3 746 204 747 1043
1 3 1043 747 78 748
1 3 749 1043 748 205
1 3 106 743 1044 379
1 3 743 277 749 1044
1 3 1044 749 205 750
1 3 379 1044 750 32
1 3 60 751 1045 745
1 3 751 206 752 1045
1 3 1045 752 278 753
1 3 745 1045 753 204
1 3 206 754 1046 752
1 3 754 8 708 1046
1 3 1046 708 196 755
1 3 752 1046 755 278
1 3 278 755 1047 757
1 3 755 196 716 1047
1 3 1047 716 59 756
1 3 757 1047 756 207
1 3 204 753 1048 747
1 3 753 278 757 1048
1 3 1048 757 207 758
1 3 747 1048 758 78
1 3 78 758 1049 761
1 3 758 207 759 1049
1 3 1049 759 279 760
1 3 761 1049 760 208
1 3 207 756 1050 759
1 3 756 59 737 1050
1 3 1050 737 202 762
1 3 759 1050 762 279
1 3 279 762 1051 763
1 3 762 202 740 1051
1 3 1051 740 13 582
1 3 763 1051 582 160
1 3 208 760 1052 764
1 3 760 279 763 1052
1 3 1052 763 160 579
1 3 764 1052 579 47
1 3 32 750 1053 386
1 3 750 205 765 1053
1 3 1053 765 280 766
1 3 386 1053 766 108
1 3 205 748 1054 765
1 3 748 78 761 1054
1 3 1054 761 208 767
1 3 765 1054 767 280
1 3 280 767 1055 768
1 3 767 208 764 1055
1 3 1055 764 47 572
1 3 768 1055 572 157
1 3 108 766 1056 388
1 3 766 280 768 1056
1 3 1056 768 157 569
1 3 388 1056 569 12
2 3 2 769 1057 343
2 3 769 209 770 1057
2 3 1057 770 281 771
2 3 343 1057 771 97
2 3 209 772 1058 770
2 3 772 61 773 1058
2 3 1058 773 210 774
2 3 770 1058 774 281
2 3 281 774 1059 777
2 3 774 210 775 1059
2 3 1059 775 79 776
2 3 777 1059 776 211
2 3 97 771 1060 345
2 3 771 281 777 1060
2 3 1060 777 211 778
2 3 345 1060 778 30
2 3 61 779 1061 773
2 3 779 212 780 1061
2 3 1061 780 282 781
2 3 773 1061 781 210
2 3 212 782 1062 780
2 3 782 3 783 1062
2 3 1062 783 213 784
2 3 780 1062 784 282
2 3 282 784 1063 787
2 3 784 213 785 1063
2 3 1063 785 62 786
2 3 787 1063 786 214
2 3 210 781 1064 775
2 3 781 282 787 1064
2 3 1064 787 214 788
2 3 775 1064 788 79
2 3 79 788 1065 791
2 3 788 214 789 1065
2 3 1065 789 283 790
2 3 791 1065 790 216
2 3 214 786 1066 789
2 3 786 62 792 1066
2 3 1066 792 215 793
2 3 789 1066 793 283
2 3 283 793 1067 795
2 3 793 215 794 1067
2 3 1067 794 8 754
2 3 795 1067 754 206
2 3 216 790 1068 796
2 3 790 283 795 1068
2 3 1068 795 206 751
2 3 796 1068 751 60
2 3 30 778 1069 352
2 3 778 211 797 1069
2 3 1069 797 284 798
2 3 352 1069 798 99
2 3 211 776 1070 797
2 3 776 79 791 1070
2 3 1070 791 216 799
2 3 797 1070 799 284
2 3 284 799 1071 800
2 3 799 216 796 1071
2 3 1071 796 60 744
2 3 800 1071 744 203
2 3 99 798 1072 354
2 3 798 284 800 1072
2 3 1072 800 203 741
2 3 354 1072 741 7
2 3 3 801 1073 783
2 3 801 217 802 1073
2 3 1073 802 285 803
2 3 783 1073 803 213
2 3 217 804 1074 802
2 3 804 63 805 1074
2 3 1074 805 218 806
2 3 802 1074 806 285
2 3 285 806 1075 809
2 3 806 218 807 1075
2 3 1075 807 80 808
2 3 809 1075 808 219
2 3 213 803 1076 785
2 3 803 285 809 1076
2 3 1076 809 219 810
2 3 785 1076 810 62
2 3 63 811 1077 805
2 3 811 220 812 1077
2 3 1077 812 286 813
2 3 805 1077 813 218
2 3 220 814 1078 812
2 3 814 4 815 1078
2 3 1078 815 221 816
2 3 812 1078 816 286
2 3 286 816 1079 819
2 3 816 221 817 1079
2 3 1079 817 64 818
2 3 819 1079 818 222
2 3 218 813 1080 807
2 3 813 286 819 1080
2 3 1080 819 222 820
2 3 807 1080 820 80
2 3 80 820 1081 823
2 3 820 222 821 1081
2 3 1081 821 287 822
2 3 823 1081 822 224
2 3 222 818 1082 821
2 3 818 64 824 1082
2 3 1082 824 223 825
2 3 821 1082 825 287
2 3 287 825 1083 827
2 3 825 223 826 1083
2 3 1083 826 9 720
2 3 827 1083 720 197
2 3 224 822 1084 828
2 3 822 287 827 1084
2 3 1084 827 197 717
2 3 828 1084 717 57
2 3 62 810 1085 792
2 3 810 219 829 1085
2 3 1085 829 288 830
2 3 792 1085 830 215
2 3 219 808 1086 829
2 3 808 80 823 1086
2 3 1086 823 224 831
2 3 829 1086 831 288
2 3 288 831 1087 832
2 3 831 224 828 1087
2 3 1087 828 57 709
2 3 832 1087 709 193
2 3 215 830 1088 794
2 3 830 288 832 1088
2 3 1088 832 193 705
2 3 794 1088 705 8

boundary
128
1 1 0 289
1 1 289 81
1 1 81 293
1 1 293 25
1 1 25 301
1 1 301 85
1 1 85 304
1 1 304 1
1 1 1 329
1 1 329 93
1 1 93 332
1 1 332 29
1 1 29 339
1 1 339 96
1 1 96 342
1 1 342 2
1 1 2 769
1 1 769 209
1 1 209 772
1 1 772 61
1 1 61 779
1 1 779 212
1 1 212 782
1 1 782 3
1 1 3 801
1 1 801 217
1 1 217 804
1 1 804 63
1 1 63 811
1 1 811 220
1 1 220 814
1 1 814 4
3 1 21 493
3 1 493 137
3 1 137 495
3 1 495 41
3 1 41 501
3 1 501 139
3 1 139 503
3 1 503 20
3 1 22 531
3 1 531 148
3 1 148 533
3 1 533 45
3 1 45 538
3 1 538 150
3 1 150 540
3 1 540 21
3 1 23 627
3 1 627 172
3 1 172 629
3 1 629 51
3 1 51 634
3 1 634 174
3 1 174 636
3 1 636 22
3 1 24 663
3 1 663 182
3 1 182 665
3 1 665 54
3 1 54 670
3 1 670 184
3 1 184 672
3 1 672 23
4 1 5 328
4 1 328 92
4 1 92 323
4 1 323 28
4 1 28 300
4 1 300 84
4 1 84 292
4 1 292 0
4 1 10 432
4 1 432 120
4 1 120 427
4 1 427 36
4 1 36 410
4 1 410 115
4 1 115 403
4 1 403 5
4 1 15 468
4 1 468 130
4 1 130 463
4 1 463 39
4 1 39 442
4 1 442 123
4 1 123 435
4 1 435 10
4 1 20 504
4 1 504 140
4 1 140 499
4 1 499 42
4 1 42 478
4 1 478 133
4 1 133 471
4 1 471 15
2 1 4 815
2 1 815 221
2 1 221 817
2 1 817 64
2 1 64 824
2 1 824 223
2 1 223 826
2 1 826 9
2 1 9 721
2 1 721 198
2 1 198 723
2 1 723 58
2 1 58 730
2 1 730 200
2 1 200 732
2 1 732 14
2 1 14 687
2 1 687 189
2 1 189 689
2 1 689 56
2 1 56 696
2 1 696 191
2 1 191 698
2 1 698 19
2 1 19 651
2 1 651 179
2 1 179 653
2 1 653 53
2 1 53 660
2 1 660 181
2 1 181 662
2 1 662 24

vertices
1089
2
0 0
0.25 0
0.5 0
0.75 0
1 0
0 0.25
0.25 0.25
0.5 0.25
0.75 0.25
1 0.25
0 0.5
0.25 0.5
0.5 0.5
0.75 0.5
1 0.5
0 0.75
0.25 0.75
0.5 0.75
0.75 0.75
1 0.75
0 1
0.25 1
0.5 1
0.75 1
1 1
0.125 0
0.25 0.125
0.125 0.25
0 0.125
0.375 0
0.5 0.125
0.375 0.25
0.5 0.375
0.375 0.5
0.25 0.375
0.125 0.5
0 0.375
0.25 0.625
0.125 0.75
0 0.625
0.25 0.875
0.125 1
0 0.875
0.375 0.75
0.5 0.875
0.375 1
0.5 0.625
0.625 0.5
0.75 0.625
0.625 0.75
0.75 0.875
0.625 1
0.875 0.75
1 0.875
0.875 1
0.875 0.5
1 0.625
0.875 0.25
1 0.375
0.75 0.375
0.625 0.25
0.625 0
0.75 0.125
0.875 0
1 0.125
0.125 0.125
0.375 0.125
0.375 0.375
0.125 0.375
0.125 0.625
0.125 0.875
0.375 0.875
0.375 0.625
0.625 0.625
0.625 0.875
0.875 0.875
0.875 0.625
0.875 0.375
0.625 0.375
0.625 0.125
0.875 0.125
0.0625 0
0.125 0.0625
0.0625 0.125
0 0.0625
0.1875 0
0.25 0.0625
0.1875 0.125
0.25 0.1875
0.1875 0.25
0.125 0.1875
0.0625 0.25
0 0.1875
0.3125 0
0.375 0.0625
0.3125 0.125
0.4375 0
0.5 0.0625
0.4375 0.125
0.5 0.1875
0.4375 0.25
0.375 0.1875
0.3125 0.25
0.375 0.3125
0.3125 0.375
0.25 0.3125
0.5 0.3125
0.4375 0.375
0.5 0.4375
0.4375 0.5
0.375 0.4375
0.3125 0.5
0.25 0.4375
0.125 0.3125
0.0625 0.375
0 0.3125
0.1875 0.375
0.1875 0.5
0.125 0.4375
0.0625 0.5
0 0.4375
0.125 0.5625
0.0625 0.625
0 0.5625
0.25 0.5625
0.1875 0.625
0.25 0.6875
0.1875 0.75
0.125 0.6875
0.0625 0.75
0 0.6875
0.125 0.8125
0.0625 0.875
0 0.8125
0.25 0.8125
0.1875 0.875
0.25 0.9375
0.1875 1
0.125 0.9375
0.0625 1
0 0.9375
0.3125 0.75
0.375 0.8125
0.3125 0.875
0.4375 0.75
0.5 0.8125
0.4375 0.875
0.5 0.9375
0.4375 1
0.375 0.9375
0.3125 1
0.375 0.5625
0.3125 0.625
0.5 0.5625
0.4375 0.625
0.5 0.6875
0.375 0.6875
0.5625 0.5
0.625 0.5625
0.5625 0.625
0.6875 0.5
0.75 0.5625
0.6875 0.625
0.75 0.6875
0.6875 0.75
0.625 0.6875
0.5625 0.75
0.625 0.8125
0.5625 0.875
0.75 0.8125
0.6875 0.875
0.75 0.9375
0.6875 1
0.625 0.9375
0.5625 1
0.8125 0.75
0.875 0.8125
0.8125 0.875
0.9375 0.75
1 0.8125
0.9375 0.875
1 0.9375
0.9375 1
0.875 0.9375
0.8125 1
0.8125 0.5
0.875 0.5625
0.8125 0.625
0.9375 0.5
1 0.5625
0.9375 0.625
1 0.6875
0.875 0.6875
0.8125 0.25
0.875 0.3125
0.8125 0.375
0.75 0.3125
0.9375 0.25
1 0.3125
0.9375 0.375
1 0.4375
0.875 0.4375
0.75 0.4375
0.5625 0.25
0.625 0.3125
0.5625 0.375
0.6875 0.25
0.6875 0.375
0.625 0.4375
0.5625 0
0.625 0.0625
0.5625 0.125
0.6875 0
0.75 0.0625
0.6875 0.125
0.75 0.1875
0.625 0.1875
0.8125 0
0.875 0.0625
0.8125 0.125
0.9375 0
1 0.0625
0.9375 0.125
1 0.1875
0.875 0.1875
0.0625 0.0625
0.1875 0.0625
0.1875 0.1875
0.0625 0.1875
0.3125 0.0625
0.4375 0.0625
0.4375 0.1875
0.3125 0.1875
0.3125 0.3125
0.4375 0.3125
0.4375 0.4375
0.3125 0.4375
0.0625 0.3125
0.1875 0.3125
0.1875 0.4375
0.0625 0.4375
0.0625 0.5625
0.1875 0.5625
0.1875 0.6875
0.0625 0.6875
0.0625 0.8125
0.1875 0.8125
0.1875 0.9375
0.0625 0.9375
0.3125 0.8125
0.4375 0.8125
0.4375 0.9375
0.3125 0.9375
0.3125 0.5625
0.4375 0.5625
0.4375 0.6875
0.3125 0.6875
0.5625 0.5625
0.6875 0.5625
0.6875 0.6875
0.5625 0.6875
0.5625 0.8125
0.6875 0.8125
0.6875 0.9375
0.5625 0.9375
0.8125 0.8125
0.9375 0.8125
0.9375 0.9375
0.8125 0.9375
0.8125 0.5625
0.9375 0.5625
0.9375 0.6875
0.8125 0.6875
0.8125 0.3125
0.9375 0.3125
0.9375 0.4375
0.8125 0.4375
0.5625 0.3125
0.6875 0.3125
0.6875 0.4375
0.5625 0.4375
0.5625 0.0625
0.6875 0.0625
0.6875 0.1875
0.5625 0.1875
0.8125 0.0625
0.9375 0.0625
0.9375 0.1875
0.8125 0.1875
0.03125 0
0.0625 0.03125
0.03125 0.0625
0 0.03125
0.09375 0
0.125 0.03125
0.09375 0.0625
0.125 0.09375
0.09375 0.125
0.0625 0.09375
0.03125 0.125
0 0.09375
0.15625 0
0.1875 0.03125
0.15625 0.0625
0.21875 0
0.25 0.03125
0.21875 0.0625
0.25 0.09375
0.21875 0.125
0.1875 0.09375
0.15625 0.125
0.1875 0.15625
0.15625 0.1875
0.125 0.15625
0.25 0.15625
0.21875 0.1875
0.25 0.21875
0.21875 0.25
0.1875 0.21875
0.15625 0.25
0.125 0.21875
0.0625 0.15625
0.03125 0.1875
0 0.15625
0.09375 0.1875
0.09375 0.25
0.0625 0.21875
0.03125 0.25
0 0.21875
0.28125 0
0.3125 0.03125
0.28125 0.0625
0.34375 0
0.375 0.03125
0.34375 0.0625
0.375 0.09375
0.34375 0.125
0.3125 0.09375
0.28125 0.125
0.40625 0
0.4375 0.03125
0.40625 0.0625
0.46875 0
0.5 0.03125
0.46875 0.0625
0.5 0.09375
0.46875 0.125
0.4375 0.09375
0.40625 0.125
0.4375 0.15625
0.40625 0.1875
0.375 0.15625
0.5 0.15625
0.46875 0.1875
0.5 0.21875
0.46875 0.25
0.4375 0.21875
0.40625 0.25
0.375 0.21875
0.3125 0.15625
0.28125 0.1875
0.34375 0.1875
0.34375 0.25
0.3125 0.21875
0.28125 0.25
0.3125 0.28125
0.28125 0.3125
0.25 0.28125
0.375 0.28125
0.34375 0.3125
0.375 0.34375
0.34375 0.375
0.3125 0.34375
0.28125 0.375
0.25 0.34375
0.4375 0.28125
0.40625 0.3125
0.5 0.28125
0.46875 0.3125
0.5 0.34375
0.46875 0.375
0.4375 0.34375
0.40625 0.375
0.4375 0.40625
0.40625 0.4375
0.375 0.40625
0.5 0.40625
0.46875 0.4375
0.5 0.46875
0.46875 0.5
0.4375 0.46875
0.40625 0.5
0.375 0.46875
0.3125 0.40625
0.28125 0.4375
0.25 0.40625
0.34375 0.4375
0.34375 0.5
0.3125 0.46875
0.28125 0.5
0.25 0.46875
0.0625 0.28125
0.03125 0.3125
0 0.28125
0.125 0.28125
0.09375 0.3125
0.125 0.34375
0.09375 0.375
0.0625 0.34375
0.03125 0.375
0 0.34375
0.1875 0.28125
0.15625 0.3125
0.21875 0.3125
0.21875 0.375
0.1875 0.34375
0.15625 0.375
0.1875 0.40625
0.15625 0.4375
0.125 0.40625
0.21875 0.4375
0.21875 0.5
0.1875 0.46875
0.15625 0.5
0.125 0.46875
0.0625 0.40625
0.03125 0.4375
0 0.40625
0.09375 0.4375
0.09375 0.5
0.0625 0.46875
0.03125 0.5
0 0.46875
0.0625 0.53125
0.03125 0.5625
0 0.53125
0.125 0.53125
0.09375 0.5625
0.125 0.59375
0.09375 0.625
0.0625 0.59375
0.03125 0.625
0 0.59375
0.1875 0.53125
0.15625 0.5625
0.25 0.53125
0.21875 0.5625
0.25 0.59375
0.21875 0.625
0.1875 0.59375
0.15625 0.625
0.1875 0.65625
0.15625 0.6875
0.125 0.65625
0.25 0.65625
0.21875 0.6875
0.25 0.71875
0.21875 0.75
0.1875 0.71875
0.15625 0.75
0.125 0.71875
0.0625 0.65625
0.03125 0.6875
0 0.65625
0.09375 0.6875
0.09375 0.75
0.0625 0.71875
0.03125 0.75
0 0.71875
0.0625 0.78125
0.03125 0.8125
0 0.78125
0.125 0.78125
0.09375 0.8125
0.125 0.84375
0.09375 0.875
0.0625 0.84375
0.03125 0.875
0 0.84375
0.1875 0.78125
0.15625 0.8125
0.25 0.78125
0.21875 0.8125
0.25 0.84375
0.21875 0.875
0.1875 0.84375
0.15625 0.875
0.1875 0.90625
0.15625 0.9375
0.125 0.90625
0.25 0.90625
0.21875 0.9375
0.25 0.96875
0.21875 1
0.1875 0.96875
0.15625 1
0.125 0.96875
0.0625 0.90625
0.03125 0.9375
0 0.90625
0.09375 0.9375
0.09375 1
0.0625 0.96875
0.03125 1
0 0.96875
0.28125 0.75
0.3125 0.78125
0.28125 0.8125
0.34375 0.75
0.375 0.78125
0.34375 0.8125
0.375 0.84375
0.34375 0.875
0.3125 0.84375
0.28125 0.875
0.40625 0.75
0.4375 0.78125
0.40625 0.8125
0.46875 0.75
0.5 0.78125
0.46875 0.8125
0.5 0.84375
0.46875 0.875
0.4375 0.84375
0.40625 0.875
0.4375 0.90625
0.40625 0.9375
0.375 0.90625
0.5 0.90625
0.46875 0.9375
0.5 0.96875
0.46875 1
0.4375 0.96875
0.40625 1
0.375 0.96875
0.3125 0.90625
0.28125 0.9375
0.34375 0.9375
0.34375 1
0.3125 0.96875
0.28125 1
0.3125 0.53125
0.28125 0.5625
0.375 0.53125
0.34375 0.5625
0.375 0.59375
0.34375 0.625
0.3125 0.59375
0.28125 0.625
0.4375 0.53125
0.40625 0.5625
0.5 0.53125
0.46875 0.5625
0.5 0.59375
0.46875 0.625
0.4375 0.59375
0.40625 0.625
0.4375 0.65625
0.40625 0.6875
0.375 0.65625
0.5 0.65625
0.46875 0.6875
0.5 0.71875
0.4375 0.71875
0.375 0.71875
0.3125 0.65625
0.28125 0.6875
0.34375 0.6875
0.3125 0.71875
0.53125 0.5
0.5625 0.53125
0.53125 0.5625
0.59375 0.5
0.625 0.53125
0.59375 0.5625
0.625 0.59375
0.59375 0.625
0.5625 0.59375
0.53125 0.625
0.65625 0.5
0.6875 0.53125
0.65625 0.5625
0.71875 0.5
0.75 0.53125
0.71875 0.5625
0.75 0.59375
0.71875 0.625
0.6875 0.59375
0.65625 0.625
0.6875 0.65625
0.65625 0.6875
0.625 0.65625
0.75 0.65625
0.71875 0.6875
0.75 0.71875
0.71875 0.75
0.6875 0.71875
0.65625 0.75
0.625 0.71875
0.5625 0.65625
0.53125 0.6875
0.59375 0.6875
0.59375 0.75
0.5625 0.71875
0.53125 0.75
0.5625 0.78125
0.53125 0.8125
0.625 0.78125
0.59375 0.8125
0.625 0.84375
0.59375 0.875
0.5625 0.84375
0.53125 0.875
0.6875 0.78125
0.65625 0.8125
0.75 0.78125
0.71875 0.8125
0.75 0.84375
0.71875 0.875
0.6875 0.84375
0.65625 0.875
0.6875 0.90625
0.65625 0.9375
0.625 0.90625
0.75 0.90625
0.71875 0.9375
0.75 0.96875
0.71875 1
0.6875 0.96875
0.65625 1
0.625 0.96875
0.5625 0.90625
0.53125 0.9375
0.59375 0.9375
0.59375 1
0.5625 0.96875
0.53125 1
0.78125 0.75
0.8125 0.78125
0.78125 0.8125
0.84375 0.75
0.875 0.78125
0.84375 0.8125
0.875 0.84375
0.84375 0.875
0.8125 0.84375
0.78125 0.875
0.90625 0.75
0.9375 0.78125
0.90625 0.8125
0.96875 0.75
1 0.78125
0.96875 0.8125
1 0.84375
0.96875 0.875
0.9375 0.84375
0.90625 0.875
0.9375 0.90625
0.90625 0.9375
0.875 0.90625
1 0.90625
0.96875 0.9375
1 0.96875
0.96875 1
0.9375 0.96875
0.90625 1
0.875 0.96875
0.8125 0.90625
0.78125 0.9375
0.84375 0.9375
0.84375 1
0.8125 0.96875
0.78125 1
0.78125 0.5
0.8125 0.53125
0.78125 0.5625
0.84375 0.5
0.875 0.53125
0.84375 0.5625
0.875 0.59375
0.84375 0.625
0.8125 0.59375
0.78125 0.625
0.90625 0.5
0.9375 0.53125
0.90625 0.5625
0.96875 0.5
1 0.53125
0.96875 0.5625
1 0.59375
0.96875 0.625
0.9375 0.59375
0.90625 0.625
0.9375 0.65625
0.90625 0.6875
0.875 0.65625
1 0.65625
0.96875 0.6875
1 0.71875
0.9375 0.71875
0.875 0.71875
0.8125 0.65625
0.78125 0.6875
0.84375 0.6875
0.8125 0.71875
0.78125 0.25
0.8125 0.28125
0.78125 0.3125
0.75 0.28125
0.84375 0.25
0.875 0.28125
0.84375 0.3125
0.875 0.34375
0.84375 0.375
0.8125 0.34375
0.78125 0.375
0.75 0.34375
0.90625 0.25
0.9375 0.28125
0.90625 0.3125
0.96875 0.25
1 0.28125
0.96875 0.3125
1 0.34375
0.96875 0.375
0.9375 0.34375
0.90625 0.375
0.9375 0.40625
0.90625 0.4375
0.875 0.40625
1 0.40625
0.96875 0.4375
1 0.46875
0.9375 0.46875
0.875 0.46875
0.8125 0.40625
0.78125 0.4375
0.75 0.40625
0.84375 0.4375
0.8125 0.46875
0.75 0.46875
0.53125 0.25
0.5625 0.28125
0.53125 0.3125
0.59375 0.25
0.625 0.28125
0.59375 0.3125
0.625 0.34375
0.59375 0.375
0.5625 0.34375
0.53125 0.375
0.65625 0.25
0.6875 0.28125
0.65625 0.3125
0.71875 0.25
0.71875 0.3125
0.71875 0.375
0.6875 0.34375
0.65625 0.375
0.6875 0.40625
0.65625 0.4375
0.625 0.40625
0.71875 0.4375
0.6875 0.46875
0.625 0.46875
0.5625 0.40625
0.53125 0.4375
0.59375 0.4375
0.5625 0.46875
0.53125 0
0.5625 0.03125
0.53125 0.0625
0.59375 0
0.625 0.03125
0.59375 0.0625
0.625 0.09375
0.59375 0.125
0.5625 0.09375
0.53125 0.125
0.65625 0
0.6875 0.03125
0.65625 0.0625
0.71875 0
0.75 0.03125
0.71875 0.0625
0.75 0.09375
0.71875 0.125
0.6875 0.09375
0.65625 0.125
0.6875 0.15625
0.65625 0.1875
0.625 0.15625
0.75 0.15625
0.71875 0.1875
0.75 0.21875
0.6875 0.21875
0.625 0.21875
0.5625 0.15625
0.53125 0.1875
0.59375 0.1875
0.5625 0.21875
0.78125 0
0.8125 0.03125
0.78125 0.0625
0.84375 0
0.875 0.03125
0.84375 0.0625
0.875 0.09375
0.84375 0.125
0.8125 0.09375
0.78125 0.125
0.90625 0
0.9375 0.03125
0.90625 0.0625
0.96875 0
1 0.03125
0.96875 0.0625
1 0.09375
0.96875 0.125
0.9375 0.09375
0.90625 0.125
0.9375 0.15625
0.90625 0.1875
0.875 0.15625
1 0.15625
0.96875 0.1875
1 0.21875
0.9375 0.21875
0.875 0.21875
0.8125 0.15625
0.78125 0.1875
0.84375 0.1875
0.8125 0.21875
0.03125 0.03125
0.09375 0.03125
0.09375 0.09375
0.03125 0.09375
0.15625 0.03125
0.21875 0.03125
0.21875 0.09375
0.15625 0.09375
0.15625 0.15625
0.21875 0.15625
0.21875 0.21875
0.15625 0.21875
0.03125 0.15625
0.09375 0.15625
0.09375 0.21875
0.03125 0.21875
0.28125 0.03125
0.34375 0.03125
0.34375 0.09375
0.28125 0.09375
0.40625 0.03125
0.46875 0.03125
0.46875 0.09375
0.40625 0.09375
0.40625 0.15625
0.46875 0.15625
0.46875 0.21875
0.40625 0.21875
0.28125 0.15625
0.34375 0.15625
0.34375 0.21875
0.28125 0.21875
0.28125 0.28125
0.34375 0.28125
0.34375 0.34375
0.28125 0.34375
0.40625 0.28125
0.46875 0.28125
0.46875 0.34375
0.40625 0.34375
0.40625 0.40625
0.46875 0.40625
0.46875 0.46875
0.40625 0.46875
0.28125 0.40625
0.34375 0.40625
0.34375 0.46875
0.28125 0.46875
0.03125 0.28125
0.09375 0.28125
0.09375 0.34375
0.03125 0.34375
0.15625 0.28125
0.21875 0.28125
0.21875 0.34375
0.15625 0.34375
0.15625 0.40625
0.21875 0.40625
0.21875 0.46875
0.15625 0.46875
0.03125 0.40625
0.09375 0.40625
0.09375 0.46875
0.03125 0.46875
0.03125 0.53125
0.09375 0.53125
0.09375 0.59375
0.03125 0.59375
0.15625 0.53125
0.21875 0.53125
0.21875 0.59375
0.15625 0.59375
0.15625 0.65625
0.21875 0.65625
0.21875 0.71875
0.15625 0.71875
0.03125 0.65625
0.09375 0.65625
0.09375 0.71875
0.03125 0.71875
0.03125 0.78125
0.09375 0.78125
0.09375 0.84375
0.03125 0.84375
0.15625 0.78125
0.21875 0.78125
0.21875 0.84375
0.15625 0.84375
0.15625 0.90625
0.21875 0.90625
0.21875 0.96875
0.15625 0.96875
0.03125 0.90625
0.09375 0.90625
0.09375 0.96875
0.03125 0.96875
0.28125 0.78125
0.34375 0.78125
0.34375 0.84375
0.28125 0.84375
0.40625 0.78125
0.46875 0.78125
0.46875 0.84375
0.40625 0.84375
0.40625 0.90625
0.46875 0.90625
0.46875 0.96875
0.40625 0.96875
0.28125 0.90625
0.34375 0.90625
0.34375 0.96875
0.28125 0.96875
0.28125 0.53125
0.34375 0.53125
0.34375 0.59375
0.28125 0.59375
0.40625 0.53125
0.46875 0.53125
0.46875 0.59375
0.40625 0.59375
0.40625 0.65625
0.46875 0.65625
0.46875 0.71875
0.40625 0.71875
0.28125 0.65625
0.34375 0.65625
0.34375 0.71875
0.28125 0.71875
0.53125 0.53125
0.59375 0.53125
0.59375 0.59375
0.53125 0.59375
0.65625 0.53125
0.71875 0.53125
0.71875 0.59375
0.65625 0.59375
0.65625 0.65625
0.71875 0.65625
0.71875 0.71875
0.65625 0.71875
0.53125 0.65625
0.59375 0.65625
0.59375 0.71875
0.53125 0.71875
0.53125 0.78125
0.59375 0.78125
0.59375 0.84375
0.53125 0.84375
0.65625 0.78125
0.71875 0.78125
0.71875 0.84375
0.65625 0.84375
0.65625 0.90625
0.71875 0.90625
0.71875 0.96875
0.65625 0.96875
0.53125 0.90625
0.59375 0.90625
0.59375 0.96875
0.53125 0.96875
0.78125 0.78125
0.84375 0.78125
0.84375 0.84375
0.78125 0.84375
0.90625 0.78125
0.96875 0.78125
0.96875 0.84375
0.90625 0.84375
0.90625 0.90625
0.96875 0.90625
0.96875 0.96875
0.90625 0.96875
0.78125 0.90625
0.84375 0.90625
0.84375 0.96875
0.78125 0.96875
0.78125 0.53125
0.84375 0.53125
0.84375 0.59375
0.78125 0.59375
0.90625 0.53125
0.96875 0.53125
0.96875 0.59375
0.90625 0.59375
0.90625 0.65625
0.96875 0.65625
0.96875 0.71875
0.90625 0.71875
0.78125 0.65625
0.84375 0.65625
0.84375 0.71875
0.78125 0.71875
0.78125 0.28125
0.84375 0.28125
0.84375 0.34375
0.78125 0.34375
0.90625 0.28125
0.96875 0.28125
0.96875 0.34375
0.90625 0.34375
0.90625 0.40625
0.96875 0.40625
0.96875 0.46875
0.90625 0.46875
0.78125 0.40625
0.84375 0.40625
0.84375 0.46875
0.78125 0.46875
0.53125 0.28125
0.59375 0.28125
0.59375 0.34375
0.53125 0.34375
0.65625 0.28125
0.71875 0.28125
0.71875 0.34375
0.65625 0.34375
0.65625 0.40625
0.71875 0.40625
0.71875 0.46875
0.65625 0.46875
0.53125 0.40625
0.59375 0.40625
0.59375 0.46875
0.53125 0.46875
0.53125 0.03125
0.59375 0.03125
0.59375 0.09375
0.53125 0.09375
0.65625 0.03125
0.71875 0.03125
0.71875 0.09375
0.65625 0.09375
0.65625 0.15625
0.71875 0.15625
0.71875 0.21875
0.65625 0.21875
0.53125 0.15625
0.59375 0.15625
0.59375 0.21875
0.53125 0.21875
0.78125 0.03125
0.84375 0.03125
0.84375 0.09375
0.78125 0.09375
0.90625 0.03125
0.96875 0.03125
0.96875 0.09375
0.90625 0.09375
0.90625 0.15625
0.96875 0.15625
0.96875 0.21875
0.90625 0.21875
0.78125 0.15625
0.84375 0.15625
0.84375 0.21875
0.78125 0.21875
