MFEM mesh v1.0

#
# MFEM Geometry Types (see fem/geom.hpp):
#
# POINT       = 0
# SEGMENT     = 1
# TRIANGLE    = 2
# SQUARE      = 3
# TETRAHEDRON = 4
# CUBE        = 5
# PRISM       = 6
# PYRAMID     = 7
#

dimension
2

elements
144
1 3 0 36 108 39
1 3 36 9 37 108
1 3 108 37 27 38
1 3 39 108 38 12
1 3 9 40 109 37
1 3 40 1 41 109
1 3 109 41 10 42
1 3 37 109 42 27
1 3 27 42 110 45
1 3 42 10 43 110
1 3 110 43 4 44
1 3 45 110 44 11
1 3 12 38 111 47
1 3 38 27 45 111
1 3 111 45 11 46
1 3 47 111 46 3
2 3 1 48 112 41
2 3 48 13 49 112
2 3 112 49 28 50
2 3 41 112 50 10
2 3 13 51 113 49
2 3 51 2 52 113
2 3 113 52 14 53
2 3 49 113 53 28
2 3 28 53 114 56
2 3 53 14 54 114
2 3 114 54 5 55
2 3 56 114 55 15
2 3 10 50 115 43
2 3 50 28 56 115
2 3 115 56 15 57
2 3 43 115 57 4
3 3 2 58 116 52
3 3 58 16 59 116
3 3 116 59 29 60
3 3 52 116 60 14
3 3 16 61 117 59
3 3 61 0 39 117
3 3 117 39 12 62
3 3 59 117 62 29
3 3 29 62 118 64
3 3 62 12 47 118
3 3 118 47 3 63
3 3 64 118 63 17
3 3 14 60 119 54
3 3 60 29 64 119
3 3 119 64 17 65
3 3 54 119 65 5
4 3 3 46 120 68
4 3 46 11 66 120
4 3 120 66 30 67
4 3 68 120 67 20
4 3 11 44 121 66
4 3 44 4 69 121
4 3 121 69 18 70
4 3 66 121 70 30
4 3 30 70 122 73
4 3 70 18 71 122
4 3 122 71 7 72
4 3 73 122 72 19
4 3 20 67 123 75
4 3 67 30 73 123
4 3 123 73 19 74
4 3 75 123 74 6
5 3 4 57 124 69
5 3 57 15 76 124
5 3 124 76 31 77
5 3 69 124 77 18
5 3 15 55 125 76
5 3 55 5 78 125
5 3 125 78 21 79
5 3 76 125 79 31
5 3 31 79 126 82
5 3 79 21 80 126
5 3 126 80 8 81
5 3 82 126 81 22
5 3 18 77 127 71
5 3 77 31 82 127
5 3 127 82 22 83
5 3 71 127 83 7
6 3 5 65 128 78
6 3 65 17 84 128
6 3 128 84 32 85
6 3 78 128 85 21
6 3 17 63 129 84
6 3 63 3 68 129
6 3 129 68 20 86
6 3 84 129 86 32
6 3 32 86 130 88
6 3 86 20 75 130
6 3 130 75 6 87
6 3 88 130 87 23
6 3 21 85 131 80
6 3 85 32 88 131
6 3 131 88 23 89
6 3 80 131 89 8
7 3 6 74 132 92
7 3 74 19 90 132
7 3 132 90 33 91
7 3 92 132 91 25
7 3 19 72 133 90
7 3 72 7 93 133
7 3 133 93 24 94
7 3 90 133 94 33
7 3 33 94 134 96
7 3 94 24 95 134
7 3 134 95 1 40
7 3 96 134 40 9
7 3 25 91 135 97
7 3 91 33 96 135
7 3 135 96 9 36
7 3 97 135 36 0
8 3 7 83 136 93
8 3 83 22 98 136
8 3 136 98 34 99
8 3 93 136 99 24
8 3 22 81 137 98
8 3 81 8 100 137
8 3 137 100 26 101
8 3 98 137 101 34
8 3 34 101 138 103
8 3 101 26 102 138
8 3 138 102 2 51
8 3 103 138 51 13
8 3 24 99 139 95
8 3 99 34 103 139
8 3 139 103 13 48
8 3 95 139 48 1
9 3 8 89 140 100
9 3 89 23 104 140
9 3 140 104 35 105
9 3 100 140 105 26
9 3 23 87 141 104
9 3 87 6 92 141
9 3 141 92 25 106
9 3 104 141 106 35
9 3 35 106 142 107
9 3 106 25 97 142
9 3 142 97 0 61
9 3 107 142 61 16
9 3 26 105 143 102
9 3 105 35 107 143
9 3 143 107 16 58
9 3 102 143 58 2

boundary
0

vertices
144
2
-1 -1
-0.333333333 -1
0.333333333 -1
-1 -0.333333333
-0.333333333 -0.333333333
0.333333333 -0.333333333
-1 0.333333333
-0.333333333 0.333333333
0.333333333 0.333333333
-0.6666666665000001 -1
-0.333333333 -0.6666666665000001
-0.6666666665000001 -0.333333333
-1 -0.6666666665000001
0 -1
0.333333333 -0.6666666665000001
0 -0.333333333
-0.3333333335 -1
-0.3333333335 -0.333333333
-0.333333333 0
-0.6666666665000001 0.333333333
-1 0
0.333333333 0
0 0.333333333
-0.3333333335 0.333333333
-0.333333333 -0.3333333335
-1 -0.3333333335
0.333333333 -0.3333333335
-0.6666666665000001 -0.6666666665000001
0 -0.6666666665000001
0.6666666665000001 -0.6666666665000001
-0.6666666665000001 0
0 0
0.6666666665000001 0
-0.6666666665000001 0.6666666665000001
0 0.6666666665000001
0.6666666665000001 0.6666666665000001
-0.83333333325 -1
-0.6666666665000001 -0.83333333325
-0.83333333325 -0.6666666665000001
-1 -0.83333333325
-0.49999999975 -1
-0.333333333 -0.83333333325
-0.49999999975 -0.6666666665000001
-0.333333333 -0.49999999975
-0.49999999975 -0.333333333
-0.6666666665000001 -0.49999999975
-0.83333333325 -0.333333333
-1 -0.49999999975
-0.1666666665 -1
0 -0.83333333325
-0.1666666665 -0.6666666665000001
0.1666666665 -1
0.333333333 -0.83333333325
0.1666666665 -0.6666666665000001
0.333333333 -0.49999999975
0.1666666665 -0.333333333
0 -0.49999999975
-0.1666666665 -0.333333333
-2.499999929295171e-10 -1
0.1666666665 -0.83333333325
0.49999999975 -0.6666666665000001
-0.66666666675 -1
-0.16666666675 -0.6666666665000001
-0.66666666675 -0.333333333
0.1666666665 -0.49999999975
-2.499999929295171e-10 -0.333333333
-0.6666666665000001 -0.1666666665
-0.83333333325 0
-1 -0.1666666665
-0.333333333 -0.1666666665
-0.49999999975 0
-0.333333333 0.1666666665
-0.49999999975 0.333333333
-0.6666666665000001 0.1666666665
-0.83333333325 0.333333333
-1 0.1666666665
0 -0.1666666665
-0.1666666665 0
0.333333333 -0.1666666665
0.1666666665 0
0.333333333 0.1666666665
0.1666666665 0.333333333
0 0.1666666665
-0.1666666665 0.333333333
0.1666666665 -0.1666666665
0.49999999975 0
-0.16666666675 0
-0.66666666675 0.333333333
0.1666666665 0.1666666665
-2.499999929295171e-10 0.333333333
-0.6666666665000001 0.49999999975
-0.83333333325 0.1666666665
-1 -2.499999929295171e-10
-0.333333333 -2.499999929295171e-10
-0.49999999975 0.1666666665
-0.333333333 -0.66666666675
-0.6666666665000001 -0.16666666675
-1 -0.66666666675
0 0.49999999975
-0.1666666665 0.1666666665
0.333333333 -2.499999929295171e-10
0.1666666665 0.1666666665
0.333333333 -0.66666666675
0 -0.16666666675
0.1666666665 0.49999999975
0.49999999975 0.1666666665
-0.16666666675 0.1666666665
0.1666666665 -0.16666666675
-0.83333333325 -0.8333333332500001
-0.49999999975 -0.8333333332500001
-0.49999999975 -0.4999999997500001
-0.83333333325 -0.4999999997500001
-0.1666666665 -0.8333333332500001
0.1666666665 -0.8333333332500001
0.1666666665 -0.4999999997500001
-0.1666666665 -0.4999999997500001
0.4999999997500001 -0.8333333332500001
0.8333333332500001 -0.8333333332500001
0.8333333332500001 -0.4999999997500001
0.4999999997500001 -0.4999999997500001
-0.83333333325 -0.1666666665
-0.49999999975 -0.1666666665
-0.49999999975 0.1666666665
-0.83333333325 0.1666666665
-0.1666666665 -0.1666666665
0.1666666665 -0.1666666665
0.1666666665 0.1666666665
-0.1666666665 0.1666666665
0.4999999997500001 -0.1666666665
0.8333333332500001 -0.1666666665
0.8333333332500001 0.1666666665
0.4999999997500001 0.1666666665
-0.83333333325 0.49999999975
-0.49999999975 0.49999999975
-0.49999999975 0.83333333325
-0.83333333325 0.83333333325
-0.1666666665 0.49999999975
0.1666666665 0.49999999975
0.1666666665 0.83333333325
-0.1666666665 0.83333333325
0.4999999997500001 0.49999999975
0.8333333332500001 0.49999999975
0.8333333332500001 0.83333333325
0.4999999997500001 0.83333333325
