MFEM mesh v1.0

#
# MFEM Geometry Types (see fem/geom.hpp):
#
# POINT       = 0
# SEGMENT     = 1
# TRIANGLE    = 2
# SQUARE      = 3
# TETRAHEDRON = 4
# CUBE        = 5
# PRISM       = 6
# PYRAMID     = 7
#

dimension
3

elements
64
1 5 0 5 30 25 1 6 31 26
1 5 1 6 31 26 2 7 32 27
1 5 2 7 32 27 3 8 33 28
1 5 3 8 33 28 4 9 34 29
1 5 5 10 35 30 6 11 36 31
1 5 6 11 36 31 7 12 37 32
1 5 7 12 37 32 8 13 38 33
1 5 8 13 38 33 9 14 39 34
1 5 30 35 60 55 31 36 61 56
1 5 31 36 61 56 32 37 62 57
1 5 32 37 62 57 33 38 63 58
1 5 33 38 63 58 34 39 64 59
1 5 25 30 55 50 26 31 56 51
1 5 26 31 56 51 27 32 57 52
1 5 27 32 57 52 28 33 58 53
1 5 28 33 58 53 29 34 59 54
1 5 50 55 80 75 51 56 81 76
1 5 51 56 81 76 52 57 82 77
1 5 52 57 82 77 53 58 83 78
1 5 53 58 83 78 54 59 84 79
1 5 75 80 105 100 76 81 106 101
1 5 76 81 106 101 77 82 107 102
1 5 77 82 107 102 78 83 108 103
1 5 78 83 108 103 79 84 109 104
1 5 80 85 110 105 81 86 111 106
1 5 81 86 111 106 82 87 112 107
1 5 82 87 112 107 83 88 113 108
1 5 83 88 113 108 84 89 114 109
1 5 55 60 85 80 56 61 86 81
1 5 56 61 86 81 57 62 87 82
1 5 57 62 87 82 58 63 88 83
1 5 58 63 88 83 59 64 89 84
1 5 60 65 90 85 61 66 91 86
1 5 61 66 91 86 62 67 92 87
1 5 62 67 92 87 63 68 93 88
1 5 63 68 93 88 64 69 94 89
1 5 85 90 115 110 86 91 116 111
1 5 86 91 116 111 87 92 117 112
1 5 87 92 117 112 88 93 118 113
1 5 88 93 118 113 89 94 119 114
1 5 90 95 120 115 91 96 121 116
1 5 91 96 121 116 92 97 122 117
1 5 92 97 122 117 93 98 123 118
1 5 93 98 123 118 94 99 124 119
1 5 65 70 95 90 66 71 96 91
1 5 66 71 96 91 67 72 97 92
1 5 67 72 97 92 68 73 98 93
1 5 68 73 98 93 69 74 99 94
1 5 40 45 70 65 41 46 71 66
1 5 41 46 71 66 42 47 72 67
1 5 42 47 72 67 43 48 73 68
1 5 43 48 73 68 44 49 74 69
1 5 35 40 65 60 36 41 66 61
1 5 36 41 66 61 37 42 67 62
1 5 37 42 67 62 38 43 68 63
1 5 38 43 68 63 39 44 69 64
1 5 10 15 40 35 11 16 41 36
1 5 11 16 41 36 12 17 42 37
1 5 12 17 42 37 13 18 43 38
1 5 13 18 43 38 14 19 44 39
1 5 15 20 45 40 16 21 46 41
1 5 16 21 46 41 17 22 47 42
1 5 17 22 47 42 18 23 48 43
1 5 18 23 48 43 19 24 49 44

boundary
96
1 3 0 5 6 1
1 3 1 6 7 2
1 3 2 7 8 3
1 3 3 8 9 4
1 3 5 10 11 6
1 3 6 11 12 7
1 3 7 12 13 8
1 3 8 13 14 9
1 3 10 15 16 11
1 3 11 16 17 12
1 3 12 17 18 13
1 3 13 18 19 14
1 3 15 20 21 16
1 3 16 21 22 17
1 3 17 22 23 18
1 3 18 23 24 19
3 3 105 100 101 106
3 3 106 101 102 107
3 3 107 102 103 108
3 3 108 103 104 109
3 3 110 105 106 111
3 3 111 106 107 112
3 3 112 107 108 113
3 3 113 108 109 114
3 3 115 110 111 116
3 3 116 111 112 117
3 3 117 112 113 118
3 3 118 113 114 119
3 3 120 115 116 121
3 3 121 116 117 122
3 3 122 117 118 123
3 3 123 118 119 124
4 3 25 0 1 26
4 3 26 1 2 27
4 3 27 2 3 28
4 3 28 3 4 29
4 3 50 25 26 51
4 3 51 26 27 52
4 3 52 27 28 53
4 3 53 28 29 54
4 3 75 50 51 76
4 3 76 51 52 77
4 3 77 52 53 78
4 3 78 53 54 79
4 3 100 75 76 101
4 3 101 76 77 102
4 3 102 77 78 103
4 3 103 78 79 104
2 3 20 45 46 21
2 3 21 46 47 22
2 3 22 47 48 23
2 3 23 48 49 24
2 3 45 70 71 46
2 3 46 71 72 47
2 3 47 72 73 48
2 3 48 73 74 49
2 3 70 95 96 71
2 3 71 96 97 72
2 3 72 97 98 73
2 3 73 98 99 74
2 3 95 120 121 96
2 3 96 121 122 97
2 3 97 122 123 98
2 3 98 123 124 99
5 3 0 25 30 5
5 3 4 9 34 29
5 3 5 30 35 10
5 3 9 14 39 34
5 3 30 55 60 35
5 3 34 39 64 59
5 3 25 50 55 30
5 3 29 34 59 54
5 3 50 75 80 55
5 3 54 59 84 79
5 3 75 100 105 80
5 3 79 84 109 104
5 3 80 105 110 85
5 3 84 89 114 109
5 3 55 80 85 60
5 3 59 64 89 84
5 3 60 85 90 65
5 3 64 69 94 89
5 3 85 110 115 90
5 3 89 94 119 114
5 3 90 115 120 95
5 3 94 99 124 119
5 3 65 90 95 70
5 3 69 74 99 94
5 3 40 65 70 45
5 3 44 49 74 69
5 3 35 60 65 40
5 3 39 44 69 64
5 3 10 35 40 15
5 3 14 19 44 39
5 3 15 40 45 20
5 3 19 24 49 44

vertices
125
3
0 0 0
0 0 0.5
0 0 1
0 0 1.5
0 0 2
0.25 0 0
0.25 0 0.5
0.25 0 1
0.25 0 1.5
0.25 0 2
0.5 0 0
0.5 0 0.5
0.5 0 1
0.5 0 1.5
0.5 0 2
0.75 0 0
0.75 0 0.5
0.75 0 1
0.75 0 1.5
0.75 0 2
1 0 0
1 0 0.5
1 0 1
1 0 1.5
1 0 2
0 0.25 0
0 0.25 0.5
0 0.25 1
0 0.25 1.5
0 0.25 2
0.25 0.25 0
0.25 0.25 0.5
0.25 0.25 1
0.25 0.25 1.5
0.25 0.25 2
0.5 0.25 0
0.5 0.25 0.5
0.5 0.25 1
0.5 0.25 1.5
0.5 0.25 2
0.75 0.25 0
0.75 0.25 0.5
0.75 0.25 1
0.75 0.25 1.5
0.75 0.25 2
1 0.25 0
1 0.25 0.5
1 0.25 1
1 0.25 1.5
1 0.25 2
0 0.5 0
0 0.5 0.5
0 0.5 1
0 0.5 1.5
0 0.5 2
0.25 0.5 0
0.25 0.5 0.5
0.25 0.5 1
0.25 0.5 1.5
0.25 0.5 2
0.5 0.5 0
0.5 0.5 0.5
0.5 0.5 1
0.5 0.5 1.5
0.5 0.5 2
0.75 0.5 0
0.75 0.5 0.5
0.75 0.5 1
0.75 0.5 1.5
0.75 0.5 2
1 0.5 0
1 0.5 0.5
1 0.5 1
1 0.5 1.5
1 0.5 2
0 0.75 0
0 0.75 0.5
0 0.75 1
0 0.75 1.5
0 0.75 2
0.25 0.75 0
0.25 0.75 0.5
0.25 0.75 1
0.25 0.75 1.5
0.25 0.75 2
0.5 0.75 0
0.5 0.75 0.5
0.5 0.75 1
0.5 0.75 1.5
0.5 0.75 2
0.75 0.75 0
0.75 0.75 0.5
0.75 0.75 1
0.75 0.75 1.5
0.75 0.75 2
1 0.75 0
1 0.75 0.5
1 0.75 1
1 0.75 1.5
1 0.75 2
0 1 0
0 1 0.5
0 1 1
0 1 1.5
0 1 2
0.25 1 0
0.25 1 0.5
0.25 1 1
0.25 1 1.5
0.25 1 2
0.5 1 0
0.5 1 0.5
0.5 1 1
0.5 1 1.5
0.5 1 2
0.75 1 0
0.75 1 0.5
0.75 1 1
0.75 1 1.5
0.75 1 2
1 1 0
1 1 0.5
1 1 1
1 1 1.5
1 1 2
