MFEM mesh v1.0

#
# MFEM Geometry Types (see fem/geom.hpp):
#
# POINT       = 0
# SEGMENT     = 1
# TRIANGLE    = 2
# SQUARE      = 3
# TETRAHEDRON = 4
# CUBE        = 5
# PRISM       = 6
# PYRAMID     = 7
#

dimension
2

elements
16
1 3 0 5 6 1
1 3 1 6 7 2
1 3 2 7 8 3
1 3 3 8 9 4
1 3 5 10 11 6
1 3 6 11 12 7
1 3 7 12 13 8
1 3 8 13 14 9
1 3 10 15 16 11
1 3 11 16 17 12
1 3 12 17 18 13
1 3 13 18 19 14
1 3 15 20 21 16
1 3 16 21 22 17
1 3 17 22 23 18
1 3 18 23 24 19

boundary
16
1 1 0 5
1 1 1 0
1 1 2 1
1 1 3 2
1 1 9 4
1 1 4 3
1 1 5 10
1 1 14 9
1 1 10 15
1 1 19 14
1 1 15 20
1 1 20 21
1 1 21 22
1 1 22 23
1 1 23 24
1 1 24 19

vertices
25
3
0 0 0
0 0.25 0
0 0.5 0
0 0.75 -0
0 1 -0
0.25 0 0
0.25 0.25 1
0.25 0.5 1.2246468e-16
0.25 0.75 -1
0.25 1 -2.4492936e-16
0.5 0 0
0.5 0.25 1.2246468e-16
0.5 0.5 1.4997598e-32
0.5 0.75 -1.2246468e-16
0.5 1 -2.9995196e-32
0.75 0 -0
0.75 0.25 -1
0.75 0.5 -1.2246468e-16
0.75 0.75 1
0.75 1 2.4492936e-16
1 0 -0
1 0.25 -2.4492936e-16
1 0.5 -2.9995196e-32
1 0.75 2.4492936e-16
1 1 5.9990391e-32
