MFEM mesh v1.0

#
# MFEM Geometry Types (see fem/geom.hpp):
#
# POINT       = 0
# SEGMENT     = 1
# TRIANGLE    = 2
# SQUARE      = 3
# TETRAHEDRON = 4
# CUBE        = 5
# PRISM       = 6
# PYRAMID     = 7
#

dimension
2

elements
128
1 3 0 1 17 16
1 3 16 17 33 32
1 3 17 18 34 33
1 3 1 2 18 17
1 3 2 3 19 18
1 3 3 4 20 19
1 3 19 20 36 35
1 3 18 19 35 34
1 3 34 35 51 50
1 3 35 36 52 51
1 3 51 52 68 67
1 3 50 51 67 66
1 3 49 50 66 65
1 3 33 34 50 49
1 3 32 33 49 48
1 3 48 49 65 64
1 3 64 65 81 80
1 3 65 66 82 81
1 3 81 82 98 97
1 3 80 81 97 96
1 3 96 97 113 112
1 3 112 113 1 0
1 3 113 114 2 1
1 3 97 98 114 113
1 3 98 99 115 114
1 3 114 115 3 2
1 3 115 116 4 3
1 3 99 100 116 115
1 3 83 84 100 99
1 3 82 83 99 98
1 3 66 67 83 82
1 3 67 68 84 83
1 3 68 69 85 84
1 3 69 70 86 85
1 3 85 86 102 101
1 3 84 85 101 100
1 3 100 101 117 116
1 3 116 117 5 4
1 3 117 118 6 5
1 3 101 102 118 117
1 3 102 103 119 118
1 3 118 119 7 6
1 3 119 120 8 7
1 3 103 104 120 119
1 3 87 88 104 103
1 3 86 87 103 102
1 3 70 71 87 86
1 3 71 72 88 87
1 3 55 56 72 71
1 3 39 40 56 55
1 3 38 39 55 54
1 3 54 55 71 70
1 3 53 54 70 69
1 3 52 53 69 68
1 3 36 37 53 52
1 3 37 38 54 53
1 3 21 22 38 37
1 3 20 21 37 36
1 3 4 5 21 20
1 3 5 6 22 21
1 3 6 7 23 22
1 3 22 23 39 38
1 3 23 24 40 39
1 3 7 8 24 23
1 3 8 9 25 24
1 3 24 25 41 40
1 3 25 26 42 41
1 3 9 10 26 25
1 3 10 11 27 26
1 3 11 12 28 27
1 3 27 28 44 43
1 3 26 27 43 42
1 3 42 43 59 58
1 3 43 44 60 59
1 3 59 60 76 75
1 3 58 59 75 74
1 3 57 58 74 73
1 3 41 42 58 57
1 3 40 41 57 56
1 3 56 57 73 72
1 3 72 73 89 88
1 3 73 74 90 89
1 3 89 90 106 105
1 3 88 89 105 104
1 3 104 105 121 120
1 3 120 121 9 8
1 3 121 122 10 9
1 3 105 106 122 121
1 3 106 107 123 122
1 3 122 123 11 10
1 3 123 124 12 11
1 3 107 108 124 123
1 3 91 92 108 107
1 3 90 91 107 106
1 3 74 75 91 90
1 3 75 76 92 91
1 3 76 77 93 92
1 3 77 78 94 93
1 3 93 94 110 109
1 3 92 93 109 108
1 3 108 109 125 124
1 3 124 125 13 12
1 3 125 126 14 13
1 3 109 110 126 125
1 3 110 111 127 126
1 3 126 127 15 14
1 3 127 16 0 15
1 3 111 32 16 127
1 3 95 48 32 111
1 3 94 95 111 110
1 3 78 79 95 94
1 3 79 64 48 95
1 3 63 80 64 79
1 3 47 96 80 63
1 3 46 47 63 62
1 3 62 63 79 78
1 3 61 62 78 77
1 3 60 61 77 76
1 3 44 45 61 60
1 3 45 46 62 61
1 3 29 30 46 45
1 3 28 29 45 44
1 3 12 13 29 28
1 3 13 14 30 29
1 3 14 15 31 30
1 3 30 31 47 46
1 3 31 112 96 47
1 3 15 0 112 31

boundary
0

vertices
128

nodes
FiniteElementSpace
FiniteElementCollection: H1_2D_P3
VDim: 3
Ordering: 1

5.999999999999997 0 2
7.664597538627364 6.122934917841437 2.152240934977427
7.242640687119287 11.31370849898476 2.585786437626905
4.417420937750182 14.78207252018059 3.23463313526982
0 16 4
-4.417420937750182 14.78207252018059 4.765366864730179
-7.242640687119285 11.31370849898476 5.414213562373095
-7.664597538627365 6.122934917841439 5.847759065022574
-6.000000000000004 0 6
-3.421956851508082 -6.122934917841435 5.847759065022574
-1.242640687119288 -11.31370849898476 5.414213562373096
-0.1747802506308989 -14.78207252018058 4.765366864730181
0 -16 4
0.1747802506308951 -14.78207252018059 3.23463313526982
1.242640687119283 -11.31370849898476 2.585786437626905
3.421956851508073 -6.122934917841446 2.152240934977427
4.585786437626904 0 1.414213562373095
6.258578390061158 5.540542717549043 1.521864159869814
5.949747468305834 10.02081528017131 1.82842712474619
3.542135518644336 12.66894659042783 2.287231024599993
0 13.17157287525381 2.82842712474619
-3.127921956271241 11.66894659042784 3.369623224892387
-4.535533905932737 8.606601717798213 3.82842712474619
-3.844364827688062 4.540542717549044 4.134990089622567
-1.757359312880717 0 4.242640687119286
0.7130332381144866 -6.122934917841435 4.134990089622567
2.585786437626904 -11.31370849898476 3.828427124746191
3.194842974261491 -14.78207252018058 3.369623224892389
2.828427124746189 -16 2.82842712474619
2.462011275230889 -14.78207252018059 2.287231024599993
3.071067811865474 -11.31370849898476 1.82842712474619
4.943821011377887 -6.122934917841446 1.521864159869814
3.999999999999998 0 0
5.676186189768764 5.299307969567625 0
5.414213562373096 9.485281374238571 0
3.179580427103275 11.79366117132199 0
0 12 0
-2.59379398947637 10.37944760894889 0
-3.414213562373094 7.485281374238571 0
-2.261972627395668 3.885094407194531 0
0 0 0
2.425802213514495 -6.122934917841435 0
4.17157287525381 -11.31370849898476 0
4.590586614099284 -14.78207252018058 0
4 -16 0
3.409413385900717 -14.78207252018059 0
3.828427124746189 -11.31370849898476 0
5.574197786485501 -6.122934917841446 0
4.585786437626905 0 -1.414213562373095
6.258578390061157 5.540542717549043 -1.521864159869813
5.949747468305833 10.02081528017131 -1.82842712474619
3.542135518644336 12.66894659042783 -2.287231024599993
0 13.17157287525381 -2.82842712474619
-3.12792195627124 11.66894659042783 -3.369623224892387
-4.535533905932736 8.606601717798213 -3.82842712474619
-3.844364827688061 4.540542717549044 -4.134990089622566
-1.757359312880716 0 -4.242640687119285
0.7130332381144893 -6.122934917841435 -4.134990089622566
2.585786437626906 -11.31370849898476 -3.82842712474619
3.194842974261492 -14.78207252018058 -3.369623224892388
2.828427124746191 -16 -2.82842712474619
2.46201127523089 -14.78207252018059 -2.287231024599993
3.071067811865475 -11.31370849898476 -1.82842712474619
4.943821011377888 -6.122934917841446 -1.521864159869814
5.999999999999999 0 -2
7.664597538627363 6.122934917841437 -2.152240934977427
7.242640687119286 11.31370849898476 -2.585786437626905
4.417420937750182 14.78207252018059 -3.23463313526982
0 16 -4
-4.417420937750181 14.78207252018059 -4.765366864730179
-7.242640687119283 11.31370849898476 -5.414213562373095
-7.664597538627362 6.122934917841438 -5.847759065022574
-6.000000000000001 0 -6
-3.421956851508077 -6.122934917841435 -5.847759065022574
-1.242640687119284 -11.31370849898476 -5.414213562373096
-0.1747802506308954 -14.78207252018058 -4.765366864730181
0 -16 -4
0.1747802506308974 -14.78207252018059 -3.23463313526982
1.242640687119285 -11.31370849898476 -2.585786437626905
3.421956851508074 -6.122934917841446 -2.152240934977427
7.414213562373095 0 -1.414213562373095
9.070616687193567 6.70532711813383 -1.521864159869814
8.535533905932738 12.60660171779821 -1.828427124746191
5.292706356856028 16.89519844993334 -2.287231024599993
0 18.82842712474619 -2.828427124746191
-5.706919919229122 17.89519844993334 -3.369623224892388
-9.94974746830583 14.02081528017131 -3.828427124746191
-11.48483024956666 7.705327118133832 -4.134990089622568
-10.24264068711929 0 -4.242640687119286
-7.556946941130641 -6.122934917841435 -4.134990089622568
-5.071067811865472 -11.31370849898476 -3.828427124746192
-3.544403475523281 -14.78207252018058 -3.369623224892389
-2.828427124746187 -16 -2.828427124746191
-2.112450773969093 -14.78207252018059 -2.287231024599993
-0.585786437626904 -11.31370849898476 -1.828427124746191
1.900092691638261 -6.122934917841446 -1.521864159869814
8 0 0
9.653008887485962 6.946561866115248 0
9.071067811865476 13.14213562373095 0
5.65526144839709 17.77048386903919 0
0 20 0
-6.241047886023993 19.18469743141228 0
-11.07106781186547 15.14213562373095 0
-13.06722244985906 8.360775428488346 0
-12 0 0
-9.269715916530654 -6.122934917841435 0
-6.656854249492381 -11.31370849898476 0
-4.940147115361078 -14.78207252018058 0
-4 -16 0
-3.059852884638923 -14.78207252018059 0
-1.343145750507621 -11.31370849898476 0
1.269715916530647 -6.122934917841446 0
7.414213562373096 0 1.414213562373095
9.070616687193569 6.70532711813383 1.521864159869813
8.535533905932738 12.60660171779821 1.82842712474619
5.292706356856029 16.89519844993334 2.287231024599993
0 18.82842712474619 2.828427124746189
-5.706919919229123 17.89519844993334 3.369623224892386
-9.949747468305832 14.02081528017131 3.828427124746189
-11.48483024956666 7.705327118133833 4.134990089622566
-10.24264068711929 0 4.242640687119284
-7.556946941130644 -6.122934917841435 4.134990089622566
-5.071067811865474 -11.31370849898476 3.82842712474619
-3.544403475523283 -14.78207252018058 3.369623224892387
-2.828427124746189 -16 2.828427124746189
-2.112450773969095 -14.78207252018059 2.287231024599992
-0.5857864376269051 -11.31370849898476 1.82842712474619
1.900092691638261 -6.122934917841446 1.521864159869813
6.610825766797372 1.73322190311843 2.011769230907827
7.374034672523956 4.48561555880922 2.080204873159603
7.236337837364518 5.945543941360516 2.101729552518571
6.594401879745764 5.679645361539868 1.813923003651877
5.196661176800108 1.579123779795646 1.42253566535737
5.962095456066392 4.07323975182282 1.470926972068458
5.569244360319427 0 1.953061591164852
4.923567138664821 0 1.685613329040134
5.988751202001998 5.428776636757943 1.158371433960222
5.72285262218135 5.318637838780486 0.4635449603464546
4.610895024195453 1.515294247179107 0
5.377251083363229 3.902428099774503 0
4.314386670959863 0 1.076432861335176
4.046938408835146 0 0.4307556396805701
6.397535091245675 6.925053167714088 1.588178588900415
6.261375016418084 8.940492230505923 1.725985371255202
5.701630120793931 9.772697932659407 1.39171274692821
5.457125292326401 9.528193104191876 0.5569210455086597
5.820612724334257 6.60895069601405 0
5.704058286100894 8.492699831168274 0
7.790348893879607 7.688192041991977 2.246023699893532
7.606856625287274 10.02155871411446 2.440911920486668
6.848838039254611 10.91990585112009 2.525100087142049
6.258551166302591 10.32961897816807 2.17931804265756
6.687676904540203 12.47270463610666 2.747305160735692
5.411492009307194 14.03181040085175 3.038975994751003
4.150817547257066 14.13843499907746 3.158718869002314
3.75119483637406 13.1736604306314 2.726170363682846
5.470910537598141 10.95833267671851 1.942638109145006
4.378929120633426 12.14726763687155 2.148880533751568
3.296755126556221 15.35836101472318 3.439298055148847
1.296091673190267 15.90584615273738 3.783347262110196
0 15.13848872063886 3.906123182329704
0 13.84713427732965 3.37122665808027
2.614955305173942 13.02393719723878 2.431950977317455
1.006293666533963 13.24635835088598 2.675230504621678
0 12.62877334191973 2.152865722670351
0 12.0938768176703 0.8615112793611398
2.332544572333848 12.05698719170997 0
0.886255401828233 12.14476243439332 0
3.374160705764045 12.26341951903516 1.740932700584032
3.208631559084002 11.86379680815215 0.6966682326575594
4.966909406171301 10.33105927266242 0
3.951227568141611 11.36666446515888 0
3.208631559084002 11.86379680815215 -0.6966682326575586
3.374160705764046 12.26341951903516 -1.740932700584032
5.470910537598141 10.95833267671851 -1.942638109145006
4.378929120633426 12.14726763687155 -2.148880533751568
5.457125292326401 9.528193104191876 -0.5569210455086592
5.701630120793932 9.772697932659407 -1.39171274692821
0 12.0938768176703 -0.8615112793611388
0 12.62877334191973 -2.152865722670352
2.614955305173942 13.02393719723878 -2.431950977317454
1.006293666533963 13.24635835088598 -2.675230504621678
0 13.84713427732965 -3.371226658080269
0 15.13848872063886 -3.906123182329703
3.296755126556221 15.35836101472317 -3.439298055148847
1.296091673190267 15.90584615273738 -3.783347262110196
3.75119483637406 13.1736604306314 -2.726170363682845
4.150817547257066 14.13843499907746 -3.158718869002314
6.687676904540202 12.47270463610666 -2.747305160735692
5.411492009307193 14.03181040085175 -3.038975994751003
6.25855116630259 10.32961897816807 -2.179318042657559
6.848838039254609 10.91990585112008 -2.525100087142048
6.397535091245675 6.925053167714088 -1.588178588900415
6.261375016418084 8.940492230505923 -1.725985371255202
7.790348893879606 7.688192041991977 -2.246023699893532
7.606856625287273 10.02155871411446 -2.440911920486668
6.594401879745763 5.679645361539867 -1.813923003651876
7.236337837364516 5.945543941360516 -2.10172955251857
5.72285262218135 5.318637838780486 -0.4635449603464541
5.988751202001998 5.428776636757943 -1.158371433960223
5.196661176800107 1.579123779795646 -1.42253566535737
5.962095456066391 4.07323975182282 -1.470926972068457
4.046938408835146 0 -0.4307556396805693
4.314386670959864 0 -1.076432861335177
6.610825766797372 1.73322190311843 -2.011769230907827
7.374034672523955 4.48561555880922 -2.080204873159603
4.923567138664822 0 -1.685613329040135
5.569244360319428 0 -1.953061591164852
8.092857239890208 6.300325894322357 -2.101729552518571
8.734793197508962 6.566224474143006 -1.813923003651876
8.024990356794635 1.887320026441214 -1.42253566535737
8.785973888981516 4.897991365795621 -1.470926972068458
6.430755639680569 0 -1.953061591164852
7.076432861335174 0 -1.685613329040135
7.63644333498396 11.70751114684943 -2.525100087142049
8.226730207935981 12.29779801980146 -2.17931804265756
9.183162696513536 8.451330916269866 -1.588178588900416
8.952338234156462 11.10262519772301 -1.725985371255202
8.783651253444638 12.85471906531011 -1.391712746928211
9.02815608191217 13.09922389377765 -0.556921045508659
9.760085063424954 8.767433387969904 0
9.509654964473652 11.55041759706065 0
9.340443875252728 6.81709319892493 -1.158371433960224
9.606342455073376 6.927231996902387 -0.4635449603464539
8.610756509399291 1.951149559057753 0
9.370818261684681 5.068803017843938 0
7.685613329040133 0 -1.076432861335176
7.95306159116485 0 -0.4307556396805694
9.606342455073376 6.927231996902387 0.4635449603464548
9.340443875252728 6.81709319892493 1.158371433960222
8.024990356794635 1.887320026441214 1.42253566535737
8.785973888981518 4.897991365795621 1.470926972068457
7.95306159116485 0 0.4307556396805699
7.685613329040133 0 1.076432861335176
8.092857239890209 6.300325894322357 2.10172955251857
8.734793197508964 6.566224474143006 1.813923003651876
6.430755639680569 0 1.953061591164852
7.076432861335174 0 1.685613329040135
9.183162696513538 8.451330916269866 1.588178588900415
8.952338234156462 11.10262519772301 1.725985371255201
7.636443334983962 11.70751114684944 2.525100087142048
8.226730207935981 12.29779801980146 2.179318042657559
9.02815608191217 13.09922389377765 0.55692104550866
8.78365125344464 12.85471906531012 1.39171274692821
8.408444402909103 14.61434999955089 0
6.871756450472775 16.69695633654462 0
5.626210316416363 17.70034823220903 0.6966682326575597
5.460681169736318 17.30072552132602 1.740932700584032
7.904443271482264 13.98707659549481 1.942638109145005
6.44405489798096 15.91635316483194 2.148880533751568
4.684024328243299 15.42571004128372 3.158718869002314
5.083647039126305 16.39048460972977 2.726170363682844
3.9785549479385 17.69278483220757 2.431950977317454
1.585889679846571 18.56533395458878 2.675230504621677
0 16.86151127936114 3.906123182329703
0 18.15286572267035 3.371226658080269
4.260965680778593 18.65973483773638 0
1.705927944552301 19.66692987108144 0
0 19.9061231823297 0.8615112793611401
0 19.37122665808027 2.152865722670351
3.9785549479385 17.69278483220757 -2.431950977317455
1.585889679846571 18.56533395458878 -2.675230504621679
0 19.37122665808027 -2.152865722670353
0 19.9061231823297 -0.8615112793611386
5.460681169736318 17.30072552132602 -1.740932700584033
5.626210316416363 17.70034823220903 -0.6966682326575584
7.904443271482263 13.9870765954948 -1.942638109145006
6.44405489798096 15.91635316483194 -2.148880533751569
4.684024328243297 15.42571004128372 -3.158718869002315
5.083647039126305 16.39048460972977 -2.726170363682845
0 16.86151127936114 -3.906123182329704
0 18.15286572267035 -3.37122665808027
-1.296091673190263 15.90584615273738 -4.216652737889803
-3.296755126556219 15.35836101472317 -4.560701944851152
-4.810189734071385 15.73030027513619 -4.653527495657094
-5.398926924719338 17.15163758547192 -4.016282952477694
-1.619080147032006 18.86992418844126 -2.981623744870702
-4.200859894888882 18.45393780794971 -3.224903272174926
-5.411492009307191 14.03181040085175 -4.961024005248997
-6.687676904540202 12.47270463610665 -5.252694839264308
-8.067198974664526 12.13826678653 -5.287146277517359
-9.303163069271154 13.37423088113663 -4.56313527350298
-7.097115484611911 17.10826178025465 -3.507973715740813
-9.014066600002879 15.36809969068246 -3.714216140347375
-10.46926458248477 14.54033239435025 -2.914018698412495
-10.98121767307702 15.0522854849425 -1.166101513213618
-7.795323589137597 18.38256966558475 0
-9.977688763228535 16.56741159071574 0
-5.954385883353742 18.49263413674873 -2.564798744756673
-6.198248812393558 19.08137132739668 -1.026354326064719
-1.752866353387444 20.09768551076201 0
-4.575352351738456 19.73616769907155 0
-6.198248812393558 19.08137132739668 1.026354326064721
-5.954385883353742 18.49263413674873 2.564798744756671
-1.619080147032006 18.86992418844126 2.981623744870701
-4.200859894888882 18.45393780794971 3.224903272174924
-4.810189734071388 15.7303002751362 4.653527495657092
-5.398926924719339 17.15163758547192 4.016282952477693
-1.296091673190263 15.90584615273738 4.216652737889803
-3.296755126556219 15.35836101472317 4.560701944851152
-7.097115484611912 17.10826178025465 3.507973715740811
-9.014066600002881 15.36809969068246 3.714216140347373
-8.067198974664532 12.13826678653001 5.287146277517358
-9.303163069271156 13.37423088113663 4.563135273502978
-5.411492009307191 14.03181040085175 4.961024005248997
-6.687676904540203 12.47270463610665 5.252694839264308
-10.98121767307702 15.0522854849425 1.16610151321362
-10.46926458248477 14.54033239435025 2.914018698412493
-11.94041060415422 13.5034791882255 0
-12.83651792476013 10.45304671701004 0
-12.94042714142588 8.308255092090045 1.259477598375826
-12.21796581971557 8.009001814347643 3.14736001138048
-10.67114203038204 12.48364829291066 3.930868878237177
-11.35852923462878 9.643239531692576 4.068675660591964
-8.828203113423262 6.604916128174841 5.710516812140837
-10.57237903458628 7.32737744988515 4.928530312508662
-7.606856625287275 10.02155871411446 5.559088079513332
-7.790348893879607 7.688192041991976 5.753976300106468
-11.39209606677732 5.659144341537768 4.185927277423922
-10.82022701435539 2.191910260293702 4.234318584135009
-7.292266919041715 0 5.859184773494555
-9.229298584005532 0 5.056839987120403
-7.374034672523955 4.485615558809225 5.919795126840397
-6.610825766797374 1.733221903118437 5.988230769092173
-13.05643159072481 6.145235879179119 0
-12.56381810056414 2.381905198738331 0
-11.85918477349456 0 1.29226691904171
-11.05683998712041 0 3.229298584005527
-11.39209606677732 5.659144341537767 -4.185927277423923
-10.82022701435539 2.191910260293702 -4.234318584135011
-11.05683998712041 0 -3.22929858400553
-11.85918477349456 0 -1.292266919041708
-12.21796581971557 8.009001814347641 -3.147360011380483
-12.94042714142588 8.308255092090045 -1.259477598375823
-10.67114203038204 12.48364829291066 -3.930868878237179
-11.35852923462877 9.643239531692576 -4.068675660591966
-7.606856625287274 10.02155871411446 -5.559088079513332
-7.790348893879607 7.688192041991975 -5.753976300106468
-8.828203113423253 6.604916128174837 -5.710516812140838
-10.57237903458628 7.327377449885149 -4.928530312508664
-7.374034672523954 4.485615558809225 -5.919795126840397
-6.610825766797373 1.733221903118436 -5.988230769092173
-7.292266919041706 0 -5.859184773494556
-9.22929858400553 0 -5.056839987120405
-3.355973278270587 3.312086776080681 -4.185927277423922
-2.401424519239358 1.274533545943171 -4.23431858413501
-2.770701415994473 0 -5.056839987120403
-4.707733080958289 0 -5.859184773494555
-4.756816042668444 4.918492385797727 -4.928530312508663
-6.500991963831464 5.640953707508037 -5.710516812140837
-1.691637754323095 2.82599523843933 0
-0.6578334330306026 1.084538607498542 0
-0.1408152265054463 0 -1.292266919041708
-0.9431600128795967 0 -3.229298584005527
-2.388767935828843 3.937614743592832 -1.259477598375824
-3.111229257539152 4.236868021335233 -3.147360011380481
-3.273302646420325 6.539638240003421 0
-2.744179862999083 4.923337366973914 0
-4.54257122019251 7.559469135318266 -3.930868878237178
-4.222168553130439 5.733144552291376 -4.068675660591964
-3.504063701161548 7.575131513027024 -1.166101513213619
-4.016016791753795 8.087084603619273 -2.914018698412493
-5.182118304967412 9.253186116832889 -4.563135273502979
-6.418082399574037 10.48915021143951 -5.287146277517358
-3.725868534002471 10.95535902144884 -3.507973715740812
-4.361287209077526 9.57730958153085 -3.714216140347374
-3.435914950781024 12.41250745488926 -4.016282952477693
-4.024652141428975 13.83384476522498 -4.653527495657092
-0.97310319934852 12.9417681170335 -2.981623744870701
-2.392650358223556 12.26278422149664 -3.224903272174925
-0.8393169929930824 11.71400679471275 0
-2.018157901373983 10.98055433037479 0
-2.636593063106805 10.48277371296449 -1.026354326064719
-2.880455992146621 11.07151090361245 -2.564798744756672
-3.027660429476786 9.681051136118743 0
-3.397665045851872 8.377997681497565 0
-3.725868534002471 10.95535902144884 3.507973715740812
-4.361287209077527 9.577309581530852 3.714216140347375
-4.016016791753795 8.087084603619271 2.914018698412493
-3.504063701161548 7.575131513027024 1.16610151321362
-2.880455992146621 11.07151090361245 2.564798744756671
-2.636593063106805 10.48277371296449 1.02635432606472
-0.97310319934852 12.9417681170335 2.981623744870702
-2.392650358223557 12.26278422149664 3.224903272174926
-4.024652141428977 13.83384476522498 4.653527495657093
-3.435914950781025 12.41250745488926 4.016282952477694
-6.41808239957404 10.48915021143952 5.287146277517359
-5.182118304967414 9.253186116832891 4.563135273502981
-6.500991963831469 5.640953707508038 5.710516812140837
-4.756816042668447 4.918492385797729 4.928530312508665
-4.54257122019251 7.559469135318267 3.930868878237179
-4.22216855313044 5.733144552291376 4.068675660591965
-3.111229257539152 4.236868021335233 3.14736001138048
-2.388767935828843 3.937614743592832 1.259477598375825
-3.355973278270588 3.312086776080682 4.185927277423923
-2.40142451923936 1.274533545943171 4.234318584135011
-0.9431600128795967 0 3.229298584005527
-0.1408152265054463 0 1.29226691904171
-4.707733080958294 0 5.859184773494555
-2.770701415994476 0 5.056839987120405
-5.318558847755667 -1.733221903118426 5.988230769092173
-4.144736088518429 -4.485615558809221 5.919795126840397
-2.162479253132253 -6.122934917841435 5.710516812140837
-0.274596840127598 -6.122934917841435 4.928530312508665
-1.084240263620655 -1.733221903118426 4.234318584135011
0.04119118890549522 -4.485615558809221 4.185927277423923
1.506573461000584 -6.122934917841435 3.14736001138048
2.288559960632758 -6.122934917841435 1.259477598375825
0.6696719213365085 -1.733221903118426 0
1.77505903832197 -4.485615558809221 0
1.335166753832759 -7.688192041991972 4.068675660591965
2.183197026444458 -10.02155871411446 3.930868878237179
3.320494586383695 -11.31370849898476 2.914018698412493
4.044505590398074 -11.31370849898476 1.16610151321362
3.020467393347264 -7.688192041991972 0
3.811416227720612 -10.02155871411446 0
-2.733508906759207 -7.688192041991972 5.753976300106468
-1.747671851792722 -10.02155871411446 5.559088079513332
-0.07653917390566489 -11.31370849898476 5.28714627751736
1.671378011293208 -11.31370849898476 4.563135273502982
-0.8284921310456481 -12.47270463610666 5.252694839264308
-0.3546520221867926 -14.03181040085174 4.961024005248999
0.8515740754338244 -14.78207252018058 4.653527495657094
2.390018494125775 -14.78207252018058 4.016282952477696
2.885724009301727 -12.47270463610666 3.714216140347375
3.153321693554022 -14.03181040085174 3.507973715740814
-0.06745654255069652 -15.35836101472317 4.560701944851154
-0.003824754148558968 -15.90584615273738 4.216652737889803
0.8615112793611404 -16 3.906123182329704
2.152865722670352 -16 3.37122665808027
3.157446729624231 -15.35836101472317 3.224903272174926
2.977798990722144 -15.90584615273738 2.981623744870702
3.371226658080269 -16 2.152865722670351
3.906123182329703 -16 0.8615112793611398
4.493245402300459 -15.35836101472317 0
4.212827983741247 -15.90584615273738 0
3.841502701846798 -14.78207252018058 2.564798744756672
4.478747245026197 -14.78207252018058 1.026354326064721
4.424202708218662 -12.47270463610666 0
4.606371983062208 -14.03181040085174 0
4.478747245026198 -14.78207252018058 -1.026354326064719
3.841502701846799 -14.78207252018058 -2.564798744756672
2.885724009301729 -12.47270463610666 -3.714216140347374
3.153321693554024 -14.03181040085174 -3.507973715740813
4.044505590398074 -11.31370849898476 -1.166101513213619
3.320494586383695 -11.31370849898476 -2.914018698412494
3.906123182329704 -16 -0.8615112793611388
3.37122665808027 -16 -2.152865722670352
3.157446729624233 -15.35836101472317 -3.224903272174926
2.977798990722145 -15.90584615273738 -2.981623744870701
2.152865722670353 -16 -3.371226658080269
0.8615112793611422 -16 -3.906123182329703
-0.06745654255069317 -15.35836101472317 -4.560701944851154
-0.003824754148555869 -15.90584615273738 -4.216652737889803
2.390018494125777 -14.78207252018058 -4.016282952477694
0.8515740754338266 -14.78207252018058 -4.653527495657094
-0.8284921310456443 -12.47270463610666 -5.252694839264308
-0.354652022186789 -14.03181040085174 -4.961024005248999
1.67137801129321 -11.31370849898476 -4.56313527350298
-0.07653917390566223 -11.31370849898476 -5.287146277517359
1.335166753832761 -7.688192041991972 -4.068675660591964
2.183197026444459 -10.02155871411446 -3.930868878237178
-2.733508906759203 -7.688192041991972 -5.753976300106468
-1.747671851792718 -10.02155871411446 -5.559088079513332
-0.2745968401275958 -6.122934917841435 -4.928530312508663
-2.162479253132251 -6.122934917841435 -5.710516812140837
2.288559960632758 -6.122934917841435 -1.259477598375824
1.506573461000585 -6.122934917841435 -3.147360011380481
-1.084240263620653 -1.733221903118426 -4.23431858413501
0.041191188905497 -4.485615558809221 -4.185927277423922
-5.318558847755662 -1.733221903118426 -5.988230769092173
-4.144736088518425 -4.485615558809221 -5.919795126840397
-4.681434449883904 -6.122934917841435 -5.710516812140838
-6.569316862888559 -6.122934917841435 -4.928530312508664
-9.55287743189067 -1.733221903118426 -4.234318584135011
-8.330663365942344 -4.485615558809221 -4.185927277423923
-2.408742200332906 -11.31370849898476 -5.28714627751736
-4.156659385531778 -11.31370849898476 -4.563135273502981
-6.802184567351164 -7.688192041991972 -4.068675660591966
-5.678540730029893 -10.02155871411446 -3.930868878237179
-5.805775960622265 -11.31370849898476 -2.914018698412495
-6.529786964636647 -11.31370849898476 -1.166101513213618
-8.487485206865673 -7.688192041991972 0
-7.306759931306052 -10.02155871411446 0
-8.350487164016741 -6.122934917841435 -3.147360011380483
-9.132473663648916 -6.122934917841435 -1.259477598375823
-11.30678961684784 -1.733221903118426 0
-10.06453121535882 -4.485615558809221 0
-9.132473663648916 -6.122934917841435 1.259477598375826
-8.350487164016744 -6.122934917841435 3.14736001138048
-9.552877431890671 -1.733221903118426 4.234318584135009
-8.330663365942346 -4.485615558809221 4.185927277423922
-4.681434449883908 -6.122934917841435 5.710516812140837
-6.569316862888563 -6.122934917841435 4.928530312508662
-6.802184567351167 -7.688192041991972 4.068675660591964
-5.678540730029896 -10.02155871411446 3.930868878237177
-2.40874220033291 -11.31370849898476 5.287146277517359
-4.156659385531782 -11.31370849898476 4.563135273502979
-6.529786964636646 -11.31370849898476 1.166101513213621
-5.805775960622268 -11.31370849898476 2.914018698412493
-6.081186970309954 -12.47270463610666 0
-5.315676027435789 -14.03181040085174 0
-4.828307746287991 -14.78207252018058 1.026354326064721
-4.191063203108593 -14.78207252018058 2.564798744756672
-4.542708271393018 -12.47270463610666 3.714216140347373
-3.862625737927602 -14.03181040085174 3.507973715740813
-1.201134576695621 -14.78207252018058 4.653527495657094
-2.739578995387571 -14.78207252018058 4.016282952477694
-3.292359814725619 -15.35836101472317 3.224903272174926
-2.985448499019257 -15.90584615273738 2.981623744870701
-0.8615112793611427 -16 3.906123182329703
-2.152865722670354 -16 3.371226658080269
-4.628158487401849 -15.35836101472317 0
-4.22047749203836 -15.90584615273738 0
-3.906123182329704 -16 0.8615112793611401
-3.37122665808027 -16 2.152865722670351
-3.292359814725617 -15.35836101472317 -3.224903272174927
-2.985448499019256 -15.90584615273738 -2.981623744870702
-3.371226658080269 -16 -2.152865722670353
-3.906123182329705 -16 -0.8615112793611386
-4.19106320310859 -14.78207252018058 -2.564798744756674
-4.828307746287992 -14.78207252018058 -1.026354326064719
-4.542708271393016 -12.47270463610666 -3.714216140347375
-3.862625737927599 -14.03181040085174 -3.507973715740814
-1.201134576695617 -14.78207252018058 -4.653527495657095
-2.739578995387569 -14.78207252018058 -4.016282952477695
-0.8615112793611398 -16 -3.906123182329704
-2.152865722670351 -16 -3.37122665808027
0.003824754148558336 -15.90584615273738 -3.783347262110196
0.06745654255069536 -15.35836101472317 -3.439298055148847
-0.5218879820266629 -14.78207252018059 -3.158718869002314
-1.566152449953135 -14.78207252018059 -2.726170363682845
-2.671405750473118 -15.90584615273738 -2.675230504621679
-2.364494434766757 -15.35836101472317 -2.431950977317455
0.354652022186789 -14.03181040085175 -3.038975994751004
0.8284921310456456 -12.47270463610666 -2.747305160735693
0.6857196416106244 -11.31370849898476 -2.525100087142049
-0.1490720598089259 -11.31370849898476 -2.17931804265756
-1.794228511564778 -14.03181040085175 -2.148880533751569
-1.114145978099359 -12.47270463610666 -1.942638109145007
-0.9366773555382746 -11.31370849898476 -1.391712746928211
-1.282459400022765 -11.31370849898476 -0.556921045508659
-2.684323972564215 -14.03181040085175 0
-1.918813029690048 -12.47270463610666 0
-2.551390113051947 -14.78207252018059 -1.740932700584033
-2.983938618371418 -14.78207252018059 -0.6966682326575584
-3.779522507961639 -15.90584615273738 0
-3.371841512598153 -15.35836101472317 0
-2.983938618371417 -14.78207252018059 0.6966682326575596
-2.551390113051949 -14.78207252018059 1.740932700584031
-2.67140575047312 -15.90584615273738 2.675230504621677
-2.364494434766759 -15.35836101472317 2.431950977317454
-0.5218879820266652 -14.78207252018059 3.158718869002314
-1.566152449953137 -14.78207252018059 2.726170363682844
0.003824754148556483 -15.90584615273738 3.783347262110196
0.06745654255069367 -15.35836101472317 3.439298055148847
-1.794228511564779 -14.03181040085175 2.148880533751568
-1.11414597809936 -12.47270463610666 1.942638109145006
0.6857196416106225 -11.31370849898476 2.525100087142048
-0.1490720598089275 -11.31370849898476 2.179318042657559
0.3546520221867875 -14.03181040085175 3.038975994751004
0.8284921310456441 -12.47270463610666 2.747305160735693
-1.282459400022765 -11.31370849898476 0.55692104550866
-0.9366773555382755 -11.31370849898476 1.39171274692821
-0.6932400686939504 -10.02155871411446 0
0.4874852068656694 -7.688192041991978 0
1.320227298989503 -6.122934917841446 0.4635449603464549
1.608033847856197 -6.122934917841446 1.158371433960223
0.02168648053751676 -10.02155871411446 1.725985371255201
1.145330317858787 -7.688192041991978 1.588178588900415
2.958411891161617 -6.122934917841446 2.101729552518571
2.26358541754785 -6.122934917841446 1.813923003651876
1.747671851792717 -10.02155871411446 2.440911920486668
2.733508906759201 -7.688192041991978 2.246023699893532
3.896023182398289 -1.733221903118439 1.42253566535737
2.673809116449968 -4.485615558809227 1.470926972068457
5.318558847755659 -1.733221903118439 2.011769230907828
4.144736088518425 -4.485615558809227 2.080204873159603
3.306789616847831 -1.733221903118439 0
2.064531215358821 -4.485615558809227 0
3.89602318239829 -1.733221903118439 -1.422535665357371
2.673809116449969 -4.485615558809227 -1.470926972068458
1.608033847856198 -6.122934917841446 -1.158371433960224
1.320227298989502 -6.122934917841446 -0.463544960346454
0.02168648053751787 -10.02155871411446 -1.725985371255202
1.145330317858788 -7.688192041991978 -1.588178588900416
1.747671851792718 -10.02155871411446 -2.440911920486668
2.733508906759202 -7.688192041991978 -2.246023699893532
2.958411891161619 -6.122934917841446 -2.101729552518571
2.263585417547851 -6.122934917841446 -1.813923003651877
5.31855884775566 -1.733221903118439 -2.011769230907828
4.144736088518425 -4.485615558809227 -2.080204873159603
5.615663060586883 -4.485615558809227 -1.470926972068457
6.74109451311303 -1.733221903118439 -1.42253566535737
4.580328285468298 -6.122934917841446 -1.813923003651876
3.885501811854529 -6.122934917841446 -2.101729552518571
6.224940961678028 -4.485615558809227 0
7.330328078663486 -1.733221903118439 0
5.523686404026645 -6.122934917841446 -0.4635449603464541
5.235879855159951 -6.122934917841446 -1.158371433960223
4.188583772279386 -10.02155871411446 0
4.979532606652732 -7.688192041991978 0
3.47365722304792 -10.02155871411446 -1.725985371255202
4.321687495659617 -7.688192041991978 -1.588178588900415
3.767740774261333 -11.31370849898476 -0.5569210455086592
3.421958729776843 -11.31370849898476 -1.39171274692821
2.634353434047496 -11.31370849898476 -2.179318042657559
1.799561732627946 -11.31370849898476 -2.525100087142048
2.503532555938357 -14.03181040085175 -2.148880533751568
2.771130240190651 -12.47270463610666 -1.942638109145006
1.915712951214929 -14.78207252018059 -2.726170363682844
0.8714484832884577 -14.78207252018059 -3.158718869002314
2.679055258770236 -15.90584615273738 -2.675230504621678
2.499407519868149 -15.35836101472317 -2.431950977317454
3.787172016258753 -15.90584615273738 0
3.506754597699541 -15.35836101472317 0
3.333499119633211 -14.78207252018059 -0.6966682326575585
2.900950614313742 -14.78207252018059 -1.740932700584032
3.393628016937792 -14.03181040085175 0
3.575797291781337 -12.47270463610666 0
2.503532555938356 -14.03181040085175 2.148880533751568
2.77113024019065 -12.47270463610666 1.942638109145006
3.421958729776843 -11.31370849898476 1.39171274692821
3.767740774261332 -11.31370849898476 0.5569210455086597
2.900950614313741 -14.78207252018059 1.740932700584031
3.33349911963321 -14.78207252018059 0.6966682326575593
2.679055258770235 -15.90584615273738 2.675230504621678
2.499407519868148 -15.35836101472317 2.431950977317455
0.8714484832884561 -14.78207252018059 3.158718869002314
1.915712951214928 -14.78207252018059 2.726170363682845
1.799561732627944 -11.31370849898476 2.525100087142049
2.634353434047495 -11.31370849898476 2.17931804265756
3.885501811854529 -6.122934917841446 2.101729552518571
4.580328285468297 -6.122934917841446 1.813923003651877
3.473657223047919 -10.02155871411446 1.725985371255202
4.321687495659616 -7.688192041991978 1.588178588900415
5.23587985515995 -6.122934917841446 1.158371433960223
5.523686404026645 -6.122934917841446 0.4635449603464547
5.615663060586882 -4.485615558809227 1.470926972068458
6.741094513113029 -1.733221903118439 1.42253566535737
6.180085043624208 1.686285119699315 1.964554607586666
6.943971776397657 4.360009915324127 2.031384119760987
5.534430180931789 1.615929657995014 1.695532515285528
6.299332936350252 4.171734486197454 1.753210530666036
4.925270808353908 1.549551022309533 1.08276725478609
5.691132155974993 3.994101281670236 1.119600441889285
4.657831807614568 1.52040883588459 0.4332904709746946
5.424114005594897 3.916115045464354 0.4480299904022519
6.130242122840558 6.778600242976172 1.208846858951507
6.003165503783279 8.733026258456707 1.313738901418302
5.866840865146008 6.634279631778703 0.4837436877926793
5.74871544928868 8.528580932817762 0.5257182878565816
7.366111412022377 7.455747393813756 2.193311310554015
7.197036067397597 9.69227642106206 2.383625659659473
6.730204523350063 7.107326616930854 1.892963742940289
6.582739294890167 9.198701743140731 2.057216834092641
6.317061752289488 12.01144172685698 2.68282809432093
5.096983437578659 13.45779707966602 2.967653645910091
5.761531563559299 11.32003591283791 2.315447098938416
4.625553693952255 12.5973850681349 2.561269221692647
3.089085559520816 14.6473183182448 3.358580466039594
1.207822030572843 15.09579214124365 3.694555111833063
2.777801163650641 13.5815073794016 2.898663322150355
1.07551105805968 13.88156909840826 3.188630286700224
2.48411204545702 12.57594115461555 1.85108672324419
0.9506789323242917 12.73597972909909 2.036259659388942
2.355173826932477 12.13446780882109 0.7407485168988909
0.895873933058565 12.23303207701075 0.814849085012005
5.23740258882537 10.66771165075735 1.478644777565809
4.18077140633117 11.78560764433123 1.635626812779368
5.00729445034564 10.38132198548704 0.5917085959552169
3.985498812815042 11.42921331992632 0.6545280242964322
5.00729445034564 10.38132198548704 -0.5917085959552151
3.985498812815042 11.42921331992632 -0.6545280242964302
5.237402588825368 10.66771165075735 -1.478644777565807
4.18077140633117 11.78560764433122 -1.635626812779366
2.355173826932477 12.13446780882109 -0.7407485168988885
0.8958739330585666 12.23303207701075 -0.8148490850120026
2.484112045457019 12.57594115461555 -1.851086723244189
0.9506789323242898 12.73597972909909 -2.03625965938894
2.777801163650641 13.58150737940159 -2.898663322150354
1.075511058059682 13.88156909840826 -3.188630286700223
3.089085559520815 14.6473183182448 -3.358580466039593
1.20782203057284 15.09579214124364 -3.694555111833062
5.761531563559299 11.32003591283791 -2.315447098938415
4.625553693952254 12.5973850681349 -2.561269221692646
6.317061752289487 12.01144172685698 -2.68282809432093
5.096983437578658 13.45779707966602 -2.967653645910091
6.730204523350062 7.107326616930853 -1.892963742940288
6.582739294890168 9.198701743140727 -2.05721683409264
7.366111412022375 7.455747393813755 -2.193311310554014
7.197036067397595 9.69227642106206 -2.383625659659473
5.866840865146008 6.634279631778703 -0.4837436877926778
5.748715449288681 8.528580932817761 -0.5257182878565799
6.130242122840557 6.778600242976172 -1.208846858951506
6.003165503783277 8.733026258456709 -1.313738901418301
4.657831807614567 1.52040883588459 -0.4332904709746933
5.424114005594896 3.916115045464354 -0.4480299904022505
4.925270808353906 1.549551022309533 -1.082767254786089
5.691132155974993 3.994101281670236 -1.119600441889284
5.534430180931787 1.615929657995014 -1.695532515285527
6.299332936350251 4.171734486197454 -1.753210530666035
6.180085043624207 1.686285119699315 -1.964554607586666
6.943971776397656 4.360009915324127 -2.031384119760987
7.041566489970533 1.780158686537545 -1.964554607586666
7.804097568650248 4.611221202294312 -2.031384119760987
7.687221352662955 1.850514148241847 -1.695532515285527
8.448736408697654 4.799496631420985 -1.753210530666035
8.214586375736838 7.920636690170196 -2.193311310554015
8.016677183176951 10.35084100716687 -2.383625659659474
8.850493264409153 8.269057467053099 -1.892963742940288
8.630973955684381 10.8444156850882 -2.057216834092641
9.450455664918657 8.59778384100778 -1.208846858951507
9.210547746791271 11.31009116977222 -1.313738901418303
9.713856922613207 8.742104452205249 -0.4837436877926806
9.464997801285866 11.51453649541117 -0.5257182878565829
8.296380725240835 1.916892783927328 -1.08276725478609
9.056937189072913 4.977129835948203 -1.119600441889285
8.563819725980174 1.94603497035227 -0.4332904709746958
9.323955339453008 5.055116072154085 -0.4480299904022531
8.563819725980176 1.94603497035227 0.433290470974693
9.323955339453009 5.055116072154085 0.4480299904022502
8.296380725240837 1.916892783927328 1.082767254786088
9.056937189072915 4.977129835948204 1.119600441889282
7.687221352662956 1.850514148241847 1.695532515285527
8.448736408697656 4.799496631420985 1.753210530666035
7.041566489970537 1.780158686537545 1.964554607586666
7.804097568650251 4.611221202294312 2.031384119760987
8.850493264409153 8.269057467053099 1.892963742940288
8.630973955684382 10.8444156850882 2.05721683409264
8.21458637573684 7.920636690170197 2.193311310554014
8.016677183176952 10.35084100716687 2.383625659659473
9.713856922613207 8.742104452205249 0.4837436877926775
9.464997801285868 11.51453649541116 0.5257182878565796
9.450455664918659 8.59778384100778 1.208846858951504
9.210547746791271 11.31009116977222 1.3137389014183
8.368059358734767 14.56408728672627 0.5917085959552147
6.837485205799346 16.63440748177717 0.6545280242964298
8.137951220255038 14.27769762145596 1.478644777565806
6.642212612283219 16.27801315737227 1.635626812779365
7.613822245521108 13.6253733593754 2.315447098938415
6.197430324662134 15.46623573356859 2.561269221692646
7.058292056790919 12.93396754535633 2.68282809432093
5.72600058103573 14.60582372203747 2.967653645910091
3.815709089461806 17.13521465004475 2.898663322150354
1.516672288320857 17.9301232070665 3.188630286700222
3.504424693591631 16.06940371120155 3.358580466039593
1.384361315807694 16.71590016423112 3.694555111833062
4.23833642617997 18.58225422062525 0.7407485168988881
1.696309413321972 19.57866022846402 0.814849085012002
4.109398207655428 18.1407808748308 1.851086723244187
1.641504414056244 19.07571257637567 2.036259659388937
4.109398207655428 18.1407808748308 -1.851086723244191
1.641504414056247 19.07571257637567 -2.036259659388942
4.23833642617997 18.58225422062525 -0.7407485168988928
1.696309413321969 19.57866022846401 -0.8148490850120071
8.137951220255037 14.27769762145596 -1.478644777565809
6.642212612283219 16.27801315737226 -1.635626812779368
8.368059358734767 14.56408728672627 -0.5917085959552184
6.837485205799346 16.63440748177717 -0.6545280242964339
7.058292056790917 12.93396754535633 -2.68282809432093
5.726000581035728 14.60582372203747 -2.967653645910091
7.613822245521108 13.6253733593754 -2.315447098938416
6.197430324662133 15.46623573356859 -2.561269221692647
3.50442469359163 16.06940371120154 -3.358580466039594
1.384361315807696 16.71590016423112 -3.694555111833063
3.815709089461806 17.13521465004475 -2.898663322150355
1.516672288320854 17.9301232070665 -3.188630286700223
-1.394470807969375 16.80867537478942 -4.117691252826345
-3.572136609369807 16.30124347408035 -4.453665898619813
-1.541935311185318 18.16196296994531 -3.553823029460315
-3.984917161355285 17.71456850252587 -3.843789994010184
-5.924916457837485 14.96886744593986 -4.844592718749317
-7.396272485913173 13.35461369287522 -5.129418270338478
-6.694509333516189 16.37346052301029 -4.181184094467893
-8.458415343977469 14.67654319784611 -4.427006217222123
-7.420601151881658 17.69865930489115 -2.670104632561338
-9.460520825392777 15.92375094670787 -2.827086667774897
-7.739376958493488 18.28046080702908 -1.06849453442585
-9.90047480238073 16.47131207616797 -1.131313962767065
-1.681064417844469 19.43875630027806 -2.269471785951763
-4.374365389176674 19.04800566427249 -2.454644722096515
-1.742146215045124 19.9993063759829 -0.9081734737102767
-4.545344692092911 19.63342405909596 -0.9822740418233911
-1.742146215045124 19.9993063759829 0.9081734737102709
-4.545344692092912 19.63342405909596 0.982274041823385
-1.681064417844469 19.43875630027806 2.269471785951759
-4.374365389176675 19.04800566427249 2.454644722096509
-1.541935311185319 18.16196296994531 3.553823029460314
-3.984917161355285 17.71456850252587 3.843789994010182
-1.394470807969375 16.80867537478943 4.117691252826344
-3.572136609369808 16.30124347408036 4.453665898619812
-6.694509333516191 16.37346052301029 4.181184094467891
-8.458415343977471 14.67654319784612 4.427006217222122
-5.924916457837488 14.96886744593987 4.844592718749316
-7.396272485913178 13.35461369287522 5.129418270338477
-7.739376958493489 18.28046080702908 1.068494534425843
-9.900474802380732 16.47131207616797 1.131313962767058
-7.42060115188166 17.69865930489116 2.670104632561332
-9.460520825392781 15.92375094670787 2.82708666777489
-11.8387055399696 13.42176128485286 1.197304270865694
-12.71808835224877 10.38815777745716 1.239278870929595
-11.25920479973379 12.95614449502413 2.991992543922397
-12.04329378340049 10.01842998852667 3.096884586389192
-9.939246579898366 11.89558552355891 4.685236482067897
-10.50627997822545 9.176282256494799 4.849489573220248
-8.54020803341583 10.77148715468576 5.428620704999934
-8.877181778296222 8.283680414072593 5.618935054105392
-10.43239405947453 5.378850483902109 4.989242785494502
-9.81482405246884 2.082353911120656 5.046920800875011
-8.597896932233214 4.843060965173129 5.78086224489842
-7.892968277169995 1.872933897095861 5.847691757072742
-12.92307025586977 6.106285910624798 1.274992568320023
-12.42410610658672 2.366681117871153 1.28973208774758
-12.16319666563194 5.884354625389903 3.186131003451414
-11.62804737953288 2.279936507829725 3.222964190554609
-12.16319666563193 5.884354625389901 -3.186131003451421
-11.62804737953287 2.279936507829715 -3.222964190554616
-12.92307025586977 6.106285910624798 -1.274992568320031
-12.42410610658672 2.366681117871162 -1.289732087747588
-11.25920479973379 12.95614449502413 -2.991992543922404
-12.04329378340048 10.01842998852667 -3.096884586389199
-11.8387055399696 13.42176128485286 -1.197304270865701
-12.71808835224876 10.38815777745716 -1.239278870929603
-8.540208033415825 10.77148715468575 -5.428620704999935
-8.877181778296215 8.28368041407259 -5.618935054105393
-9.939246579898365 11.89558552355891 -4.685236482067899
-10.50627997822544 9.176282256494797 -4.849489573220251
-8.597896932233205 4.843060965173127 -5.780862244898421
-7.892968277169985 1.872933897095852 -5.847691757072742
-10.43239405947452 5.378850483902109 -4.989242785494504
-9.81482405246884 2.082353911120664 -5.046920800875013
-4.315675285573384 3.592380633716341 -4.989242785494503
-3.406827481125904 1.384089895116203 -5.046920800875011
-6.150172412814697 4.128170152445321 -5.78086224489842
-5.328683256424754 1.593509909141012 -5.847691757072742
-1.824999089178143 2.864945206993651 -1.274992568320024
-0.7975454270080231 1.099762688365706 -1.289732087747581
-2.584872679415976 3.086876492228548 -3.186131003451417
-1.593604154061868 1.186507298407148 -3.222964190554612
-3.375007710604944 6.621356143376072 -1.197304270865694
-2.862609435510452 4.988226306526803 -1.239278870929596
-3.954508450840752 7.086972933204807 -2.9919925439224
-3.537404004358732 5.357954095457293 -3.096884586389195
-5.274466670676179 8.147531904670025 -4.685236482067897
-5.07441780953377 6.200101827489165 -4.849489573220249
-6.673505217158715 9.271630273543177 -5.428620704999934
-6.703516009462995 7.092703669911371 -5.618935054105392
-4.128474685098193 11.69016027869321 -4.181184094467891
-4.91693846510293 10.2688660743672 -4.427006217222122
-4.898067560776895 13.09475335576363 -4.844592718749316
-5.979081323167222 11.5907955793381 -5.129418270338477
-1.050248035195207 13.64972933552945 -3.553823029460315
-2.608593091757153 13.00215352692048 -3.843789994010183
-1.197712538411151 15.00301693068533 -4.117691252826344
-3.021373643742631 14.41547855536599 -4.453665898619812
-0.850037131335402 11.81238592949186 -0.9081734737102716
-2.048165561019527 11.08329797035039 -0.9822740418233855
-0.9111189285360566 12.3729360051967 -2.269471785951761
-2.219144863935765 11.66871636517386 -2.454644722096512
-3.083607060120894 9.783159994674417 -1.068494534425844
-3.474879006699668 8.474097196045351 -1.131313962767059
-3.402382866732724 10.36496149681234 -2.670104632561335
-3.91483298368762 9.021658325505447 -2.827086667774894
-3.402382866732725 10.36496149681235 2.670104632561337
-3.914832983687622 9.021658325505449 2.827086667774897
-3.083607060120894 9.783159994674417 1.068494534425847
-3.474879006699669 8.474097196045351 1.131313962767063
-0.9111189285360568 12.3729360051967 2.269471785951763
-2.219144863935765 11.66871636517386 2.454644722096515
-0.850037131335402 11.81238592949186 0.9081734737102743
-2.048165561019528 11.08329797035039 0.9822740418233886
-1.197712538411151 15.00301693068534 4.117691252826345
-3.021373643742632 14.41547855536599 4.453665898619812
-1.050248035195208 13.64972933552945 3.553823029460316
-2.608593091757154 13.00215352692048 3.843789994010185
-4.898067560776897 13.09475335576363 4.844592718749317
-5.979081323167224 11.5907955793381 5.129418270338477
-4.128474685098194 11.69016027869321 4.181184094467893
-4.916938465102931 10.26886607436721 4.427006217222123
-6.673505217158717 9.271630273543181 5.428620704999934
-6.703516009462999 7.092703669911373 5.618935054105393
-5.274466670676182 8.147531904670027 4.685236482067899
-5.074417809533774 6.200101827489167 4.849489573220251
-3.954508450840754 7.086972933204808 2.991992543922403
-3.537404004358734 5.357954095457294 3.096884586389198
-3.375007710604945 6.621356143376072 1.197304270865698
-2.862609435510452 4.988226306526803 1.2392788709296
-2.584872679415978 3.086876492228549 3.186131003451421
-1.593604154061868 1.186507298407144 3.222964190554616
-1.824999089178143 2.864945206993651 1.274992568320028
-0.7975454270080258 1.099762688365711 1.289732087747585
-6.150172412814701 4.128170152445322 5.780862244898421
-5.328683256424755 1.593509909141006 5.847691757072742
-4.315675285573388 3.592380633716342 4.989242785494505
-3.40682748112591 1.384089895116209 5.046920800875013
-4.028826760008078 -1.733221903118426 5.847691757072742
-2.869743520198401 -4.485615558809214 5.780862244898421
-2.095594657201053 -1.733221903118419 5.046920800875013
-0.9586050850670107 -4.485615558809214 4.989242785494505
-0.2716380468806534 -1.733221903118426 3.222964190554616
0.8445066969760733 -4.485615558809214 3.186131003451421
0.5291329093170738 -1.733221903118419 1.289732087747585
1.63612615637999 -4.485615558809214 1.274992568320028
2.115980666461045 -7.688192041991972 3.096884586389199
2.937564630275177 -10.02155871411446 2.991992543922403
2.885426147346188 -7.688192041991972 1.2392788709296
3.680948853207214 -10.02155871411446 1.197304270865698
-1.494230035829603 -7.688192041991972 5.618935054105394
-0.550367580927021 -10.02155871411446 5.428620704999934
0.3633756796299927 -7.688192041991972 4.849489573220252
1.244320692129682 -10.02155871411446 4.685236482067899
0.3028218317214175 -12.47270463610666 5.129418270338477
0.7138425122390578 -14.03181040085174 4.844592718749318
1.998594536729249 -12.47270463610666 4.427006217222123
2.315452610374547 -14.03181040085174 4.181184094467895
0.9148174992726947 -15.35836101472317 4.453665898619815
0.9043487195617181 -15.90584615273738 4.117691252826346
2.38718817954582 -15.35836101472317 3.843789994010186
2.265647031803206 -15.90584615273738 3.553823029460317
3.77633345145949 -15.35836101472317 2.454644722096516
3.549998275311759 -15.90584615273738 2.269471785951764
4.386209356069119 -15.35836101472317 0.982274041823389
4.113866498677789 -15.90584615273738 0.9081734737102747
3.598514086176476 -12.47270463610666 2.827086667774897
3.826532072281103 -14.03181040085174 2.670104632561338
4.300926139292831 -12.47270463610666 1.131313962767063
4.489940696562527 -14.03181040085174 1.068494534425848
4.300926139292833 -12.47270463610666 -1.131313962767059
4.489940696562528 -14.03181040085174 -1.068494534425844
3.598514086176477 -12.47270463610666 -2.827086667774894
3.826532072281104 -14.03181040085174 -2.670104632561336
4.386209356069121 -15.35836101472317 -0.9822740418233861
4.11386649867779 -15.90584615273738 -0.9081734737102719
3.776333451459491 -15.35836101472317 -2.454644722096513
3.54999827531176 -15.90584615273738 -2.269471785951762
2.387188179545821 -15.35836101472317 -3.843789994010185
2.265647031803208 -15.90584615273738 -3.553823029460316
0.9148174992726972 -15.35836101472317 -4.453665898619814
0.9043487195617201 -15.90584615273738 -4.117691252826345
1.998594536729251 -12.47270463610666 -4.427006217222122
2.315452610374548 -14.03181040085174 -4.181184094467893
0.30282183172142 -12.47270463610666 -5.129418270338477
0.7138425122390603 -14.03181040085174 -4.844592718749317
0.3633756796299945 -7.688192041991972 -4.84948957322025
1.244320692129684 -10.02155871411446 -4.685236482067897
-1.494230035829601 -7.688192041991972 -5.618935054105393
-0.5503675809270183 -10.02155871411446 -5.428620704999934
2.88542614734619 -7.688192041991972 -1.239278870929597
3.680948853207215 -10.02155871411446 -1.197304270865694
2.115980666461046 -7.688192041991972 -3.096884586389195
2.937564630275179 -10.02155871411446 -2.9919925439224
0.5291329093170791 -1.733221903118426 -1.289732087747581
1.636126156379992 -4.485615558809214 -1.274992568320024
-0.2716380468806552 -1.733221903118419 -3.222964190554612
0.8445066969760742 -4.485615558809214 -3.186131003451417
-2.095594657201048 -1.733221903118426 -5.046920800875011
-0.9586050850670085 -4.485615558809214 -4.989242785494503
-4.028826760008079 -1.733221903118419 -5.847691757072742
-2.869743520198399 -4.485615558809214 -5.78086224489842
-6.608290935503249 -1.733221903118426 -5.847691757072742
-5.419728656838458 -4.485615558809214 -5.780862244898421
-8.541523038310281 -1.733221903118419 -5.046920800875013
-7.330867091969848 -4.485615558809214 -4.989242785494504
-3.972787777688805 -7.688192041991972 -5.618935054105394
-2.944976122658418 -10.02155871411446 -5.428620704999935
-5.830393493148401 -7.688192041991972 -4.849489573220251
-4.739664395715121 -10.02155871411446 -4.685236482067899
-7.582998479979453 -7.688192041991972 -3.096884586389199
-6.432908333860617 -10.02155871411446 -2.991992543922404
-8.352443960864598 -7.688192041991972 -1.239278870929603
-7.176292556792653 -10.02155871411446 -1.197304270865701
-10.36547964863068 -1.733221903118426 -3.222964190554616
-9.133978874012932 -4.485615558809214 -3.186131003451421
-11.16625060482841 -1.733221903118419 -1.289732087747588
-9.92559833341685 -4.485615558809214 -1.274992568320031
-11.16625060482841 -1.733221903118426 1.28973208774758
-9.925598333416852 -4.485615558809214 1.274992568320023
-10.36547964863069 -1.733221903118419 3.222964190554609
-9.133978874012939 -4.485615558809214 3.186131003451414
-8.541523038310281 -1.733221903118426 5.046920800875011
-7.330867091969852 -4.485615558809214 4.989242785494502
-6.608290935503257 -1.733221903118419 5.847691757072742
-5.419728656838462 -4.485615558809214 5.78086224489842
-5.830393493148405 -7.688192041991972 4.849489573220249
-4.739664395715124 -10.02155871411446 4.685236482067897
-3.972787777688809 -7.688192041991972 5.618935054105393
-2.944976122658422 -10.02155871411446 5.428620704999934
-8.3524439608646 -7.688192041991972 1.239278870929596
-7.176292556792657 -10.02155871411446 1.197304270865694
-7.582998479979462 -7.688192041991972 3.096884586389192
-6.432908333860624 -10.02155871411446 2.991992543922397
-5.957910401384125 -12.47270463610666 1.131313962767058
-5.19924474093611 -14.03181040085174 1.068494534425844
-5.255498348267775 -12.47270463610666 2.82708666777489
-4.53583611665469 -14.03181040085174 2.670104632561333
-3.655578798820543 -12.47270463610666 4.427006217222122
-3.02475665474813 -14.03181040085174 4.181184094467892
-1.959806093812712 -12.47270463610666 5.129418270338477
-1.423146556612642 -14.03181040085174 4.844592718749317
-2.522101264647212 -15.35836101472317 3.843789994010185
-2.273296540100322 -15.90584615273738 3.553823029460315
-1.049730584374087 -15.35836101472317 4.453665898619814
-0.911998227858835 -15.90584615273738 4.117691252826345
-4.521122441170512 -15.35836101472317 0.9822740418233855
-4.121516006974904 -15.90584615273738 0.9081734737102714
-3.911246536560885 -15.35836101472317 2.454644722096511
-3.557647783608878 -15.90584615273738 2.269471785951759
-3.91124653656088 -15.35836101472317 -2.454644722096516
-3.557647783608873 -15.90584615273738 -2.269471785951765
-4.521122441170509 -15.35836101472317 -0.9822740418233915
-4.121516006974902 -15.90584615273738 -0.908173473710277
-5.255498348267768 -12.47270463610666 -2.827086667774897
-4.535836116654683 -14.03181040085174 -2.670104632561339
-5.957910401384123 -12.47270463610666 -1.131313962767065
-5.199244740936108 -14.03181040085174 -1.068494534425851
-1.959806093812708 -12.47270463610666 -5.129418270338478
-1.423146556612638 -14.03181040085174 -4.844592718749318
-3.655578798820541 -12.47270463610666 -4.427006217222123
-3.024756654748127 -14.03181040085174 -4.181184094467894
-1.049730584374084 -15.35836101472317 -4.453665898619816
-0.9119982278588319 -15.90584615273738 -4.117691252826346
-2.522101264647209 -15.35836101472317 -3.843789994010185
-2.27329654010032 -15.90584615273738 -3.553823029460317
-0.8110243308634485 -15.90584615273738 -3.694555111833065
-0.6732919743481965 -15.35836101472317 -3.358580466039594
-2.032434905240384 -15.90584615273738 -3.188630286700226
-1.783630180693495 -15.35836101472317 -2.898663322150355
-0.2998760021096422 -14.03181040085174 -2.967653645910091
0.2367835350904276 -12.47270463610666 -2.682828094320931
-1.280974790592579 -14.03181040085175 -2.561269221692648
-0.6501526465201636 -12.47270463610666 -2.315447098938417
-2.206617199505855 -14.03181040085174 -1.635626812779368
-1.486954967892771 -12.47270463610666 -1.478644777565809
-2.613001623723303 -14.03181040085175 -0.6545280242964341
-1.854335963275286 -12.47270463610666 -0.5917085959552186
-3.184805532551667 -15.90584615273738 -2.036259659388943
-2.83120677959966 -15.35836101472317 -1.851086723244191
-3.690730357684507 -15.90584615273738 -0.8148490850120077
-3.291123923488899 -15.35836101472317 -0.7407485168988928
-3.690730357684509 -15.90584615273738 0.8148490850120025
-3.291123923488901 -15.35836101472317 0.7407485168988881
-3.184805532551672 -15.90584615273738 2.036259659388939
-2.831206779599664 -15.35836101472317 1.851086723244187
-2.032434905240387 -15.90584615273738 3.188630286700224
-1.783630180693497 -15.35836101472317 2.898663322150354
-0.8110243308634512 -15.90584615273738 3.694555111833064
-0.673291974348199 -15.35836101472317 3.358580466039593
-1.280974790592578 -14.03181040085174 2.561269221692645
-0.6501526465201651 -12.47270463610666 2.315447098938416
-0.2998760021096465 -14.03181040085175 2.967653645910092
0.2367835350904256 -12.47270463610666 2.68282809432093
-2.613001623723302 -14.03181040085174 0.6545280242964296
-1.854335963275286 -12.47270463610666 0.5917085959552149
-2.206617199505862 -14.03181040085175 1.635626812779365
-1.486954967892775 -12.47270463610666 1.478644777565806
-0.6359538078667617 -10.02155871411447 0.5257182878565798
0.5401975962051808 -7.68819204199199 0.4837436877926777
-0.309544982299931 -10.02155871411447 1.3137389014183
0.8405451638189052 -7.68819204199199 1.208846858951505
0.4339329503744098 -10.02155871411447 2.057216834092641
1.524662047807689 -7.68819204199199 1.892963742940288
1.22195356393613 -10.02155871411447 2.383625659659474
2.249765218966516 -7.68819204199199 2.193311310554015
3.025135646629133 -4.485615558809241 1.753210530666035
4.235791592969568 -1.733221903118439 1.695532515285527
3.696706098116165 -4.485615558809241 2.031384119760987
4.885268376780957 -1.733221903118453 1.964554607586666
2.11335196875743 -4.485615558809241 0.4480299904022503
3.354004240168992 -1.733221903118439 0.4332904709746931
2.39152555785238 -4.485615558809241 1.119600441889283
3.623026332470124 -1.733221903118453 1.082767254786088
2.391525557852384 -4.485615558809241 -1.119600441889285
3.623026332470132 -1.733221903118439 -1.08276725478609
2.113351968757431 -4.485615558809241 -0.4480299904022531
3.354004240168988 -1.733221903118453 -0.4332904709746959
-0.3095449822999274 -10.02155871411447 -1.313738901418303
0.8405451638189083 -7.68819204199199 -1.208846858951508
-0.6359538078667604 -10.02155871411447 -0.525718287856583
0.5401975962051817 -7.68819204199199 -0.4837436877926807
1.221953563936132 -10.02155871411447 -2.383625659659474
2.249765218966517 -7.68819204199199 -2.193311310554015
0.4339329503744114 -10.02155871411447 -2.057216834092642
1.52466204780769 -7.68819204199199 -1.892963742940289
3.696706098116167 -4.485615558809241 -2.031384119760988
4.885268376780965 -1.733221903118439 -1.964554607586666
3.025135646629134 -4.485615558809241 -1.753210530666036
4.235791592969564 -1.733221903118453 -1.695532515285528
5.264336530407704 -4.485615558809241 -1.753210530666035
6.401326102541749 -1.733221903118439 -1.695532515285527
4.592766078920672 -4.485615558809241 -2.031384119760987
5.75184931873035 -1.733221903118453 -1.964554607586666
6.176120208279406 -4.485615558809241 -0.4480299904022506
7.283113455342326 -1.733221903118439 -0.4332904709746934
5.897946619184454 -4.485615558809241 -1.119600441889284
7.014091363041182 -1.733221903118453 -1.082767254786089
4.131297511452187 -10.02155871411447 -0.5257182878565801
4.926820217313212 -7.68819204199199 -0.483743687792678
3.804888685885355 -10.02155871411447 -1.313738901418301
4.626472649699486 -7.68819204199199 -1.208846858951506
3.061410753211016 -10.02155871411447 -2.057216834092641
3.942355765710704 -7.68819204199199 -1.892963742940289
2.273390139649297 -10.02155871411447 -2.383625659659474
3.217252594551877 -7.68819204199199 -2.193311310554015
1.990278834966158 -14.03181040085174 -2.561269221692645
2.307136908611454 -12.47270463610666 -2.315447098938416
1.009180046483222 -14.03181040085175 -2.967653645910092
1.420200727000863 -12.47270463610666 -2.68282809432093
2.0400844135375 -15.90584615273738 -3.188630286700225
1.918543265794885 -15.35836101472317 -2.898663322150354
0.8186738391605649 -15.90584615273738 -3.694555111833064
0.8082050594495873 -15.35836101472317 -3.358580466039593
3.698379865981622 -15.90584615273738 -0.814849085012003
3.426037008590289 -15.35836101472317 -0.7407485168988885
3.192455040848783 -15.90584615273738 -2.036259659388941
2.966119864701049 -15.35836101472317 -1.851086723244189
3.322305668096881 -14.03181040085174 -0.6545280242964301
3.511320225366576 -12.47270463610666 -0.5917085959552153
2.915921243879436 -14.03181040085175 -1.635626812779367
3.143939229984062 -12.47270463610666 -1.478644777565808
2.915921243879435 -14.03181040085174 1.635626812779368
3.143939229984061 -12.47270463610666 1.478644777565809
3.32230566809688 -14.03181040085175 0.6545280242964324
3.511320225366575 -12.47270463610666 0.5917085959552171
3.192455040848782 -15.90584615273738 2.036259659388943
2.966119864701048 -15.35836101472317 1.85108672324419
3.698379865981622 -15.90584615273738 0.8148490850120056
3.426037008590288 -15.35836101472317 0.7407485168988909
0.8186738391605631 -15.90584615273738 3.694555111833065
0.8082050594495856 -15.35836101472317 3.358580466039594
2.040084413537499 -15.90584615273738 3.188630286700226
1.918543265794884 -15.35836101472317 2.898663322150355
1.009180046483222 -14.03181040085174 2.967653645910091
1.420200727000862 -12.47270463610666 2.68282809432093
1.990278834966156 -14.03181040085175 2.561269221692648
2.307136908611453 -12.47270463610666 2.315447098938417
2.273390139649295 -10.02155871411447 2.383625659659474
3.217252594551876 -7.68819204199199 2.193311310554015
3.061410753211016 -10.02155871411447 2.057216834092642
3.942355765710704 -7.68819204199199 1.892963742940289
3.804888685885354 -10.02155871411447 1.313738901418303
4.626472649699485 -7.68819204199199 1.208846858951507
4.131297511452187 -10.02155871411447 0.5257182878565817
4.926820217313212 -7.68819204199199 0.4837436877926795
5.897946619184454 -4.485615558809241 1.119600441889285
7.014091363041186 -1.733221903118439 1.08276725478609
6.176120208279405 -4.485615558809241 0.448029990402252
7.28311345534232 -1.733221903118453 0.4332904709746947
4.592766078920671 -4.485615558809241 2.031384119760987
5.751849318730354 -1.733221903118439 1.964554607586666
5.264336530407703 -4.485615558809241 1.753210530666036
6.401326102541743 -1.733221903118453 1.695532515285528
