MFEM mesh v1.0

#
# MFEM Geometry Types (see fem/geom.hpp):
#
# POINT       = 0
# SEGMENT     = 1
# TRIANGLE    = 2
# SQUARE      = 3
# TETRAHEDRON = 4
# CUBE        = 5
# PRISM       = 6
# PYRAMID     = 7
#

dimension
2

elements
16
1 3 0 1 9 8
1 3 8 9 17 16
1 3 9 10 18 17
1 3 1 2 10 9
1 3 2 3 11 10
1 3 10 11 19 18
1 3 11 12 20 19
1 3 3 4 12 11
1 3 4 5 13 12
1 3 12 13 21 20
1 3 13 14 22 21
1 3 5 6 14 13
1 3 6 7 15 14
1 3 14 15 23 22
1 3 15 8 0 23
1 3 7 16 8 15

boundary
16
1 1 0 1
1 1 1 2
1 1 2 3
1 1 3 4
1 1 4 5
1 1 5 6
1 1 6 7
1 1 7 16
3 1 17 16
3 1 18 17
3 1 19 18
3 1 20 19
3 1 21 20
3 1 22 21
3 1 23 22
3 1 0 23

vertices
24

nodes
FiniteElementSpace
FiniteElementCollection: H1_2D_P3
VDim: 3
Ordering: 1

0.5 0 0
0.3804660399674534 0.3804660399674534 -0.1913417161825449
0 0.6464466094067263 -0.3535533905932738
-0.5718077561499982 0.5718077561499983 -0.4619397662556434
-1 0 -0.5
-0.8424058062230969 -0.8424058062230967 -0.4619397662556434
0 -1.353553390593274 -0.3535533905932738
1.033747522405641 -1.033747522405642 -0.1913417161825449
1 0 0
0.7071067811865476 0.7071067811865476 0
0 1 0
-0.7071067811865475 0.7071067811865476 0
-1 0 0
-0.7071067811865477 -0.7071067811865475 0
0 -1 0
0.7071067811865474 -0.7071067811865477 0
1.5 0 0
1.033747522405642 1.033747522405642 0.1913417161825449
0 1.353553390593274 0.3535533905932738
-0.8424058062230967 0.8424058062230968 0.4619397662556434
-1 0 0.5
-0.5718077561499985 -0.5718077561499982 0.4619397662556434
0 -0.6464466094067263 0.3535533905932738
0.3804660399674533 -0.3804660399674535 0.1913417161825449
0.4911386518966664 0.1083226177436735 -0.05416318447245094
0.4383026326665089 0.2799001104723209 -0.1401754862127881
0.4707473204183193 0.4707473204183193 -0.1384561665228366
0.6168255007356818 0.6168255007356818 -0.05288554965970826
0.9765307955824259 0.2153778198402847 0
0.8428066645200676 0.5382164306675877 0
0.6381966011250105 0 0
0.8618033988749895 0 0
0.7973880616374135 0.7973880616374135 0.05288554965970826
0.9434662419547759 0.9434662419547759 0.1384561665228366
1.461922939268185 0.3224330219368959 0.05416318447245094
1.247310696373626 0.7965327508628545 0.1401754862127881
1.13819660112501 0 0
1.36180339887499 0 0
0.5382164306675877 0.8428066645200676 0
0.2153778198402849 0.9765307955824259 0
0 1.097719753792427 0.09771975379242742
0 1.255833636800846 0.2558336368008464
0.774221146597299 1.212372393305063 0.2402560013122493
0.2993260677164244 1.357155176249984 0.313173709816077
0.3022117147378764 0.4732409357350722 -0.2402560013122493
0.1314295719641453 0.5959064149148683 -0.313173709816077
0 0.7441663631991536 -0.2558336368008464
0 0.9022802462075725 -0.09771975379242742
-0.1479271489888041 0.6707070235802325 -0.389772019878333
-0.4089067031948418 0.6403173054231617 -0.4384940750266171
-0.6092034869411558 0.6092034869411559 -0.3342627550136198
-0.6697110503953898 0.6697110503953899 -0.1276770112420235
-0.2153778198402848 0.9765307955824259 0
-0.538216430667588 0.8428066645200674 0
-0.7445025119777051 0.7445025119777052 0.1276770112420235
-0.805010075431939 0.8050100754319391 0.3342627550136198
-0.2828284906917654 1.282354567584619 0.389772019878333
-0.667526158140334 1.045296023616973 0.4384940750266171
-0.8428066645200676 0.5382164306675878 0
-0.9765307955824259 0.215377819840285 0
-1 0 0.1381966011250105
-1 0 0.3618033988749895
-0.9609474985025463 0.6136611805241283 0.4799487817100992
-1.029422813206586 0.2270433684275686 0.4970576922730431
-0.7246658305375888 0.4627716808110473 -0.4799487817100992
-0.9236387779582657 0.2037122712530013 -0.4970576922730431
-1 0 -0.3618033988749895
-1 0 -0.1381966011250105
-1.029422813206586 -0.2270433684275679 -0.4970576922730431
-0.9609474985025462 -0.613661180524128 -0.4799487817100992
-0.8050100754319393 -0.805010075431939 -0.3342627550136198
-0.7445025119777053 -0.7445025119777051 -0.1276770112420235
-0.9765307955824261 -0.2153778198402843 0
-0.8428066645200677 -0.5382164306675876 0
-0.66971105039539 -0.6697110503953898 0.1276770112420235
-0.6092034869411561 -0.6092034869411559 0.3342627550136198
-0.923638777958266 -0.2037122712530007 0.4970576922730431
-0.724665830537589 -0.4627716808110472 0.4799487817100992
-0.5382164306675882 -0.8428066645200673 0
-0.2153778198402846 -0.9765307955824261 0
0 -0.9022802462075726 0.09771975379242742
0 -0.7441663631991537 0.2558336368008464
-0.408906703194842 -0.6403173054231616 0.4384940750266171
-0.147927148988804 -0.6707070235802325 0.3897720198783329
-0.6675261581403343 -1.045296023616973 -0.4384940750266171
-0.2828284906917651 -1.28235456758462 -0.3897720198783329
0 -1.255833636800846 -0.2558336368008464
0 -1.097719753792427 -0.09771975379242742
0.2993260677164247 -1.357155176249984 -0.313173709816077
0.7742211465972993 -1.212372393305063 -0.2402560013122493
0.9434662419547756 -0.943466241954776 -0.1384561665228367
0.7973880616374133 -0.7973880616374136 -0.05288554965970827
0.2153778198402851 -0.9765307955824259 0
0.538216430667588 -0.8428066645200675 0
0.6168255007356815 -0.6168255007356818 0.05288554965970827
0.4707473204183191 -0.4707473204183193 0.1384561665228367
0.1314295719641455 -0.5959064149148683 0.313173709816077
0.3022117147378766 -0.4732409357350721 0.2402560013122493
0.9765307955824258 -0.2153778198402855 0
0.8428066645200673 -0.5382164306675883 0
0.4911386518966664 -0.1083226177436739 0.05416318447245114
0.4383026326665088 -0.2799001104723213 0.1401754862127883
1.247310696373626 -0.7965327508628554 -0.1401754862127883
1.461922939268185 -0.3224330219368971 -0.05416318447245114
0.6252977408369759 0.1379119478686791 -0.03919284847205161
0.5501047973535584 0.3512969854045325 -0.1014319347014819
0.8423717066421166 0.1857884897152792 -0.01497033600039933
0.731004499833018 0.4668195557353761 -0.03874355151130619
1.110689884522735 0.2449671499652903 0.01497033600039933
0.9546088292071173 0.6096133055997993 0.03874355151130621
1.327763850327876 0.2928436918118903 0.03919284847205159
1.135508531686577 0.7251358759306429 0.1014319347014819
0.6034465298495074 0.9449521197408151 0.06640512556247784
0.2385805448940499 1.081732787009563 0.08655908451658444
0.7089910474153798 1.110226938084315 0.1738508757497714
0.2761233426626597 1.251953184822846 0.2266146252994926
0.367441813919796 0.5753863909558197 -0.1738508757497714
0.1546322970179102 0.7011084063420056 -0.2266146252994926
0.4729863314856684 0.7406612092993198 -0.06640512556247784
0.1921750947865201 0.8713288041552887 -0.08655908451658438
-0.1665700558993567 0.7552346352480991 -0.2820416831567016
-0.4446470328531114 0.69628398780551 -0.3172972934623494
-0.1967349129297317 0.8920031839145593 -0.1077303367216313
-0.5024761010093178 0.7868399821377194 -0.1211967815642677
-0.2340207267508372 1.061058407250293 0.1077303367216313
-0.5739567603258574 0.8987733469024157 0.1211967815642678
-0.2641855837812123 1.197826955916753 0.2820416831567015
-0.6317858284820639 0.9893293412346251 0.3172972934623493
-0.8754599879409726 0.5590688466733892 0.1326545806928506
-0.9911497897070322 0.2186020981703279 0.1373833672703521
-0.9282941750816406 0.5928087645183278 0.3472942010172484
-1.01480381908198 0.2238190900975261 0.3596743250026911
-0.7573191539584939 0.4836240968168486 -0.3472942010172485
-0.9382577720828716 0.2069365495830442 -0.3596743250026912
-0.8101533410991618 0.5173640146617871 -0.1326545806928506
-0.9619118014578197 0.2121535415102424 -0.1373833672703519
-1.01480381908198 -0.2238190900975254 -0.3596743250026912
-0.9282941750816409 -0.592808764518327 -0.3472942010172486
-0.9911497897070322 -0.2186020981703268 -0.1373833672703519
-0.875459987940973 -0.5590688466733886 -0.1326545806928507
-0.9619118014578198 -0.2121535415102418 0.1373833672703519
-0.8101533410991624 -0.5173640146617866 0.1326545806928508
-0.9382577720828721 -0.2069365495830432 0.3596743250026911
-0.7573191539584945 -0.4836240968168483 0.3472942010172484
-0.5024761010093184 -0.7868399821377191 0.1211967815642677
-0.1967349129297325 -0.8920031839145592 0.1077303367216314
-0.4446470328531119 -0.6962839878055098 0.3172972934623494
-0.1665700558993576 -0.7552346352480991 0.2820416831567016
-0.6317858284820645 -0.9893293412346248 -0.3172972934623494
-0.2641855837812133 -1.197826955916752 -0.2820416831567018
-0.573956760325858 -0.8987733469024154 -0.1211967815642677
-0.2340207267508384 -1.061058407250292 -0.1077303367216313
0.2761233426626588 -1.251953184822846 -0.2266146252994927
0.7089910474153788 -1.110226938084316 -0.1738508757497716
0.2385805448940489 -1.081732787009563 -0.08655908451658441
0.6034465298495065 -0.9449521197408156 -0.06640512556247789
0.1921750947865195 -0.8713288041552888 0.08655908451658441
0.4729863314856678 -0.7406612092993202 0.06640512556247793
0.1546322970179096 -0.7011084063420059 0.2266146252994926
0.3674418139197956 -0.5753863909558202 0.1738508757497715
0.7310044998330177 -0.4668195557353766 0.03874355151130623
0.8423717066421166 -0.1857884897152791 0.01497033600039934
0.5501047973535584 -0.351296985404533 0.101431934701482
0.625297740836976 -0.1379119478686796 0.03919284847205174
1.135508531686576 -0.7251358759306437 -0.101431934701482
1.327763850327876 -0.2928436918118903 -0.03919284847205159
0.9546088292071169 -0.6096133055998 -0.03874355151130623
1.110689884522735 -0.2449671499652911 -0.01497033600039939
