MFEM NURBS mesh v1.0

# 2D C-mesh around a symmetric NACA foil section

dimension
2

elements
5
1 3 0 1 5 4
1 3 1 2 6 5
1 3 2 3 7 6
1 3 3 1 8 7
1 3 1 0 9 8

boundary
10
1 1 5 4
1 1 6 5
2 1 7 6
3 1 8 7
3 1 9 8
4 1 4 0
4 1 0 9
5 1 1 2
5 1 2 3
5 1 3 1

edges
15
0 0 1
1 1 2
2 2 3
3 3 1
0 4 5
1 5 6
2 6 7
3 7 8
0 9 8
4 0 4
4 1 5
4 2 6
4 3 7
4 1 8
4 0 9

vertices
10

patches

# Patch 0 
knotvectors
2
2 3 0 0 0 1 1 1
2 3 0 0 0 1 1 1

dimension
2

controlpoints
4 0 1
2.5 0 1
1 0 1
4 -2.1414 1
2.5 -1.92399 1
1 -1.70658 1
4 -4.2828 1
2.5 -3.84798 1
1 -3.41316 1

# Patch 1 
knotvectors
2
2 3 0 0 0 1 1 1
2 3 0 0 0 1 1 1

dimension
2

controlpoints
1 1.66533e-17 1
0.525 -0.0846267 1
0.05 -0.0355468 1
1 -1.70658 1
0.30759 -1.6134 1
-0.384821 -1.45337 1
1 -3.41316 1
0.0901794 -3.14217 1
-0.819641 -2.87119 1

# Patch 2 
knotvectors
2
2 3 0 0 0 1 1 1
2 3 0 0 0 1 1 1

dimension
2

controlpoints
0.05 -0.0355468 1
-0.014494 0 0.28988
0.05 0.0355468 1
-0.384821 -1.45337 1
-1.50725 0 0.28988
-0.384821 1.45337 1
-0.819641 -2.87119 1
-3 0 0.28988
-0.819641 2.87119 1

# Patch 3 
knotvectors
2
2 3 0 0 0 1 1 1
2 3 0 0 0 1 1 1

dimension
2

controlpoints
0.05 0.0355468 1
0.525 0.0846267 1
1 -1.66533e-17 1
-0.384821 1.45337 1
0.30759 1.6134 1
1 1.70658 1
-0.819641 2.87119 1
0.0901794 3.14217 1
1 3.41316 1

# Patch 4 
knotvectors
2
2 3 0 0 0 1 1 1
2 3 0 0 0 1 1 1

dimension
2

controlpoints
1 0 1
2.5 0 1
4 0 1
1 1.70658 1
2.5 1.92399 1
4 2.1414 1
1 3.41316 1
2.5 3.84798 1
4 4.2828 1

