MFEM NURBS mesh v1.0

#
# MFEM Geometry Types (see fem/geom.hpp):
#
# SEGMENT     = 1
# SQUARE      = 3
# CUBE        = 5
#

dimension
2

elements
1
1 3 0 1 3 2

boundary
4
1 1 0 1
3 1 3 2
4 1 2 0
2 1 1 3

edges
4
0 0 1
1 1 3
0 2 3
1 0 2

vertices
4

knotvectors
2
3 5 0 0 0 0 0.5 1 1 1 1
3 5 0 0 0 0 0.5 1 1 1 1

weights
1
1
1
1
1
1
1
1
1
1
1
1
1
1
1
1
1
1
1
1
1
1
1
1
1

FiniteElementSpace
FiniteElementCollection: NURBS3
VDim: 3
Ordering: 1

0 0 0
1 0 0
0 1 0
1 1 5.9990391e-32
0.31666667 0 0
0.5 0 0
0.68333333 0 0
1 0.31666667 -4.4087285e-16
1 0.5 -7.8610816e-32
1 0.68333333 4.4087285e-16
0.31666667 1 -4.4087285e-16
0.5 1 -7.8610816e-32
0.68333333 1 4.4087285e-16
0 0.31666667 0
0 0.5 0
0 0.68333333 0
0.31666667 0.31666667 3.24
0.5 0.31666667 2.5272267e-16
0.68333333 0.31666667 -3.24
0.31666667 0.5 2.9713159e-16
0.5 0.5 7.2404008e-32
0.68333333 0.5 -2.9713159e-16
0.31666667 0.68333333 -3.24
0.5 0.68333333 -2.5272267e-16
0.68333333 0.68333333 3.24
