MFEM mesh v1.0

#
# MFEM Geometry Types (see fem/geom.hpp):
#
# POINT       = 0
# SEGMENT     = 1
# TRIANGLE    = 2
# SQUARE      = 3
# TETRAHEDRON = 4
# CUBE        = 5
# PRISM       = 6

dimension
2

elements
30
1 3 0 11 26 14
1 3 0 14 27 17
1 3 0 17 28 20
1 3 0 20 29 23
1 3 0 23 30 11
1 2 11 1 26
1 2 1 12 26
1 3 26 12 3 13
1 2 26 13 2
1 2 14 26 2
1 2 14 2 27
1 2 2 15 27
1 3 27 15 5 16
1 2 27 16 4
1 2 17 27 4
1 2 17 4 28
1 2 4 18 28
1 3 28 18 7 19
1 2 28 19 6
1 2 20 28 6
1 2 20 6 29
1 2 6 21 29
1 3 29 21 9 22
1 2 29 22 8
1 2 23 29 8
1 2 23 8 30
1 2 8 24 30
1 3 30 24 10 25
1 2 30 25 1
1 2 11 30 1

boundary
20
1 1 13 2
1 1 12 3
1 1 16 4
1 1 15 5
1 1 19 6
1 1 18 7
1 1 22 8
1 1 21 9
1 1 25 1
1 1 24 10
1 1 3 13
1 1 1 12
1 1 5 16
1 1 2 15
1 1 7 19
1 1 4 18
1 1 9 22
1 1 6 21
1 1 10 25
1 1 8 24
nodes
FiniteElementSpace
FiniteElementCollection: Linear_2D
VDim: 2
Ordering: 0

5.2092973574596e-07
1
0.309017
1.30902
-0.809017
-0.5
-0.809017
-1.61803
0.309017
-0.5
1.30902
0.68467012652428
1.15451
0.809019
0.19332388492146
-0.0954915
-0.654508
-0.56518874099204
-1.21352
-1.21352
-0.54262927361704
-0.654508
-0.0954915
0.22982586362668
0.809019
1.15451
0.61673018376325
-0.29684472543508
-0.80018819408001
-0.19769930638657
0.67800539097434
6.4516067444946e-08
6.4516067445127e-08
9.7151470179746e-07
9.7151470179746e-07
6.2507152542857e-07
1.5320682524855e-06
-4.9603939067389e-07
6.4516067445190e-08
-8.4248256693176e-07
-1.4030361175088e-06
-8.4248256693176e-07
6.4516067445057e-08
5.1801586142819e-07
9.7151470179746e-07
5.1801586142819e-07
1.2517929077749e-06
1.0785675048641e-06
3.4479427329925e-07
3.4479427329925e-07
-2.1576118475197e-07
-2.1576213843355e-07
-9.4953536988740e-07
-1.1227607727982e-06
-3.8898372656249e-07
-8.4248256693176e-07
-3.8898372656249e-07
5.1801586142819e-07
7.9829311361301e-07
6.4516067445148e-08
-6.6926002506573e-07
-3.8898372656249e-07
