MFEM mesh v1.0

#
# MFEM Geometry Types (see fem/geom.hpp):
#
# POINT       = 0
# SEGMENT     = 1
# TRIANGLE    = 2
# SQUARE      = 3
# TETRAHEDRON = 4
# CUBE        = 5
# PRISM       = 6
# PYRAMID     = 7
#

dimension
2

elements
204
1 3 0 203 204 3
1 3 203 201 202 204
1 3 201 65 66 202
1 3 65 63 70 69
1 3 69 70 68 67
1 3 67 68 64 66
1 3 63 15 16 64
1 3 15 291 292 193
1 3 291 289 290 292
1 3 289 13 194 290
1 3 193 194 192 191
1 3 191 192 110 109
1 3 109 110 108 107
1 3 107 108 24 23
1 3 23 43 252 251
1 3 251 252 250 249
1 3 249 250 44 39
1 3 43 326 225 44
1 3 326 325 223 225
1 3 325 41 42 223
1 3 41 57 258 257
1 3 257 258 256 255
1 3 255 256 58 42
1 3 57 113 114 58
1 3 113 111 162 161
1 3 161 162 160 159
1 3 159 160 112 114
1 3 111 55 56 112
1 3 55 24 40 56
1 3 39 44 158 37
1 3 44 225 226 158
1 3 225 223 224 226
1 3 223 42 157 224
1 3 42 40 38 157
1 3 37 38 48 47
1 3 47 155 171 298
1 3 298 171 169 297
1 3 297 169 156 45
1 3 155 153 244 243
1 3 243 244 242 241
1 3 241 242 172 171
1 3 171 172 170 169
1 3 169 170 154 156
1 3 153 183 184 154
1 3 183 181 182 184
1 3 181 48 46 182
1 3 45 46 22 21
1 3 21 320 105 89
1 3 320 319 103 105
1 3 319 22 90 103
1 3 89 105 106 87
1 3 105 103 104 106
1 3 103 309 310 277
1 3 309 307 308 310
1 3 307 90 278 308
1 3 277 278 348 347
1 3 347 348 346 345
1 3 345 346 276 275
1 3 275 276 88 104
1 3 87 106 332 16
1 3 106 104 331 332
1 3 104 88 14 331
1 3 13 1 85 110
1 3 110 85 83 108
1 3 108 83 19 24
1 3 24 19 208 207
1 3 207 208 206 205
1 3 205 206 31 40
1 3 40 351 352 38
1 3 351 349 350 352
1 3 349 31 29 350
1 3 38 29 17 22
1 3 22 199 270 90
1 3 90 270 269 88
1 3 88 269 200 14
1 3 199 197 198 200
1 3 197 175 176 198
1 3 175 173 174 176
1 3 173 135 136 174
1 3 135 133 134 136
1 3 133 17 4 134
1 3 3 4 12 11
1 3 11 12 122 121
1 3 121 122 214 213
1 3 213 214 212 211
1 3 211 212 120 119
1 3 119 120 10 9
1 3 9 73 74 6
1 3 73 71 72 74
1 3 71 10 140 139
1 3 139 335 336 137
1 3 335 333 334 336
1 3 333 140 138 334
1 3 137 138 7 72
1 3 4 5 8 7
1 3 1 97 262 261
1 3 261 262 260 259
1 3 259 260 101 128
1 3 128 101 99 127
1 3 127 359 360 85
1 3 359 357 358 360
1 3 357 99 98 358
1 3 97 95 102 101
1 3 101 117 152 151
1 3 151 152 150 149
1 3 149 150 118 99
1 3 117 115 228 152
1 3 152 239 240 150
1 3 239 237 238 240
1 3 237 228 227 238
1 3 150 227 116 118
1 3 115 102 100 116
1 3 99 100 96 98
1 3 95 2 264 102
1 3 102 264 314 313
1 3 313 314 312 311
1 3 311 312 263 100
1 3 100 263 86 96
1 3 85 86 84 83
1 3 83 84 20 19
1 3 19 50 35 31
1 3 50 49 33 35
1 3 49 20 268 267
1 3 267 295 296 265
1 3 295 293 294 296
1 3 293 268 266 294
1 3 265 266 32 33
1 3 31 217 218 131
1 3 217 283 284 218
1 3 283 281 282 284
1 3 281 215 216 282
1 3 215 164 143 216
1 3 164 163 141 143
1 3 163 35 132 141
1 3 131 218 254 129
1 3 218 216 253 254
1 3 216 143 144 253
1 3 143 141 142 144
1 3 141 147 148 142
1 3 147 145 180 179
1 3 179 180 178 177
1 3 177 178 146 148
1 3 145 221 222 146
1 3 221 219 220 222
1 3 219 132 340 339
1 3 339 340 338 337
1 3 337 338 130 220
1 3 129 144 196 29
1 3 144 142 195 196
1 3 142 130 36 195
1 3 35 77 78 36
1 3 77 125 232 231
1 3 231 343 344 323
1 3 343 341 356 355
1 3 355 356 354 353
1 3 353 354 342 344
1 3 341 232 324 342
1 3 323 324 322 321
1 3 321 322 230 229
1 3 229 230 126 81
1 3 125 305 306 126
1 3 305 303 304 306
1 3 303 123 124 304
1 3 123 75 82 124
1 3 81 126 301 79
1 3 126 124 299 301
1 3 124 82 80 299
1 3 79 301 302 78
1 3 301 299 300 302
1 3 299 80 76 300
1 3 75 33 34 76
1 3 33 53 188 187
1 3 187 188 186 185
1 3 185 186 168 167
1 3 167 168 166 165
1 3 165 247 248 235
1 3 247 245 246 248
1 3 245 166 236 246
1 3 235 236 234 233
1 3 233 234 54 34
1 3 53 51 190 168
1 3 168 190 189 166
1 3 166 317 318 54
1 3 317 315 316 318
1 3 315 273 274 316
1 3 273 271 272 274
1 3 271 287 288 272
1 3 287 285 286 288
1 3 285 189 52 286
1 3 51 32 280 190
1 3 190 329 330 189
1 3 329 327 328 330
1 3 327 280 279 328
1 3 189 279 30 52
1 3 29 30 18 17
1 3 17 61 62 4
1 3 61 59 60 62
1 3 59 27 93 210
1 3 210 93 91 209
1 3 209 91 28 60
1 3 27 25 94 93
1 3 93 94 92 91
1 3 91 92 26 28
1 3 25 18 5 26

boundary
40
1 1 0 203
1 1 203 201
1 1 201 65
1 1 65 63
1 1 63 15
1 1 15 291
1 1 291 289
1 1 289 13
1 1 13 1
1 1 1 97
1 1 97 95
1 1 95 2
3 1 7 72
3 1 72 74
3 1 74 6
3 1 8 7
4 1 3 0
4 1 6 9
4 1 9 119
4 1 119 211
4 1 211 213
4 1 213 121
4 1 121 11
4 1 11 3
2 1 2 264
2 1 264 314
2 1 314 312
2 1 312 263
2 1 263 86
2 1 86 84
2 1 84 20
2 1 20 268
2 1 268 266
2 1 266 32
2 1 32 280
2 1 280 279
2 1 279 30
2 1 30 18
2 1 18 5
2 1 5 8

vertices
361
2
0 0
0.5 0
1 0
0 0.5
0.5 0.5
1 0.5
0 1
0.5 1
1 1
0 0.8333333333333333
0.5 0.8333333333333333
0 0.6666666666666666
0.5 0.6666666666666666
0.3333333333333333 0
0.3333333333333333 0.5
0.1666666666666667 0
0.1666666666666667 0.5
0.5 0.3333333333333333
1 0.3333333333333333
0.5 0.1666666666666667
1 0.1666666666666667
0.1666666666666667 0.3333333333333333
0.3333333333333333 0.3333333333333333
0.1666666666666667 0.1666666666666667
0.3333333333333333 0.1666666666666667
0.8333333333333333 0.3333333333333333
0.8333333333333333 0.5
0.6666666666666666 0.3333333333333333
0.6666666666666666 0.5
0.5 0.2777777777777778
1 0.2777777777777778
0.5 0.2222222222222222
1 0.2222222222222222
0.8333333333333333 0.2222222222222222
0.8333333333333333 0.2777777777777778
0.6666666666666666 0.2222222222222222
0.6666666666666666 0.2777777777777778
0.1666666666666667 0.2777777777777778
0.3333333333333333 0.2777777777777778
0.1666666666666667 0.2222222222222222
0.3333333333333333 0.2222222222222222
0.2777777777777778 0.1666666666666667
0.2777777777777778 0.2222222222222222
0.2222222222222222 0.1666666666666667
0.2222222222222222 0.2222222222222222
0.1666666666666667 0.3148148148148148
0.3333333333333333 0.3148148148148148
0.1666666666666667 0.2962962962962963
0.3333333333333333 0.2962962962962963
0.8333333333333333 0.1666666666666667
0.6666666666666666 0.1666666666666667
0.9444444444444444 0.2222222222222222
0.9444444444444444 0.2777777777777778
0.8888888888888888 0.2222222222222222
0.8888888888888888 0.2777777777777778
0.3148148148148148 0.1666666666666667
0.3148148148148148 0.2222222222222222
0.2962962962962963 0.1666666666666667
0.2962962962962963 0.2222222222222222
0.611111111111111 0.3333333333333333
0.611111111111111 0.5
0.5555555555555556 0.3333333333333333
0.5555555555555556 0.5
0.1111111111111111 0
0.1111111111111111 0.5
0.05555555555555555 0
0.05555555555555555 0.5
0.05555555555555555 0.3333333333333333
0.1111111111111111 0.3333333333333333
0.05555555555555555 0.1666666666666667
0.1111111111111111 0.1666666666666667
0.3333333333333333 0.8333333333333333
0.3333333333333333 1
0.1666666666666667 0.8333333333333333
0.1666666666666667 1
0.7777777777777777 0.2222222222222222
0.7777777777777777 0.2777777777777778
0.7222222222222221 0.2222222222222222
0.7222222222222221 0.2777777777777778
0.7222222222222221 0.2592592592592592
0.7777777777777777 0.2592592592592592
0.7222222222222221 0.2407407407407407
0.7777777777777777 0.2407407407407407
0.5 0.1111111111111111
1 0.1111111111111111
0.5 0.05555555555555555
1 0.05555555555555555
0.1666666666666667 0.4444444444444444
0.3333333333333333 0.4444444444444444
0.1666666666666667 0.3888888888888888
0.3333333333333333 0.3888888888888888
0.6666666666666666 0.4444444444444444
0.8333333333333333 0.4444444444444444
0.6666666666666666 0.3888888888888888
0.8333333333333333 0.3888888888888888
0.8333333333333333 0
0.8333333333333333 0.05555555555555555
0.6666666666666666 0
0.6666666666666666 0.05555555555555555
0.6666666666666666 0.03703703703703703
0.8333333333333333 0.03703703703703703
0.6666666666666666 0.01851851851851852
0.8333333333333333 0.01851851851851852
0.2777777777777778 0.3888888888888888
0.2777777777777778 0.4444444444444444
0.2222222222222222 0.3888888888888888
0.2222222222222222 0.4444444444444444
0.1666666666666667 0.1111111111111111
0.3333333333333333 0.1111111111111111
0.1666666666666667 0.05555555555555555
0.3333333333333333 0.05555555555555555
0.308641975308642 0.1666666666666667
0.308641975308642 0.2222222222222222
0.3024691358024691 0.1666666666666667
0.3024691358024691 0.2222222222222222
0.7777777777777777 0.01851851851851852
0.7777777777777777 0.03703703703703703
0.7222222222222221 0.01851851851851852
0.7222222222222221 0.03703703703703703
0 0.7777777777777777
0.5 0.7777777777777777
0 0.7222222222222221
0.5 0.7222222222222221
0.7592592592592592 0.2222222222222222
0.7592592592592592 0.2407407407407407
0.7407407407407407 0.2222222222222222
0.7407407407407407 0.2407407407407407
0.5 0.03703703703703703
0.5 0.01851851851851852
0.5 0.2592592592592592
0.6666666666666666 0.2592592592592592
0.5 0.2407407407407407
0.6666666666666666 0.2407407407407407
0.4444444444444444 0.3333333333333333
0.4444444444444444 0.5
0.3888888888888888 0.3333333333333333
0.3888888888888888 0.5
0.3333333333333333 0.9444444444444444
0.5 0.9444444444444444
0.3333333333333333 0.8888888888888888
0.5 0.8888888888888888
0.611111111111111 0.2407407407407407
0.611111111111111 0.2592592592592592
0.5555555555555556 0.2407407407407407
0.5555555555555556 0.2592592592592592
0.6481481481481481 0.2407407407407407
0.6481481481481481 0.2592592592592592
0.6296296296296295 0.2407407407407407
0.6296296296296295 0.2592592592592592
0.6666666666666666 0.0308641975308642
0.7222222222222221 0.0308641975308642
0.6666666666666666 0.02469135802469136
0.7222222222222221 0.02469135802469136
0.2777777777777778 0.2962962962962963
0.2777777777777778 0.3148148148148148
0.2222222222222222 0.2962962962962963
0.2222222222222222 0.3148148148148148
0.2777777777777778 0.2777777777777778
0.2222222222222222 0.2777777777777778
0.3024691358024691 0.2037037037037037
0.308641975308642 0.2037037037037037
0.3024691358024691 0.1851851851851852
0.308641975308642 0.1851851851851852
0.611111111111111 0.2222222222222222
0.5555555555555556 0.2222222222222222
0.8333333333333333 0.2592592592592592
0.8888888888888888 0.2592592592592592
0.8333333333333333 0.2407407407407407
0.8888888888888888 0.2407407407407407
0.2222222222222222 0.308641975308642
0.2777777777777778 0.308641975308642
0.2222222222222222 0.3024691358024691
0.2777777777777778 0.3024691358024691
0.3703703703703703 0.3333333333333333
0.3703703703703703 0.5
0.3518518518518519 0.3333333333333333
0.3518518518518519 0.5
0.6296296296296295 0.2530864197530864
0.6481481481481481 0.2530864197530864
0.6296296296296295 0.2469135802469136
0.6481481481481481 0.2469135802469136
0.3148148148148148 0.2962962962962963
0.3148148148148148 0.3148148148148148
0.2962962962962963 0.2962962962962963
0.2962962962962963 0.3148148148148148
0.8333333333333333 0.2345679012345679
0.8888888888888888 0.2345679012345679
0.8333333333333333 0.228395061728395
0.8888888888888888 0.228395061728395
0.9444444444444444 0.2592592592592592
0.9444444444444444 0.2407407407407407
0.1666666666666667 0.03703703703703703
0.3333333333333333 0.03703703703703703
0.1666666666666667 0.01851851851851852
0.3333333333333333 0.01851851851851852
0.611111111111111 0.2777777777777778
0.5555555555555556 0.2777777777777778
0.345679012345679 0.3333333333333333
0.345679012345679 0.5
0.3395061728395061 0.3333333333333333
0.3395061728395061 0.5
0.03703703703703703 0
0.03703703703703703 0.5
0.01851851851851852 0
0.01851851851851852 0.5
0.3333333333333333 0.2037037037037037
0.5 0.2037037037037037
0.3333333333333333 0.1851851851851852
0.5 0.1851851851851852
0.611111111111111 0.4444444444444444
0.611111111111111 0.3888888888888888
0 0.7592592592592592
0.5 0.7592592592592592
0 0.7407407407407407
0.5 0.7407407407407407
0.5370370370370371 0.2222222222222222
0.5370370370370371 0.2407407407407407
0.5185185185185186 0.2222222222222222
0.5185185185185186 0.2407407407407407
0.6604938271604938 0.2407407407407407
0.6604938271604938 0.2592592592592592
0.654320987654321 0.2407407407407407
0.654320987654321 0.2592592592592592
0.2592592592592592 0.2222222222222222
0.2592592592592592 0.2777777777777778
0.2407407407407407 0.2222222222222222
0.2407407407407407 0.2777777777777778
0.7777777777777777 0.0308641975308642
0.7777777777777777 0.02469135802469136
0.7222222222222221 0.2345679012345679
0.7407407407407407 0.2345679012345679
0.7222222222222221 0.228395061728395
0.7407407407407407 0.228395061728395
0.8333333333333333 0.2716049382716049
0.8888888888888888 0.2716049382716049
0.8333333333333333 0.2654320987654321
0.8888888888888888 0.2654320987654321
0.7592592592592592 0.02469135802469136
0.7592592592592592 0.0308641975308642
0.7407407407407407 0.02469135802469136
0.7407407407407407 0.0308641975308642
0.2222222222222222 0.3004115226337449
0.2777777777777778 0.3004115226337449
0.2222222222222222 0.2983539094650206
0.2777777777777778 0.2983539094650206
0.8703703703703703 0.2592592592592592
0.8703703703703703 0.2654320987654321
0.8518518518518519 0.2592592592592592
0.8518518518518519 0.2654320987654321
0.1666666666666667 0.2037037037037037
0.2222222222222222 0.2037037037037037
0.1666666666666667 0.1851851851851852
0.2222222222222222 0.1851851851851852
0.5370370370370371 0.2592592592592592
0.5185185185185186 0.2592592592592592
0.2777777777777778 0.2037037037037037
0.2962962962962963 0.2037037037037037
0.2777777777777778 0.1851851851851852
0.2962962962962963 0.1851851851851852
0.5 0.01234567901234568
0.6666666666666666 0.01234567901234568
0.5 0.006172839506172839
0.6666666666666666 0.006172839506172839
1 0.03703703703703703
1 0.01851851851851852
0.8333333333333333 0.2037037037037037
1 0.2037037037037037
0.8333333333333333 0.1851851851851852
1 0.1851851851851852
0.3395061728395061 0.4444444444444444
0.3395061728395061 0.3888888888888888
0.9259259259259259 0.2592592592592592
0.9259259259259259 0.2777777777777778
0.9074074074074074 0.2592592592592592
0.9074074074074074 0.2777777777777778
0.2777777777777778 0.4259259259259259
0.3333333333333333 0.4259259259259259
0.2777777777777778 0.4074074074074073
0.3333333333333333 0.4074074074074073
1 0.2592592592592592
1 0.2407407407407407
0.5308641975308642 0.2222222222222222
0.5308641975308642 0.2407407407407407
0.5246913580246915 0.2222222222222222
0.5246913580246915 0.2407407407407407
0.9382716049382716 0.2592592592592592
0.9382716049382716 0.2777777777777778
0.9320987654320987 0.2592592592592592
0.9320987654320987 0.2777777777777778
0.2777777777777778 0
0.2777777777777778 0.01851851851851852
0.2222222222222222 0
0.2222222222222222 0.01851851851851852
0.9444444444444444 0.1851851851851852
0.9444444444444444 0.2037037037037037
0.8888888888888888 0.1851851851851852
0.8888888888888888 0.2037037037037037
0.1666666666666667 0.308641975308642
0.1666666666666667 0.3024691358024691
0.7592592592592592 0.2592592592592592
0.7592592592592592 0.2777777777777778
0.7407407407407407 0.2592592592592592
0.7407407407407407 0.2777777777777778
0.7530864197530863 0.2222222222222222
0.7530864197530863 0.2407407407407407
0.7469135802469136 0.2222222222222222
0.7469135802469136 0.2407407407407407
0.3148148148148148 0.3888888888888888
0.3148148148148148 0.4074074074074073
0.2962962962962963 0.3888888888888888
0.2962962962962963 0.4074074074074073
0.8333333333333333 0.0308641975308642
1 0.0308641975308642
0.8333333333333333 0.02469135802469136
1 0.02469135802469136
0.9012345679012346 0.2592592592592592
0.9012345679012346 0.2777777777777778
0.8950617283950617 0.2592592592592592
0.8950617283950617 0.2777777777777778
0.2777777777777778 0.3333333333333333
0.2222222222222222 0.3333333333333333
0.7222222222222221 0.2325102880658436
0.7407407407407407 0.2325102880658436
0.7222222222222221 0.2304526748971193
0.7407407407407407 0.2304526748971193
0.2592592592592592 0.1666666666666667
0.2407407407407407 0.1666666666666667
0.9814814814814815 0.2407407407407407
0.9814814814814815 0.2592592592592592
0.962962962962963 0.2407407407407407
0.962962962962963 0.2592592592592592
0.2777777777777778 0.5
0.2222222222222222 0.5
0.4444444444444444 0.8888888888888888
0.4444444444444444 0.9444444444444444
0.3888888888888888 0.8888888888888888
0.3888888888888888 0.9444444444444444
0.6604938271604938 0.2530864197530864
0.6666666666666666 0.2530864197530864
0.6604938271604938 0.2469135802469136
0.6666666666666666 0.2469135802469136
0.7345679012345678 0.228395061728395
0.7345679012345678 0.2304526748971193
0.728395061728395 0.228395061728395
0.728395061728395 0.2304526748971193
0.2777777777777778 0.419753086419753
0.3333333333333333 0.419753086419753
0.2777777777777778 0.4135802469135802
0.3333333333333333 0.4135802469135802
0.4444444444444444 0.2222222222222222
0.4444444444444444 0.2777777777777778
0.3888888888888888 0.2222222222222222
0.3888888888888888 0.2777777777777778
0.728395061728395 0.2297668038408779
0.7345679012345678 0.2297668038408779
0.728395061728395 0.2290809327846365
0.7345679012345678 0.2290809327846365
0.611111111111111 0.03703703703703703
0.611111111111111 0.05555555555555555
0.5555555555555556 0.03703703703703703
0.5555555555555556 0.05555555555555555
