MFEM NURBS mesh v1.0

# Square nurbs mesh with a sine fitted at its bottom edge

dimension
2

elements
1
1 3 0 1 2 3

boundary
0

edges
4
0 0 1
0 3 2
1 0 3
1 1 2

vertices
4
patches

# Patch 1 
knotvectors
2
2 9 0 0 0 0.142857 0.285714 0.428571 0.571429 0.714286 0.857143 1 1 1
2 9 0 0 0 0.142857 0.285714 0.428571 0.571429 0.714286 0.857143 1 1 1

dimension
2

controlpoints
-0.5 -0.5 1
-0.428571 -0.451612 1
-0.285714 -0.392434 1
-0.142857 -0.413692 1
-5.74627e-17 -0.5 1
0.142857 -0.586308 1
0.285714 -0.607566 1
0.428571 -0.548388 1
0.5 -0.5 1
-0.5 -0.428571 1
-0.428571 -0.383639 1
-0.285714 -0.328689 1
-0.142857 -0.348429 1
-5.33582e-17 -0.428571 1
0.142857 -0.508714 1
0.285714 -0.528454 1
0.428571 -0.473503 1
0.5 -0.428571 1
-0.5 -0.285714 1
-0.428571 -0.247695 1
-0.285714 -0.201198 1
-0.142857 -0.217901 1
-4.51493e-17 -0.285714 1
0.142857 -0.353527 1
0.285714 -0.370231 1
0.428571 -0.323734 1
0.5 -0.285714 1
-0.5 -0.142857 1
-0.428571 -0.11175 1
-0.285714 -0.0737075 1
-0.142857 -0.0873737 1
-3.69403e-17 -0.142857 1
0.142857 -0.198341 1
0.285714 -0.212007 1
0.428571 -0.173964 1
0.5 -0.142857 1
-0.5 0 1
-0.428571 0.0241941 1
-0.285714 0.0537831 1
-0.142857 0.0431538 1
-2.87314e-17 0 1
0.142857 -0.0431538 1
0.285714 -0.0537831 1
0.428571 -0.0241941 1
0.5 0 1
-0.5 0.142857 1
-0.428571 0.160139 1
-0.285714 0.181274 1
-0.142857 0.173681 1
-2.05224e-17 0.142857 1
0.142857 0.112033 1
0.285714 0.104441 1
0.428571 0.125576 1
0.5 0.142857 1
-0.5 0.285714 1
-0.428571 0.296083 1
-0.285714 0.308764 1
-0.142857 0.304209 1
-1.23134e-17 0.285714 1
0.142857 0.26722 1
0.285714 0.262664 1
0.428571 0.275345 1
0.5 0.285714 1
-0.5 0.428571 1
-0.428571 0.432028 1
-0.285714 0.436255 1
-0.142857 0.434736 1
-4.10448e-18 0.428571 1
0.142857 0.422407 1
0.285714 0.420888 1
0.428571 0.425115 1
0.5 0.428571 1
-0.5 0.5 1
-0.428571 0.5 1
-0.285714 0.5 1
-0.142857 0.5 1
0 0.5 1
0.142857 0.5 1
0.285714 0.5 1
0.428571 0.5 1
0.5 0.5 1
