MFEM mesh v1.0

#
# MFEM Geometry Types (see fem/geom.hpp):
#
# POINT       = 0
# SEGMENT     = 1
# TRIANGLE    = 2
# SQUARE      = 3
# TETRAHEDRON = 4
# CUBE        = 5
# PRISM       = 6
# PYRAMID     = 7
#

dimension
2

elements
128
0 9 0 18 19 66 68 67
0 9 6 20 18 69 71 70
0 9 7 19 20 72 74 73
0 9 18 20 19 71 74 68
0 9 1 21 22 75 77 76
0 9 8 23 21 78 80 79
0 9 6 22 23 81 83 82
0 9 21 23 22 80 83 77
0 9 4 24 25 84 86 85
0 9 7 26 24 87 89 88
0 9 8 25 26 90 92 91
0 9 24 26 25 89 92 86
0 9 6 23 20 82 93 69
0 9 8 26 23 91 94 78
0 9 7 20 26 73 95 87
0 9 23 26 20 94 95 93
0 9 1 27 21 96 97 75
0 9 9 28 27 98 100 99
0 9 8 21 28 79 102 101
0 9 27 28 21 100 102 97
0 9 2 29 30 103 105 104
0 9 10 31 29 106 108 107
0 9 9 30 31 109 111 110
0 9 29 31 30 108 111 105
0 9 4 25 32 85 113 112
0 9 8 33 25 114 115 90
0 9 10 32 33 116 118 117
0 9 25 33 32 115 118 113
0 9 9 31 28 110 119 98
0 9 10 33 31 117 120 106
0 9 8 28 33 101 121 114
0 9 31 33 28 120 121 119
0 9 2 34 29 122 123 103
0 9 11 35 34 124 126 125
0 9 10 29 35 107 128 127
0 9 34 35 29 126 128 123
0 9 3 36 37 129 131 130
0 9 12 38 36 132 134 133
0 9 11 37 38 135 137 136
0 9 36 38 37 134 137 131
0 9 4 32 39 112 139 138
0 9 10 40 32 140 141 116
0 9 12 39 40 142 144 143
0 9 32 40 39 141 144 139
0 9 11 38 35 136 145 124
0 9 12 40 38 143 146 132
0 9 10 35 40 127 147 140
0 9 38 40 35 146 147 145
0 9 3 41 36 148 149 129
0 9 13 42 41 150 152 151
0 9 12 36 42 133 154 153
0 9 41 42 36 152 154 149
0 9 0 19 43 67 156 155
0 9 7 44 19 157 158 72
0 9 13 43 44 159 161 160
0 9 19 44 43 158 161 156
0 9 4 39 24 138 162 84
0 9 12 45 39 163 164 142
0 9 7 24 45 88 166 165
0 9 39 45 24 164 166 162
0 9 13 44 42 160 167 150
0 9 7 45 44 165 168 157
0 9 12 42 45 153 169 163
0 9 44 45 42 168 169 167
0 9 1 22 46 76 171 170
0 9 6 47 22 172 173 81
0 9 14 46 47 174 176 175
0 9 22 47 46 173 176 171
0 9 0 48 18 177 178 66
0 9 15 49 48 179 181 180
0 9 6 18 49 70 183 182
0 9 48 49 18 181 183 178
0 9 5 50 51 184 186 185
0 9 14 52 50 187 189 188
0 9 15 51 52 190 192 191
0 9 50 52 51 189 192 186
0 9 6 49 47 182 193 172
0 9 15 52 49 191 194 179
0 9 14 47 52 175 195 187
0 9 49 52 47 194 195 193
0 9 2 30 53 104 197 196
0 9 9 54 30 198 199 109
0 9 16 53 54 200 202 201
0 9 30 54 53 199 202 197
0 9 1 46 27 170 203 96
0 9 14 55 46 204 205 174
0 9 9 27 55 99 207 206
0 9 46 55 27 205 207 203
0 9 5 56 50 208 209 184
0 9 16 57 56 210 212 211
0 9 14 50 57 188 214 213
0 9 56 57 50 212 214 209
0 9 9 55 54 206 215 198
0 9 14 57 55 213 216 204
0 9 16 54 57 201 217 210
0 9 55 57 54 216 217 215
0 9 3 37 58 130 219 218
0 9 11 59 37 220 221 135
0 9 17 58 59 222 224 223
0 9 37 59 58 221 224 219
0 9 2 53 34 196 225 122
0 9 16 60 53 226 227 200
0 9 11 34 60 125 229 228
0 9 53 60 34 227 229 225
0 9 5 61 56 230 231 208
0 9 17 62 61 232 234 233
0 9 16 56 62 211 236 235
0 9 61 62 56 234 236 231
0 9 11 60 59 228 237 220
0 9 16 62 60 235 238 226
0 9 17 59 62 223 239 232
0 9 60 62 59 238 239 237
0 9 0 43 48 155 240 177
0 9 13 63 43 241 242 159
0 9 15 48 63 180 244 243
0 9 43 63 48 242 244 240
0 9 3 58 41 218 245 148
0 9 17 64 58 246 247 222
0 9 13 41 64 151 249 248
0 9 58 64 41 247 249 245
0 9 5 51 61 185 250 230
0 9 15 65 51 251 252 190
0 9 17 61 65 233 254 253
0 9 51 65 61 252 254 250
0 9 13 64 63 248 255 241
0 9 17 65 64 253 256 246
0 9 15 63 65 243 257 251
0 9 64 65 63 256 257 255

boundary
0

vertices
258
3
1 0 0
0 1 0
-1 0 0
0 -1 0
0 0 1
0 0 -1
0.7071067811865476 0.7071067811865476 0
0.7071067811865476 0 0.7071067811865476
0 0.7071067811865476 0.7071067811865476
-0.7071067811865476 0.7071067811865476 0
-0.7071067811865476 0 0.7071067811865476
-0.7071067811865476 -0.7071067811865476 0
0 -0.7071067811865476 0.7071067811865476
0.7071067811865476 -0.7071067811865476 0
0 0.7071067811865476 -0.7071067811865476
0.7071067811865476 0 -0.7071067811865476
-0.7071067811865476 0 -0.7071067811865476
0 -0.7071067811865476 -0.7071067811865476
0.9238795325112867 0.3826834323650897 0
0.9238795325112867 0 0.3826834323650897
0.816496580927726 0.408248290463863 0.408248290463863
0 0.9238795325112867 0.3826834323650897
0.3826834323650897 0.9238795325112867 0
0.408248290463863 0.816496580927726 0.408248290463863
0.3826834323650897 0 0.9238795325112867
0 0.3826834323650897 0.9238795325112867
0.4082482904638631 0.4082482904638631 0.8164965809277261
-0.3826834323650897 0.9238795325112867 0
-0.408248290463863 0.816496580927726 0.408248290463863
-0.9238795325112867 0 0.3826834323650897
-0.9238795325112867 0.3826834323650897 0
-0.816496580927726 0.408248290463863 0.408248290463863
-0.3826834323650897 0 0.9238795325112867
-0.4082482904638631 0.4082482904638631 0.8164965809277261
-0.9238795325112867 -0.3826834323650897 0
-0.816496580927726 -0.408248290463863 0.408248290463863
0 -0.9238795325112867 0.3826834323650897
-0.3826834323650897 -0.9238795325112867 0
-0.408248290463863 -0.816496580927726 0.408248290463863
0 -0.3826834323650897 0.9238795325112867
-0.4082482904638631 -0.4082482904638631 0.8164965809277261
0.3826834323650897 -0.9238795325112867 0
0.408248290463863 -0.816496580927726 0.408248290463863
0.9238795325112867 -0.3826834323650897 0
0.816496580927726 -0.408248290463863 0.408248290463863
0.4082482904638631 -0.4082482904638631 0.8164965809277261
0 0.9238795325112867 -0.3826834323650897
0.408248290463863 0.816496580927726 -0.408248290463863
0.9238795325112867 0 -0.3826834323650897
0.816496580927726 0.408248290463863 -0.408248290463863
0 0.3826834323650897 -0.9238795325112867
0.3826834323650897 0 -0.9238795325112867
0.4082482904638631 0.4082482904638631 -0.8164965809277261
-0.9238795325112867 0 -0.3826834323650897
-0.816496580927726 0.408248290463863 -0.408248290463863
-0.408248290463863 0.816496580927726 -0.408248290463863
-0.3826834323650897 0 -0.9238795325112867
-0.4082482904638631 0.4082482904638631 -0.8164965809277261
0 -0.9238795325112867 -0.3826834323650897
-0.408248290463863 -0.816496580927726 -0.408248290463863
-0.816496580927726 -0.408248290463863 -0.408248290463863
0 -0.3826834323650897 -0.9238795325112867
-0.4082482904638631 -0.4082482904638631 -0.8164965809277261
0.816496580927726 -0.408248290463863 -0.408248290463863
0.408248290463863 -0.816496580927726 -0.408248290463863
0.4082482904638631 -0.4082482904638631 -0.8164965809277261
0.9822902577808736 0.1873655503788913 0
0.9822902577808736 0 0.1873655503788913
0.9596829822606673 0.1987568534155134 0.1987568534155134
0.7844645405527362 0.5883484054145521 0.196116135138184
0.8270715536040012 0.5620966511366738 0
0.892073813939941 0.4041824444308759 0.2020912222154379
0.8270715536040012 0 0.5620966511366738
0.7844645405527362 0.196116135138184 0.5883484054145521
0.892073813939941 0.2020912222154379 0.4041824444308759
0 0.9822902577808736 0.1873655503788913
0.1873655503788913 0.9822902577808736 0
0.1987568534155134 0.9596829822606673 0.1987568534155134
0.196116135138184 0.7844645405527362 0.5883484054145521
0 0.8270715536040012 0.5620966511366738
0.2020912222154379 0.892073813939941 0.4041824444308759
0.5620966511366738 0.8270715536040012 0
0.5883484054145521 0.7844645405527362 0.196116135138184
0.4041824444308759 0.892073813939941 0.2020912222154379
0.1873655503788913 0 0.9822902577808736
0 0.1873655503788913 0.9822902577808736
0.1987568534155134 0.1987568534155134 0.9596829822606673
0.5883484054145521 0.196116135138184 0.7844645405527362
0.5620966511366738 0 0.8270715536040012
0.4041824444308759 0.2020912222154379 0.892073813939941
0 0.5620966511366738 0.8270715536040012
0.196116135138184 0.5883484054145521 0.7844645405527362
0.2020912222154379 0.4041824444308759 0.892073813939941
0.6396021490668313 0.6396021490668313 0.4264014327112209
0.4264014327112209 0.6396021490668313 0.6396021490668313
0.6396021490668313 0.4264014327112209 0.6396021490668313
-0.1873655503788913 0.9822902577808736 0
-0.1987568534155134 0.9596829822606673 0.1987568534155134
-0.5883484054145521 0.7844645405527362 0.196116135138184
-0.5620966511366738 0.8270715536040012 0
-0.4041824444308759 0.892073813939941 0.2020912222154379
-0.196116135138184 0.7844645405527362 0.5883484054145521
-0.2020912222154379 0.892073813939941 0.4041824444308759
-0.9822902577808736 0 0.1873655503788913
-0.9822902577808736 0.1873655503788913 0
-0.9596829822606673 0.1987568534155134 0.1987568534155134
-0.7844645405527362 0.196116135138184 0.5883484054145521
-0.8270715536040012 0 0.5620966511366738
-0.892073813939941 0.2020912222154379 0.4041824444308759
-0.8270715536040012 0.5620966511366738 0
-0.7844645405527362 0.5883484054145521 0.196116135138184
-0.892073813939941 0.4041824444308759 0.2020912222154379
-0.1873655503788913 0 0.9822902577808736
-0.1987568534155134 0.1987568534155134 0.9596829822606673
-0.196116135138184 0.5883484054145521 0.7844645405527362
-0.2020912222154379 0.4041824444308759 0.892073813939941
-0.5620966511366738 0 0.8270715536040012
-0.5883484054145521 0.196116135138184 0.7844645405527362
-0.4041824444308759 0.2020912222154379 0.892073813939941
-0.6396021490668313 0.6396021490668313 0.4264014327112209
-0.6396021490668313 0.4264014327112209 0.6396021490668313
-0.4264014327112209 0.6396021490668313 0.6396021490668313
-0.9822902577808736 -0.1873655503788913 0
-0.9596829822606673 -0.1987568534155134 0.1987568534155134
-0.7844645405527362 -0.5883484054145521 0.196116135138184
-0.8270715536040012 -0.5620966511366738 0
-0.892073813939941 -0.4041824444308759 0.2020912222154379
-0.7844645405527362 -0.196116135138184 0.5883484054145521
-0.892073813939941 -0.2020912222154379 0.4041824444308759
0 -0.9822902577808736 0.1873655503788913
-0.1873655503788913 -0.9822902577808736 0
-0.1987568534155134 -0.9596829822606673 0.1987568534155134
-0.196116135138184 -0.7844645405527362 0.5883484054145521
0 -0.8270715536040012 0.5620966511366738
-0.2020912222154379 -0.892073813939941 0.4041824444308759
-0.5620966511366738 -0.8270715536040012 0
-0.5883484054145521 -0.7844645405527362 0.196116135138184
-0.4041824444308759 -0.892073813939941 0.2020912222154379
0 -0.1873655503788913 0.9822902577808736
-0.1987568534155134 -0.1987568534155134 0.9596829822606673
-0.5883484054145521 -0.196116135138184 0.7844645405527362
-0.4041824444308759 -0.2020912222154379 0.892073813939941
0 -0.5620966511366738 0.8270715536040012
-0.196116135138184 -0.5883484054145521 0.7844645405527362
-0.2020912222154379 -0.4041824444308759 0.892073813939941
-0.6396021490668313 -0.6396021490668313 0.4264014327112209
-0.4264014327112209 -0.6396021490668313 0.6396021490668313
-0.6396021490668313 -0.4264014327112209 0.6396021490668313
0.1873655503788913 -0.9822902577808736 0
0.1987568534155134 -0.9596829822606673 0.1987568534155134
0.5883484054145521 -0.7844645405527362 0.196116135138184
0.5620966511366738 -0.8270715536040012 0
0.4041824444308759 -0.892073813939941 0.2020912222154379
0.196116135138184 -0.7844645405527362 0.5883484054145521
0.2020912222154379 -0.892073813939941 0.4041824444308759
0.9822902577808736 -0.1873655503788913 0
0.9596829822606673 -0.1987568534155134 0.1987568534155134
0.7844645405527362 -0.196116135138184 0.5883484054145521
0.892073813939941 -0.2020912222154379 0.4041824444308759
0.8270715536040012 -0.5620966511366738 0
0.7844645405527362 -0.5883484054145521 0.196116135138184
0.892073813939941 -0.4041824444308759 0.2020912222154379
0.1987568534155134 -0.1987568534155134 0.9596829822606673
0.196116135138184 -0.5883484054145521 0.7844645405527362
0.2020912222154379 -0.4041824444308759 0.892073813939941
0.5883484054145521 -0.196116135138184 0.7844645405527362
0.4041824444308759 -0.2020912222154379 0.892073813939941
0.6396021490668313 -0.6396021490668313 0.4264014327112209
0.6396021490668313 -0.4264014327112209 0.6396021490668313
0.4264014327112209 -0.6396021490668313 0.6396021490668313
0 0.9822902577808736 -0.1873655503788913
0.1987568534155134 0.9596829822606673 -0.1987568534155134
0.5883484054145521 0.7844645405527362 -0.196116135138184
0.4041824444308759 0.892073813939941 -0.2020912222154379
0 0.8270715536040012 -0.5620966511366738
0.196116135138184 0.7844645405527362 -0.5883484054145521
0.2020912222154379 0.892073813939941 -0.4041824444308759
0.9822902577808736 0 -0.1873655503788913
0.9596829822606673 0.1987568534155134 -0.1987568534155134
0.7844645405527362 0.196116135138184 -0.5883484054145521
0.8270715536040012 0 -0.5620966511366738
0.892073813939941 0.2020912222154379 -0.4041824444308759
0.7844645405527362 0.5883484054145521 -0.196116135138184
0.892073813939941 0.4041824444308759 -0.2020912222154379
0 0.1873655503788913 -0.9822902577808736
0.1873655503788913 0 -0.9822902577808736
0.1987568534155134 0.1987568534155134 -0.9596829822606673
0.196116135138184 0.5883484054145521 -0.7844645405527362
0 0.5620966511366738 -0.8270715536040012
0.2020912222154379 0.4041824444308759 -0.892073813939941
0.5620966511366738 0 -0.8270715536040012
0.5883484054145521 0.196116135138184 -0.7844645405527362
0.4041824444308759 0.2020912222154379 -0.892073813939941
0.6396021490668313 0.6396021490668313 -0.4264014327112209
0.6396021490668313 0.4264014327112209 -0.6396021490668313
0.4264014327112209 0.6396021490668313 -0.6396021490668313
-0.9822902577808736 0 -0.1873655503788913
-0.9596829822606673 0.1987568534155134 -0.1987568534155134
-0.7844645405527362 0.5883484054145521 -0.196116135138184
-0.892073813939941 0.4041824444308759 -0.2020912222154379
-0.8270715536040012 0 -0.5620966511366738
-0.7844645405527362 0.196116135138184 -0.5883484054145521
-0.892073813939941 0.2020912222154379 -0.4041824444308759
-0.1987568534155134 0.9596829822606673 -0.1987568534155134
-0.196116135138184 0.7844645405527362 -0.5883484054145521
-0.2020912222154379 0.892073813939941 -0.4041824444308759
-0.5883484054145521 0.7844645405527362 -0.196116135138184
-0.4041824444308759 0.892073813939941 -0.2020912222154379
-0.1873655503788913 0 -0.9822902577808736
-0.1987568534155134 0.1987568534155134 -0.9596829822606673
-0.5883484054145521 0.196116135138184 -0.7844645405527362
-0.5620966511366738 0 -0.8270715536040012
-0.4041824444308759 0.2020912222154379 -0.892073813939941
-0.196116135138184 0.5883484054145521 -0.7844645405527362
-0.2020912222154379 0.4041824444308759 -0.892073813939941
-0.6396021490668313 0.6396021490668313 -0.4264014327112209
-0.4264014327112209 0.6396021490668313 -0.6396021490668313
-0.6396021490668313 0.4264014327112209 -0.6396021490668313
0 -0.9822902577808736 -0.1873655503788913
-0.1987568534155134 -0.9596829822606673 -0.1987568534155134
-0.5883484054145521 -0.7844645405527362 -0.196116135138184
-0.4041824444308759 -0.892073813939941 -0.2020912222154379
0 -0.8270715536040012 -0.5620966511366738
-0.196116135138184 -0.7844645405527362 -0.5883484054145521
-0.2020912222154379 -0.892073813939941 -0.4041824444308759
-0.9596829822606673 -0.1987568534155134 -0.1987568534155134
-0.7844645405527362 -0.196116135138184 -0.5883484054145521
-0.892073813939941 -0.2020912222154379 -0.4041824444308759
-0.7844645405527362 -0.5883484054145521 -0.196116135138184
-0.892073813939941 -0.4041824444308759 -0.2020912222154379
0 -0.1873655503788913 -0.9822902577808736
-0.1987568534155134 -0.1987568534155134 -0.9596829822606673
-0.196116135138184 -0.5883484054145521 -0.7844645405527362
0 -0.5620966511366738 -0.8270715536040012
-0.2020912222154379 -0.4041824444308759 -0.892073813939941
-0.5883484054145521 -0.196116135138184 -0.7844645405527362
-0.4041824444308759 -0.2020912222154379 -0.892073813939941
-0.6396021490668313 -0.6396021490668313 -0.4264014327112209
-0.6396021490668313 -0.4264014327112209 -0.6396021490668313
-0.4264014327112209 -0.6396021490668313 -0.6396021490668313
0.9596829822606673 -0.1987568534155134 -0.1987568534155134
0.7844645405527362 -0.5883484054145521 -0.196116135138184
0.892073813939941 -0.4041824444308759 -0.2020912222154379
0.7844645405527362 -0.196116135138184 -0.5883484054145521
0.892073813939941 -0.2020912222154379 -0.4041824444308759
0.1987568534155134 -0.9596829822606673 -0.1987568534155134
0.196116135138184 -0.7844645405527362 -0.5883484054145521
0.2020912222154379 -0.892073813939941 -0.4041824444308759
0.5883484054145521 -0.7844645405527362 -0.196116135138184
0.4041824444308759 -0.892073813939941 -0.2020912222154379
0.1987568534155134 -0.1987568534155134 -0.9596829822606673
0.5883484054145521 -0.196116135138184 -0.7844645405527362
0.4041824444308759 -0.2020912222154379 -0.892073813939941
0.196116135138184 -0.5883484054145521 -0.7844645405527362
0.2020912222154379 -0.4041824444308759 -0.892073813939941
0.6396021490668313 -0.6396021490668313 -0.4264014327112209
0.4264014327112209 -0.6396021490668313 -0.6396021490668313
0.6396021490668313 -0.4264014327112209 -0.6396021490668313
