MFEM mesh v1.0

#
# MFEM Geometry Types (see fem/geom.hpp):
#
# POINT       = 0
# SEGMENT     = 1
# TRIANGLE    = 2
# SQUARE      = 3
# TETRAHEDRON = 4
# CUBE        = 5
# PRISM       = 6
# PYRAMID     = 7
#

dimension
3

elements
8
1 6 0 1 2 3 4 5
1 6 3 4 5 6 7 8
1 6 6 7 8 9 10 11
1 6 9 10 11 12 13 14
1 6 12 13 14 15 16 17
1 6 15 16 17 18 19 20
1 6 18 19 20 21 22 23
1 6 21 22 23 0 1 2

boundary
24
1 3 0 1 4 3
1 3 1 2 5 4
1 3 2 0 3 5
1 3 3 4 7 6
1 3 4 5 8 7
1 3 5 3 6 8
1 3 6 7 10 9
1 3 7 8 11 10
1 3 8 6 9 11
1 3 9 10 13 12
1 3 10 11 14 13
1 3 11 9 12 14
1 3 12 13 16 15
1 3 13 14 17 16
1 3 14 12 15 17
1 3 15 16 19 18
1 3 16 17 20 19
1 3 17 15 18 20
1 3 18 19 22 21
1 3 19 20 23 22
1 3 20 18 21 23
1 3 21 22 1 0
1 3 22 23 2 1
1 3 23 21 0 2

vertices
24

nodes
FiniteElementSpace
FiniteElementCollection: H1_3D_P3
VDim: 3
Ordering: 1

0.8 0 0
1.1 0 0.1732050807568877
1.1 0 -0.1732050807568877
0.5656854249492381 0.5656854249492381 0
0.7778174593052024 0.7778174593052024 0.1732050807568877
0.7778174593052024 0.7778174593052024 -0.1732050807568877
4.898587196589413e-17 0.8 0
6.735557395310444e-17 1.1 0.1732050807568877
6.735557395310444e-17 1.1 -0.1732050807568877
-0.565685424949238 0.5656854249492381 0
-0.7778174593052023 0.7778174593052024 0.1732050807568877
-0.7778174593052023 0.7778174593052024 -0.1732050807568877
-0.8 9.797174393178826e-17 0
-1.1 1.347111479062089e-16 0.1732050807568877
-1.1 1.347111479062089e-16 -0.1732050807568877
-0.5656854249492381 -0.565685424949238 0
-0.7778174593052025 -0.7778174593052023 0.1732050807568877
-0.7778174593052025 -0.7778174593052023 -0.1732050807568877
-1.469576158976824e-16 -0.8 0
-2.020667218593133e-16 -1.1 0.1732050807568877
-2.020667218593133e-16 -1.1 -0.1732050807568877
0.5656854249492379 -0.5656854249492381 0
0.7778174593052022 -0.7778174593052025 0.1732050807568877
0.7778174593052022 -0.7778174593052025 -0.1732050807568877
0.8829179606750063 0 0.0478727069163697
1.017082039324994 0 0.125332373840518
1.1 0 0.07745966692414832
1.1 0 -0.07745966692414832
0.8829179606750063 0 -0.0478727069163697
1.017082039324994 0 -0.125332373840518
0.6243172772246944 0.6243172772246944 0.0478727069163697
0.7191856070297459 0.7191856070297459 0.125332373840518
0.7778174593052024 0.7778174593052024 0.07745966692414832
0.7778174593052024 0.7778174593052024 -0.07745966692414832
0.6243172772246944 0.6243172772246944 -0.0478727069163697
0.7191856070297459 0.7191856070297459 -0.125332373840518
0.7812246364659408 0.1723022558722278 0
0.6742453316160542 0.4305731445340702 0
1.074183875140669 0.2369156018243132 0.1732050807568877
0.9270873309720744 0.5920380737343466 0.1732050807568877
1.074183875140669 0.2369156018243132 -0.1732050807568877
0.9270873309720744 0.5920380737343466 -0.1732050807568877
5.406313272251776e-17 0.8829179606750063 0.0478727069163697
6.22783131964808e-17 1.017082039324994 0.125332373840518
6.735557395310444e-17 1.1 0.07745966692414832
6.735557395310444e-17 1.1 -0.07745966692414832
5.406313272251776e-17 0.8829179606750063 -0.0478727069163697
6.22783131964808e-17 1.017082039324994 -0.125332373840518
0.4305731445340704 0.674245331616054 0
0.1723022558722277 0.7812246364659408 0
0.5920380737343468 0.9270873309720743 0.1732050807568877
0.2369156018243131 1.074183875140669 0.1732050807568877
0.5920380737343468 0.9270873309720743 -0.1732050807568877
0.2369156018243131 1.074183875140669 -0.1732050807568877
-0.6243172772246944 0.6243172772246944 0.0478727069163697
-0.7191856070297458 0.7191856070297459 0.125332373840518
-0.7778174593052023 0.7778174593052024 0.07745966692414832
-0.7778174593052023 0.7778174593052024 -0.07745966692414832
-0.6243172772246944 0.6243172772246944 -0.0478727069163697
-0.7191856070297458 0.7191856070297459 -0.125332373840518
-0.1723022558722277 0.7812246364659409 0
-0.4305731445340701 0.6742453316160542 0
-0.236915601824313 1.074183875140669 0.1732050807568877
-0.5920380737343465 0.9270873309720744 0.1732050807568877
-0.236915601824313 1.074183875140669 -0.1732050807568877
-0.5920380737343465 0.9270873309720744 -0.1732050807568877
-0.8829179606750063 1.081262654450355e-16 0.0478727069163697
-1.017082039324994 1.245566263929616e-16 0.125332373840518
-1.1 1.347111479062089e-16 0.07745966692414832
-1.1 1.347111479062089e-16 -0.07745966692414832
-0.8829179606750063 1.081262654450355e-16 -0.0478727069163697
-1.017082039324994 1.245566263929616e-16 -0.125332373840518
-0.6742453316160538 0.4305731445340706 0
-0.7812246364659409 0.1723022558722276 0
-0.9270873309720741 0.592038073734347 0.1732050807568877
-1.074183875140669 0.236915601824313 0.1732050807568877
-0.9270873309720741 0.592038073734347 -0.1732050807568877
-1.074183875140669 0.236915601824313 -0.1732050807568877
-0.6243172772246945 -0.6243172772246944 0.0478727069163697
-0.719185607029746 -0.7191856070297458 0.125332373840518
-0.7778174593052025 -0.7778174593052023 0.07745966692414832
-0.7778174593052025 -0.7778174593052023 -0.07745966692414832
-0.6243172772246945 -0.6243172772246944 -0.0478727069163697
-0.719185607029746 -0.7191856070297458 -0.125332373840518
-0.7812246364659409 -0.1723022558722274 0
-0.674245331616054 -0.4305731445340704 0
-1.074183875140669 -0.2369156018243127 0.1732050807568877
-0.9270873309720743 -0.5920380737343468 0.1732050807568877
-1.074183875140669 -0.2369156018243127 -0.1732050807568877
-0.9270873309720743 -0.5920380737343468 -0.1732050807568877
-1.621893981675533e-16 -0.8829179606750063 0.0478727069163697
-1.868349395894424e-16 -1.017082039324994 0.125332373840518
-2.020667218593133e-16 -1.1 0.07745966692414832
-2.020667218593133e-16 -1.1 -0.07745966692414832
-1.621893981675533e-16 -0.8829179606750063 -0.0478727069163697
-1.868349395894424e-16 -1.017082039324994 -0.125332373840518
-0.43057314453407 -0.6742453316160543 0
-0.1723022558722284 -0.7812246364659408 0
-0.5920380737343464 -0.9270873309720746 0.1732050807568877
-0.236915601824314 -1.074183875140668 0.1732050807568877
-0.5920380737343464 -0.9270873309720746 -0.1732050807568877
-0.236915601824314 -1.074183875140668 -0.1732050807568877
0.6243172772246943 -0.6243172772246945 0.0478727069163697
0.7191856070297457 -0.719185607029746 0.125332373840518
0.7778174593052022 -0.7778174593052025 0.07745966692414832
0.7778174593052022 -0.7778174593052025 -0.07745966692414832
0.6243172772246943 -0.6243172772246945 -0.0478727069163697
0.7191856070297457 -0.719185607029746 -0.125332373840518
0.1723022558722274 -0.7812246364659409 0
0.4305731445340698 -0.6742453316160544 0
0.2369156018243126 -1.074183875140669 0.1732050807568877
0.5920380737343459 -0.9270873309720747 0.1732050807568877
0.2369156018243126 -1.074183875140669 -0.1732050807568877
0.5920380737343459 -0.9270873309720747 -0.1732050807568877
0.7812246364659409 -0.1723022558722277 0
0.6742453316160538 -0.4305731445340706 0
1.074183875140669 -0.2369156018243131 0.1732050807568877
0.9270873309720741 -0.5920380737343471 0.1732050807568877
1.074183875140669 -0.2369156018243131 -0.1732050807568877
0.9270873309720741 -0.5920380737343471 -0.1732050807568877
1 0 0
0.7071067811865476 0.7071067811865476 0
0.862196578571977 0.1901609454680131 0.0478727069163697
0.9932119330346324 0.2190569122285279 0.125332373840518
0.7441291414813622 0.4752009533668075 0.0478727069163697
0.8572035211067662 0.5474102649016093 0.125332373840518
1.074183875140669 0.2369156018243132 0.07745966692414832
1.074183875140669 0.2369156018243132 -0.07745966692414832
0.9270873309720744 0.5920380737343466 0.07745966692414832
0.9270873309720744 0.5920380737343466 -0.07745966692414832
0.9932119330346324 0.2190569122285279 -0.125332373840518
0.862196578571977 0.1901609454680131 -0.0478727069163697
0.8572035211067662 0.5474102649016093 -0.125332373840518
0.7441291414813622 0.4752009533668075 -0.0478727069163697
6.123233995736766e-17 1 0
0.4752009533668077 0.7441291414813621 0.0478727069163697
0.5474102649016095 0.8572035211067661 0.125332373840518
0.190160945468013 0.862196578571977 0.0478727069163697
0.2190569122285278 0.9932119330346324 0.125332373840518
0.5920380737343468 0.9270873309720743 0.07745966692414832
0.5920380737343468 0.9270873309720743 -0.07745966692414832
0.2369156018243131 1.074183875140669 0.07745966692414832
0.2369156018243131 1.074183875140669 -0.07745966692414832
0.5474102649016095 0.8572035211067661 -0.125332373840518
0.4752009533668077 0.7441291414813621 -0.0478727069163697
0.2190569122285278 0.9932119330346324 -0.125332373840518
0.190160945468013 0.862196578571977 -0.0478727069163697
-0.7071067811865475 0.7071067811865476 0
-0.190160945468013 0.8621965785719771 0.0478727069163697
-0.2190569122285277 0.9932119330346325 0.125332373840518
-0.4752009533668073 0.7441291414813622 0.0478727069163697
-0.5474102649016092 0.8572035211067662 0.125332373840518
-0.236915601824313 1.074183875140669 0.07745966692414832
-0.236915601824313 1.074183875140669 -0.07745966692414832
-0.5920380737343465 0.9270873309720744 0.07745966692414832
-0.5920380737343465 0.9270873309720744 -0.07745966692414832
-0.2190569122285277 0.9932119330346325 -0.125332373840518
-0.190160945468013 0.8621965785719771 -0.0478727069163697
-0.5474102649016092 0.8572035211067662 -0.125332373840518
-0.4752009533668073 0.7441291414813622 -0.0478727069163697
-1 1.224646799147353e-16 0
-0.7441291414813619 0.4752009533668078 0.0478727069163697
-0.8572035211067659 0.5474102649016097 0.125332373840518
-0.8621965785719771 0.1901609454680129 0.0478727069163697
-0.9932119330346325 0.2190569122285277 0.125332373840518
-0.9270873309720741 0.592038073734347 0.07745966692414832
-0.9270873309720741 0.592038073734347 -0.07745966692414832
-1.074183875140669 0.236915601824313 0.07745966692414832
-1.074183875140669 0.236915601824313 -0.07745966692414832
-0.8572035211067659 0.5474102649016097 -0.125332373840518
-0.7441291414813619 0.4752009533668078 -0.0478727069163697
-0.9932119330346325 0.2190569122285277 -0.125332373840518
-0.8621965785719771 0.1901609454680129 -0.0478727069163697
-0.7071067811865477 -0.7071067811865475 0
-0.8621965785719771 -0.1901609454680127 0.0478727069163697
-0.9932119330346325 -0.2190569122285274 0.125332373840518
-0.7441291414813621 -0.4752009533668077 0.0478727069163697
-0.8572035211067661 -0.5474102649016095 0.125332373840518
-1.074183875140669 -0.2369156018243127 0.07745966692414832
-1.074183875140669 -0.2369156018243127 -0.07745966692414832
-0.9270873309720743 -0.5920380737343468 0.07745966692414832
-0.9270873309720743 -0.5920380737343468 -0.07745966692414832
-0.9932119330346325 -0.2190569122285274 -0.125332373840518
-0.8621965785719771 -0.1901609454680127 -0.0478727069163697
-0.8572035211067661 -0.5474102649016095 -0.125332373840518
-0.7441291414813621 -0.4752009533668077 -0.0478727069163697
-1.83697019872103e-16 -1 0
-0.4752009533668073 -0.7441291414813624 0.0478727069163697
-0.547410264901609 -0.8572035211067665 0.125332373840518
-0.1901609454680137 -0.8621965785719768 0.0478727069163697
-0.2190569122285286 -0.9932119330346323 0.125332373840518
-0.5920380737343464 -0.9270873309720746 0.07745966692414832
-0.5920380737343464 -0.9270873309720746 -0.07745966692414832
-0.236915601824314 -1.074183875140668 0.07745966692414832
-0.236915601824314 -1.074183875140668 -0.07745966692414832
-0.547410264901609 -0.8572035211067665 -0.125332373840518
-0.4752009533668073 -0.7441291414813624 -0.0478727069163697
-0.2190569122285286 -0.9932119330346323 -0.125332373840518
-0.1901609454680137 -0.8621965785719768 -0.0478727069163697
0.7071067811865474 -0.7071067811865477 0
0.1901609454680126 -0.8621965785719771 0.0478727069163697
0.2190569122285274 -0.9932119330346325 0.125332373840518
0.475200953366807 -0.7441291414813626 0.0478727069163697
0.5474102649016087 -0.8572035211067666 0.125332373840518
0.2369156018243126 -1.074183875140669 0.07745966692414832
0.2369156018243126 -1.074183875140669 -0.07745966692414832
0.5920380737343459 -0.9270873309720747 0.07745966692414832
0.5920380737343459 -0.9270873309720747 -0.07745966692414832
0.2190569122285274 -0.9932119330346325 -0.125332373840518
0.1901609454680126 -0.8621965785719771 -0.0478727069163697
0.5474102649016087 -0.8572035211067666 -0.125332373840518
0.475200953366807 -0.7441291414813626 -0.0478727069163697
0.7441291414813619 -0.475200953366808 0.0478727069163697
0.8572035211067659 -0.5474102649016098 0.125332373840518
0.8621965785719771 -0.190160945468013 0.0478727069163697
0.9932119330346325 -0.2190569122285278 0.125332373840518
0.9270873309720741 -0.5920380737343471 0.07745966692414832
0.9270873309720741 -0.5920380737343471 -0.07745966692414832
1.074183875140669 -0.2369156018243131 0.07745966692414832
1.074183875140669 -0.2369156018243131 -0.07745966692414832
0.8572035211067659 -0.5474102649016098 -0.125332373840518
0.7441291414813619 -0.475200953366808 -0.0478727069163697
0.9932119330346325 -0.2190569122285278 -0.125332373840518
0.8621965785719771 -0.190160945468013 -0.0478727069163697
0.9765307955824259 0.2153778198402847 0
0.8428066645200676 0.5382164306675877 0
0.538216430667588 0.8428066645200675 0
0.2153778198402847 0.9765307955824259 0
-0.2153778198402846 0.9765307955824261 0
-0.5382164306675876 0.8428066645200676 0
-0.8428066645200673 0.5382164306675882 0
-0.9765307955824261 0.2153778198402845 0
-0.9765307955824261 -0.2153778198402843 0
-0.8428066645200675 -0.538216430667588 0
-0.5382164306675875 -0.8428066645200678 0
-0.2153778198402855 -0.9765307955824258 0
0.2153778198402842 -0.9765307955824261 0
0.5382164306675872 -0.8428066645200679 0
0.8428066645200673 -0.5382164306675883 0
0.9765307955824261 -0.2153778198402846 0
