MFEM mesh v1.0

#
# MFEM Geometry Types (see fem/geom.hpp):
#
# POINT       = 0
# SEGMENT     = 1
# TRIANGLE    = 2
# SQUARE      = 3
# TETRAHEDRON = 4
# CUBE        = 5
# PRISM       = 6
# PYRAMID     = 7
#

dimension
3

elements
3
1 5 0 1 3 2 4 5 7 6
1 5 4 5 7 6 8 9 11 10
1 5 8 9 11 10 3 2 0 1

boundary
12
5 3 0 4 6 2
5 3 4 8 10 6
5 3 8 3 1 10
3 3 1 3 7 5
3 3 5 7 11 9
3 3 9 11 0 2
2 3 0 1 5 4
2 3 4 5 9 8
2 3 8 9 2 3
4 3 2 6 7 3
4 3 6 10 11 7
4 3 10 1 0 11

vertices
12

nodes
FiniteElementSpace
FiniteElementCollection: L2_T1_3D_P3
VDim: 3
Ordering: 1

0 0 0
0.2763932022500211 0 0
0.7236067977499789 0 0
1 0 0
0 0.2763932022500211 0
0.2763932022500211 0.2763932022500211 0
0.7236067977499789 0.2763932022500211 0
1 0.2763932022500211 0
0 0.7236067977499789 0
0.2763932022500211 0.7236067977499789 0
0.7236067977499789 0.7236067977499789 0
1 0.7236067977499789 0
0 1 0
0.2763932022500211 1 0
0.7236067977499789 1 0
1 1 0
0.1635047857677128 -0.121909133876298 0.2763932022500211
0.4284012325917886 -0.04302266665915971 0.2763932022500211
0.8570126870522222 0.0846183185505745 0.2763932022500211
1.121909133876298 0.1635047857677128 0.2763932022500211
0.08461831855057447 0.1429873129477778 0.2763932022500211
0.3495147653746503 0.2218737801649161 0.2763932022500211
0.7781262198350838 0.3495147653746503 0.2763932022500211
1.04302266665916 0.4284012325917886 0.2763932022500211
-0.04302266665915969 0.5715987674082114 0.2763932022500211
0.2218737801649162 0.6504852346253496 0.2763932022500211
0.6504852346253496 0.7781262198350838 0.2763932022500211
0.9153816814494256 0.8570126870522222 0.2763932022500211
-0.121909133876298 0.8364952142322872 0.2763932022500211
0.1429873129477778 0.9153816814494256 0.2763932022500211
0.5715987674082114 1.04302266665916 0.2763932022500211
0.8364952142322872 1.121909133876298 0.2763932022500211
0.4804588368388986 -0.206836715898595 0.7236067977499789
0.6812247448757867 -0.01687289718528096 0.7236067977499789
1.006070807861707 0.2904950181255845 0.7236067977499789
1.206836715898595 0.4804588368388987 0.7236067977499789
0.2904950181255845 -0.006070807861707023 0.7236067977499789
0.4912609261624725 0.183893010851607 0.7236067977499788
0.8161069891483929 0.4912609261624724 0.7236067977499788
1.016872897185281 0.6812247448757867 0.7236067977499789
-0.01687289718528093 0.3187752551242133 0.7236067977499789
0.1838930108516071 0.5087390738375275 0.7236067977499789
0.5087390738375276 0.8161069891483929 0.7236067977499788
0.7095049818744155 1.006070807861707 0.7236067977499789
-0.206836715898595 0.5195411631611013 0.7236067977499789
-0.00607080786170705 0.7095049818744155 0.7236067977499789
0.3187752551242134 1.016872897185281 0.7236067977499789
0.5195411631611013 1.206836715898595 0.7236067977499789
0.6830127018922192 -0.1830127018922194 1
0.8212093030172298 0.05635083268962915 1
1.044816100767209 0.4436491673103708 1
1.183012701892219 0.6830127018922192 1
0.4436491673103707 -0.04481610076720879 1
0.5818457684353813 0.1945474338146397 1
0.8054525661853602 0.5818457684353814 1
0.9436491673103709 0.8212093030172298 1
0.05635083268962915 0.1787906969827702 1
0.1945474338146397 0.4181542315646187 1
0.4181542315646187 0.8054525661853603 1
0.5563508326896291 1.044816100767209 1
-0.1830127018922194 0.3169872981077808 1
-0.04481610076720877 0.5563508326896293 1
0.1787906969827702 0.9436491673103709 1
0.3169872981077807 1.183012701892219 1
0.6830127018922192 -0.1830127018922194 1
0.8212093030172298 0.05635083268962915 1
1.044816100767209 0.4436491673103708 1
1.183012701892219 0.6830127018922192 1
0.4436491673103707 -0.04481610076720879 1
0.5818457684353813 0.1945474338146397 1
0.8054525661853602 0.5818457684353814 1
0.9436491673103709 0.8212093030172298 1
0.05635083268962915 0.1787906969827702 1
0.1945474338146397 0.4181542315646187 1
0.4181542315646187 0.8054525661853603 1
0.5563508326896291 1.044816100767209 1
-0.1830127018922194 0.3169872981077808 1
-0.04481610076720877 0.5563508326896293 1
0.1787906969827702 0.9436491673103709 1
0.3169872981077807 1.183012701892219 1
0.8703415016663077 -0.1023679707151968 1.276393202250021
0.9344720404534957 0.1664823152152559 1.276393202250021
1.038237431928009 0.6014912157358553 1.276393202250021
1.102367970715197 0.8703415016663077 1.276393202250021
0.6014912157358555 -0.03823743192800889 1.276393202250021
0.6656217545230432 0.2306128540024435 1.276393202250021
0.7693871459975565 0.665621754523043 1.276393202250021
0.8335176847847442 0.9344720404534957 1.276393202250021
0.1664823152152557 0.06552795954650442 1.276393202250021
0.2306128540024436 0.3343782454769568 1.276393202250021
0.334378245476957 0.7693871459975563 1.276393202250021
0.3985087842641448 1.038237431928009 1.276393202250021
-0.1023679707151968 0.1296584983336923 1.276393202250021
-0.03823743192800894 0.3985087842641447 1.276393202250021
0.06552795954650426 0.8335176847847442 1.276393202250021
0.1296584983336923 1.102367970715197 1.276393202250021
1.102367970715197 0.1296584983336922 1.723606797749979
1.038237431928009 0.3985087842641444 1.723606797749979
0.9344720404534957 0.8335176847847441 1.723606797749979
0.8703415016663079 1.102367970715197 1.723606797749979
0.8335176847847441 0.06552795954650424 1.723606797749979
0.7693871459975564 0.3343782454769567 1.723606797749979
0.6656217545230433 0.7693871459975563 1.723606797749979
0.6014912157358556 1.038237431928009 1.723606797749979
0.3985087842641444 -0.03823743192800887 1.723606797749979
0.3343782454769567 0.2306128540024436 1.723606797749979
0.2306128540024436 0.6656217545230432 1.723606797749979
0.1664823152152559 0.9344720404534957 1.723606797749979
0.1296584983336922 -0.1023679707151967 1.723606797749979
0.06552795954650426 0.1664823152152559 1.723606797749979
-0.03823743192800888 0.6014912157358556 1.723606797749979
-0.1023679707151967 0.8703415016663079 1.723606797749979
1.183012701892219 0.3169872981077805 2
1.044816100767209 0.556350832689629 2
0.8212093030172299 0.9436491673103707 2
0.6830127018922194 1.183012701892219 2
0.9436491673103707 0.1787906969827701 2
0.8054525661853602 0.4181542315646186 2
0.5818457684353814 0.8054525661853602 2
0.443649167310371 1.044816100767209 2
0.556350832689629 -0.04481610076720877 2
0.4181542315646185 0.1945474338146397 2
0.1945474338146398 0.5818457684353815 2
0.05635083268962929 0.8212093030172301 2
0.3169872981077805 -0.1830127018922192 2
0.17879069698277 0.05635083268962926 2
-0.04481610076720877 0.443649167310371 2
-0.1830127018922192 0.6830127018922195 2
1.183012701892219 0.3169872981077805 2
1.044816100767209 0.556350832689629 2
0.8212093030172299 0.9436491673103707 2
0.6830127018922194 1.183012701892219 2
0.9436491673103707 0.1787906969827701 2
0.8054525661853602 0.4181542315646186 2
0.5818457684353814 0.8054525661853602 2
0.443649167310371 1.044816100767209 2
0.556350832689629 -0.04481610076720877 2
0.4181542315646185 0.1945474338146397 2
0.1945474338146398 0.5818457684353815 2
0.05635083268962929 0.8212093030172301 2
0.3169872981077805 -0.1830127018922192 2
0.17879069698277 0.05635083268962926 2
-0.04481610076720877 0.443649167310371 2
-0.1830127018922192 0.6830127018922195 2
1.206836715898595 0.5195411631611011 2.276393202250021
1.006070807861707 0.7095049818744155 2.276393202250021
0.6812247448757869 1.016872897185281 2.276393202250021
0.4804588368388989 1.206836715898595 2.276393202250021
1.016872897185281 0.3187752551242133 2.276393202250021
0.816106989148393 0.5087390738375274 2.276393202250021
0.4912609261624726 0.8161069891483929 2.276393202250021
0.2904950181255845 1.006070807861707 2.276393202250021
0.7095049818744152 -0.006070807861707134 2.276393202250021
0.5087390738375274 0.1838930108516071 2.276393202250021
0.1838930108516072 0.4912609261624727 2.276393202250021
-0.0168728971852809 0.6812247448757869 2.276393202250021
0.5195411631611011 -0.2068367158985951 2.276393202250021
0.3187752551242131 -0.0168728971852809 2.276393202250021
-0.006070807861707106 0.2904950181255845 2.276393202250021
-0.2068367158985951 0.4804588368388989 2.276393202250021
1.121909133876298 0.8364952142322869 2.723606797749979
0.8570126870522224 0.9153816814494253 2.723606797749979
0.4284012325917889 1.04302266665916 2.723606797749979
0.1635047857677131 1.121909133876298 2.723606797749979
1.04302266665916 0.5715987674082111 2.723606797749979
0.778126219835084 0.6504852346253496 2.723606797749979
0.3495147653746505 0.7781262198350839 2.723606797749979
0.08461831855057461 0.8570126870522224 2.723606797749979
0.9153816814494253 0.1429873129477776 2.723606797749979
0.6504852346253499 0.2218737801649162 2.723606797749979
0.2218737801649161 0.3495147653746504 2.723606797749979
-0.04302266665915971 0.4284012325917889 2.723606797749979
0.8364952142322869 -0.1219091338762982 2.723606797749979
0.5715987674082111 -0.04302266665915971 2.723606797749979
0.1429873129477776 0.08461831855057456 2.723606797749979
-0.1219091338762982 0.1635047857677131 2.723606797749979
1 1 3
0.723606797749979 1 3
0.2763932022500211 1 3
6.123233995736766e-17 1 3
1 0.7236067977499789 3
0.7236067977499789 0.7236067977499789 3
0.2763932022500211 0.7236067977499789 3
2.738393491321013e-17 0.723606797749979 3
1 0.276393202250021 3
0.7236067977499789 0.2763932022500211 3
0.276393202250021 0.2763932022500212 3
-2.738393491321013e-17 0.2763932022500212 3
0.9999999999999999 -5.551115123125783e-17 3
0.7236067977499788 0 3
0.276393202250021 0 3
-6.123233995736766e-17 1.110223024625157e-16 3
