MFEM mesh v1.0

#
# MFEM Geometry Types (see fem/geom.hpp):
#
# POINT       = 0
# SEGMENT     = 1
# TRIANGLE    = 2
# SQUARE      = 3
# TETRAHEDRON = 4
# CUBE        = 5
# PRISM       = 6
# PYRAMID     = 7
#

dimension
3

elements
1
1 5 0 1 3 2 4 5 7 6

boundary
6
1 3 0 2 3 1
6 3 4 5 7 6
5 3 0 4 6 2
3 3 1 3 7 5
2 3 0 1 5 4
4 3 2 6 7 3

vertices
8

nodes
FiniteElementSpace
FiniteElementCollection: H1_3D_P2
VDim: 3
Ordering: 1

-0.0699325 0.173147 -0.166667
-0.0956709 0.23097 -0.166667
-9.57142e-17 0.25 -0.166667
-1.28298e-16 0.196129 -0.166667
-0.0699325 0.173147 -0.333333
-0.0956709 0.23097 -0.333333
-4.02031e-17 0.25 -0.333333
-6.84175e-17 0.196129 -0.333333
-0.0828017 0.202058 -0.166667
-0.0587592 0.266857 -0.166667
-1.12006e-16 0.223065 -0.166667
-0.0404281 0.197824 -0.166667
-0.0828017 0.202058 -0.333333
-0.0587592 0.266857 -0.333333
-5.43103e-17 0.223065 -0.333333
-0.0404281 0.197824 -0.333333
-0.0699325 0.173147 -0.25
-0.0956709 0.23097 -0.25
-6.79586e-17 0.25 -0.25
-9.83579e-17 0.196129 -0.25
-0.0495937 0.232341 -0.166667
-0.0828017 0.202058 -0.25
-0.0587592 0.266857 -0.25
-8.31583e-17 0.223065 -0.25
-0.0404281 0.197824 -0.25
-0.0495937 0.232341 -0.333333
-0.0495937 0.232341 -0.25
