$MeshFormat
2.2 0 8
$EndMeshFormat
$Nodes
15
1 0.033559787702294216 0.019470917115432529 0
2 0.5683006350478661 0.0096881646325387236 0
3 1.0565947482673712 -0.0098298166587128064 0
4 1.5064025249562707 -0.019470228983457294 0
5 1.9518563688571218 -0.0095458278172686328 0
6 0.026716403272542273 0.54878616789133294 0
7 0.55437302899221808 0.52427458468031229 0
8 1.0450541621786165 0.47537049318170593 0
9 1.505096946387493 0.45121555628641768 0
10 1.9616736352438329 0.47608205325952985 0
11 0.0089772038992535341 1.0372852606088361 0
12 0.51827033986961968 1.0185520661920546 0
13 1.0151390288678253 0.98117668142263859 0
14 1.501712667926042 0.96271605710927033 0
15 1.9871216350635459 0.98172049751001 0
$EndNodes
$Elements
2
1 10 1 1 1 3 13 11 2 8 12 6 7
2 10 1 1 3 5 15 13 4 10 14 8 9
$EndElements
