$MeshFormat
2.2 0 8
$EndMeshFormat
$Nodes
49
1 0.0 0.0 0
2 0.5 0.0 0
3 1.0 0.0 0
4 1.5 0.0 0
5 2.0 0.0 0
6 2.5 0.0 0
7 3.0 0.0 0
8 0.0 0.5 0
9 0.5 0.5 0
10 1.0 0.5 0
11 1.5 0.5 0
12 2.0 0.5 0
13 2.5 0.5 0
14 3.0 0.5 0
15 0.0 1.0 0
16 0.5 1.0 0
17 1.0 1.0 0
18 1.5 1.0 0
19 2.0 1.0 0
20 2.5 1.0 0
21 3.0 1.0 0
22 0.0 1.5 0
23 0.5 1.5 0
24 1.0 1.5 0
25 1.5 1.5 0
26 2.0 1.5 0
27 2.5 1.5 0
28 3.0 1.5 0
29 0.0 2.0 0
30 0.5 2.0 0
31 1.0 2.0 0
32 1.5 2.0 0
33 2.0 2.0 0
34 2.5 2.0 0
35 3.0 2.0 0
36 0.0 2.5 0
37 0.5 2.5 0
38 1.0 2.5 0
39 1.5 2.5 0
40 2.0 2.5 0
41 2.5 2.5 0
42 3.0 2.5 0
43 0.0 3.0 0
44 0.5 3.0 0
45 1.0 3.0 0
46 1.5 3.0 0
47 2.0 3.0 0
48 2.5 3.0 0
49 3.0 3.0 0
$EndNodes
$Elements
21
1 10 2 1 0 1 3 17 15 2 10 16 8 9
2 10 2 1 0 3 5 19 17 4 12 18 10 11
3 10 2 1 0 5 7 21 19 6 14 20 12 13
4 10 2 1 0 15 17 31 29 16 24 30 22 23
5 10 2 1 0 17 19 33 31 18 26 32 24 25
6 10 2 1 0 19 21 35 33 20 28 34 26 27
7 10 2 1 0 29 31 45 43 30 38 44 36 37
8 10 2 1 0 31 33 47 45 32 40 46 38 39
9 10 2 1 0 33 35 49 47 34 42 48 40 41
10 8 2 1 0 1 8 15
11 8 2 1 0 15 22 29
12 8 2 1 0 29 36 43
13 8 2 2 0 7 14 21
14 8 2 2 0 21 28 35
15 8 2 2 0 35 42 49
16 8 2 3 0 1 2 3
17 8 2 3 0 3 4 5
18 8 2 3 0 5 6 7
19 8 2 4 0 43 44 45
20 8 2 4 0 45 46 47
21 8 2 4 0 47 48 49
$EndElements
