$MeshFormat
2.2 0 8
$EndMeshFormat
$Nodes
9
1 0.0000000000000000e+00 0.0000000000000000e+00 0.0000000000000000e+00
2 1.0000000000000000e+00 0.0000000000000000e+00 0.0000000000000000e+00
3 1.0000000000000000e+00 1.0000000000000000e+00 0.0000000000000000e+00
4 0.0000000000000000e+00 1.0000000000000000e+00 0.0000000000000000e+00
5 5.0000000000000000e-01 0.0000000000000000e+00 0.0000000000000000e+00
6 1.0000000000000000e+00 5.0000000000000000e-01 0.0000000000000000e+00
7 5.0000000000000000e-01 5.0000000000000000e-01 0.0000000000000000e+00
8 5.0000000000000000e-01 1.0000000000000000e+00 0.0000000000000000e+00
9 0.0000000000000000e+00 5.0000000000000000e-01 0.0000000000000000e+00
$EndNodes
$Elements
2
1 9 1 1 1 2 3 5 6 7
2 9 1 1 1 3 4 7 8 9
$EndElements
