$MeshFormat
2.2 0 8
$EndMeshFormat
$Nodes
18
1 0.0000000000000000e+00 0.0000000000000000e+00 0.0000000000000000e+00
2 0.0000000000000000e+00 1.0000000000000000e+00 0.0000000000000000e+00
3 1.0000000000000000e+00 1.0000000000000000e+00 0.0000000000000000e+00
4 1.0000000000000000e+00 0.0000000000000000e+00 0.0000000000000000e+00
5 5.0000000000000000e-01 5.0000000000000000e-01 1.0000000000000000e+00
6 0.0000000000000000e+00 5.0000000000000000e-01 0.0000000000000000e+00
7 5.0000000000000000e-01 1.0000000000000000e+00 0.0000000000000000e+00
8 1.0000000000000000e+00 5.0000000000000000e-01 0.0000000000000000e+00
9 5.0000000000000000e-01 0.0000000000000000e+00 0.0000000000000000e+00
10 2.5000000000000000e-01 2.5000000000000000e-01 5.0000000000000000e-01
11 2.5000000000000000e-01 7.5000000000000000e-01 5.0000000000000000e-01
12 7.5000000000000000e-01 7.5000000000000000e-01 5.0000000000000000e-01
13 7.5000000000000000e-01 2.5000000000000000e-01 5.0000000000000000e-01
14 5.0000000000000000e-01 5.0000000000000000e-01 -1.0000000000000000e+00
15 2.5000000000000000e-01 7.5000000000000000e-01 -5.0000000000000000e-01
16 2.5000000000000000e-01 2.5000000000000000e-01 -5.0000000000000000e-01
17 7.5000000000000000e-01 2.5000000000000000e-01 -5.0000000000000000e-01
18 7.5000000000000000e-01 7.5000000000000000e-01 -5.0000000000000000e-01
$EndNodes
$Elements
2
1 19 1 1 1 2 3 4 5 6 7 8 9 10 11 12 13
2 19 1 1 2 1 4 3 14 6 9 8 7 15 16 17 18
$EndElements
