$MeshFormat
2.2 0 8
$EndMeshFormat
$Nodes
14
1 0.0000000000000000e+00 0.0000000000000000e+00 0.0000000000000000e+00
2 1.0000000000000000e+00 0.0000000000000000e+00 0.0000000000000000e+00
3 0.0000000000000000e+00 1.0000000000000000e+00 0.0000000000000000e+00
4 0.0000000000000000e+00 0.0000000000000000e+00 1.0000000000000000e+00
5 1.0000000000000000e+00 1.0000000000000000e+00 1.0000000000000000e+00
6 5.0000000000000000e-01 0.0000000000000000e+00 0.0000000000000000e+00
7 0.0000000000000000e+00 5.0000000000000000e-01 0.0000000000000000e+00
8 0.0000000000000000e+00 0.0000000000000000e+00 5.0000000000000000e-01
9 5.0000000000000000e-01 5.0000000000000000e-01 0.0000000000000000e+00
10 5.0000000000000000e-01 0.0000000000000000e+00 5.0000000000000000e-01
11 0.0000000000000000e+00 5.0000000000000000e-01 5.0000000000000000e-01
12 1.0000000000000000e+00 5.0000000000000000e-01 5.0000000000000000e-01
13 5.0000000000000000e-01 1.0000000000000000e+00 5.0000000000000000e-01
14 5.0000000000000000e-01 5.0000000000000000e-01 1.0000000000000000e+00
$EndNodes
$Elements
2
1 11 1 1 1 2 3 4 6 9 7 8 11 10
2 11 1 1 2 3 4 5 9 11 10 12 14 13
$EndElements
