$MeshFormat
2.2 0 8
$EndMeshFormat
$Nodes
25
1 0.0000000000000000e+00 0.0000000000000000e+00 0.0000000000000000e+00
2 1.0000000000000000e+00 0.0000000000000000e+00 0.0000000000000000e+00
3 1.0000000000000000e+00 1.0000000000000000e+00 0.0000000000000000e+00
4 0.0000000000000000e+00 1.0000000000000000e+00 0.0000000000000000e+00
5 5.0000000000000000e-01 5.0000000000000000e-01 1.0000000000000000e+00
6 5.0000000000000000e-01 5.0000000000000000e-01 -1.0000000000000000e+00
7 5.0000000000000000e-01 1.5000000000000000e+00 0.0000000000000000e+00
8 5.0000000000000000e-01 5.0000000000000000e-01 0.0000000000000000e+00
9 5.0000000000000000e-01 0.0000000000000000e+00 0.0000000000000000e+00
10 1.0000000000000000e+00 5.0000000000000000e-01 0.0000000000000000e+00
11 5.0000000000000000e-01 1.0000000000000000e+00 0.0000000000000000e+00
12 0.0000000000000000e+00 5.0000000000000000e-01 0.0000000000000000e+00
13 2.5000000000000000e-01 2.5000000000000000e-01 5.0000000000000000e-01
14 7.5000000000000000e-01 2.5000000000000000e-01 5.0000000000000000e-01
15 7.5000000000000000e-01 7.5000000000000000e-01 5.0000000000000000e-01
16 2.5000000000000000e-01 7.5000000000000000e-01 5.0000000000000000e-01
17 7.5000000000000000e-01 2.5000000000000000e-01 -5.0000000000000000e-01
18 7.5000000000000000e-01 7.5000000000000000e-01 -5.0000000000000000e-01
19 2.5000000000000000e-01 7.5000000000000000e-01 -5.0000000000000000e-01
20 2.5000000000000000e-01 2.5000000000000000e-01 -5.0000000000000000e-01
21 7.5000000000000000e-01 1.2500000000000000e+00 0.0000000000000000e+00
22 5.0000000000000000e-01 1.0000000000000000e+00 0.0000000000000000e+00
23 7.5000000000000000e-01 2.5000000000000000e-01 0.0000000000000000e+00
24 5.0000000000000000e-01 1.0000000000000000e+00 5.0000000000000000e-01
25 5.0000000000000000e-01 5.0000000000000000e-01 5.0000000000000000e-01
$EndNodes
$Elements
3
1 19 1 1 1 2 3 4 5 9 10 11 12 13 14 15 16
2 19 1 1 1 4 3 2 6 12 11 10 9 20 19 18 17
3 19 1 1 2 3 7 8 5 10 21 22 23 14 15 24 25
$EndElements
