$MeshFormat
2.2 0 8
$EndMeshFormat
$Nodes
27
1 0.0000000000000000e+00 0.0000000000000000e+00 0.0000000000000000e+00
2 1.0000000000000000e+00 0.0000000000000000e+00 0.0000000000000000e+00
3 0.0000000000000000e+00 1.0000000000000000e+00 0.0000000000000000e+00
4 1.0000000000000000e+00 1.0000000000000000e+00 0.0000000000000000e+00
5 0.0000000000000000e+00 0.0000000000000000e+00 1.0000000000000000e+00
6 1.0000000000000000e+00 0.0000000000000000e+00 1.0000000000000000e+00
7 0.0000000000000000e+00 1.0000000000000000e+00 1.0000000000000000e+00
8 1.0000000000000000e+00 1.0000000000000000e+00 1.0000000000000000e+00
9 5.0000000000000000e-01 0.0000000000000000e+00 0.0000000000000000e+00
10 5.0000000000000000e-01 5.0000000000000000e-01 0.0000000000000000e+00
11 0.0000000000000000e+00 5.0000000000000000e-01 0.0000000000000000e+00
12 0.0000000000000000e+00 0.0000000000000000e+00 5.0000000000000000e-01
13 1.0000000000000000e+00 0.0000000000000000e+00 5.0000000000000000e-01
14 0.0000000000000000e+00 1.0000000000000000e+00 5.0000000000000000e-01
15 5.0000000000000000e-01 0.0000000000000000e+00 5.0000000000000000e-01
16 5.0000000000000000e-01 5.0000000000000000e-01 5.0000000000000000e-01
17 0.0000000000000000e+00 5.0000000000000000e-01 5.0000000000000000e-01
18 5.0000000000000000e-01 0.0000000000000000e+00 1.0000000000000000e+00
19 5.0000000000000000e-01 5.0000000000000000e-01 1.0000000000000000e+00
20 0.0000000000000000e+00 5.0000000000000000e-01 1.0000000000000000e+00
21 1.0000000000000000e+00 5.0000000000000000e-01 0.0000000000000000e+00
22 5.0000000000000000e-01 1.0000000000000000e+00 0.0000000000000000e+00
23 1.0000000000000000e+00 1.0000000000000000e+00 5.0000000000000000e-01
24 1.0000000000000000e+00 5.0000000000000000e-01 5.0000000000000000e-01
25 5.0000000000000000e-01 1.0000000000000000e+00 5.0000000000000000e-01
26 1.0000000000000000e+00 5.0000000000000000e-01 1.0000000000000000e+00
27 5.0000000000000000e-01 1.0000000000000000e+00 1.0000000000000000e+00
$EndNodes
$Elements
2
1 13 1 1 1 2 3 5 6 7 9 11 12 10 13 14 18 20 19 15 17 16
2 13 1 1 2 4 3 6 8 7 21 10 13 22 23 14 26 19 27 24 16 25
$EndElements
