$MeshFormat
2.2 0 8
$EndMeshFormat
$Nodes
8
1 0.0000000000000000e+00 0.0000000000000000e+00 0.0000000000000000e+00
2 1.0000000000000000e+00 0.0000000000000000e+00 0.0000000000000000e+00
3 1.0000000000000000e+00 1.0000000000000000e+00 0.0000000000000000e+00
4 0.0000000000000000e+00 1.0000000000000000e+00 0.0000000000000000e+00
5 5.0000000000000000e-01 5.0000000000000000e-01 1.0000000000000000e+00
6 5.0000000000000000e-01 5.0000000000000000e-01 -1.0000000000000000e+00
7 5.0000000000000000e-01 1.5000000000000000e+00 0.0000000000000000e+00
8 5.0000000000000000e-01 5.0000000000000000e-01 0.0000000000000000e+00
$EndNodes
$Elements
3
1 7 1 1 1 2 3 4 5
2 7 1 1 1 4 3 2 6
3 7 1 1 2 3 7 8 5
$EndElements
