$MeshFormat
2.2 0 8
$EndMeshFormat
$Nodes
45
1 0.0000000000000000e+00 0.0000000000000000e+00 0.0000000000000000e+00
2 1.0000000000000000e+00 0.0000000000000000e+00 0.0000000000000000e+00
3 1.0000000000000000e+00 1.0000000000000000e+00 0.0000000000000000e+00
4 0.0000000000000000e+00 1.0000000000000000e+00 0.0000000000000000e+00
5 0.0000000000000000e+00 0.0000000000000000e+00 1.0000000000000000e+00
6 1.0000000000000000e+00 0.0000000000000000e+00 1.0000000000000000e+00
7 1.0000000000000000e+00 1.0000000000000000e+00 1.0000000000000000e+00
8 0.0000000000000000e+00 1.0000000000000000e+00 1.0000000000000000e+00
9 0.0000000000000000e+00 0.0000000000000000e+00 2.0000000000000000e+00
10 1.0000000000000000e+00 0.0000000000000000e+00 2.0000000000000000e+00
11 1.0000000000000000e+00 1.0000000000000000e+00 2.0000000000000000e+00
12 0.0000000000000000e+00 1.0000000000000000e+00 2.0000000000000000e+00
13 5.0000000000000000e-01 0.0000000000000000e+00 0.0000000000000000e+00
14 1.0000000000000000e+00 5.0000000000000000e-01 0.0000000000000000e+00
15 5.0000000000000000e-01 1.0000000000000000e+00 0.0000000000000000e+00
16 0.0000000000000000e+00 5.0000000000000000e-01 0.0000000000000000e+00
17 5.0000000000000000e-01 0.0000000000000000e+00 1.0000000000000000e+00
18 1.0000000000000000e+00 5.0000000000000000e-01 1.0000000000000000e+00
19 5.0000000000000000e-01 1.0000000000000000e+00 1.0000000000000000e+00
20 0.0000000000000000e+00 5.0000000000000000e-01 1.0000000000000000e+00
21 0.0000000000000000e+00 0.0000000000000000e+00 5.0000000000000000e-01
22 1.0000000000000000e+00 0.0000000000000000e+00 5.0000000000000000e-01
23 1.0000000000000000e+00 1.0000000000000000e+00 5.0000000000000000e-01
24 0.0000000000000000e+00 1.0000000000000000e+00 5.0000000000000000e-01
25 5.0000000000000000e-01 5.0000000000000000e-01 0.0000000000000000e+00
26 5.0000000000000000e-01 0.0000000000000000e+00 5.0000000000000000e-01
27 1.0000000000000000e+00 5.0000000000000000e-01 5.0000000000000000e-01
28 5.0000000000000000e-01 1.0000000000000000e+00 5.0000000000000000e-01
29 0.0000000000000000e+00 5.0000000000000000e-01 5.0000000000000000e-01
30 5.0000000000000000e-01 5.0000000000000000e-01 1.0000000000000000e+00
31 5.0000000000000000e-01 5.0000000000000000e-01 5.0000000000000000e-01
32 5.0000000000000000e-01 0.0000000000000000e+00 2.0000000000000000e+00
33 1.0000000000000000e+00 5.0000000000000000e-01 2.0000000000000000e+00
34 5.0000000000000000e-01 1.0000000000000000e+00 2.0000000000000000e+00
35 0.0000000000000000e+00 5.0000000000000000e-01 2.0000000000000000e+00
36 0.0000000000000000e+00 0.0000000000000000e+00 1.5000000000000000e+00
37 1.0000000000000000e+00 0.0000000000000000e+00 1.5000000000000000e+00
38 1.0000000000000000e+00 1.0000000000000000e+00 1.5000000000000000e+00
39 0.0000000000000000e+00 1.0000000000000000e+00 1.5000000000000000e+00
40 5.0000000000000000e-01 0.0000000000000000e+00 1.5000000000000000e+00
41 1.0000000000000000e+00 5.0000000000000000e-01 1.5000000000000000e+00
42 5.0000000000000000e-01 1.0000000000000000e+00 1.5000000000000000e+00
43 0.0000000000000000e+00 5.0000000000000000e-01 1.5000000000000000e+00
44 5.0000000000000000e-01 5.0000000000000000e-01 2.0000000000000000e+00
45 5.0000000000000000e-01 5.0000000000000000e-01 1.5000000000000000e+00
$EndNodes
$Elements
2
1 12 1 1 1 2 3 4 5 6 7 8 13 16 21 14 22 15 23 24 17 20 18 19 25 26 29 27 28 30 31
2 12 1 1 5 6 7 8 9 10 11 12 17 20 36 18 37 19 38 39 32 35 33 34 30 40 43 41 42 44 45
$EndElements
