$MeshFormat
2.2 0 8
$EndMeshFormat
$Nodes
6
1 0.0000000000000000e+00 0.0000000000000000e+00 0.0000000000000000e+00
2 1.0000000000000000e+00 0.0000000000000000e+00 0.0000000000000000e+00
3 1.0000000000000000e+00 1.0000000000000000e+00 0.0000000000000000e+00
4 0.0000000000000000e+00 1.0000000000000000e+00 0.0000000000000000e+00
5 5.0000000000000000e-01 5.0000000000000000e-01 1.0000000000000000e+00
6 5.0000000000000000e-01 -5.0000000000000000e-01 5.0000000000000000e-01
$EndNodes
$Elements
2
1 4 1 1 1 2 5 6
2 7 1 1 1 2 3 4 5
$EndElements
