$MeshFormat
2.2 0 8
$EndMeshFormat
$Nodes
9
1 0.0000000000000000e+00 0.0000000000000000e+00 0.0000000000000000e+00
2 1.0000000000000000e+00 0.0000000000000000e+00 0.0000000000000000e+00
3 1.0000000000000000e+00 1.0000000000000000e+00 0.0000000000000000e+00
4 0.0000000000000000e+00 1.0000000000000000e+00 0.0000000000000000e+00
5 5.0000000000000000e-01 5.0000000000000000e-01 1.0000000000000000e+00
6 0.0000000000000000e+00 0.0000000000000000e+00 -1.0000000000000000e+00
7 1.0000000000000000e+00 0.0000000000000000e+00 -1.0000000000000000e+00
8 1.0000000000000000e+00 1.0000000000000000e+00 -1.0000000000000000e+00
9 0.0000000000000000e+00 1.0000000000000000e+00 -1.0000000000000000e+00
$EndNodes
$Elements
2
1 5 1 1 6 7 8 9 1 2 3 4
2 7 1 1 1 2 3 4 5
$EndElements
