MFEM mesh v1.0

#
# MFEM Geometry Types (see fem/geom.hpp):
#
# POINT       = 0
# SEGMENT     = 1
# TRIANGLE    = 2
# SQUARE      = 3
# TETRAHEDRON = 4
# CUBE        = 5
# PRISM       = 6
# PYRAMID     = 7
#

dimension
2

elements
128
1 2 0 25 27
1 2 26 27 25
1 2 25 6 26
1 2 27 26 5
1 2 6 25 29
1 2 28 29 25
1 2 25 0 28
1 2 29 28 1
1 2 1 30 29
1 2 31 29 30
1 2 30 7 31
1 2 29 31 6
1 2 7 30 33
1 2 32 33 30
1 2 30 1 32
1 2 33 32 2
1 2 2 34 33
1 2 35 33 34
1 2 34 8 35
1 2 33 35 7
1 2 8 34 37
1 2 36 37 34
1 2 34 2 36
1 2 37 36 3
1 2 3 38 37
1 2 39 37 38
1 2 38 9 39
1 2 37 39 8
1 2 9 38 41
1 2 40 41 38
1 2 38 3 40
1 2 41 40 4
1 2 5 42 44
1 2 43 44 42
1 2 42 11 43
1 2 44 43 10
1 2 11 42 45
1 2 26 45 42
1 2 42 5 26
1 2 45 26 6
1 2 6 46 45
1 2 47 45 46
1 2 46 12 47
1 2 45 47 11
1 2 12 46 48
1 2 31 48 46
1 2 46 6 31
1 2 48 31 7
1 2 7 49 48
1 2 50 48 49
1 2 49 13 50
1 2 48 50 12
1 2 13 49 51
1 2 35 51 49
1 2 49 7 35
1 2 51 35 8
1 2 8 52 51
1 2 53 51 52
1 2 52 14 53
1 2 51 53 13
1 2 14 52 54
1 2 39 54 52
1 2 52 8 39
1 2 54 39 9
1 2 10 55 57
1 2 56 57 55
1 2 55 16 56
1 2 57 56 15
1 2 16 55 58
1 2 43 58 55
1 2 55 10 43
1 2 58 43 11
1 2 11 59 58
1 2 60 58 59
1 2 59 17 60
1 2 58 60 16
1 2 17 59 61
1 2 47 61 59
1 2 59 11 47
1 2 61 47 12
1 2 12 62 61
1 2 63 61 62
1 2 62 18 63
1 2 61 63 17
1 2 18 62 64
1 2 50 64 62
1 2 62 12 50
1 2 64 50 13
1 2 13 65 64
1 2 66 64 65
1 2 65 19 66
1 2 64 66 18
1 2 19 65 67
1 2 53 67 65
1 2 65 13 53
1 2 67 53 14
1 2 15 68 70
1 2 69 70 68
1 2 68 21 69
1 2 70 69 20
1 2 21 68 71
1 2 56 71 68
1 2 68 15 56
1 2 71 56 16
1 2 16 72 71
1 2 73 71 72
1 2 72 22 73
1 2 71 73 21
1 2 22 72 74
1 2 60 74 72
1 2 72 16 60
1 2 74 60 17
1 2 17 75 74
1 2 76 74 75
1 2 75 23 76
1 2 74 76 22
1 2 23 75 77
1 2 63 77 75
1 2 75 17 63
1 2 77 63 18
1 2 18 78 77
1 2 79 77 78
1 2 78 24 79
1 2 77 79 23
1 2 24 78 80
1 2 66 80 78
1 2 78 18 66
1 2 80 66 19

boundary
32
1 1 0 28
1 1 28 1
1 1 1 32
1 1 32 2
1 1 2 36
1 1 36 3
1 1 3 40
1 1 40 4
3 1 21 69
3 1 69 20
3 1 22 73
3 1 73 21
3 1 23 76
3 1 76 22
3 1 24 79
3 1 79 23
4 1 5 27
4 1 27 0
4 1 10 44
4 1 44 5
4 1 15 57
4 1 57 10
4 1 20 70
4 1 70 15
2 1 4 41
2 1 41 9
2 1 9 54
2 1 54 14
2 1 14 67
2 1 67 19
2 1 19 80
2 1 80 24

vertices
81
2
0 0
0.25 0
0.5 0
0.75 0
1 0
0 0.25
0.25 0.25
0.5 0.25
0.75 0.25
1 0.25
0 0.5
0.25 0.5
0.5 0.5
0.75 0.5
1 0.5
0 0.75
0.25 0.75
0.5 0.75
0.75 0.75
1 0.75
0 1
0.25 1
0.5 1
0.75 1
1 1
0.125 0.125
0.125 0.25
0 0.125
0.125 0
0.25 0.125
0.375 0.125
0.375 0.25
0.375 0
0.5 0.125
0.625 0.125
0.625 0.25
0.625 0
0.75 0.125
0.875 0.125
0.875 0.25
0.875 0
1 0.125
0.125 0.375
0.125 0.5
0 0.375
0.25 0.375
0.375 0.375
0.375 0.5
0.5 0.375
0.625 0.375
0.625 0.5
0.75 0.375
0.875 0.375
0.875 0.5
1 0.375
0.125 0.625
0.125 0.75
0 0.625
0.25 0.625
0.375 0.625
0.375 0.75
0.5 0.625
0.625 0.625
0.625 0.75
0.75 0.625
0.875 0.625
0.875 0.75
1 0.625
0.125 0.875
0.125 1
0 0.875
0.25 0.875
0.375 0.875
0.375 1
0.5 0.875
0.625 0.875
0.625 1
0.75 0.875
0.875 0.875
0.875 1
1 0.875
