MFEM mesh v1.0

#
# MFEM Geometry Types (see fem/geom.hpp):
#
# POINT       = 0
# SEGMENT     = 1
# TRIANGLE    = 2
# SQUARE      = 3
# TETRAHEDRON = 4
# CUBE        = 5
# PRISM       = 6
# PYRAMID     = 7
#

dimension
3

elements
27
1 5 26 24 18 20 8 6 0 2
1 5 8 6 0 2 17 15 9 11
1 5 6 7 1 0 15 16 10 9
1 5 24 25 19 18 6 7 1 0
1 5 18 19 22 21 0 1 4 3
1 5 0 1 4 3 9 10 13 12
1 5 2 0 3 5 11 9 12 14
1 5 20 18 21 23 2 0 3 5
1 5 23 21 24 26 5 3 6 8
1 5 5 3 6 8 14 12 15 17
1 5 21 22 25 24 3 4 7 6
1 5 3 4 7 6 12 13 16 15
1 5 12 13 16 15 21 22 25 24
1 5 14 12 15 17 23 21 24 26
1 5 11 9 12 14 20 18 21 23
1 5 9 10 13 12 18 19 22 21
1 5 17 15 9 11 26 24 18 20
1 5 15 16 10 9 24 25 19 18
1 5 16 17 11 10 25 26 20 19
1 5 10 11 14 13 19 20 23 22
1 5 13 14 17 16 22 23 26 25
1 5 4 5 8 7 13 14 17 16
1 5 22 23 26 25 4 5 8 7
1 5 19 20 23 22 1 2 5 4
1 5 1 2 5 4 10 11 14 13
1 5 7 8 2 1 16 17 11 10
1 5 25 26 20 19 7 8 2 1

boundary
54
1 3 26 20 18 24
1 3 24 18 19 25
1 3 25 19 20 26
1 3 20 23 21 18
1 3 18 21 22 19
1 3 19 22 23 20
1 3 23 26 24 21
1 3 21 24 25 22
1 3 22 25 26 23
6 3 26 24 18 20
6 3 24 25 19 18
6 3 25 26 20 19
6 3 20 18 21 23
6 3 18 19 22 21
6 3 19 20 23 22
6 3 23 21 24 26
6 3 21 22 25 24
6 3 22 23 26 25
5 3 26 8 2 20
5 3 20 2 5 23
5 3 23 5 8 26
5 3 8 17 11 2
5 3 2 11 14 5
5 3 5 14 17 8
5 3 17 26 20 11
5 3 11 20 23 14
5 3 14 23 26 17
3 3 26 20 2 8
3 3 20 23 5 2
3 3 23 26 8 5
3 3 8 2 11 17
3 3 2 5 14 11
3 3 5 8 17 14
3 3 17 11 20 26
3 3 11 14 23 20
3 3 14 17 26 23
2 3 26 24 6 8
2 3 8 6 15 17
2 3 17 15 24 26
2 3 24 25 7 6
2 3 6 7 16 15
2 3 15 16 25 24
2 3 25 26 8 7
2 3 7 8 17 16
2 3 16 17 26 25
4 3 26 8 6 24
4 3 8 17 15 6
4 3 17 26 24 15
4 3 24 6 7 25
4 3 6 15 16 7
4 3 15 24 25 16
4 3 25 7 8 26
4 3 7 16 17 8
4 3 16 25 26 17

vertices
27

nodes
FiniteElementSpace
FiniteElementCollection: L2_T1_3D_P2
VDim: 3
Ordering: 1

0 0 0
0.3333333333333333 0 0
0.6666666666666666 0 0
0 0.3333333333333333 0
0.3333333333333333 0.3333333333333333 0
0.6666666666666666 0.3333333333333333 0
0 0.6666666666666666 0
0.3333333333333333 0.6666666666666666 0
0.6666666666666666 0.6666666666666666 0
0 0 0.3333333333333333
0.3333333333333333 0 0.3333333333333333
0.6666666666666666 0 0.3333333333333333
0 0.3333333333333333 0.3333333333333333
0.3333333333333333 0.3333333333333333 0.3333333333333333
0.6666666666666666 0.3333333333333333 0.3333333333333333
0 0.6666666666666666 0.3333333333333333
0.3333333333333333 0.6666666666666666 0.3333333333333333
0.6666666666666666 0.6666666666666666 0.3333333333333333
0 0 0.6666666666666666
0.3333333333333333 0 0.6666666666666666
0.6666666666666666 0 0.6666666666666666
0 0.3333333333333333 0.6666666666666666
0.3333333333333333 0.3333333333333333 0.6666666666666666
0.6666666666666666 0.3333333333333333 0.6666666666666666
0 0.6666666666666666 0.6666666666666666
0.3333333333333333 0.6666666666666666 0.6666666666666666
0.6666666666666666 0.6666666666666666 0.6666666666666666
0 0 0.6666666666666666
0.3333333333333333 0 0.6666666666666666
0.6666666666666666 0 0.6666666666666666
0 0.3333333333333333 0.6666666666666666
0.3333333333333333 0.3333333333333333 0.6666666666666666
0.6666666666666666 0.3333333333333333 0.6666666666666666
0 0.6666666666666666 0.6666666666666666
0.3333333333333333 0.6666666666666666 0.6666666666666666
0.6666666666666666 0.6666666666666666 0.6666666666666666
0 0 1
0.3333333333333333 0 1
0.6666666666666666 0 1
0 0.3333333333333333 1
0.3333333333333333 0.3333333333333333 0.9999999999999999
0.6666666666666666 0.3333333333333333 1
0 0.6666666666666666 1
0.3333333333333333 0.6666666666666666 1
0.6666666666666666 0.6666666666666666 1
0 0 1.333333333333333
0.3333333333333333 0 1.333333333333333
0.6666666666666666 0 1.333333333333333
0 0.3333333333333333 1.333333333333333
0.3333333333333333 0.3333333333333333 1.333333333333333
0.6666666666666666 0.3333333333333333 1.333333333333333
0 0.6666666666666666 1.333333333333333
0.3333333333333333 0.6666666666666666 1.333333333333333
0.6666666666666666 0.6666666666666666 1.333333333333333
0.6666666666666666 0 0.6666666666666666
1 0 0.6666666666666666
1.333333333333333 0 0.6666666666666666
0.6666666666666666 0.3333333333333333 0.6666666666666666
0.9999999999999999 0.3333333333333333 0.6666666666666666
1.333333333333333 0.3333333333333333 0.6666666666666666
0.6666666666666666 0.6666666666666666 0.6666666666666666
1 0.6666666666666666 0.6666666666666666
1.333333333333333 0.6666666666666666 0.6666666666666666
0.6666666666666666 0 1
1 0 1
1.333333333333333 0 1
0.6666666666666666 0.3333333333333333 1
0.9999999999999999 0.3333333333333333 0.9999999999999999
1.333333333333333 0.3333333333333333 1
0.6666666666666666 0.6666666666666666 1
0.9999999999999999 0.6666666666666666 1
1.333333333333333 0.6666666666666666 1
0.6666666666666666 0 1.333333333333333
1 0 1.333333333333333
1.333333333333333 0 1.333333333333333
0.6666666666666666 0.3333333333333333 1.333333333333333
0.9999999999999999 0.3333333333333333 1.333333333333333
1.333333333333333 0.3333333333333333 1.333333333333333
0.6666666666666666 0.6666666666666666 1.333333333333333
1 0.6666666666666666 1.333333333333333
1.333333333333333 0.6666666666666666 1.333333333333333
0.6666666666666666 0 0
1 0 0
1.333333333333333 0 0
0.6666666666666666 0.3333333333333333 0
0.9999999999999999 0.3333333333333333 0
1.333333333333333 0.3333333333333333 0
0.6666666666666666 0.6666666666666666 0
1 0.6666666666666666 0
1.333333333333333 0.6666666666666666 0
0.6666666666666666 0 0.3333333333333333
1 0 0.3333333333333333
1.333333333333333 0 0.3333333333333333
0.6666666666666666 0.3333333333333333 0.3333333333333333
0.9999999999999999 0.3333333333333333 0.3333333333333333
1.333333333333333 0.3333333333333333 0.3333333333333333
0.6666666666666666 0.6666666666666666 0.3333333333333333
0.9999999999999999 0.6666666666666666 0.3333333333333333
1.333333333333333 0.6666666666666666 0.3333333333333333
0.6666666666666666 0 0.6666666666666666
1 0 0.6666666666666666
1.333333333333333 0 0.6666666666666666
0.6666666666666666 0.3333333333333333 0.6666666666666666
0.9999999999999999 0.3333333333333333 0.6666666666666666
1.333333333333333 0.3333333333333333 0.6666666666666666
0.6666666666666666 0.6666666666666666 0.6666666666666666
1 0.6666666666666666 0.6666666666666666
1.333333333333333 0.6666666666666666 0.6666666666666666
0.6666666666666666 0.6666666666666666 0
1 0.6666666666666666 0
1.333333333333333 0.6666666666666666 0
0.6666666666666666 1 0
0.9999999999999999 1 0
1.333333333333333 1 0
0.6666666666666666 1.333333333333333 0
1 1.333333333333333 0
1.333333333333333 1.333333333333333 0
0.6666666666666666 0.6666666666666666 0.3333333333333333
1 0.6666666666666666 0.3333333333333333
1.333333333333333 0.6666666666666666 0.3333333333333333
0.6666666666666666 1 0.3333333333333333
0.9999999999999999 1 0.3333333333333333
1.333333333333333 1 0.3333333333333333
0.6666666666666666 1.333333333333333 0.3333333333333333
0.9999999999999999 1.333333333333333 0.3333333333333333
1.333333333333333 1.333333333333333 0.3333333333333333
0.6666666666666666 0.6666666666666666 0.6666666666666666
1 0.6666666666666666 0.6666666666666666
1.333333333333333 0.6666666666666666 0.6666666666666666
0.6666666666666666 1 0.6666666666666666
0.9999999999999999 1 0.6666666666666666
1.333333333333333 1 0.6666666666666666
0.6666666666666666 1.333333333333333 0.6666666666666666
1 1.333333333333333 0.6666666666666666
1.333333333333333 1.333333333333333 0.6666666666666666
0.6666666666666666 0.6666666666666666 0.6666666666666666
1 0.6666666666666666 0.6666666666666666
1.333333333333333 0.6666666666666666 0.6666666666666666
0.6666666666666666 1 0.6666666666666666
0.9999999999999999 1 0.6666666666666666
1.333333333333333 1 0.6666666666666666
0.6666666666666666 1.333333333333333 0.6666666666666666
1 1.333333333333333 0.6666666666666666
1.333333333333333 1.333333333333333 0.6666666666666666
0.6666666666666666 0.6666666666666666 1
1 0.6666666666666666 1
1.333333333333333 0.6666666666666666 1
0.6666666666666666 1 1
0.9999999999999999 1 0.9999999999999999
1.333333333333333 1 1
0.6666666666666666 1.333333333333333 1
0.9999999999999999 1.333333333333333 1
1.333333333333333 1.333333333333333 1
0.6666666666666666 0.6666666666666666 1.333333333333333
1 0.6666666666666666 1.333333333333333
1.333333333333333 0.6666666666666666 1.333333333333333
0.6666666666666666 1 1.333333333333333
0.9999999999999999 1 1.333333333333333
1.333333333333333 1 1.333333333333333
0.6666666666666666 1.333333333333333 1.333333333333333
1 1.333333333333333 1.333333333333333
1.333333333333333 1.333333333333333 1.333333333333333
0 0.6666666666666666 0.6666666666666666
0.3333333333333333 0.6666666666666666 0.6666666666666666
0.6666666666666666 0.6666666666666666 0.6666666666666666
0 1 0.6666666666666666
0.3333333333333333 1 0.6666666666666666
0.6666666666666666 1 0.6666666666666666
0 1.333333333333333 0.6666666666666666
0.3333333333333333 1.333333333333333 0.6666666666666666
0.6666666666666666 1.333333333333333 0.6666666666666666
0 0.6666666666666666 1
0.3333333333333333 0.6666666666666666 1
0.6666666666666666 0.6666666666666666 1
0 1 1
0.3333333333333333 1 0.9999999999999999
0.6666666666666666 1 1
0 1.333333333333333 1
0.3333333333333333 1.333333333333333 1
0.6666666666666666 1.333333333333333 1
0 0.6666666666666666 1.333333333333333
0.3333333333333333 0.6666666666666666 1.333333333333333
0.6666666666666666 0.6666666666666666 1.333333333333333
0 1 1.333333333333333
0.3333333333333333 1 1.333333333333333
0.6666666666666666 1 1.333333333333333
0 1.333333333333333 1.333333333333333
0.3333333333333333 1.333333333333333 1.333333333333333
0.6666666666666666 1.333333333333333 1.333333333333333
0 0.6666666666666666 0
0.3333333333333333 0.6666666666666666 0
0.6666666666666666 0.6666666666666666 0
0 1 0
0.3333333333333333 1 0
0.6666666666666666 1 0
0 1.333333333333333 0
0.3333333333333333 1.333333333333333 0
0.6666666666666666 1.333333333333333 0
0 0.6666666666666666 0.3333333333333333
0.3333333333333333 0.6666666666666666 0.3333333333333333
0.6666666666666666 0.6666666666666666 0.3333333333333333
0 1 0.3333333333333333
0.3333333333333333 1 0.3333333333333333
0.6666666666666666 1 0.3333333333333333
0 1.333333333333333 0.3333333333333333
0.3333333333333333 1.333333333333333 0.3333333333333333
0.6666666666666666 1.333333333333333 0.3333333333333333
0 0.6666666666666666 0.6666666666666666
0.3333333333333333 0.6666666666666666 0.6666666666666666
0.6666666666666666 0.6666666666666666 0.6666666666666666
0 1 0.6666666666666666
0.3333333333333333 1 0.6666666666666666
0.6666666666666666 1 0.6666666666666666
0 1.333333333333333 0.6666666666666666
0.3333333333333333 1.333333333333333 0.6666666666666666
0.6666666666666666 1.333333333333333 0.6666666666666666
0 1.333333333333333 0
0.3333333333333333 1.333333333333333 0
0.6666666666666666 1.333333333333333 0
0 1.666666666666667 0
0.3333333333333333 1.666666666666667 0
0.6666666666666666 1.666666666666667 0
0 2 0
0.3333333333333333 2 0
0.6666666666666666 2 0
0 1.333333333333333 0.3333333333333333
0.3333333333333333 1.333333333333333 0.3333333333333333
0.6666666666666666 1.333333333333333 0.3333333333333333
0 1.666666666666667 0.3333333333333333
0.3333333333333333 1.666666666666667 0.3333333333333333
0.6666666666666666 1.666666666666667 0.3333333333333333
0 2 0.3333333333333333
0.3333333333333333 2 0.3333333333333333
0.6666666666666666 2 0.3333333333333333
0 1.333333333333333 0.6666666666666666
0.3333333333333333 1.333333333333333 0.6666666666666666
0.6666666666666666 1.333333333333333 0.6666666666666666
0 1.666666666666667 0.6666666666666666
0.3333333333333333 1.666666666666667 0.6666666666666666
0.6666666666666666 1.666666666666667 0.6666666666666666
0 2 0.6666666666666666
0.3333333333333333 2 0.6666666666666666
0.6666666666666666 2 0.6666666666666666
0 1.333333333333333 0.6666666666666666
0.3333333333333333 1.333333333333333 0.6666666666666666
0.6666666666666666 1.333333333333333 0.6666666666666666
0 1.666666666666667 0.6666666666666666
0.3333333333333333 1.666666666666667 0.6666666666666666
0.6666666666666666 1.666666666666667 0.6666666666666666
0 2 0.6666666666666666
0.3333333333333333 2 0.6666666666666666
0.6666666666666666 2 0.6666666666666666
0 1.333333333333333 1
0.3333333333333333 1.333333333333333 1
0.6666666666666666 1.333333333333333 1
0 1.666666666666667 1
0.3333333333333333 1.666666666666667 0.9999999999999999
0.6666666666666666 1.666666666666667 1
0 2 1
0.3333333333333333 2 1
0.6666666666666666 2 1
0 1.333333333333333 1.333333333333333
0.3333333333333333 1.333333333333333 1.333333333333333
0.6666666666666666 1.333333333333333 1.333333333333333
0 1.666666666666667 1.333333333333333
0.3333333333333333 1.666666666666667 1.333333333333333
0.6666666666666666 1.666666666666667 1.333333333333333
0 2 1.333333333333333
0.3333333333333333 2 1.333333333333333
0.6666666666666666 2 1.333333333333333
0.6666666666666666 1.333333333333333 0
1 1.333333333333333 0
1.333333333333333 1.333333333333333 0
0.6666666666666666 1.666666666666667 0
0.9999999999999999 1.666666666666667 0
1.333333333333333 1.666666666666667 0
0.6666666666666666 2 0
1 2 0
1.333333333333333 2 0
0.6666666666666666 1.333333333333333 0.3333333333333333
1 1.333333333333333 0.3333333333333333
1.333333333333333 1.333333333333333 0.3333333333333333
0.6666666666666666 1.666666666666667 0.3333333333333333
0.9999999999999999 1.666666666666667 0.3333333333333333
1.333333333333333 1.666666666666667 0.3333333333333333
0.6666666666666666 2 0.3333333333333333
0.9999999999999999 2 0.3333333333333333
1.333333333333333 2 0.3333333333333333
0.6666666666666666 1.333333333333333 0.6666666666666666
1 1.333333333333333 0.6666666666666666
1.333333333333333 1.333333333333333 0.6666666666666666
0.6666666666666666 1.666666666666667 0.6666666666666666
0.9999999999999999 1.666666666666667 0.6666666666666666
1.333333333333333 1.666666666666667 0.6666666666666666
0.6666666666666666 2 0.6666666666666666
1 2 0.6666666666666666
1.333333333333333 2 0.6666666666666666
0.6666666666666666 1.333333333333333 0.6666666666666666
1 1.333333333333333 0.6666666666666666
1.333333333333333 1.333333333333333 0.6666666666666666
0.6666666666666666 1.666666666666667 0.6666666666666666
0.9999999999999999 1.666666666666667 0.6666666666666666
1.333333333333333 1.666666666666667 0.6666666666666666
0.6666666666666666 2 0.6666666666666666
1 2 0.6666666666666666
1.333333333333333 2 0.6666666666666666
0.6666666666666666 1.333333333333333 1
1 1.333333333333333 1
1.333333333333333 1.333333333333333 1
0.6666666666666666 1.666666666666667 1
0.9999999999999999 1.666666666666667 0.9999999999999999
1.333333333333333 1.666666666666667 1
0.6666666666666666 2 1
0.9999999999999999 2 1
1.333333333333333 2 1
0.6666666666666666 1.333333333333333 1.333333333333333
1 1.333333333333333 1.333333333333333
1.333333333333333 1.333333333333333 1.333333333333333
0.6666666666666666 1.666666666666667 1.333333333333333
0.9999999999999999 1.666666666666667 1.333333333333333
1.333333333333333 1.666666666666667 1.333333333333333
0.6666666666666666 2 1.333333333333333
1 2 1.333333333333333
1.333333333333333 2 1.333333333333333
0.6666666666666666 1.333333333333333 1.333333333333333
1 1.333333333333333 1.333333333333333
1.333333333333333 1.333333333333333 1.333333333333333
0.6666666666666666 1.666666666666667 1.333333333333333
0.9999999999999999 1.666666666666667 1.333333333333333
1.333333333333333 1.666666666666667 1.333333333333333
0.6666666666666666 2 1.333333333333333
1 2 1.333333333333333
1.333333333333333 2 1.333333333333333
0.6666666666666666 1.333333333333333 1.666666666666667
1 1.333333333333333 1.666666666666667
1.333333333333333 1.333333333333333 1.666666666666667
0.6666666666666666 1.666666666666667 1.666666666666667
0.9999999999999999 1.666666666666667 1.666666666666667
1.333333333333333 1.666666666666667 1.666666666666667
0.6666666666666666 2 1.666666666666667
0.9999999999999999 2 1.666666666666667
1.333333333333333 2 1.666666666666667
0.6666666666666666 1.333333333333333 2
1 1.333333333333333 2
1.333333333333333 1.333333333333333 2
0.6666666666666666 1.666666666666667 2
0.9999999999999999 1.666666666666667 2
1.333333333333333 1.666666666666667 2
0.6666666666666666 2 2
1 2 2
1.333333333333333 2 2
0 1.333333333333333 1.333333333333333
0.3333333333333333 1.333333333333333 1.333333333333333
0.6666666666666666 1.333333333333333 1.333333333333333
0 1.666666666666667 1.333333333333333
0.3333333333333333 1.666666666666667 1.333333333333333
0.6666666666666666 1.666666666666667 1.333333333333333
0 2 1.333333333333333
0.3333333333333333 2 1.333333333333333
0.6666666666666666 2 1.333333333333333
0 1.333333333333333 1.666666666666667
0.3333333333333333 1.333333333333333 1.666666666666667
0.6666666666666666 1.333333333333333 1.666666666666667
0 1.666666666666667 1.666666666666667
0.3333333333333333 1.666666666666667 1.666666666666667
0.6666666666666666 1.666666666666667 1.666666666666667
0 2 1.666666666666667
0.3333333333333333 2 1.666666666666667
0.6666666666666666 2 1.666666666666667
0 1.333333333333333 2
0.3333333333333333 1.333333333333333 2
0.6666666666666666 1.333333333333333 2
0 1.666666666666667 2
0.3333333333333333 1.666666666666667 2
0.6666666666666666 1.666666666666667 2
0 2 2
0.3333333333333333 2 2
0.6666666666666666 2 2
0 0.6666666666666666 1.333333333333333
0.3333333333333333 0.6666666666666666 1.333333333333333
0.6666666666666666 0.6666666666666666 1.333333333333333
0 1 1.333333333333333
0.3333333333333333 1 1.333333333333333
0.6666666666666666 1 1.333333333333333
0 1.333333333333333 1.333333333333333
0.3333333333333333 1.333333333333333 1.333333333333333
0.6666666666666666 1.333333333333333 1.333333333333333
0 0.6666666666666666 1.666666666666667
0.3333333333333333 0.6666666666666666 1.666666666666667
0.6666666666666666 0.6666666666666666 1.666666666666667
0 1 1.666666666666667
0.3333333333333333 1 1.666666666666667
0.6666666666666666 1 1.666666666666667
0 1.333333333333333 1.666666666666667
0.3333333333333333 1.333333333333333 1.666666666666667
0.6666666666666666 1.333333333333333 1.666666666666667
0 0.6666666666666666 2
0.3333333333333333 0.6666666666666666 2
0.6666666666666666 0.6666666666666666 2
0 1 2
0.3333333333333333 1 2
0.6666666666666666 1 2
0 1.333333333333333 2
0.3333333333333333 1.333333333333333 2
0.6666666666666666 1.333333333333333 2
0.6666666666666666 0.6666666666666666 1.333333333333333
1 0.6666666666666666 1.333333333333333
1.333333333333333 0.6666666666666666 1.333333333333333
0.6666666666666666 1 1.333333333333333
0.9999999999999999 1 1.333333333333333
1.333333333333333 1 1.333333333333333
0.6666666666666666 1.333333333333333 1.333333333333333
1 1.333333333333333 1.333333333333333
1.333333333333333 1.333333333333333 1.333333333333333
0.6666666666666666 0.6666666666666666 1.666666666666667
1 0.6666666666666666 1.666666666666667
1.333333333333333 0.6666666666666666 1.666666666666667
0.6666666666666666 1 1.666666666666667
0.9999999999999999 1 1.666666666666667
1.333333333333333 1 1.666666666666667
0.6666666666666666 1.333333333333333 1.666666666666667
0.9999999999999999 1.333333333333333 1.666666666666667
1.333333333333333 1.333333333333333 1.666666666666667
0.6666666666666666 0.6666666666666666 2
1 0.6666666666666666 2
1.333333333333333 0.6666666666666666 2
0.6666666666666666 1 2
0.9999999999999999 1 2
1.333333333333333 1 2
0.6666666666666666 1.333333333333333 2
1 1.333333333333333 2
1.333333333333333 1.333333333333333 2
0 0 1.333333333333333
0.3333333333333333 0 1.333333333333333
0.6666666666666666 0 1.333333333333333
0 0.3333333333333333 1.333333333333333
0.3333333333333333 0.3333333333333333 1.333333333333333
0.6666666666666666 0.3333333333333333 1.333333333333333
0 0.6666666666666666 1.333333333333333
0.3333333333333333 0.6666666666666666 1.333333333333333
0.6666666666666666 0.6666666666666666 1.333333333333333
0 0 1.666666666666667
0.3333333333333333 0 1.666666666666667
0.6666666666666666 0 1.666666666666667
0 0.3333333333333333 1.666666666666667
0.3333333333333333 0.3333333333333333 1.666666666666667
0.6666666666666666 0.3333333333333333 1.666666666666667
0 0.6666666666666666 1.666666666666667
0.3333333333333333 0.6666666666666666 1.666666666666667
0.6666666666666666 0.6666666666666666 1.666666666666667
0 0 2
0.3333333333333333 0 2
0.6666666666666666 0 2
0 0.3333333333333333 2
0.3333333333333333 0.3333333333333333 2
0.6666666666666666 0.3333333333333333 2
0 0.6666666666666666 2
0.3333333333333333 0.6666666666666666 2
0.6666666666666666 0.6666666666666666 2
0.6666666666666666 0 1.333333333333333
1 0 1.333333333333333
1.333333333333333 0 1.333333333333333
0.6666666666666666 0.3333333333333333 1.333333333333333
0.9999999999999999 0.3333333333333333 1.333333333333333
1.333333333333333 0.3333333333333333 1.333333333333333
0.6666666666666666 0.6666666666666666 1.333333333333333
1 0.6666666666666666 1.333333333333333
1.333333333333333 0.6666666666666666 1.333333333333333
0.6666666666666666 0 1.666666666666667
1 0 1.666666666666667
1.333333333333333 0 1.666666666666667
0.6666666666666666 0.3333333333333333 1.666666666666667
0.9999999999999999 0.3333333333333333 1.666666666666667
1.333333333333333 0.3333333333333333 1.666666666666667
0.6666666666666666 0.6666666666666666 1.666666666666667
0.9999999999999999 0.6666666666666666 1.666666666666667
1.333333333333333 0.6666666666666666 1.666666666666667
0.6666666666666666 0 2
1 0 2
1.333333333333333 0 2
0.6666666666666666 0.3333333333333333 2
0.9999999999999999 0.3333333333333333 2
1.333333333333333 0.3333333333333333 2
0.6666666666666666 0.6666666666666666 2
1 0.6666666666666666 2
1.333333333333333 0.6666666666666666 2
1.333333333333333 0 1.333333333333333
1.666666666666667 0 1.333333333333333
2 0 1.333333333333333
1.333333333333333 0.3333333333333333 1.333333333333333
1.666666666666667 0.3333333333333333 1.333333333333333
2 0.3333333333333333 1.333333333333333
1.333333333333333 0.6666666666666666 1.333333333333333
1.666666666666667 0.6666666666666666 1.333333333333333
2 0.6666666666666666 1.333333333333333
1.333333333333333 0 1.666666666666667
1.666666666666667 0 1.666666666666667
2 0 1.666666666666667
1.333333333333333 0.3333333333333333 1.666666666666667
1.666666666666667 0.3333333333333333 1.666666666666667
2 0.3333333333333333 1.666666666666667
1.333333333333333 0.6666666666666666 1.666666666666667
1.666666666666667 0.6666666666666666 1.666666666666667
2 0.6666666666666666 1.666666666666667
1.333333333333333 0 2
1.666666666666667 0 2
2 0 2
1.333333333333333 0.3333333333333333 2
1.666666666666667 0.3333333333333333 2
2 0.3333333333333333 2
1.333333333333333 0.6666666666666666 2
1.666666666666667 0.6666666666666666 2
2 0.6666666666666666 2
1.333333333333333 0.6666666666666666 1.333333333333333
1.666666666666667 0.6666666666666666 1.333333333333333
2 0.6666666666666666 1.333333333333333
1.333333333333333 1 1.333333333333333
1.666666666666667 1 1.333333333333333
2 1 1.333333333333333
1.333333333333333 1.333333333333333 1.333333333333333
1.666666666666667 1.333333333333333 1.333333333333333
2 1.333333333333333 1.333333333333333
1.333333333333333 0.6666666666666666 1.666666666666667
1.666666666666667 0.6666666666666666 1.666666666666667
2 0.6666666666666666 1.666666666666667
1.333333333333333 1 1.666666666666667
1.666666666666667 1 1.666666666666667
2 1 1.666666666666667
1.333333333333333 1.333333333333333 1.666666666666667
1.666666666666667 1.333333333333333 1.666666666666667
2 1.333333333333333 1.666666666666667
1.333333333333333 0.6666666666666666 2
1.666666666666667 0.6666666666666666 2
2 0.6666666666666666 2
1.333333333333333 1 2
1.666666666666667 1 2
2 1 2
1.333333333333333 1.333333333333333 2
1.666666666666667 1.333333333333333 2
2 1.333333333333333 2
1.333333333333333 1.333333333333333 1.333333333333333
1.666666666666667 1.333333333333333 1.333333333333333
2 1.333333333333333 1.333333333333333
1.333333333333333 1.666666666666667 1.333333333333333
1.666666666666667 1.666666666666667 1.333333333333333
2 1.666666666666667 1.333333333333333
1.333333333333333 2 1.333333333333333
1.666666666666667 2 1.333333333333333
2 2 1.333333333333333
1.333333333333333 1.333333333333333 1.666666666666667
1.666666666666667 1.333333333333333 1.666666666666667
2 1.333333333333333 1.666666666666667
1.333333333333333 1.666666666666667 1.666666666666667
1.666666666666667 1.666666666666667 1.666666666666667
2 1.666666666666667 1.666666666666667
1.333333333333333 2 1.666666666666667
1.666666666666667 2 1.666666666666667
2 2 1.666666666666667
1.333333333333333 1.333333333333333 2
1.666666666666667 1.333333333333333 2
2 1.333333333333333 2
1.333333333333333 1.666666666666667 2
1.666666666666667 1.666666666666667 2
2 1.666666666666667 2
1.333333333333333 2 2
1.666666666666667 2 2
2 2 2
1.333333333333333 1.333333333333333 0.6666666666666666
1.666666666666667 1.333333333333333 0.6666666666666666
2 1.333333333333333 0.6666666666666666
1.333333333333333 1.666666666666667 0.6666666666666666
1.666666666666667 1.666666666666667 0.6666666666666666
2 1.666666666666667 0.6666666666666666
1.333333333333333 2 0.6666666666666666
1.666666666666667 2 0.6666666666666666
2 2 0.6666666666666666
1.333333333333333 1.333333333333333 1
1.666666666666667 1.333333333333333 1
2 1.333333333333333 1
1.333333333333333 1.666666666666667 1
1.666666666666667 1.666666666666667 0.9999999999999999
2 1.666666666666667 1
1.333333333333333 2 1
1.666666666666667 2 1
2 2 1
1.333333333333333 1.333333333333333 1.333333333333333
1.666666666666667 1.333333333333333 1.333333333333333
2 1.333333333333333 1.333333333333333
1.333333333333333 1.666666666666667 1.333333333333333
1.666666666666667 1.666666666666667 1.333333333333333
2 1.666666666666667 1.333333333333333
1.333333333333333 2 1.333333333333333
1.666666666666667 2 1.333333333333333
2 2 1.333333333333333
1.333333333333333 1.333333333333333 0
1.666666666666667 1.333333333333333 0
2 1.333333333333333 0
1.333333333333333 1.666666666666667 0
1.666666666666667 1.666666666666667 0
2 1.666666666666667 0
1.333333333333333 2 0
1.666666666666667 2 0
2 2 0
1.333333333333333 1.333333333333333 0.3333333333333333
1.666666666666667 1.333333333333333 0.3333333333333333
2 1.333333333333333 0.3333333333333333
1.333333333333333 1.666666666666667 0.3333333333333333
1.666666666666667 1.666666666666667 0.3333333333333333
2 1.666666666666667 0.3333333333333333
1.333333333333333 2 0.3333333333333333
1.666666666666667 2 0.3333333333333333
2 2 0.3333333333333333
1.333333333333333 1.333333333333333 0.6666666666666666
1.666666666666667 1.333333333333333 0.6666666666666666
2 1.333333333333333 0.6666666666666666
1.333333333333333 1.666666666666667 0.6666666666666666
1.666666666666667 1.666666666666667 0.6666666666666666
2 1.666666666666667 0.6666666666666666
1.333333333333333 2 0.6666666666666666
1.666666666666667 2 0.6666666666666666
2 2 0.6666666666666666
1.333333333333333 0.6666666666666666 0
1.666666666666667 0.6666666666666666 0
2 0.6666666666666666 0
1.333333333333333 1 0
1.666666666666667 1 0
2 1 0
1.333333333333333 1.333333333333333 0
1.666666666666667 1.333333333333333 0
2 1.333333333333333 0
1.333333333333333 0.6666666666666666 0.3333333333333333
1.666666666666667 0.6666666666666666 0.3333333333333333
2 0.6666666666666666 0.3333333333333333
1.333333333333333 1 0.3333333333333333
1.666666666666667 1 0.3333333333333333
2 1 0.3333333333333333
1.333333333333333 1.333333333333333 0.3333333333333333
1.666666666666667 1.333333333333333 0.3333333333333333
2 1.333333333333333 0.3333333333333333
1.333333333333333 0.6666666666666666 0.6666666666666666
1.666666666666667 0.6666666666666666 0.6666666666666666
2 0.6666666666666666 0.6666666666666666
1.333333333333333 1 0.6666666666666666
1.666666666666667 1 0.6666666666666666
2 1 0.6666666666666666
1.333333333333333 1.333333333333333 0.6666666666666666
1.666666666666667 1.333333333333333 0.6666666666666666
2 1.333333333333333 0.6666666666666666
1.333333333333333 0.6666666666666666 0.6666666666666666
1.666666666666667 0.6666666666666666 0.6666666666666666
2 0.6666666666666666 0.6666666666666666
1.333333333333333 1 0.6666666666666666
1.666666666666667 1 0.6666666666666666
2 1 0.6666666666666666
1.333333333333333 1.333333333333333 0.6666666666666666
1.666666666666667 1.333333333333333 0.6666666666666666
2 1.333333333333333 0.6666666666666666
1.333333333333333 0.6666666666666666 1
1.666666666666667 0.6666666666666666 1
2 0.6666666666666666 1
1.333333333333333 1 1
1.666666666666667 1 0.9999999999999999
2 1 1
1.333333333333333 1.333333333333333 1
1.666666666666667 1.333333333333333 1
2 1.333333333333333 1
1.333333333333333 0.6666666666666666 1.333333333333333
1.666666666666667 0.6666666666666666 1.333333333333333
2 0.6666666666666666 1.333333333333333
1.333333333333333 1 1.333333333333333
1.666666666666667 1 1.333333333333333
2 1 1.333333333333333
1.333333333333333 1.333333333333333 1.333333333333333
1.666666666666667 1.333333333333333 1.333333333333333
2 1.333333333333333 1.333333333333333
1.333333333333333 0 0.6666666666666666
1.666666666666667 0 0.6666666666666666
2 0 0.6666666666666666
1.333333333333333 0.3333333333333333 0.6666666666666666
1.666666666666667 0.3333333333333333 0.6666666666666666
2 0.3333333333333333 0.6666666666666666
1.333333333333333 0.6666666666666666 0.6666666666666666
1.666666666666667 0.6666666666666666 0.6666666666666666
2 0.6666666666666666 0.6666666666666666
1.333333333333333 0 1
1.666666666666667 0 1
2 0 1
1.333333333333333 0.3333333333333333 1
1.666666666666667 0.3333333333333333 0.9999999999999999
2 0.3333333333333333 1
1.333333333333333 0.6666666666666666 1
1.666666666666667 0.6666666666666666 1
2 0.6666666666666666 1
1.333333333333333 0 1.333333333333333
1.666666666666667 0 1.333333333333333
2 0 1.333333333333333
1.333333333333333 0.3333333333333333 1.333333333333333
1.666666666666667 0.3333333333333333 1.333333333333333
2 0.3333333333333333 1.333333333333333
1.333333333333333 0.6666666666666666 1.333333333333333
1.666666666666667 0.6666666666666666 1.333333333333333
2 0.6666666666666666 1.333333333333333
1.333333333333333 0 0
1.666666666666667 0 0
2 0 0
1.333333333333333 0.3333333333333333 0
1.666666666666667 0.3333333333333333 0
2 0.3333333333333333 0
1.333333333333333 0.6666666666666666 0
1.666666666666667 0.6666666666666666 0
2 0.6666666666666666 0
1.333333333333333 0 0.3333333333333333
1.666666666666667 0 0.3333333333333333
2 0 0.3333333333333333
1.333333333333333 0.3333333333333333 0.3333333333333333
1.666666666666667 0.3333333333333333 0.3333333333333333
2 0.3333333333333333 0.3333333333333333
1.333333333333333 0.6666666666666666 0.3333333333333333
1.666666666666667 0.6666666666666666 0.3333333333333333
2 0.6666666666666666 0.3333333333333333
1.333333333333333 0 0.6666666666666666
1.666666666666667 0 0.6666666666666666
2 0 0.6666666666666666
1.333333333333333 0.3333333333333333 0.6666666666666666
1.666666666666667 0.3333333333333333 0.6666666666666666
2 0.3333333333333333 0.6666666666666666
1.333333333333333 0.6666666666666666 0.6666666666666666
1.666666666666667 0.6666666666666666 0.6666666666666666
2 0.6666666666666666 0.6666666666666666
