MFEM mesh v1.0

#
# MFEM Geometry Types (see fem/geom.hpp):
#
# POINT       = 0
# SEGMENT     = 1
# TRIANGLE    = 2
# SQUARE      = 3
# TETRAHEDRON = 4
# CUBE        = 5
# PRISM       = 6
# PYRAMID     = 7
#

dimension
2

elements
9
1 3 8 6 0 2
1 3 2 0 3 5
1 3 5 3 6 8
1 3 3 4 7 6
1 3 4 5 8 7
1 3 1 2 5 4
1 3 0 1 4 3
1 3 6 7 1 0
1 3 7 8 2 1

boundary
12
1 1 8 6
1 1 6 7
1 1 7 8
3 1 6 8
3 1 7 6
3 1 8 7
4 1 2 8
4 1 5 2
4 1 8 5
2 1 8 2
2 1 2 5
2 1 5 8

vertices
9

nodes
FiniteElementSpace
FiniteElementCollection: L2_T1_2D_P2
VDim: 2
Ordering: 1

0 0
0.3333333333333333 0
0.6666666666666666 0
0 0.3333333333333333
0.3333333333333333 0.3333333333333333
0.6666666666666666 0.3333333333333333
0 0.6666666666666666
0.3333333333333333 0.6666666666666666
0.6666666666666666 0.6666666666666666
0 0.6666666666666666
0.3333333333333333 0.6666666666666666
0.6666666666666666 0.6666666666666666
0 1
0.3333333333333333 1
0.6666666666666666 1
0 1.333333333333333
0.3333333333333333 1.333333333333333
0.6666666666666666 1.333333333333333
0 1.333333333333333
0.3333333333333333 1.333333333333333
0.6666666666666666 1.333333333333333
0 1.666666666666667
0.3333333333333333 1.666666666666667
0.6666666666666666 1.666666666666667
0 2
0.3333333333333333 2
0.6666666666666666 2
0.6666666666666666 1.333333333333333
1 1.333333333333333
1.333333333333333 1.333333333333333
0.6666666666666666 1.666666666666667
0.9999999999999999 1.666666666666667
1.333333333333333 1.666666666666667
0.6666666666666666 2
1 2
1.333333333333333 2
1.333333333333333 1.333333333333333
1.666666666666667 1.333333333333333
2 1.333333333333333
1.333333333333333 1.666666666666667
1.666666666666667 1.666666666666667
2 1.666666666666667
1.333333333333333 2
1.666666666666667 2
2 2
1.333333333333333 0.6666666666666666
1.666666666666667 0.6666666666666666
2 0.6666666666666666
1.333333333333333 1
1.666666666666667 1
2 1
1.333333333333333 1.333333333333333
1.666666666666667 1.333333333333333
2 1.333333333333333
0.6666666666666666 0.6666666666666666
1 0.6666666666666666
1.333333333333333 0.6666666666666666
0.6666666666666666 1
0.9999999999999999 1
1.333333333333333 1
0.6666666666666666 1.333333333333333
1 1.333333333333333
1.333333333333333 1.333333333333333
0.6666666666666666 0
1 0
1.333333333333333 0
0.6666666666666666 0.3333333333333333
0.9999999999999999 0.3333333333333333
1.333333333333333 0.3333333333333333
0.6666666666666666 0.6666666666666666
1 0.6666666666666666
1.333333333333333 0.6666666666666666
1.333333333333333 0
1.666666666666667 0
2 0
1.333333333333333 0.3333333333333333
1.666666666666667 0.3333333333333333
2 0.3333333333333333
1.333333333333333 0.6666666666666666
1.666666666666667 0.6666666666666666
2 0.6666666666666666
