MFEM mesh v1.0

#
# MFEM Geometry Types (see fem/geom.hpp):
#
# POINT       = 0
# SEGMENT     = 1
# TRIANGLE    = 2
# SQUARE      = 3
# TETRAHEDRON = 4
# CUBE        = 5
# PRISM       = 6
# PYRAMID     = 7
#

dimension
2

elements
9
1 3 8 6 0 2
1 3 2 0 3 5
1 3 5 3 6 8
1 3 3 4 7 6
1 3 4 5 8 7
1 3 1 2 5 4
1 3 0 1 4 3
1 3 6 7 1 0
1 3 7 8 2 1

boundary
12
1 1 8 6
1 1 6 7
1 1 7 8
3 1 6 8
3 1 7 6
3 1 8 7
4 1 2 8
4 1 5 2
4 1 8 5
2 1 8 2
2 1 2 5
2 1 5 8

vertices
9

nodes
FiniteElementSpace
FiniteElementCollection: L2_T1_2D_P3
VDim: 2
Ordering: 1

0 0
0.1842621348333474 0
0.4824045318333193 0
0.6666666666666666 0
0 0.1842621348333474
0.1842621348333474 0.1842621348333474
0.4824045318333192 0.1842621348333474
0.6666666666666666 0.1842621348333474
0 0.4824045318333193
0.1842621348333474 0.4824045318333192
0.4824045318333192 0.4824045318333192
0.6666666666666666 0.4824045318333193
0 0.6666666666666666
0.1842621348333474 0.6666666666666666
0.4824045318333193 0.6666666666666666
0.6666666666666666 0.6666666666666666
0 0.6666666666666666
0.1842621348333474 0.6666666666666666
0.4824045318333193 0.6666666666666666
0.6666666666666666 0.6666666666666666
0 0.850928801500014
0.1842621348333474 0.850928801500014
0.4824045318333192 0.8509288015000139
0.6666666666666666 0.850928801500014
0 1.149071198499986
0.1842621348333474 1.149071198499986
0.4824045318333192 1.149071198499986
0.6666666666666666 1.149071198499986
0 1.333333333333333
0.1842621348333474 1.333333333333333
0.4824045318333193 1.333333333333333
0.6666666666666666 1.333333333333333
0 1.333333333333333
0.1842621348333474 1.333333333333333
0.4824045318333193 1.333333333333333
0.6666666666666666 1.333333333333333
0 1.517595468166681
0.1842621348333474 1.517595468166681
0.4824045318333192 1.517595468166681
0.6666666666666666 1.517595468166681
0 1.815737865166652
0.1842621348333474 1.815737865166652
0.4824045318333192 1.815737865166652
0.6666666666666666 1.815737865166652
0 2
0.1842621348333474 2
0.4824045318333193 2
0.6666666666666666 2
0.6666666666666666 1.333333333333333
0.850928801500014 1.333333333333333
1.149071198499986 1.333333333333333
1.333333333333333 1.333333333333333
0.6666666666666666 1.517595468166681
0.8509288015000139 1.517595468166681
1.149071198499986 1.517595468166681
1.333333333333333 1.517595468166681
0.6666666666666666 1.815737865166652
0.850928801500014 1.815737865166652
1.149071198499986 1.815737865166652
1.333333333333333 1.815737865166652
0.6666666666666666 2
0.850928801500014 2
1.149071198499986 2
1.333333333333333 2
1.333333333333333 1.333333333333333
1.517595468166681 1.333333333333333
1.815737865166652 1.333333333333333
2 1.333333333333333
1.333333333333333 1.517595468166681
1.517595468166681 1.517595468166681
1.815737865166652 1.517595468166681
2 1.517595468166681
1.333333333333333 1.815737865166652
1.517595468166681 1.815737865166652
1.815737865166652 1.815737865166652
2 1.815737865166652
1.333333333333333 2
1.517595468166681 2
1.815737865166652 2
2 2
1.333333333333333 0.6666666666666666
1.517595468166681 0.6666666666666666
1.815737865166652 0.6666666666666666
2 0.6666666666666666
1.333333333333333 0.850928801500014
1.517595468166681 0.850928801500014
1.815737865166652 0.8509288015000139
2 0.850928801500014
1.333333333333333 1.149071198499986
1.517595468166681 1.149071198499986
1.815737865166652 1.149071198499986
2 1.149071198499986
1.333333333333333 1.333333333333333
1.517595468166681 1.333333333333333
1.815737865166652 1.333333333333333
2 1.333333333333333
0.6666666666666666 0.6666666666666666
0.850928801500014 0.6666666666666666
1.149071198499986 0.6666666666666666
1.333333333333333 0.6666666666666666
0.6666666666666666 0.850928801500014
0.8509288015000139 0.850928801500014
1.149071198499986 0.8509288015000139
1.333333333333333 0.850928801500014
0.6666666666666666 1.149071198499986
0.850928801500014 1.149071198499986
1.149071198499986 1.149071198499986
1.333333333333333 1.149071198499986
0.6666666666666666 1.333333333333333
0.850928801500014 1.333333333333333
1.149071198499986 1.333333333333333
1.333333333333333 1.333333333333333
0.6666666666666666 0
0.850928801500014 0
1.149071198499986 0
1.333333333333333 0
0.6666666666666666 0.1842621348333474
0.8509288015000139 0.1842621348333474
1.149071198499986 0.1842621348333474
1.333333333333333 0.1842621348333474
0.6666666666666666 0.4824045318333193
0.850928801500014 0.4824045318333192
1.149071198499986 0.4824045318333192
1.333333333333333 0.4824045318333193
0.6666666666666666 0.6666666666666666
0.850928801500014 0.6666666666666666
1.149071198499986 0.6666666666666666
1.333333333333333 0.6666666666666666
1.333333333333333 0
1.517595468166681 0
1.815737865166652 0
2 0
1.333333333333333 0.1842621348333474
1.517595468166681 0.1842621348333474
1.815737865166652 0.1842621348333474
2 0.1842621348333474
1.333333333333333 0.4824045318333193
1.517595468166681 0.4824045318333192
1.815737865166652 0.4824045318333192
2 0.4824045318333193
1.333333333333333 0.6666666666666666
1.517595468166681 0.6666666666666666
1.815737865166652 0.6666666666666666
2 0.6666666666666666
